<?xml version="1.0" encoding="utf-8"?>
<!-- Generator: Adobe Illustrator 25.2.0, SVG Export Plug-In . SVG Version: 6.00 Build 0)  -->
<svg version="1.1" id="Layer_1" xmlns="http://www.w3.org/2000/svg" xmlns:xlink="http://www.w3.org/1999/xlink" x="0px" y="0px"
	 width="688.39px" height="40px" viewBox="0 0 688.39 40" style="enable-background:new 0 0 688.39 40;" xml:space="preserve">
<style type="text/css">
	.st0{enable-background:new    ;}
	.st1{fill:none;stroke:#00B987;stroke-width:3;stroke-miterlimit:10;stroke-dasharray:3,6;}
	.st2{fill:none;stroke:#00B987;stroke-width:2;stroke-miterlimit:10;stroke-dasharray:2,3,2,3,2,3;}
	.st3{fill:none;}
	.st4{fill:url(#SVGID_1_);}
	.st5{fill:url(#SVGID_2_);}
	.st6{fill:url(#SVGID_3_);}
	.st7{fill:url(#SVGID_4_);}
	.st8{fill:url(#SVGID_5_);}
	.st9{fill:url(#SVGID_6_);}
	.st10{fill:url(#SVGID_7_);}
	.st11{fill:url(#SVGID_8_);}
	.st12{fill:url(#SVGID_9_);}
	.st13{fill:url(#SVGID_10_);}
	.st14{fill:none;stroke:url(#SVGID_11_);stroke-width:2;stroke-miterlimit:10;stroke-dasharray:2,3,2,3,2,3;}
	.st15{fill:none;stroke:url(#SVGID_12_);stroke-width:2;stroke-miterlimit:10;stroke-dasharray:2,3,2,3,2,3;}
	.st16{fill:url(#SVGID_13_);}
	.st17{fill:url(#SVGID_14_);}
	.st18{fill:none;stroke:url(#SVGID_15_);stroke-width:2;stroke-miterlimit:10;stroke-dasharray:2,3,2,3,2,3;}
	.st19{fill:url(#SVGID_16_);}
	.st20{fill:url(#SVGID_17_);}
	.st21{fill:none;stroke:url(#SVGID_18_);stroke-width:2;stroke-miterlimit:10;stroke-dasharray:2,3,2,3,2,3;}
	.st22{fill:url(#SVGID_19_);}
	.st23{fill:url(#SVGID_20_);}
	.st24{fill:none;stroke:url(#SVGID_21_);stroke-width:2;stroke-miterlimit:10;stroke-dasharray:2,3,2,3,2,3;}
	.st25{fill:url(#SVGID_22_);}
	.st26{fill:url(#SVGID_23_);}
	.st27{fill:none;stroke:url(#SVGID_24_);stroke-width:2;stroke-miterlimit:10;stroke-dasharray:2,3,2,3,2,3;}
	.st28{fill:url(#SVGID_25_);}
	.st29{fill:url(#SVGID_26_);}
	.st30{fill:none;stroke:url(#SVGID_27_);stroke-width:2;stroke-miterlimit:10;stroke-dasharray:2,3,2,3,2,3;}
	.st31{fill:url(#SVGID_28_);}
	.st32{fill:url(#SVGID_29_);}
	.st33{fill:none;stroke:url(#SVGID_30_);stroke-width:2;stroke-miterlimit:10;stroke-dasharray:2,3,2,3,2,3;}
	.st34{fill:url(#SVGID_31_);}
	.st35{fill:url(#SVGID_32_);}
	.st36{fill:none;stroke:url(#SVGID_33_);stroke-width:2;stroke-miterlimit:10;stroke-dasharray:2,3,2,3,2,3;}
	.st37{fill:url(#SVGID_34_);}
	.st38{fill:url(#SVGID_35_);}
	.st39{fill:none;stroke:url(#SVGID_36_);stroke-width:2;stroke-miterlimit:10;stroke-dasharray:2,3,2,3,2,3;}
	.st40{fill:url(#SVGID_37_);}
	.st41{fill:url(#SVGID_38_);}
	.st42{fill:none;stroke:url(#SVGID_39_);stroke-width:2;stroke-miterlimit:10;stroke-dasharray:2,3,2,3,2,3;}
	.st43{fill:none;stroke:url(#SVGID_40_);stroke-width:2;stroke-miterlimit:10;stroke-dasharray:2,3,2,3,2,3;}
	.st44{fill:none;stroke:#ABABAB;stroke-width:0.5;stroke-miterlimit:10;}
	.st45{fill:none;stroke:#000000;stroke-width:0.5;stroke-miterlimit:10;}
	.st46{fill:url(#SVGID_41_);}
	.st47{fill:url(#SVGID_42_);}
</style>
<g id="New_Symbol_2">
	<g class="st0">
		<path d="M173.77,10.81h3.73c1.14,0,1.71,0.57,1.71,1.71v2.7c0,1.14-0.57,1.71-1.71,1.71h-5.39v13.84c0,0.42-0.2,0.63-0.58,0.63
			c-0.39,0-0.58-0.21-0.58-0.63V12.61c0-1.2,0.6-1.8,1.8-1.8H173.77z M172.11,13.33h5.93v-0.72c0-0.48-0.24-0.72-0.72-0.72h-4.31
			c-0.6,0-0.9,0.3-0.9,0.9V13.33z M172.11,15.84h5.21c0.48,0,0.72-0.24,0.72-0.72v-0.72h-5.93V15.84z M176.24,17.28
			c0.27,0.04,0.43,0.19,0.49,0.45c0,0.19-0.08,0.36-0.22,0.49c-0.33,0.48-0.7,0.89-1.1,1.24c0.36,0.3,0.71,0.63,1.06,0.99
			c0.43-0.57,0.81-1.14,1.12-1.71c0.13-0.18,0.3-0.28,0.49-0.29c0.37,0.01,0.57,0.22,0.58,0.61c0,0.1-0.06,0.25-0.18,0.43
			c-0.33,0.54-0.75,1.09-1.26,1.64c-0.4,0.49-0.92,1.02-1.55,1.57c1.3-0.15,2.28-0.43,2.94-0.85c-0.06-0.13-0.13-0.28-0.22-0.43
			c-0.15-0.17-0.22-0.3-0.22-0.4c0.06-0.21,0.21-0.34,0.45-0.4c0.13,0,0.27,0.06,0.4,0.18c0.24,0.39,0.43,0.73,0.58,1.01
			c0.16,0.33,0.33,0.72,0.49,1.17c0.09,0.12,0.13,0.24,0.13,0.36c-0.03,0.25-0.19,0.4-0.47,0.43c-0.17,0-0.29-0.08-0.38-0.22
			c-0.11-0.31-0.21-0.58-0.31-0.79c-1.09,0.7-2.97,1.06-5.64,1.06c-0.48,0-0.73-0.17-0.74-0.49c0.01-0.31,0.23-0.48,0.65-0.49
			c0.28,0,0.55-0.01,0.81-0.02c0.67-0.55,1.21-1.06,1.62-1.5c-0.06-0.08-0.11-0.16-0.16-0.25c-0.72-0.76-1.48-1.37-2.29-1.82
			c-0.04-0.17-0.08-0.28-0.09-0.34c0.06-0.28,0.22-0.46,0.49-0.52c0.21,0,0.36,0.07,0.45,0.2c0.16,0.09,0.31,0.18,0.43,0.27
			l0.04-0.04c0.4-0.36,0.77-0.78,1.1-1.26C175.88,17.36,176.05,17.28,176.24,17.28z M174.58,24.56c0.39,0,0.58,0.19,0.58,0.56v1.24
			c0,0.42,0.21,0.63,0.63,0.63h2.43v-0.04c0.06-0.6,0.1-1.32,0.13-2.16c0.01-0.31,0.19-0.48,0.54-0.49c0.33,0.01,0.51,0.2,0.54,0.56
			c-0.06,1.56-0.14,2.58-0.25,3.05c-0.13,0.67-0.35,1.22-0.65,1.64c-0.31,0.45-0.77,0.82-1.37,1.1c-0.57,0.31-1.27,0.55-2.11,0.72
			c-0.42-0.01-0.64-0.22-0.65-0.61c0.04-0.3,0.23-0.48,0.56-0.54c0.51-0.12,0.98-0.28,1.42-0.47c0.37-0.17,0.7-0.39,0.99-0.67
			c0.24-0.22,0.43-0.52,0.56-0.9c0.01-0.04,0.03-0.08,0.04-0.11h-2.54c-0.96,0-1.44-0.48-1.44-1.44v-1.5
			C173.99,24.75,174.19,24.56,174.58,24.56z M184.1,17.28c0.25,0.03,0.4,0.17,0.45,0.4c0,0.18-0.07,0.33-0.2,0.45
			c-0.36,0.52-0.76,1-1.19,1.44c0.33,0.28,0.67,0.61,1.01,0.99c0.48-0.6,0.89-1.21,1.24-1.82c0.13-0.18,0.3-0.28,0.49-0.29
			c0.37,0.01,0.57,0.22,0.58,0.61c0,0.1-0.06,0.25-0.18,0.43c-0.33,0.54-0.75,1.09-1.26,1.64c-0.45,0.52-1.04,1.09-1.77,1.68
			c1.48-0.15,2.6-0.5,3.35-1.06c-0.11-0.17-0.21-0.34-0.31-0.52c-0.15-0.17-0.22-0.3-0.22-0.4c0.06-0.21,0.21-0.34,0.45-0.4
			c0.13,0,0.27,0.06,0.4,0.18c0.28,0.42,0.52,0.79,0.7,1.1c0.18,0.36,0.37,0.78,0.58,1.26c0.07,0.12,0.11,0.24,0.11,0.36
			c-0.03,0.25-0.19,0.4-0.47,0.43c-0.17,0-0.29-0.08-0.38-0.22c-0.13-0.33-0.26-0.61-0.38-0.85c-1.14,0.81-3,1.21-5.57,1.21
			c-0.48,0-0.73-0.17-0.74-0.49c0.01-0.31,0.23-0.48,0.65-0.49h0.34c0.7-0.58,1.28-1.1,1.73-1.55c-0.03-0.03-0.05-0.05-0.07-0.07
			c-0.34-0.39-0.68-0.73-1.01-1.01c-0.31-0.27-0.72-0.57-1.21-0.9c-0.17-0.19-0.25-0.35-0.25-0.47c0.06-0.24,0.22-0.39,0.49-0.45
			c0.15,0,0.3,0.07,0.45,0.2c0.18,0.12,0.34,0.23,0.49,0.34c0.48-0.43,0.9-0.93,1.26-1.48C183.77,17.36,183.92,17.28,184.1,17.28z
			 M185.63,10.81h2.83c1.2,0,1.8,0.6,1.8,1.8v16.71c0,1.32-0.66,1.98-1.98,1.98c-0.78,0-1.78-0.14-3.01-0.43
			c-0.27-0.13-0.43-0.32-0.47-0.56c0.01-0.36,0.2-0.57,0.56-0.63c0.04,0,0.15,0.01,0.31,0.04c0.99,0.27,1.83,0.4,2.52,0.4
			c0.6,0,0.9-0.3,0.9-0.9V16.92h-5.48c-1.14,0-1.71-0.57-1.71-1.71v-2.7c0-1.14,0.57-1.71,1.71-1.71H185.63z M182.48,24.33
			c0.37,0.01,0.57,0.21,0.58,0.58v2.16h2.34c0.42,0,0.63-0.21,0.63-0.63v-1.33c0-0.37,0.19-0.56,0.58-0.56
			c0.39,0,0.58,0.19,0.58,0.56v1.59c0,0.96-0.48,1.44-1.44,1.44h-2.7v2.52c-0.02,0.37-0.21,0.57-0.58,0.58
			c-0.38-0.01-0.57-0.21-0.58-0.58v-5.75C181.92,24.54,182.11,24.35,182.48,24.33z M183.07,13.33h6.02v-0.54c0-0.6-0.3-0.9-0.9-0.9
			h-4.4c-0.48,0-0.72,0.24-0.72,0.72V13.33z M189.09,15.84v-1.44h-6.02v0.72c0,0.48,0.24,0.72,0.72,0.72H189.09z"/>
		<path d="M198.48,10.18c0.37,0.01,0.57,0.21,0.58,0.58v2.65h3.82c0.34,0.01,0.52,0.19,0.54,0.54c-0.02,0.34-0.2,0.52-0.54,0.54
			h-6.02v3.77h3.64c1.14,0,1.71,0.57,1.71,1.71c0,2.26-0.08,4.23-0.22,5.91c-0.17,2.1-0.45,3.47-0.85,4.11
			c-0.46,0.75-1.05,1.12-1.75,1.12c-0.63,0-1.41-0.15-2.34-0.45c-0.33-0.1-0.51-0.28-0.54-0.54c0.03-0.45,0.27-0.68,0.72-0.7
			c0.09,0,0.19,0.01,0.31,0.04c0.88,0.28,1.5,0.43,1.84,0.43c0.36,0,0.64-0.24,0.85-0.72c0.19-0.33,0.37-1.28,0.54-2.85
			c0.18-1.56,0.27-3.59,0.27-6.09c0-0.58-0.3-0.88-0.9-0.88h-3.28c-0.02,1.68-0.1,3.14-0.25,4.4c-0.22,1.86-0.61,3.41-1.15,4.67
			c-0.4,0.88-0.87,1.68-1.39,2.38c-0.15,0.13-0.31,0.2-0.49,0.2c-0.33-0.06-0.52-0.25-0.58-0.58c0-0.18,0.07-0.34,0.22-0.47
			c0.49-0.7,0.88-1.38,1.17-2.02c0.49-1.08,0.86-2.42,1.1-4.02c0.19-1.75,0.29-3.52,0.29-5.3V14.5h-1.98
			c-0.34-0.01-0.52-0.19-0.54-0.54c0.01-0.34,0.19-0.52,0.54-0.54h4.09v-2.65C197.91,10.39,198.1,10.2,198.48,10.18z M208.09,10.27
			c0.27,0,0.48,0.13,0.63,0.4c0.7,1.39,1.44,2.54,2.22,3.44c0.81,0.97,1.79,1.83,2.94,2.56c0.21,0.15,0.31,0.34,0.31,0.56
			c-0.04,0.33-0.26,0.52-0.65,0.58c-0.12,0-0.26-0.04-0.43-0.13c-1.02-0.72-1.95-1.58-2.79-2.58c-0.82-0.97-1.57-2.13-2.25-3.48
			c-0.91,1.65-1.8,2.92-2.65,3.82c-0.94,1.03-1.93,1.81-2.96,2.34l-0.22,0.04c-0.34-0.06-0.55-0.25-0.63-0.58
			c0.01-0.28,0.13-0.47,0.36-0.56c1.27-0.66,2.31-1.47,3.1-2.45c0.84-0.9,1.6-2.08,2.29-3.55
			C207.54,10.41,207.78,10.27,208.09,10.27z M203.69,25.64c0.12,0,0.28,0.03,0.49,0.09c3.49,1.02,6.59,2.45,9.3,4.29
			c0.16,0.1,0.25,0.26,0.27,0.47c-0.02,0.4-0.2,0.61-0.54,0.63c-0.15-0.01-0.29-0.04-0.4-0.09c-2.64-1.74-5.68-3.15-9.12-4.25
			c-0.33-0.04-0.51-0.25-0.54-0.61C203.18,25.85,203.36,25.67,203.69,25.64z M205.35,18.54c0.18,0,0.36,0.08,0.54,0.25
			c1.3,0.73,2.38,1.38,3.23,1.93c0.87,0.61,1.79,1.34,2.76,2.18c0.1,0.17,0.16,0.32,0.16,0.47c-0.03,0.34-0.23,0.53-0.61,0.56
			c-0.22,0-0.4-0.1-0.52-0.29c-0.91-0.79-1.8-1.49-2.65-2.09c-0.82-0.57-1.89-1.22-3.21-1.95c-0.2-0.21-0.29-0.38-0.29-0.52
			C204.84,18.79,205.04,18.61,205.35,18.54z"/>
		<path d="M225.27,11.6c0.36,0.01,0.56,0.2,0.61,0.56c0,0.33-0.17,0.53-0.49,0.61c-1.08,0.43-2.07,0.76-2.96,0.99v3.17h6.04
			c-0.13-1.66-0.2-3.61-0.2-5.84c0.01-0.37,0.21-0.57,0.58-0.58c0.37,0.01,0.57,0.21,0.58,0.58c0.03,2.2,0.13,4.15,0.29,5.84h6.49
			c0.34,0.01,0.52,0.19,0.54,0.54c-0.02,0.34-0.2,0.52-0.54,0.54h-6.38c0.13,0.99,0.28,1.87,0.45,2.65c0.31,1.56,0.71,3,1.19,4.31
			c0.91-1.27,1.81-2.88,2.7-4.81c0.13-0.15,0.31-0.24,0.52-0.27c0.34,0.01,0.54,0.2,0.58,0.56c0,0.09-0.03,0.2-0.09,0.34
			c-1.15,2.4-2.21,4.24-3.17,5.53c0.06,0.12,0.11,0.24,0.16,0.36c0.61,1.27,1.21,2.25,1.77,2.94c0.18,0.19,0.4,0.29,0.65,0.29
			c0.19,0,0.36-0.13,0.49-0.4c0.43-0.93,0.7-2.24,0.81-3.93c0.04-0.36,0.24-0.55,0.58-0.56c0.36,0.01,0.56,0.26,0.61,0.74
			c-0.02,0.67-0.11,1.36-0.27,2.04c-0.3,1.38-0.61,2.26-0.94,2.65c-0.24,0.42-0.67,0.64-1.28,0.67c-0.52,0-1-0.18-1.42-0.54
			c-0.76-0.73-1.46-1.78-2.09-3.14c-1.62,1.59-3.19,2.72-4.72,3.39c-0.42,0.17-0.68,0.25-0.79,0.25c-0.39-0.04-0.59-0.24-0.61-0.58
			c0.04-0.24,0.19-0.4,0.43-0.49c2.19-1.09,3.83-2.28,4.92-3.55c0.09-0.1,0.16-0.19,0.22-0.27c-0.02-0.03-0.02-0.05-0.02-0.07
			c-0.82-2.08-1.4-4.28-1.73-6.58c-0.09-0.46-0.17-0.97-0.22-1.53h-6.15v4.16c0.82-0.43,1.59-0.91,2.29-1.44
			c0.13-0.12,0.26-0.19,0.38-0.2c0.36,0.01,0.56,0.19,0.61,0.54c0,0.24-0.11,0.45-0.31,0.63c-0.88,0.63-1.87,1.22-2.96,1.77v5.5
			c0,1.44-0.7,2.16-2.11,2.16c-0.76,0-1.75-0.24-2.96-0.72c-0.18-0.21-0.29-0.37-0.31-0.47c0.01-0.45,0.21-0.68,0.58-0.7
			c0.06,0,0.14,0.01,0.25,0.02c0.85,0.45,1.62,0.68,2.31,0.7c0.72,0,1.08-0.36,1.08-1.08V24c-1.15,0.52-2.37,1-3.66,1.42
			c-0.2,0.08-0.34,0.11-0.43,0.11c-0.33-0.03-0.51-0.2-0.54-0.52c0.01-0.34,0.18-0.55,0.49-0.63c1.81-0.64,3.19-1.19,4.13-1.64V18
			h-4.27c-0.34-0.01-0.52-0.19-0.54-0.54c0.01-0.34,0.19-0.52,0.54-0.54h4.27V14c-0.94,0.18-2.14,0.31-3.59,0.38
			c-0.38-0.01-0.57-0.22-0.58-0.61c0.03-0.33,0.23-0.52,0.61-0.56c1.54-0.08,2.84-0.23,3.91-0.47c1.03-0.19,2.23-0.57,3.59-1.12
			C225.2,11.61,225.23,11.6,225.27,11.6z M231.67,11.62c0.18,0,0.36,0.08,0.54,0.25c0.69,0.52,1.25,0.97,1.68,1.35
			c0.45,0.42,0.93,0.92,1.44,1.5c0.1,0.17,0.16,0.32,0.16,0.47c-0.03,0.34-0.23,0.53-0.61,0.56c-0.22,0-0.4-0.1-0.52-0.29
			c-0.46-0.55-0.91-1.03-1.35-1.44c-0.42-0.39-0.97-0.84-1.64-1.35c-0.2-0.21-0.29-0.38-0.29-0.52
			C231.16,11.88,231.36,11.7,231.67,11.62z"/>
		<path d="M243.04,10.36c0.34,0.03,0.54,0.22,0.58,0.56c-0.25,2.01-0.61,3.66-1.08,4.96v14.73c-0.02,0.37-0.21,0.57-0.58,0.58
			c-0.38-0.01-0.57-0.21-0.58-0.58V18.74c-0.39,0.79-0.85,1.59-1.39,2.38c-0.15,0.19-0.34,0.29-0.58,0.29
			c-0.31-0.09-0.51-0.28-0.58-0.58c0-0.12,0.07-0.28,0.2-0.49c0.94-1.18,1.69-2.57,2.25-4.16c0.49-1.18,0.89-2.96,1.19-5.35
			C242.48,10.55,242.68,10.39,243.04,10.36z M247.26,10.9H250c0.96,0,1.44,0.48,1.44,1.44v6.02c0,0.96-0.48,1.44-1.44,1.44h-3.5
			v10.78c0,0.36-0.2,0.54-0.58,0.54c-0.39,0-0.58-0.18-0.58-0.54V12.34c0-0.96,0.48-1.44,1.44-1.44H247.26z M246.5,14.77h3.77V12.7
			c0-0.48-0.24-0.72-0.72-0.72h-2.34c-0.48,0-0.72,0.24-0.72,0.72V14.77z M246.5,18.72h3.05c0.48,0,0.72-0.24,0.72-0.72v-2.16h-3.77
			V18.72z M258,19.8h-3.59c-0.96,0-1.44-0.48-1.44-1.44v-6.02c0-0.96,0.48-1.44,1.44-1.44h3.32c0.96,0,1.44,0.48,1.44,1.44v16.8
			c0,1.32-0.66,1.98-1.98,1.98c-0.66,0-1.51-0.15-2.56-0.45c-0.27-0.12-0.43-0.3-0.47-0.54c0.01-0.36,0.2-0.57,0.56-0.63
			c0.03,0,0.11,0.01,0.25,0.04c0.81,0.27,1.49,0.4,2.04,0.4c0.66,0,0.99-0.33,0.99-0.99V19.8z M257.28,11.98h-2.43
			c-0.48,0-0.72,0.24-0.72,0.72v2.07H258V12.7C258,12.22,257.76,11.98,257.28,11.98z M258,15.84h-3.86V18
			c0,0.48,0.24,0.72,0.72,0.72H258V15.84z"/>
	</g>
	<g>
		<path d="M295.36,12.72c1.2,0,2.24,0.14,3.12,0.42s1.62,0.67,2.2,1.18c0.58,0.51,1.01,1.12,1.29,1.84s0.42,1.52,0.42,2.39
			c0,0.88-0.15,1.68-0.46,2.41c-0.3,0.73-0.75,1.36-1.34,1.89c-0.59,0.53-1.32,0.94-2.2,1.23c-0.88,0.29-1.89,0.44-3.04,0.44h-2.89
			v6.88h-2.77V12.72H295.36z M295.36,22.33c0.7,0,1.32-0.09,1.85-0.27s0.98-0.44,1.34-0.77s0.63-0.73,0.81-1.2
			c0.18-0.46,0.27-0.98,0.27-1.54c0-1.14-0.35-2.03-1.06-2.68c-0.71-0.65-1.78-0.98-3.22-0.98h-2.89v7.44H295.36z"/>
		<path d="M321.61,31.39h-2.13c-0.24,0-0.44-0.06-0.6-0.18c-0.16-0.12-0.27-0.28-0.34-0.47l-1.65-4.33h-8.23l-1.65,4.33
			c-0.06,0.16-0.17,0.31-0.34,0.45c-0.17,0.13-0.36,0.2-0.6,0.2h-2.13l7.44-18.67h2.79L321.61,31.39z M316.14,24.43l-2.77-7.24
			c-0.2-0.49-0.4-1.12-0.6-1.87c-0.09,0.37-0.19,0.72-0.29,1.04s-0.2,0.61-0.29,0.86l-2.76,7.21H316.14z"/>
		<path d="M335.68,15.76c-0.09,0.15-0.18,0.26-0.27,0.33c-0.09,0.07-0.22,0.1-0.36,0.1c-0.16,0-0.33-0.07-0.53-0.21
			s-0.45-0.3-0.75-0.48c-0.3-0.18-0.66-0.34-1.07-0.48s-0.91-0.21-1.5-0.21c-0.55,0-1.02,0.07-1.44,0.21
			c-0.41,0.14-0.76,0.34-1.03,0.58s-0.49,0.54-0.63,0.87c-0.14,0.33-0.21,0.7-0.21,1.09c0,0.5,0.13,0.92,0.38,1.25
			c0.25,0.33,0.59,0.61,1.01,0.85c0.42,0.23,0.89,0.44,1.42,0.61s1.07,0.35,1.62,0.54s1.1,0.4,1.62,0.64s1,0.55,1.42,0.92
			c0.42,0.37,0.75,0.82,1.01,1.35c0.26,0.53,0.38,1.19,0.38,1.96c0,0.82-0.14,1.59-0.42,2.31c-0.28,0.72-0.69,1.35-1.23,1.88
			c-0.54,0.54-1.2,0.96-1.98,1.27s-1.67,0.46-2.67,0.46c-0.6,0-1.18-0.06-1.74-0.18c-0.56-0.12-1.1-0.28-1.6-0.49
			s-0.97-0.47-1.41-0.77s-0.83-0.63-1.18-1.01l0.79-1.33c0.08-0.1,0.17-0.19,0.28-0.26s0.23-0.1,0.37-0.1c0.18,0,0.39,0.1,0.63,0.29
			c0.24,0.19,0.53,0.4,0.88,0.63c0.35,0.23,0.77,0.44,1.26,0.63c0.49,0.19,1.08,0.29,1.79,0.29c0.57,0,1.08-0.08,1.53-0.23
			c0.45-0.15,0.83-0.37,1.14-0.65c0.31-0.28,0.54-0.62,0.71-1.02c0.17-0.4,0.25-0.84,0.25-1.33c0-0.55-0.13-0.99-0.38-1.34
			s-0.58-0.64-1-0.87c-0.42-0.23-0.89-0.43-1.42-0.6s-1.07-0.34-1.62-0.51c-0.55-0.18-1.1-0.38-1.62-0.62
			c-0.53-0.23-1-0.54-1.42-0.92s-0.75-0.85-1-1.42c-0.25-0.57-0.38-1.27-0.38-2.1c0-0.67,0.13-1.31,0.39-1.94
			c0.26-0.62,0.64-1.18,1.14-1.66s1.11-0.87,1.84-1.16c0.73-0.29,1.56-0.44,2.5-0.44c1.05,0,2.01,0.17,2.89,0.5
			c0.88,0.33,1.64,0.81,2.29,1.44L335.68,15.76z"/>
		<path d="M345.01,20.79h0.91c0.33,0,0.6-0.04,0.8-0.12c0.2-0.08,0.39-0.22,0.55-0.42l5.94-6.9c0.19-0.23,0.38-0.4,0.58-0.49
			c0.2-0.09,0.45-0.14,0.74-0.14h2.37l-6.92,7.96c-0.17,0.23-0.34,0.41-0.51,0.55s-0.34,0.26-0.53,0.35c0.48,0.16,0.89,0.5,1.25,1
			l7.19,8.81h-2.41c-0.17,0-0.32-0.01-0.45-0.04c-0.13-0.03-0.23-0.06-0.33-0.11s-0.17-0.11-0.25-0.18
			c-0.07-0.07-0.14-0.15-0.2-0.25l-6.15-7.28c-0.09-0.11-0.17-0.21-0.26-0.29c-0.09-0.08-0.19-0.14-0.3-0.19
			c-0.11-0.05-0.24-0.08-0.39-0.1c-0.15-0.02-0.32-0.03-0.52-0.03h-1.13v8.46h-2.77V12.72h2.77V20.79z"/>
		<path d="M373.13,31.39h-2.78V12.72h2.78V31.39z"/>
		<path d="M381.47,20.01c0.29-0.3,0.58-0.58,0.9-0.83c0.31-0.25,0.64-0.47,1-0.64c0.35-0.18,0.73-0.32,1.13-0.42
			s0.83-0.15,1.29-0.15c0.73,0,1.37,0.12,1.92,0.36c0.55,0.24,1.01,0.58,1.38,1.02c0.37,0.44,0.65,0.96,0.84,1.58
			c0.19,0.62,0.29,1.3,0.29,2.04v8.41h-2.55v-8.41c0-0.94-0.22-1.68-0.65-2.2s-1.1-0.79-1.99-0.79c-0.65,0-1.26,0.15-1.83,0.46
			s-1.09,0.73-1.58,1.25v9.69h-2.54V18.18h1.52c0.36,0,0.58,0.17,0.66,0.51L381.47,20.01z"/>
		<path d="M399.67,31.59c-1.07,0-1.89-0.3-2.46-0.9s-0.86-1.45-0.86-2.56v-7.9h-1.53c-0.15,0-0.27-0.05-0.37-0.14
			s-0.15-0.23-0.15-0.41v-1.03l2.14-0.3l0.57-3.94c0.03-0.15,0.1-0.26,0.2-0.34c0.1-0.08,0.23-0.12,0.38-0.12h1.29v4.43h3.74v1.85
			h-3.74v7.73c0,0.52,0.13,0.91,0.38,1.16c0.25,0.26,0.58,0.38,0.98,0.38c0.23,0,0.44-0.03,0.6-0.09s0.31-0.13,0.44-0.2
			c0.12-0.07,0.22-0.14,0.31-0.2c0.09-0.06,0.17-0.09,0.23-0.09c0.09,0,0.15,0.02,0.2,0.06s0.1,0.1,0.15,0.19l0.75,1.22
			c-0.42,0.38-0.91,0.68-1.48,0.88C400.88,31.49,400.29,31.59,399.67,31.59z"/>
		<path d="M417.8,29.5c-0.31,0.36-0.67,0.68-1.08,0.94s-0.84,0.48-1.3,0.64c-0.46,0.16-0.93,0.29-1.42,0.36s-0.97,0.12-1.45,0.12
			c-0.91,0-1.75-0.15-2.53-0.46c-0.78-0.31-1.45-0.76-2.02-1.35c-0.57-0.59-1.01-1.33-1.33-2.21c-0.32-0.88-0.47-1.89-0.47-3.04
			c0-0.92,0.14-1.77,0.43-2.57s0.7-1.48,1.23-2.07s1.18-1.05,1.96-1.39c0.77-0.34,1.64-0.51,2.6-0.51c0.81,0,1.55,0.13,2.23,0.4
			c0.68,0.26,1.27,0.65,1.76,1.15c0.49,0.5,0.88,1.12,1.16,1.86c0.28,0.74,0.42,1.58,0.42,2.52c0,0.39-0.04,0.65-0.13,0.79
			c-0.09,0.13-0.25,0.2-0.48,0.2h-8.66c0.03,0.79,0.14,1.48,0.34,2.06s0.47,1.07,0.83,1.46c0.35,0.39,0.77,0.68,1.25,0.87
			c0.49,0.19,1.03,0.29,1.62,0.29c0.56,0,1.05-0.06,1.46-0.2c0.41-0.13,0.77-0.27,1.07-0.42c0.3-0.15,0.55-0.29,0.75-0.42
			c0.2-0.13,0.38-0.2,0.54-0.2c0.21,0,0.37,0.08,0.48,0.23L417.8,29.5z M415.7,23.31c0-0.5-0.07-0.97-0.21-1.39
			c-0.14-0.42-0.35-0.79-0.63-1.1s-0.62-0.55-1.01-0.73s-0.86-0.26-1.38-0.26c-1.07,0-1.9,0.31-2.52,0.92s-1,1.47-1.16,2.56H415.7z"
			/>
		<path d="M425.19,20.71c0.42-0.87,0.94-1.55,1.53-2.04c0.6-0.49,1.32-0.74,2.16-0.74c0.29,0,0.56,0.03,0.81,0.1
			c0.25,0.06,0.48,0.16,0.67,0.29l-0.17,1.91c-0.06,0.23-0.2,0.35-0.43,0.35c-0.12,0-0.3-0.02-0.55-0.07
			c-0.24-0.05-0.5-0.07-0.78-0.07c-0.41,0-0.77,0.06-1.08,0.18c-0.31,0.12-0.59,0.29-0.84,0.52s-0.47,0.51-0.66,0.85
			c-0.19,0.33-0.37,0.71-0.53,1.14v8.27h-2.54V18.18h1.46c0.28,0,0.47,0.05,0.57,0.15s0.17,0.28,0.21,0.53L425.19,20.71z"/>
		<path d="M436.79,20.01c0.29-0.3,0.58-0.58,0.9-0.83c0.31-0.25,0.64-0.47,1-0.64c0.35-0.18,0.73-0.32,1.13-0.42
			s0.83-0.15,1.29-0.15c0.73,0,1.37,0.12,1.92,0.36c0.55,0.24,1.01,0.58,1.38,1.02c0.37,0.44,0.65,0.96,0.84,1.58
			c0.19,0.62,0.29,1.3,0.29,2.04v8.41h-2.55v-8.41c0-0.94-0.22-1.68-0.65-2.2s-1.1-0.79-1.99-0.79c-0.65,0-1.26,0.15-1.83,0.46
			s-1.09,0.73-1.58,1.25v9.69h-2.54V18.18h1.52c0.36,0,0.58,0.17,0.66,0.51L436.79,20.01z"/>
		<path d="M450.7,20.02c0.74-0.7,1.54-1.23,2.4-1.57s1.81-0.52,2.84-0.52c0.75,0,1.42,0.12,2,0.37c0.58,0.25,1.07,0.59,1.47,1.03
			c0.4,0.44,0.7,0.97,0.9,1.59c0.2,0.62,0.31,1.3,0.31,2.04v8.42h-1.13c-0.25,0-0.44-0.04-0.57-0.12c-0.13-0.08-0.23-0.24-0.31-0.46
			l-0.27-1.16c-0.34,0.31-0.67,0.59-1,0.83c-0.33,0.24-0.67,0.44-1.03,0.61c-0.36,0.17-0.74,0.3-1.15,0.38s-0.86,0.13-1.35,0.13
			c-0.52,0-1.01-0.07-1.46-0.21s-0.85-0.36-1.19-0.66c-0.34-0.29-0.6-0.66-0.8-1.1c-0.2-0.44-0.29-0.96-0.29-1.55
			c0-0.52,0.14-1.02,0.42-1.5c0.28-0.48,0.74-0.91,1.38-1.29c0.64-0.38,1.47-0.69,2.5-0.94c1.03-0.24,2.29-0.38,3.79-0.42v-0.96
			c0-1-0.21-1.74-0.64-2.24c-0.42-0.49-1.05-0.74-1.87-0.74c-0.55,0-1.02,0.07-1.4,0.21s-0.7,0.29-0.98,0.46
			c-0.27,0.17-0.51,0.32-0.71,0.46c-0.2,0.14-0.41,0.21-0.63,0.21c-0.17,0-0.32-0.05-0.45-0.14c-0.12-0.1-0.23-0.21-0.3-0.34
			L450.7,20.02z M458.13,25.52c-1.03,0.03-1.91,0.11-2.63,0.24c-0.72,0.13-1.3,0.29-1.75,0.5c-0.45,0.21-0.78,0.45-0.97,0.73
			c-0.2,0.28-0.3,0.6-0.3,0.94c0,0.33,0.05,0.61,0.16,0.85s0.25,0.43,0.44,0.58c0.19,0.15,0.41,0.26,0.66,0.33
			c0.25,0.07,0.52,0.1,0.82,0.1c0.39,0,0.75-0.04,1.07-0.12c0.32-0.08,0.63-0.19,0.92-0.33s0.56-0.32,0.82-0.53
			c0.26-0.21,0.52-0.45,0.77-0.72V25.52z"/>
		<path d="M478.45,31.39h-2.55V20.23h-6.63v7.73c0,0.52,0.13,0.91,0.38,1.16c0.25,0.26,0.58,0.38,0.98,0.38
			c0.23,0,0.44-0.03,0.6-0.09s0.31-0.13,0.44-0.2c0.12-0.07,0.22-0.14,0.31-0.2c0.09-0.06,0.17-0.09,0.23-0.09
			c0.09,0,0.15,0.02,0.2,0.06s0.1,0.1,0.15,0.19l0.75,1.22c-0.42,0.38-0.91,0.68-1.48,0.88c-0.57,0.21-1.17,0.31-1.78,0.31
			c-1.07,0-1.89-0.3-2.46-0.9s-0.86-1.45-0.86-2.56v-7.9h-1.53c-0.15,0-0.27-0.05-0.37-0.14s-0.15-0.23-0.15-0.41v-1.03l2.16-0.3
			l0.56-3.94c0.03-0.15,0.1-0.26,0.2-0.34c0.1-0.08,0.23-0.12,0.38-0.12h1.29v4.43h9.18V31.39z M479.03,14.02
			c0,0.23-0.05,0.46-0.14,0.67c-0.09,0.21-0.22,0.4-0.38,0.56c-0.16,0.16-0.35,0.29-0.57,0.38c-0.22,0.09-0.44,0.14-0.68,0.14
			c-0.23,0-0.45-0.05-0.66-0.14c-0.21-0.09-0.39-0.22-0.55-0.38c-0.16-0.16-0.29-0.35-0.38-0.56c-0.09-0.21-0.14-0.44-0.14-0.67
			c0-0.24,0.05-0.47,0.14-0.69c0.09-0.22,0.22-0.4,0.38-0.57c0.16-0.16,0.34-0.29,0.55-0.38s0.43-0.14,0.66-0.14
			c0.23,0,0.46,0.05,0.68,0.14c0.22,0.09,0.4,0.22,0.57,0.38c0.16,0.16,0.29,0.35,0.38,0.57C478.98,13.55,479.03,13.78,479.03,14.02
			z"/>
		<path d="M489.84,17.97c0.97,0,1.85,0.16,2.63,0.47c0.78,0.32,1.45,0.77,2,1.36c0.55,0.59,0.97,1.31,1.27,2.15
			c0.29,0.84,0.44,1.77,0.44,2.81s-0.15,1.98-0.44,2.82c-0.29,0.84-0.72,1.56-1.27,2.15c-0.55,0.59-1.22,1.04-2,1.36
			c-0.79,0.32-1.66,0.47-2.63,0.47c-0.98,0-1.86-0.16-2.65-0.47s-1.45-0.77-2.01-1.36s-0.98-1.3-1.28-2.15s-0.45-1.78-0.45-2.82
			s0.15-1.98,0.45-2.81c0.3-0.84,0.73-1.55,1.28-2.15c0.55-0.59,1.22-1.05,2.01-1.36S488.86,17.97,489.84,17.97z M489.84,29.59
			c1.25,0,2.18-0.42,2.79-1.26c0.62-0.84,0.92-2.02,0.92-3.55s-0.31-2.71-0.92-3.56c-0.62-0.84-1.55-1.27-2.79-1.27
			c-1.27,0-2.21,0.42-2.83,1.27c-0.62,0.85-0.93,2.03-0.93,3.56s0.31,2.71,0.93,3.55C487.63,29.17,488.58,29.59,489.84,29.59z"/>
		<path d="M503.47,20.01c0.29-0.3,0.58-0.58,0.9-0.83c0.31-0.25,0.64-0.47,1-0.64c0.35-0.18,0.73-0.32,1.13-0.42
			s0.83-0.15,1.29-0.15c0.73,0,1.37,0.12,1.92,0.36c0.55,0.24,1.01,0.58,1.38,1.02c0.37,0.44,0.65,0.96,0.84,1.58
			c0.19,0.62,0.29,1.3,0.29,2.04v8.41h-2.55v-8.41c0-0.94-0.22-1.68-0.65-2.2s-1.1-0.79-1.99-0.79c-0.65,0-1.26,0.15-1.83,0.46
			s-1.09,0.73-1.58,1.25v9.69h-2.54V18.18h1.52c0.36,0,0.58,0.17,0.66,0.51L503.47,20.01z"/>
		<path d="M517.38,20.02c0.74-0.7,1.54-1.23,2.4-1.57s1.81-0.52,2.84-0.52c0.75,0,1.42,0.12,2,0.37c0.58,0.25,1.07,0.59,1.47,1.03
			c0.4,0.44,0.7,0.97,0.9,1.59c0.2,0.62,0.31,1.3,0.31,2.04v8.42h-1.13c-0.25,0-0.44-0.04-0.57-0.12c-0.13-0.08-0.23-0.24-0.31-0.46
			l-0.27-1.16c-0.34,0.31-0.67,0.59-1,0.83c-0.33,0.24-0.67,0.44-1.03,0.61c-0.36,0.17-0.74,0.3-1.15,0.38s-0.86,0.13-1.35,0.13
			c-0.52,0-1.01-0.07-1.46-0.21s-0.85-0.36-1.19-0.66c-0.34-0.29-0.6-0.66-0.8-1.1c-0.2-0.44-0.29-0.96-0.29-1.55
			c0-0.52,0.14-1.02,0.42-1.5c0.28-0.48,0.74-0.91,1.38-1.29c0.64-0.38,1.47-0.69,2.5-0.94c1.03-0.24,2.29-0.38,3.79-0.42v-0.96
			c0-1-0.21-1.74-0.64-2.24c-0.42-0.49-1.05-0.74-1.87-0.74c-0.55,0-1.02,0.07-1.4,0.21s-0.7,0.29-0.98,0.46
			c-0.27,0.17-0.51,0.32-0.71,0.46c-0.2,0.14-0.41,0.21-0.63,0.21c-0.17,0-0.32-0.05-0.45-0.14c-0.12-0.1-0.23-0.21-0.3-0.34
			L517.38,20.02z M524.81,25.52c-1.03,0.03-1.91,0.11-2.63,0.24c-0.72,0.13-1.3,0.29-1.75,0.5c-0.45,0.21-0.78,0.45-0.97,0.73
			c-0.2,0.28-0.3,0.6-0.3,0.94c0,0.33,0.05,0.61,0.16,0.85s0.25,0.43,0.44,0.58c0.19,0.15,0.41,0.26,0.66,0.33
			c0.25,0.07,0.52,0.1,0.82,0.1c0.39,0,0.75-0.04,1.07-0.12c0.32-0.08,0.63-0.19,0.92-0.33s0.56-0.32,0.82-0.53
			c0.26-0.21,0.52-0.45,0.77-0.72V25.52z"/>
		<path d="M535.38,12.2v19.19h-2.55V12.2H535.38z"/>
	</g>
	<line class="st44" x1="265.75" y1="21.7" x2="283.66" y2="21.7"/>
	<rect x="3.91" y="4" class="st45" width="680" height="32"/>
</g>
</svg>
