<?xml version="1.0" encoding="utf-8"?>
<!-- Generator: Adobe Illustrator 25.2.0, SVG Export Plug-In . SVG Version: 6.00 Build 0)  -->
<svg version="1.1" id="Layer_1" xmlns="http://www.w3.org/2000/svg" xmlns:xlink="http://www.w3.org/1999/xlink" x="0px" y="0px"
	 width="688.39px" height="40px" viewBox="0 0 688.39 40" style="enable-background:new 0 0 688.39 40;" xml:space="preserve">
<style type="text/css">
	.st0{fill:url(#SVGID_1_);}
	.st1{fill:url(#SVGID_2_);}
	.st2{fill:none;stroke:url(#SVGID_3_);stroke-width:2;stroke-miterlimit:10;stroke-dasharray:2,3,2,3,2,3;}
	.st3{enable-background:new    ;}
	.st4{fill:none;stroke:#00B987;stroke-width:3;stroke-miterlimit:10;stroke-dasharray:3,6;}
	.st5{fill:none;stroke:#00B987;stroke-width:2;stroke-miterlimit:10;stroke-dasharray:2,3,2,3,2,3;}
	.st6{fill:none;}
	.st7{fill:url(#SVGID_4_);}
	.st8{fill:url(#SVGID_5_);}
	.st9{fill:url(#SVGID_6_);}
	.st10{fill:url(#SVGID_7_);}
	.st11{fill:none;stroke:#ABABAB;stroke-width:0.5;stroke-miterlimit:10;}
	.st12{fill:none;stroke:#000000;stroke-width:0.5;stroke-miterlimit:10;}
	.st13{fill:url(#SVGID_8_);}
	.st14{fill:url(#SVGID_9_);}
</style>
<symbol  id="New_Symbol_1" viewBox="-14.38 -10.5 28.75 21">
	<g id="XMLID_13_">
		<g>
			<linearGradient id="SVGID_1_" gradientUnits="userSpaceOnUse" x1="-33.2483" y1="11.7491" x2="18.4175" y2="-8.9173">
				<stop  offset="5.618000e-03" style="stop-color:#FF2727"/>
				<stop  offset="0.3525" style="stop-color:#FFFF00"/>
				<stop  offset="0.3814" style="stop-color:#F8EE10"/>
				<stop  offset="0.4388" style="stop-color:#E6C13A"/>
				<stop  offset="0.5185" style="stop-color:#C9797D"/>
				<stop  offset="0.5955" style="stop-color:#AA2EC3"/>
				<stop  offset="0.7367" style="stop-color:#4F66C6"/>
				<stop  offset="0.8536" style="stop-color:#0097C9"/>
				<stop  offset="1" style="stop-color:#FFFF00"/>
			</linearGradient>
			<polygon class="st0" points="6.62,0 -3.88,-10.5 -14.38,0 -3.88,10.5 			"/>
			<linearGradient id="SVGID_2_" gradientUnits="userSpaceOnUse" x1="-32.1792" y1="14.4219" x2="19.4867" y2="-6.2444">
				<stop  offset="5.618000e-03" style="stop-color:#FF2727"/>
				<stop  offset="0.2129" style="stop-color:#FFFF00"/>
				<stop  offset="0.2584" style="stop-color:#F8EE10"/>
				<stop  offset="0.3488" style="stop-color:#E6C13A"/>
				<stop  offset="0.4743" style="stop-color:#C9797D"/>
				<stop  offset="0.5955" style="stop-color:#AA2EC3"/>
				<stop  offset="0.78" style="stop-color:#4F66C6"/>
				<stop  offset="0.9327" style="stop-color:#0097C9"/>
				<stop  offset="1" style="stop-color:#FFFF00"/>
			</linearGradient>
			<polygon class="st1" points="3.88,10.5 1.72,8.34 10.06,0 1.72,-8.34 3.88,-10.5 14.38,0 			"/>
		</g>
	</g>
</symbol>
<symbol  id="New_Symbol_4" viewBox="-299.3 -1 606.8 2">
	<linearGradient id="SVGID_3_" gradientUnits="userSpaceOnUse" x1="-299.2997" y1="0" x2="307.5" y2="0">
		<stop  offset="0" style="stop-color:#00B987"/>
		<stop  offset="1" style="stop-color:#FFFFFF"/>
	</linearGradient>
	<line class="st2" x1="-299.3" y1="0" x2="307.5" y2="0"/>
</symbol>
<g id="New_Symbol_2">
	<rect x="-625.41" y="-40.23" class="st6" width="793.62" height="115.56"/>
	<rect x="-625.41" y="10.49" class="st6" width="793.62" height="115.56"/>
	
		<use xlink:href="#New_Symbol_1"  width="28.75" height="21" x="-14.38" y="-10.5" transform="matrix(1 0 0 -1 24.305 19)" style="overflow:visible;"/>
	<g class="st3">
		<path d="M54.1,4.89l2.73,0.6c-0.38,0.84-0.77,1.62-1.15,2.35h16.57c0,7.38-0.09,11.76-0.27,13.12c-0.15,1.08-0.43,1.78-0.85,2.11
			c-0.47,0.42-1.35,0.63-2.62,0.63c-0.6,0-1.3-0.04-2.11-0.11l-0.49-2.73c0.86,0.13,1.73,0.19,2.62,0.19c0.44,0,0.67-0.38,0.71-1.15
			c0.09-0.97,0.15-4.11,0.16-9.43h-15.2c-0.66,1.08-1.31,2.06-1.97,2.95h13.29v8.86H54.37v4.21c0,0.62,0.36,0.93,1.09,0.93h13.12
			c0.75,0,1.29-0.11,1.61-0.33c0.42-0.2,0.69-1.18,0.82-2.95l2.65,0.85c-0.29,2.37-0.78,3.77-1.48,4.21
			c-0.58,0.42-1.66,0.63-3.23,0.63H54.4c-0.84,0-1.5-0.23-2-0.68c-0.51-0.47-0.77-1.1-0.77-1.89V14.19
			c-0.6,0.73-1.19,1.39-1.78,1.97l-2-2.38C50.61,11.11,52.69,8.15,54.1,4.89z M54.37,15.83v4.05h8.42v-4.05H54.37z"/>
		<path d="M78.05,5.33h2.41v2.52h3.77V4.89h2.52V17.8h-2.52v-4.21h-2.52c-0.2,1.13-0.47,2.05-0.82,2.76
			c-0.42,0.86-1.04,1.61-1.86,2.27h9.43c-0.31-0.56-0.65-1.1-1.01-1.61l2.79-0.41c0.35,0.6,0.67,1.28,0.98,2.02h10.34v2.3H91.42
			c0.58,1.24,1.34,2.3,2.27,3.17c1.31-0.62,2.54-1.55,3.69-2.79l1.89,1.86c-1.04,1.02-2.21,1.86-3.5,2.52
			c1.64,0.98,3.61,1.82,5.91,2.52l-1.56,2.52c-3.52-1.37-6.14-2.89-7.88-4.57c-1.6-1.46-2.75-3.2-3.45-5.22h-1.59
			c-0.42,0.47-0.83,0.91-1.23,1.31v4.98c1.49-0.24,3.04-0.54,4.62-0.9v2.46c-3.12,0.67-6.6,1.21-10.45,1.61l-0.36-2.52
			c1.2-0.05,2.42-0.16,3.66-0.33v-3.47c-1.8,1.11-3.87,2.05-6.21,2.82l-1.39-2.27c2.57-0.75,4.58-1.53,6.02-2.35
			c0.75-0.44,1.43-0.88,2.05-1.34h-7.74v-2.3h2.49l-1.39-1.78c0.67-0.49,1.2-1.05,1.59-1.67c0.24-0.44,0.43-0.97,0.57-1.59h-2.71
			v-2.08h7.49v-1.7h-6.18V5.33z M87.78,7.68h5.2V4.89h2.52v2.79h5.74v2.3h-5.74v3.61h4.87v2.3H88.33v-2.3h4.65V9.98h-5.2V7.68z"/>
		<path d="M109.71,12.22l2.13,0.98c-0.82,1.71-1.68,3.14-2.57,4.27v12.91h-2.52V20.09c-0.67,0.62-1.39,1.24-2.16,1.86l-0.85-2.84
			c1.22-0.95,2.3-1.92,3.23-2.93C107.93,15.25,108.84,13.93,109.71,12.22z M110.01,4.89l2.16,1.37c-0.95,1.4-1.86,2.49-2.73,3.25
			c-1,0.97-2.32,1.91-3.94,2.82L104.08,10c1.2-0.51,2.34-1.25,3.42-2.21C108.36,7.04,109.19,6.07,110.01,4.89z M124.4,5l2.65,0.44
			c-0.37,1.6-0.74,2.93-1.12,3.96c1.18,0.78,2.4,1.65,3.64,2.6l-1.59,2.41c-1.26-1.2-2.28-2.12-3.06-2.76
			c-0.6,1.09-1.43,2.23-2.49,3.42h0.14v3.88h5.8v2.52h-5.8v6.37c0.82,0.09,1.74,0.14,2.76,0.14c1.48,0,3-0.07,4.57-0.22l-0.52,2.73
			c-5.2,0-8.49-0.26-9.87-0.77c-1.13-0.31-2.28-1.05-3.45-2.21c-0.55-0.51-1.05-1.14-1.5-1.89c-0.69,1.6-1.54,3.19-2.54,4.76
			l-2.02-1.78c1.33-2.26,2.31-4.27,2.95-6.04c0.53-1.53,0.89-3.52,1.09-5.96l2.52,0.33c-0.22,2.39-0.5,4.26-0.85,5.61
			c0.6,1.53,1.38,2.69,2.32,3.47c0.55,0.51,1.18,0.91,1.91,1.2V15.06h1.91l-1.59-2c1.2-1.22,2.1-2.42,2.68-3.58
			C123.55,8.37,124.03,6.88,124.4,5z M115.98,5.11l2.54,0.41c-0.37,1.35-0.74,2.48-1.12,3.39c1.06,0.77,2.12,1.61,3.2,2.54
			l-1.7,2.52c-1.08-1.24-1.95-2.19-2.62-2.84c-0.67,1.17-1.66,2.37-2.95,3.61l-1.8-2.21c1.31-1.11,2.28-2.21,2.9-3.31
			C115.05,8.19,115.57,6.82,115.98,5.11z"/>
		<path d="M136.02,4.78l2.41,0.52c-0.16,0.38-0.34,0.74-0.52,1.07h6.97v2.08h-3.64c0.29,0.64,0.56,1.3,0.79,2l-2.76,0.25
			c-0.18-0.82-0.37-1.57-0.57-2.24h-2.16c-0.73,0.93-1.54,1.79-2.43,2.57l-2.24-1.42C133.87,8.1,135.25,6.49,136.02,4.78z
			 M143.78,11.12v8.31h-7.98v11.16h-2.41V11.12H143.78z M135.8,14.51h5.58v-1.42h-5.58V14.51z M135.8,17.47h5.58v-1.39h-5.58V17.47z
			 M146.96,11.12h9.41v16.54c0,1.02-0.25,1.77-0.74,2.24c-0.46,0.46-1.19,0.68-2.19,0.68h-2.38l-0.44-1.91h-11.81v-7.98h11.81v7.27
			l2.35,0.08c0.66,0,0.98-0.41,0.98-1.23v-7.38h-8.2v-8.31H146.96z M141.1,23.87h7.22v-1.31h-7.22V23.87z M148.32,26.82v-1.31h-7.22
			v1.31H148.32z M147.61,4.78l2.41,0.52c-0.15,0.38-0.29,0.74-0.44,1.07h7.98v2.08h-4.81c0.35,0.64,0.67,1.3,0.98,2l-2.76,0.25
			c-0.24-0.82-0.51-1.57-0.82-2.24h-1.67c-0.57,0.89-1.2,1.71-1.91,2.46l-2.24-1.42C145.92,8.03,147.01,6.46,147.61,4.78z
			 M148.16,14.51h5.8v-1.42h-5.8V14.51z M148.16,17.47h5.8v-1.39h-5.8V17.47z"/>
		<path d="M174.68,17.19c0,1.7-0.78,3.14-2.35,4.32l-0.98-1.2c0.93-0.75,1.48-1.6,1.64-2.57h-1.91v-3.58h3.61V17.19z"/>
		<path d="M188.3,6.64h8.42v2.43h-3.06v5.66h2.84v2.41h-2.84v6.4c1.15-0.47,2.24-0.96,3.28-1.45v2.65
			c-2.44,1.26-5.24,2.41-8.39,3.45l-0.79-2.62c1.22-0.36,2.39-0.73,3.5-1.09v-7.33h-2.73v-2.41h2.73V9.07h-2.95V6.64z M197.87,16.37
			h14.55v5.8h-5.44c0.6,1.08,1.17,1.94,1.7,2.6c0.86-0.77,1.53-1.52,2.02-2.27l2.11,1.29c-0.55,0.69-1.44,1.53-2.68,2.52
			c0.95,0.77,2.17,1.49,3.66,2.19l-1.39,2.21c-2.06-1.04-3.58-2.11-4.57-3.2c-1.06-1.22-2.11-3-3.14-5.33h-0.82
			c-0.22,0.31-0.43,0.61-0.63,0.9v4.76c1.2-0.18,2.42-0.4,3.66-0.66v2.24c-2.39,0.49-5.05,0.88-7.98,1.18l-0.33-2.3
			c0.78-0.04,1.57-0.1,2.35-0.19v-2.68c-1.39,1.09-2.96,2.01-4.73,2.76l-1.23-2c1.9-0.77,3.38-1.58,4.46-2.43
			c0.62-0.49,1.18-1.02,1.67-1.59h-3.23V16.37z M196.94,13.04h16.52v2.08h-16.52V13.04z M197.6,5.66h15.2v6.23h-15.2V5.66z
			 M202.3,9.92v-2.3H200v2.3H202.3z M209.9,20.2v-1.86h-9.52v1.86H209.9z M206.24,9.92v-2.3h-1.97v2.3H206.24z M210.39,9.92v-2.3
			h-2.19v2.3H210.39z"/>
		<path d="M216.08,12.38h2.84V4.89h2.41v7.49h2.52v2.3h-2.52v7.6c0.97-0.49,1.91-1.04,2.84-1.64v2.6c-2.15,1.37-4.69,2.73-7.6,4.07
			l-0.71-2.95c1.04-0.27,2.06-0.61,3.06-1.01v-8.67h-2.84V12.38z M225.38,14.68h14.77v8.75h-3.99v3.66c0,0.58,0.33,0.88,0.98,0.88
			h1.37c0.29,0,0.5-0.11,0.63-0.33c0.16-0.24,0.27-1.29,0.33-3.17l2.43,0.79c-0.18,2.46-0.5,3.91-0.96,4.35
			c-0.38,0.44-1.08,0.66-2.11,0.66h-2.65c-0.77,0-1.38-0.22-1.83-0.66c-0.47-0.46-0.71-1.06-0.71-1.8v-4.38h-2.46
			c-0.31,1.84-0.99,3.34-2.05,4.48c-1.06,1.18-2.94,2.11-5.63,2.79l-1.07-2.43c2.26-0.47,3.85-1.15,4.76-2.02
			c0.67-0.6,1.15-1.54,1.42-2.82h-3.23V14.68z M233.2,4.89c0.33,0.66,0.63,1.37,0.9,2.13h6.7V9.1h-2.71
			c-0.2,0.78-0.47,1.53-0.82,2.24h4.29v2.19h-17.39v-2.19h4.35c-0.31-0.8-0.64-1.55-0.98-2.24h-2.49V7.02h6.21
			c-0.27-0.6-0.59-1.17-0.96-1.7L233.2,4.89z M227.78,18.23h9.95v-1.48h-9.95V18.23z M237.74,21.35v-1.37h-9.95v1.37H237.74z
			 M231.09,11.34h3.58c0.35-0.73,0.62-1.48,0.82-2.24h-5.17C230.6,9.79,230.86,10.54,231.09,11.34z"/>
		<path d="M244.52,8.23h7.79c0.13-1.06,0.25-2.13,0.36-3.23h2.68c-0.11,1.11-0.24,2.19-0.38,3.23h14.38v2.73h-14.77
			c-0.18,1.28-0.38,2.46-0.6,3.55h12.77v2.05c-0.71,2.94-2.08,5.48-4.1,7.63c-0.09,0.13-0.18,0.23-0.27,0.3
			c2.02,1.4,4.46,2.6,7.3,3.58l-1.61,2.62c-3.21-1.37-5.81-2.84-7.79-4.43c-2.17,1.53-5.1,2.97-8.78,4.32l-1.5-2.73
			c3.46-0.93,6.21-2.06,8.23-3.39c-2.12-2.1-3.61-4.61-4.48-7.55h-0.33c-0.31,1.24-0.65,2.35-1.01,3.34
			c-1.4,3.65-3.49,6.92-6.26,9.82l-1.83-2.32c2.41-2.61,4.28-5.53,5.63-8.78c0.8-2.17,1.47-4.84,2-8.01h-7.41V8.23z M256.49,16.92
			c0.88,2.41,2.13,4.37,3.77,5.88c1.48-1.35,2.67-3.31,3.58-5.88H256.49z"/>
		<path d="M280.23,5c0.58,0.84,1.14,1.77,1.67,2.79h6.23c0.73-0.89,1.28-1.82,1.64-2.79l2.76,0.38c-0.4,0.86-0.95,1.66-1.64,2.41
			h5.91v2.08h-10.72v1.7h10.06v1.97h-10.06v1.7h11.38v2.08H272.3v-2.08h11.16v-1.7h-9.95v-1.97h9.95v-1.7h-10.5V7.79h6.23
			c-0.53-0.86-1.11-1.65-1.75-2.38L280.23,5z M279.68,17.58c0.53,0.62,1.01,1.33,1.45,2.13h7.44c0.64-0.67,1.11-1.38,1.42-2.13
			l2.87,0.41c-0.35,0.64-0.79,1.21-1.34,1.72h5.93v2.08H272.3v-2.08h6.02c-0.31-0.4-0.67-0.81-1.09-1.23L279.68,17.58z
			 M294.99,23.37v7h-2.52V29.5h-15.31v0.88h-2.52v-7H294.99z M277.17,27.53h15.31v-2.19h-15.31V27.53z"/>
	</g>
	
		<use xlink:href="#New_Symbol_4"  width="606.8" height="2" x="-299.3" y="-1" transform="matrix(1 0 0 -1 312.6619 36.6047)" style="overflow:visible;"/>
</g>
</svg>
