<?xml version="1.0" encoding="utf-8"?>
<!-- Generator: Adobe Illustrator 25.2.0, SVG Export Plug-In . SVG Version: 6.00 Build 0)  -->
<svg version="1.1" id="Layer_1" xmlns="http://www.w3.org/2000/svg" xmlns:xlink="http://www.w3.org/1999/xlink" x="0px" y="0px"
	 viewBox="0 0 1200 120" style="enable-background:new 0 0 1200 120;" xml:space="preserve">
<style type="text/css">
	.st0{fill:url(#SVGID_1_);}
	.st1{fill:url(#SVGID_2_);}
	.st2{opacity:0;}
</style>
<symbol  id="New_Symbol" viewBox="-53.24 -38.89 106.48 77.78">
	<linearGradient id="SVGID_1_" gradientUnits="userSpaceOnUse" x1="-53.2931" y1="18.3837" x2="72.7069" y2="-41.0946">
		<stop  offset="0" style="stop-color:#7F47DD"/>
		<stop  offset="0.5169" style="stop-color:#FBAE17"/>
		<stop  offset="1" style="stop-color:#FBAE17"/>
	</linearGradient>
	<polygon class="st0" points="24.54,0 -14.35,-38.89 -53.24,0 -14.35,38.89 	"/>
	<g>
		<linearGradient id="SVGID_2_" gradientUnits="userSpaceOnUse" x1="-48.0636" y1="29.4617" x2="77.9364" y2="-30.0165">
			<stop  offset="0" style="stop-color:#7F47DD"/>
			<stop  offset="0.5169" style="stop-color:#FBAE17"/>
			<stop  offset="1" style="stop-color:#FBAE17"/>
		</linearGradient>
		<polygon class="st1" points="53.24,0 14.35,-38.89 -24.54,0 14.35,38.89 		"/>
		
			<rect x="-29.15" y="-27.5" transform="matrix(0.7071 -0.7071 0.7071 0.7071 -0.4836 -1.1676)" class="st2" width="55" height="55"/>
	</g>
</symbol>
<symbol  id="New_Symbol_1" viewBox="-376.22 -49.21 739.81 92.11">
	<g id="New_Symbol_1_1_">
		<g>
			<g>
				<text transform="matrix(1 0 0 -1 -369.915 -16.2061)" style="fill:#CCCCCC; font-family:'GenYoGothicTW-M'; font-size:60px;">法國專利特許 定位滑軌設計</text>
				<text transform="matrix(1 0 0 -1 -370.0151 -16.106)" style="fill:#CCCCCC; font-family:'GenYoGothicTW-M'; font-size:60px;">法國專利特許 定位滑軌設計</text>
				<text transform="matrix(1 0 0 -1 -370.1152 -16.0059)" style="fill:#CCCCCC; font-family:'GenYoGothicTW-M'; font-size:60px;">法國專利特許 定位滑軌設計</text>
				<text transform="matrix(1 0 0 -1 -370.2153 -15.9058)" style="fill:#CCCCCC; font-family:'GenYoGothicTW-M'; font-size:60px;">法國專利特許 定位滑軌設計</text>
				<text transform="matrix(1 0 0 -1 -370.3154 -15.8057)" style="fill:#CCCCCC; font-family:'GenYoGothicTW-M'; font-size:60px;">法國專利特許 定位滑軌設計</text>
				<text transform="matrix(1 0 0 -1 -370.4155 -15.7056)" style="fill:#CCCCCC; font-family:'GenYoGothicTW-M'; font-size:60px;">法國專利特許 定位滑軌設計</text>
				<text transform="matrix(1 0 0 -1 -370.5156 -15.6055)" style="fill:#CCCCCC; font-family:'GenYoGothicTW-M'; font-size:60px;">法國專利特許 定位滑軌設計</text>
				<text transform="matrix(1 0 0 -1 -370.6157 -15.5054)" style="fill:#CCCCCC; font-family:'GenYoGothicTW-M'; font-size:60px;">法國專利特許 定位滑軌設計</text>
				<text transform="matrix(1 0 0 -1 -370.7158 -15.4053)" style="fill:#CCCCCC; font-family:'GenYoGothicTW-M'; font-size:60px;">法國專利特許 定位滑軌設計</text>
				<text transform="matrix(1 0 0 -1 -370.8159 -15.3052)" style="fill:#CCCCCC; font-family:'GenYoGothicTW-M'; font-size:60px;">法國專利特許 定位滑軌設計</text>
				<text transform="matrix(1 0 0 -1 -370.916 -15.2051)" style="fill:#CCCCCC; font-family:'GenYoGothicTW-M'; font-size:60px;">法國專利特許 定位滑軌設計</text>
				<text transform="matrix(1 0 0 -1 -371.0161 -15.105)" style="fill:#CCCCCC; font-family:'GenYoGothicTW-M'; font-size:60px;">法國專利特許 定位滑軌設計</text>
				<text transform="matrix(1 0 0 -1 -371.1162 -15.0049)" style="fill:#CCCCCC; font-family:'GenYoGothicTW-M'; font-size:60px;">法國專利特許 定位滑軌設計</text>
				<text transform="matrix(1 0 0 -1 -371.2163 -14.9048)" style="fill:#CCCCCC; font-family:'GenYoGothicTW-M'; font-size:60px;">法國專利特許 定位滑軌設計</text>
				<text transform="matrix(1 0 0 -1 -371.3164 -14.8047)" style="fill:#CCCCCC; font-family:'GenYoGothicTW-M'; font-size:60px;">法國專利特許 定位滑軌設計</text>
				<text transform="matrix(1 0 0 -1 -371.4165 -14.7046)" style="fill:#CCCCCC; font-family:'GenYoGothicTW-M'; font-size:60px;">法國專利特許 定位滑軌設計</text>
				<text transform="matrix(1 0 0 -1 -371.5166 -14.6045)" style="fill:#CCCCCC; font-family:'GenYoGothicTW-M'; font-size:60px;">法國專利特許 定位滑軌設計</text>
				<text transform="matrix(1 0 0 -1 -371.6167 -14.5044)" style="fill:#CCCCCC; font-family:'GenYoGothicTW-M'; font-size:60px;">法國專利特許 定位滑軌設計</text>
				<text transform="matrix(1 0 0 -1 -371.7168 -14.4043)" style="fill:#CCCCCC; font-family:'GenYoGothicTW-M'; font-size:60px;">法國專利特許 定位滑軌設計</text>
				<text transform="matrix(1 0 0 -1 -371.8169 -14.3042)" style="fill:#CCCCCC; font-family:'GenYoGothicTW-M'; font-size:60px;">法國專利特許 定位滑軌設計</text>
				<text transform="matrix(1 0 0 -1 -371.917 -14.2041)" style="fill:#CCCCCC; font-family:'GenYoGothicTW-M'; font-size:60px;">法國專利特許 定位滑軌設計</text>
				<text transform="matrix(1 0 0 -1 -372.0171 -14.104)" style="fill:#CCCCCC; font-family:'GenYoGothicTW-M'; font-size:60px;">法國專利特許 定位滑軌設計</text>
				<text transform="matrix(1 0 0 -1 -372.1172 -14.0039)" style="fill:#CCCCCC; font-family:'GenYoGothicTW-M'; font-size:60px;">法國專利特許 定位滑軌設計</text>
				<text transform="matrix(1 0 0 -1 -372.2173 -13.9038)" style="fill:#CCCCCC; font-family:'GenYoGothicTW-M'; font-size:60px;">法國專利特許 定位滑軌設計</text>
				<text transform="matrix(1 0 0 -1 -372.3174 -13.8037)" style="fill:#CCCCCC; font-family:'GenYoGothicTW-M'; font-size:60px;">法國專利特許 定位滑軌設計</text>
				<text transform="matrix(1 0 0 -1 -372.4175 -13.7036)" style="fill:#CCCCCC; font-family:'GenYoGothicTW-M'; font-size:60px;">法國專利特許 定位滑軌設計</text>
				<text transform="matrix(1 0 0 -1 -372.5176 -13.6035)" style="fill:#CCCCCC; font-family:'GenYoGothicTW-M'; font-size:60px;">法國專利特許 定位滑軌設計</text>
				<text transform="matrix(1 0 0 -1 -372.6177 -13.5034)" style="fill:#CCCCCC; font-family:'GenYoGothicTW-M'; font-size:60px;">法國專利特許 定位滑軌設計</text>
				<text transform="matrix(1 0 0 -1 -372.7178 -13.4033)" style="fill:#CCCCCC; font-family:'GenYoGothicTW-M'; font-size:60px;">法國專利特許 定位滑軌設計</text>
				<text transform="matrix(1 0 0 -1 -372.8179 -13.3032)" style="fill:#CCCCCC; font-family:'GenYoGothicTW-M'; font-size:60px;">法國專利特許 定位滑軌設計</text>
				<text transform="matrix(1 0 0 -1 -372.918 -13.2031)" style="fill:#CCCCCC; font-family:'GenYoGothicTW-M'; font-size:60px;">法國專利特許 定位滑軌設計</text>
				<text transform="matrix(1 0 0 -1 -373.0181 -13.103)" style="fill:#CCCCCC; font-family:'GenYoGothicTW-M'; font-size:60px;">法國專利特許 定位滑軌設計</text>
				<text transform="matrix(1 0 0 -1 -373.1182 -13.0029)" style="fill:#CCCCCC; font-family:'GenYoGothicTW-M'; font-size:60px;">法國專利特許 定位滑軌設計</text>
				<text transform="matrix(1 0 0 -1 -373.2183 -12.9028)" style="fill:#CCCCCC; font-family:'GenYoGothicTW-M'; font-size:60px;">法國專利特許 定位滑軌設計</text>
				<text transform="matrix(1 0 0 -1 -373.3184 -12.8027)" style="fill:#CCCCCC; font-family:'GenYoGothicTW-M'; font-size:60px;">法國專利特許 定位滑軌設計</text>
				<text transform="matrix(1 0 0 -1 -373.4185 -12.7026)" style="fill:#CCCCCC; font-family:'GenYoGothicTW-M'; font-size:60px;">法國專利特許 定位滑軌設計</text>
				<text transform="matrix(1 0 0 -1 -373.5186 -12.6025)" style="fill:#CCCCCC; font-family:'GenYoGothicTW-M'; font-size:60px;">法國專利特許 定位滑軌設計</text>
				<text transform="matrix(1 0 0 -1 -373.6187 -12.5024)" style="fill:#CCCCCC; font-family:'GenYoGothicTW-M'; font-size:60px;">法國專利特許 定位滑軌設計</text>
				<text transform="matrix(1 0 0 -1 -373.7188 -12.4023)" style="fill:#CCCCCC; font-family:'GenYoGothicTW-M'; font-size:60px;">法國專利特許 定位滑軌設計</text>
				<text transform="matrix(1 0 0 -1 -373.8188 -12.3022)" style="fill:#CCCCCC; font-family:'GenYoGothicTW-M'; font-size:60px;">法國專利特許 定位滑軌設計</text>
				<text transform="matrix(1 0 0 -1 -373.9189 -12.2021)" style="fill:#CCCCCC; font-family:'GenYoGothicTW-M'; font-size:60px;">法國專利特許 定位滑軌設計</text>
				<text transform="matrix(1 0 0 -1 -374.019 -12.1021)" style="fill:#CCCCCC; font-family:'GenYoGothicTW-M'; font-size:60px;">法國專利特許 定位滑軌設計</text>
				<text transform="matrix(1 0 0 -1 -374.1191 -12.002)" style="fill:#CCCCCC; font-family:'GenYoGothicTW-M'; font-size:60px;">法國專利特許 定位滑軌設計</text>
				<text transform="matrix(1 0 0 -1 -374.2192 -11.9019)" style="fill:#CCCCCC; font-family:'GenYoGothicTW-M'; font-size:60px;">法國專利特許 定位滑軌設計</text>
				<text transform="matrix(1 0 0 -1 -374.3193 -11.8018)" style="fill:#CCCCCC; font-family:'GenYoGothicTW-M'; font-size:60px;">法國專利特許 定位滑軌設計</text>
				<text transform="matrix(1 0 0 -1 -374.4194 -11.7017)" style="fill:#CCCCCC; font-family:'GenYoGothicTW-M'; font-size:60px;">法國專利特許 定位滑軌設計</text>
				<text transform="matrix(1 0 0 -1 -374.5195 -11.6016)" style="fill:#CCCCCC; font-family:'GenYoGothicTW-M'; font-size:60px;">法國專利特許 定位滑軌設計</text>
				<text transform="matrix(1 0 0 -1 -374.6196 -11.5015)" style="fill:#CCCCCC; font-family:'GenYoGothicTW-M'; font-size:60px;">法國專利特許 定位滑軌設計</text>
				<text transform="matrix(1 0 0 -1 -374.7197 -11.4014)" style="fill:#CCCCCC; font-family:'GenYoGothicTW-M'; font-size:60px;">法國專利特許 定位滑軌設計</text>
				<text transform="matrix(1 0 0 -1 -374.8198 -11.3013)" style="fill:#CCCCCC; font-family:'GenYoGothicTW-M'; font-size:60px;">法國專利特許 定位滑軌設計</text>
				<text transform="matrix(1 0 0 -1 -374.9199 -11.2012)" style="fill:#CCCCCC; font-family:'GenYoGothicTW-M'; font-size:60px;">法國專利特許 定位滑軌設計</text>
				<text transform="matrix(1 0 0 -1 -375.02 -11.1011)" style="fill:#CCCCCC; font-family:'GenYoGothicTW-M'; font-size:60px;">法國專利特許 定位滑軌設計</text>
				<text transform="matrix(1 0 0 -1 -375.1201 -11.001)" style="fill:#CCCCCC; font-family:'GenYoGothicTW-M'; font-size:60px;">法國專利特許 定位滑軌設計</text>
				<text transform="matrix(1 0 0 -1 -375.2202 -10.9009)" style="fill:#CCCCCC; font-family:'GenYoGothicTW-M'; font-size:60px;">法國專利特許 定位滑軌設計</text>
				<text transform="matrix(1 0 0 -1 -375.3203 -10.8008)" style="fill:#CCCCCC; font-family:'GenYoGothicTW-M'; font-size:60px;">法國專利特許 定位滑軌設計</text>
				<text transform="matrix(1 0 0 -1 -375.4204 -10.7007)" style="fill:#CCCCCC; font-family:'GenYoGothicTW-M'; font-size:60px;">法國專利特許 定位滑軌設計</text>
				<text transform="matrix(1 0 0 -1 -375.5205 -10.6006)" style="fill:#CCCCCC; font-family:'GenYoGothicTW-M'; font-size:60px;">法國專利特許 定位滑軌設計</text>
				<text transform="matrix(1 0 0 -1 -375.6206 -10.5005)" style="fill:#CCCCCC; font-family:'GenYoGothicTW-M'; font-size:60px;">法國專利特許 定位滑軌設計</text>
				<text transform="matrix(1 0 0 -1 -375.7207 -10.4004)" style="fill:#CCCCCC; font-family:'GenYoGothicTW-M'; font-size:60px;">法國專利特許 定位滑軌設計</text>
				<text transform="matrix(1 0 0 -1 -375.8208 -10.3003)" style="fill:#CCCCCC; font-family:'GenYoGothicTW-M'; font-size:60px;">法國專利特許 定位滑軌設計</text>
				<text transform="matrix(1 0 0 -1 -375.9209 -10.2002)" style="fill:#CCCCCC; font-family:'GenYoGothicTW-M'; font-size:60px;">法國專利特許 定位滑軌設計</text>
				<text transform="matrix(1 0 0 -1 -376.021 -10.1001)" style="fill:#CCCCCC; font-family:'GenYoGothicTW-M'; font-size:60px;">法國專利特許 定位滑軌設計</text>
				<text transform="matrix(1 0 0 -1 -376.1211 -10)" style="fill:#CCCCCC; font-family:'GenYoGothicTW-M'; font-size:60px;">法國專利特許 定位滑軌設計</text>
				<text transform="matrix(1 0 0 -1 -376.2212 -9.8999)" style="fill:#CCCCCC; font-family:'GenYoGothicTW-M'; font-size:60px;">法國專利特許 定位滑軌設計</text>
			</g>
			<g>
				<text transform="matrix(1 0 0 -1 -373.7188 -12.4023)" style="fill:#FFFFFF; font-family:'GenYoGothicTW-M'; font-size:60px;">法國專利特許 定位滑軌設計</text>
				<text transform="matrix(1 0 0 -1 -373.8188 -12.3022)" style="fill:#FFFFFF; font-family:'GenYoGothicTW-M'; font-size:60px;">法國專利特許 定位滑軌設計</text>
				<text transform="matrix(1 0 0 -1 -373.9189 -12.2021)" style="fill:#FFFFFF; font-family:'GenYoGothicTW-M'; font-size:60px;">法國專利特許 定位滑軌設計</text>
				<text transform="matrix(1 0 0 -1 -374.019 -12.1021)" style="fill:#FFFFFF; font-family:'GenYoGothicTW-M'; font-size:60px;">法國專利特許 定位滑軌設計</text>
				<text transform="matrix(1 0 0 -1 -374.1191 -12.002)" style="fill:#FFFFFF; font-family:'GenYoGothicTW-M'; font-size:60px;">法國專利特許 定位滑軌設計</text>
				<text transform="matrix(1 0 0 -1 -374.2192 -11.9019)" style="fill:#FFFFFF; font-family:'GenYoGothicTW-M'; font-size:60px;">法國專利特許 定位滑軌設計</text>
				<text transform="matrix(1 0 0 -1 -374.3193 -11.8018)" style="fill:#FFFFFF; font-family:'GenYoGothicTW-M'; font-size:60px;">法國專利特許 定位滑軌設計</text>
				<text transform="matrix(1 0 0 -1 -374.4194 -11.7017)" style="fill:#FFFFFF; font-family:'GenYoGothicTW-M'; font-size:60px;">法國專利特許 定位滑軌設計</text>
				<text transform="matrix(1 0 0 -1 -374.5195 -11.6016)" style="fill:#FFFFFF; font-family:'GenYoGothicTW-M'; font-size:60px;">法國專利特許 定位滑軌設計</text>
				<text transform="matrix(1 0 0 -1 -374.6196 -11.5015)" style="fill:#FFFFFF; font-family:'GenYoGothicTW-M'; font-size:60px;">法國專利特許 定位滑軌設計</text>
				<text transform="matrix(1 0 0 -1 -374.7197 -11.4014)" style="fill:#FFFFFF; font-family:'GenYoGothicTW-M'; font-size:60px;">法國專利特許 定位滑軌設計</text>
				<text transform="matrix(1 0 0 -1 -374.8198 -11.3013)" style="fill:#FFFFFF; font-family:'GenYoGothicTW-M'; font-size:60px;">法國專利特許 定位滑軌設計</text>
				<text transform="matrix(1 0 0 -1 -374.9199 -11.2012)" style="fill:#FFFFFF; font-family:'GenYoGothicTW-M'; font-size:60px;">法國專利特許 定位滑軌設計</text>
				<text transform="matrix(1 0 0 -1 -375.02 -11.1011)" style="fill:#FFFFFF; font-family:'GenYoGothicTW-M'; font-size:60px;">法國專利特許 定位滑軌設計</text>
				<text transform="matrix(1 0 0 -1 -375.1201 -11.001)" style="fill:#FFFFFF; font-family:'GenYoGothicTW-M'; font-size:60px;">法國專利特許 定位滑軌設計</text>
				<text transform="matrix(1 0 0 -1 -375.2202 -10.9009)" style="fill:#FFFFFF; font-family:'GenYoGothicTW-M'; font-size:60px;">法國專利特許 定位滑軌設計</text>
				<text transform="matrix(1 0 0 -1 -375.3203 -10.8008)" style="fill:#FFFFFF; font-family:'GenYoGothicTW-M'; font-size:60px;">法國專利特許 定位滑軌設計</text>
				<text transform="matrix(1 0 0 -1 -375.4204 -10.7007)" style="fill:#FFFFFF; font-family:'GenYoGothicTW-M'; font-size:60px;">法國專利特許 定位滑軌設計</text>
				<text transform="matrix(1 0 0 -1 -375.5205 -10.6006)" style="fill:#FFFFFF; font-family:'GenYoGothicTW-M'; font-size:60px;">法國專利特許 定位滑軌設計</text>
				<text transform="matrix(1 0 0 -1 -375.6206 -10.5005)" style="fill:#FFFFFF; font-family:'GenYoGothicTW-M'; font-size:60px;">法國專利特許 定位滑軌設計</text>
				<text transform="matrix(1 0 0 -1 -375.7207 -10.4004)" style="fill:#FFFFFF; font-family:'GenYoGothicTW-M'; font-size:60px;">法國專利特許 定位滑軌設計</text>
				<text transform="matrix(1 0 0 -1 -375.8208 -10.3003)" style="fill:#FFFFFF; font-family:'GenYoGothicTW-M'; font-size:60px;">法國專利特許 定位滑軌設計</text>
				<text transform="matrix(1 0 0 -1 -375.9209 -10.2002)" style="fill:#FFFFFF; font-family:'GenYoGothicTW-M'; font-size:60px;">法國專利特許 定位滑軌設計</text>
				<text transform="matrix(1 0 0 -1 -376.021 -10.1001)" style="fill:#FFFFFF; font-family:'GenYoGothicTW-M'; font-size:60px;">法國專利特許 定位滑軌設計</text>
				<text transform="matrix(1 0 0 -1 -376.1211 -10)" style="fill:#FFFFFF; font-family:'GenYoGothicTW-M'; font-size:60px;">法國專利特許 定位滑軌設計</text>
				<text transform="matrix(1 0 0 -1 -376.2212 -9.8999)" style="fill:#FFFFFF; font-family:'GenYoGothicTW-M'; font-size:60px;">法國專利特許 定位滑軌設計</text>
			</g>
			<text transform="matrix(1 0 0 -1 -376.2212 -9.8999)" style="font-family:'GenYoGothicTW-M'; font-size:60px;">法國專利特許 定位滑軌設計</text>
		</g>
	</g>
</symbol>
<use xlink:href="#New_Symbol_1"  width="739.81" height="92.11" id="XMLID_2_" x="-376.22" y="-49.21" transform="matrix(1 0 0 -1 502.4658 72.8864)" style="overflow:visible;"/>
<use xlink:href="#New_Symbol"  width="106.48" height="77.78" id="XMLID_1_" x="-53.24" y="-38.89" transform="matrix(0.7717 0 0 -0.7717 69.305 60)" style="overflow:visible;"/>
</svg>
