<?xml version="1.0" encoding="utf-8"?>
<!-- Generator: Adobe Illustrator 25.2.0, SVG Export Plug-In . SVG Version: 6.00 Build 0)  -->
<svg version="1.1" id="Layer_1" xmlns="http://www.w3.org/2000/svg" xmlns:xlink="http://www.w3.org/1999/xlink" x="0px" y="0px"
	 width="1200px" height="81px" viewBox="0 0 1200 81" style="enable-background:new 0 0 1200 81;" xml:space="preserve">
<style type="text/css">
	.st0{fill:none;}
	.st1{enable-background:new    ;}
	.st2{fill:url(#SVGID_1_);}
	.st3{fill:url(#SVGID_2_);}
</style>
<rect x="121.55" y="10.49" class="st0" width="793.62" height="115.56"/>
<g id="New_Symbol_2">
	<g class="st1">
		<path d="M154.27,61.11c2.22,0.3,4.56,0.42,7.08,0.42c3.18,0,13.08,0,17.16-0.12c-1.08,1.68-2.22,5.1-2.58,7.26h-14.94
			c-11.22,0-19.44-1.86-24.9-10.56c-1.98,4.68-4.62,8.58-8.04,11.52c-1.14-1.26-4.2-3.78-5.82-4.74c6.48-4.86,9.48-13.2,10.56-23.4
			l7.26,0.66c-0.3,2.52-0.78,4.98-1.26,7.26c1.8,4.92,4.56,7.8,8.04,9.6V38.67h-12.78v-6.84h33v6.84h-12.78v7.08h16.44v6.72h-16.44
			V61.11z M131.95,34.83h-7.02v-15h22.26c-0.6-1.68-1.32-3.42-2.1-4.98l7.2-1.98c1.2,2.1,2.46,4.8,3.12,6.96h20.82v15h-7.38v-8.28
			h-36.9V34.83z"/>
		<path d="M202.87,15.81c-1.56,4.08-3.42,8.22-5.58,12.12v41.52h-7.2v-30.3c-1.26,1.56-2.52,3.06-3.78,4.44
			c-0.66-1.8-2.64-5.7-3.84-7.44c5.4-5.4,10.62-13.92,13.68-22.44L202.87,15.81z M237.79,60.27v6.9h-37.62v-6.9h20.88
			c2.04-7.8,4.08-19.44,4.92-28.08l7.44,1.14c-1.5,9-3.72,19.44-5.82,26.94H237.79z M216.37,23.55c-0.42-2.58-1.62-6.42-2.64-9.24
			l6.78-1.68c1.2,2.88,2.4,6.66,3.06,9.12l-6.3,1.8h18.48v6.9h-33.42v-6.9H216.37z M209.41,58.58c-0.48-6.24-1.92-16.74-3.54-24.78
			l6.48-1.44c1.8,7.86,3.48,18.18,4.08,24.24L209.41,58.58z"/>
		<path d="M252.85,42.69c-2.22-1.86-6.84-4.74-10.08-6.78l4.14-4.92c3.18,1.74,7.86,4.38,10.26,6.18L252.85,42.69z M259.27,50.01
			c-2.34,6.06-5.16,12.6-7.92,18.12l-6.48-4.14c2.52-4.44,6-11.58,8.7-18.24L259.27,50.01z M256.21,26.67
			c-2.16-2.04-6.96-5.4-10.2-7.68l4.38-4.74c3.24,2.04,8.1,5.04,10.44,7.02L256.21,26.67z M297.73,42.75h-5.7v20.46
			c0,3-0.66,4.5-2.76,5.4c-1.98,0.96-4.92,0.96-8.94,0.96c-0.3-1.68-1.08-4.02-1.92-5.58c2.34,0.12,5.04,0.12,5.82,0.12
			c0.72,0,1.02-0.24,1.02-1.02v-4.8c-5.28,1.32-10.62,2.7-14.94,3.66l-1.44-3.84c-0.78,4.26-2.22,8.58-4.62,11.88
			c-1.26-1.14-4.2-3.06-5.82-3.72c4.2-5.64,4.68-13.38,4.68-18.9v-4.62h-5.34V31.53h5.64V15.57h28.32v15.96h6V42.75z M290.89,36.99
			h-26.64v2.82h26.64V36.99z M285.25,53.07v-7.74h-15.48v2.16c0,2.7-0.12,5.82-0.6,9c3.3-0.6,7.62-1.56,12.18-2.58
			c-2.94-1.14-7.62-2.4-11.28-2.94l2.22-4.26c4.02,0.42,9.24,1.68,12.06,2.94l-1.92,4.02L285.25,53.07z M269.83,31.53h4.5v-7.8
			h10.74v-2.76h-15.24V31.53z M285.07,31.53v-3.48h-5.04v3.48H285.07z"/>
		<path d="M353.47,62.12c0.24,0,0.54-0.12,0.78-0.36c0.12-0.36,0.3-1.02,0.42-1.74c0.06-1.2,0.18-4.02,0.12-7.38
			c1.2,1.08,3.18,2.22,4.8,2.7c-0.06,3.42-0.3,7.38-0.6,9c-0.42,1.8-1.02,2.82-1.86,3.6c-0.96,0.72-2.28,1.14-3.48,1.14h-3.12
			c-1.56,0-3.12-0.48-4.14-1.68c-0.96-1.02-1.26-2.28-1.26-6.3v-28.8h-3.84v2.58c0,12.3-1.02,25.5-10.62,35.04
			c-1.32-1.38-3.84-3.48-5.58-4.38c1.8-1.74,3.24-3.6,4.44-5.58h-9.72v9.48h-6.6v-9.48h-10.62v-6.18h10.62v-3.54h-8.52V28.59h8.52
			v-3.24h-9.78v-6.18h9.78v-5.64h6.72v5.64h9.54v6.18h-9.54v3.24h8.82v21.66h-8.94v3.54h10.08v5.58c4.32-7.44,4.86-16.08,4.86-24.48
			v-2.58h-4.68v-6.24h4.68V13.59h6.54v12.48h10.38v34.68c0,0.36,0.06,0.78,0.18,0.96c0.18,0.24,0.42,0.42,0.72,0.42H353.47z
			 M310.15,37.11h3.78v-3.54h-3.78V37.11z M310.15,45.33h3.78v-3.54h-3.78V45.33z M323.11,33.57h-3.96v3.54h3.96V33.57z
			 M323.11,41.79h-3.96v3.54h3.96V41.79z"/>
		<path d="M386.35,29.01h-23.4v-5.64h9.9c-0.9-2.28-2.46-5.28-3.84-7.56l5.58-2.58c1.62,2.46,3.48,5.76,4.38,7.98l-4.02,2.16h11.4
			V29.01z M383.89,33.09c5.88-3.24,6.6-7.38,6.6-11.28v-6.42h20.22v13.08c0,1.74,0.12,2.46,0.84,2.46h2.4
			c0.84,0,2.16-0.18,2.94-0.42c0.12,1.8,0.3,4.26,0.48,5.94c-0.84,0.36-2.16,0.42-3.36,0.42h-3.12c-5.64,0-6.72-2.52-6.72-8.46
			v-6.42h-7.2v0.06c0,5.82-1.68,12.54-9.18,16.56c-0.66-1.14-2.52-3.24-3.9-4.44v2.94h-18.36v-5.4h18.36V33.09z M384.01,45.15
			h-18.48v-5.4h18.48V45.15z M416.11,41.01c-1.98,7.38-5.28,13.08-9.6,17.46c3.66,1.92,7.8,3.42,12.42,4.32
			c-1.5,1.44-3.42,4.5-4.38,6.42c-5.28-1.26-9.9-3.24-13.92-5.88c-4.08,2.64-8.76,4.68-13.92,6.06c-0.6-1.5-1.68-3.66-2.76-5.34
			v2.16h-12.3v2.52h-6.06v-20.7h18.36v14.82c4.02-0.96,7.74-2.34,11.04-4.26c-3.12-3.12-5.76-6.9-7.86-11.16l3.9-1.38h-5.58v-6.66
			h25.02l1.2-0.3L416.11,41.01z M377.77,53.73h-6.12v6.72h6.12V53.73z M393.55,46.05c1.74,3.24,4.14,6.06,7.08,8.52
			c2.64-2.4,4.8-5.22,6.42-8.52H393.55z"/>
		<path d="M449.35,29.01h-25.26v-5.64h10.44c-0.9-2.28-2.46-5.28-3.84-7.56l5.58-2.58c1.62,2.46,3.48,5.76,4.38,7.98l-3.96,2.16
			h12.66V29.01z M426.73,37.11v-5.4h20.1v5.4H426.73z M446.71,45.15h-19.98v-5.4h19.98V45.15z M446.95,66.21h-13.98v2.52h-6v-20.7
			h19.98V66.21z M432.97,53.73v6.72h7.8v-6.72H432.97z M478.15,40.41h-11.1v29.1h-7.44v-29.1h-10.5v-7.02h10.5V14.55h7.44v18.84
			h11.1V40.41z"/>
		<path d="M507.61,41.91c-2.34-1.98-7.38-4.8-11.22-6.48l3.78-5.34c3.72,1.44,8.82,3.9,11.4,5.88L507.61,41.91z M498.49,64.04
			c3.24-4.56,7.8-11.94,11.34-18.9l5.28,4.8c-3.18,6.24-7.02,13.08-10.56,18.9L498.49,64.04z M511.09,26.01
			c-2.4-2.04-7.32-4.92-11.16-6.66l3.9-5.28c3.78,1.5,8.88,4.14,11.4,6.06L511.09,26.01z M545.29,69.5
			c-0.42-1.56-1.14-3.42-2.1-5.28c-19.98,2.4-23.04,2.88-25.02,3.9c-0.42-1.56-1.62-5.1-2.52-7.14c1.38-0.42,2.52-1.68,3.9-3.84
			c1.08-1.62,3.96-6.9,6.36-12.84h-11.28v-6.72h14.22v-8.46h-11.82v-6.78h11.82v-8.94h7.26v8.94h12.24v6.78h-12.24v8.46h14.46v6.72
			h-16.32c-2.4,5.46-5.4,10.86-8.34,15.42l14.1-1.44c-1.26-2.16-2.64-4.32-4.02-6.18l5.82-2.88c3.96,5.22,8.34,12.18,9.9,17.04
			L545.29,69.5z"/>
		<path d="M609.73,15.99v53.7h-7.08v-2.52h-37.32v2.52h-6.78v-53.7H609.73z M602.65,60.81v-38.4h-7.44
			c1.92,0.96,3.96,2.34,5.04,3.48l-2.4,2.52h2.88v5.04h-10.74c0.3,3.36,0.66,6.48,1.14,9.18c1.2-2.34,2.1-4.8,2.82-7.5l5.46,1.08
			c-1.44,5.22-3.6,9.78-6.3,13.74c0.78,1.8,1.68,2.94,2.76,3.18c0.66,0.24,1.14-2.1,1.38-5.58c1.08,1.08,3.24,2.7,4.44,3.36
			c-0.96,7.38-4.08,9.66-8.04,7.86c-1.8-0.6-3.3-1.98-4.5-3.96c-1.92,1.92-3.96,3.66-6.24,5.1c-0.78-1.08-2.7-3.36-3.9-4.32
			c0.66-0.36,1.32-0.78,1.92-1.2c-4.8,0.72-9.48,1.38-13.44,2.04l-0.66-5.22c4.38-0.48,10.62-1.2,16.86-2.04l0.12,3
			c1.08-0.9,2.04-1.92,3-3c-1.26-4.32-2.04-9.78-2.58-15.72h-16.68v-5.04h16.26c-0.12-1.68-0.18-3.36-0.3-5.1h5.88
			c0.06,1.74,0.12,3.42,0.24,5.1h6.48c-1.26-1.08-3.06-2.34-4.62-3.18l2.82-2.82h-28.98v38.4H602.65z M582.43,47.43h-13.38v-11.4
			h13.38V47.43z M577.63,39.81h-4.02v3.84h4.02V39.81z"/>
		<path d="M671.47,56.79h-13.38v5.82c0,3.3-0.6,4.98-3.06,5.94c-2.4,0.9-5.76,0.96-10.32,0.96c-0.3-1.92-1.2-4.44-2.04-6.24
			c2.88,0.12,6.3,0.12,7.26,0.12c0.96-0.06,1.26-0.24,1.26-1.02v-5.58h-16.92c2.52,1.8,5.04,3.9,6.42,5.52l-5.28,4.56
			c-1.74-2.34-5.76-5.76-9-7.98l2.52-2.1h-12v-5.64h34.26v-2.22c-11.82,0.24-23.16,0.42-31.56,0.48l-0.18-5.1
			c5.64,0.06,13.02,0,21.12,0v-2.16h-17.28V24.87h17.28v-2.16h-22.02v-5.4h22.02v-3.78h6.96v3.78h21.9v5.4h-21.9v2.16h18.12v17.28
			h-4.02c3,1.56,5.82,3.36,7.74,4.8l-4.38,3.66c-0.72-0.6-1.56-1.32-2.52-1.98l-4.38,0.12v2.4h13.38V56.79z M629.95,31.41h10.62
			v-2.22h-10.62V31.41z M640.57,37.77v-2.28h-10.62v2.28H640.57z M647.53,29.19v2.22h11.16v-2.22H647.53z M658.69,37.77v-2.28
			h-11.16v2.28H658.69z M647.53,44.25l7.56-0.06c-0.84-0.36-1.68-0.78-2.46-1.08l1.2-0.96h-6.3V44.25z"/>
		<path d="M695.59,31.23h10.8v6.6h-10.8v2.1c3,2.4,8.88,7.68,10.44,9.12l-4.08,6.06c-1.5-1.86-4.02-4.74-6.36-7.32v21.6h-7.2V48.21
			c-2.64,5.4-5.76,10.38-9,13.8c-0.72-2.16-2.52-5.16-3.66-7.02c4.26-4.14,8.7-10.92,11.4-17.16h-10.08v-6.6h11.34v-7.38
			c-3.36,0.66-6.72,1.2-9.9,1.62c-0.3-1.62-1.26-4.08-2.1-5.58c8.7-1.32,18.3-3.54,24.12-6.18l5.04,5.46
			c-2.94,1.2-6.36,2.22-9.96,3.12V31.23z M716.95,54.27h-7.14V20.73h7.14V54.27z M729.67,14.49v46.14c0,4.26-0.84,6.12-3.3,7.32
			c-2.46,1.2-6.42,1.44-11.94,1.44c-0.3-2.1-1.38-5.4-2.46-7.44c3.9,0.18,7.8,0.18,9,0.18c1.14-0.06,1.62-0.36,1.62-1.56V14.49
			H729.67z"/>
		<path d="M789.79,37.23c0,0-0.06,2.04-0.12,2.88c-0.6,17.4-1.26,24.18-3.06,26.46c-1.32,1.74-2.64,2.28-4.56,2.58
			c-1.74,0.3-4.5,0.36-7.5,0.24c-0.12-1.74-0.66-4.02-1.44-5.82h-14.16v3.54h-6.6V46.95h23.64v15.96c0.96,0,1.8,0,2.34,0
			c0.9,0.06,1.44-0.18,1.98-0.84c1.02-1.2,1.68-6.06,2.1-18.66h-33.3c-0.9,8.58-3.06,17.88-7.8,24.54c-1.2-1.32-4.14-3.72-5.76-4.5
			c6.6-9.36,7.2-23.04,7.2-32.58V16.23h42.6v17.16h-35.58c-0.06,1.2-0.06,2.52-0.18,3.84H789.79z M749.77,22.23v5.16h28.44v-5.16
			H749.77z M769.33,52.59h-10.38v5.34h10.38V52.59z"/>
		<path d="M817.69,29.01h-21.6v-5.64h8.7c-0.72-2.28-1.98-5.28-3.12-7.62l6-2.1c1.38,2.58,2.94,5.94,3.66,8.16l-4.02,1.56h10.38
			V29.01z M816.25,60.5c1.5-3.3,2.46-7.74,2.94-11.76l4.98,1.44c-0.66,4.74-1.68,10.38-3.78,13.8l-4.14-1.74v4.08h-12.6v2.4h-5.88
			V48.21h18.48V60.5z M816.43,37.17h-18.6v-5.4h18.6V37.17z M797.83,39.93h18.6v5.34h-18.6V39.93z M810.31,53.85h-6.66v6.9h6.66
			V53.85z M837.85,21.51c-1.2,10.44-4.26,19.2-15.6,24.48c-0.78-1.62-2.52-3.9-3.96-5.04c4.38-1.86,7.32-4.32,9.24-7.2
			c-2.28-2.22-5.76-5.22-8.28-7.44l3.78-3.78c2.1,1.68,4.86,3.84,7.08,5.76c0.66-2.1,1.08-4.38,1.38-6.78h-11.52v-6h30.6
			c0,0-0.06,1.92-0.18,2.7c-0.6,14.94-1.32,20.76-2.94,22.74c-1.14,1.56-2.52,2.1-4.38,2.4c-1.62,0.24-4.26,0.24-6.96,0.12
			c-0.18-1.86-0.9-4.44-1.86-6.12c2.28,0.18,4.5,0.24,5.58,0.24c0.78,0,1.32-0.12,1.92-0.72c0.84-1.08,1.44-5.22,1.92-15.36H837.85z
			 M837.73,62.67c1.74,0,2.04-0.96,2.22-7.26c1.32,0.96,3.84,1.86,5.46,2.28c-0.6,8.34-2.22,10.5-7.02,10.5h-6.6
			c-5.88,0-7.32-1.8-7.32-7.44V47.67h6.12v13.02c0,1.74,0.3,1.98,2.1,1.98H837.73z M833.77,42.63c2.64,2.7,5.46,6.36,6.66,8.88
			l-4.44,3.06c-1.2-2.46-3.9-6.36-6.36-9.18L833.77,42.63z M847.33,46.23c2.22,4.08,4.5,9.36,5.22,12.84l-5.22,1.92
			c-0.6-3.42-2.64-8.82-4.8-13.02L847.33,46.23z"/>
		<path d="M906.01,54.63c-1.38,2.76-2.82,5.64-4.08,7.86h9.54v5.7h-34.08v-5.7h9.06c-0.42-2.16-1.56-5.16-2.88-7.5l5.58-1.5h-7.08
			V39.33c-0.6,0.48-1.2,0.96-1.86,1.44c-0.9-1.38-2.82-3.66-4.14-4.74c2.1-1.38,4.08-3.36,5.76-5.7c-1.38-1.14-3.18-2.4-4.8-3.3
			v1.98h-20.82v-5.64h9.54c-1.02-2.28-2.64-5.28-4.02-7.56l4.86-2.94c1.68,2.46,3.66,5.76,4.62,7.92l-3.66,2.58h9.48v3.3l3.54-4.26
			c1.38,0.72,2.94,1.62,4.32,2.52c0.54-1.26,1.08-2.58,1.5-3.96h-7.2v-5.58h9.48l1.14-0.24l4.14,1.32
			c-0.96,5.04-2.52,9.54-4.56,13.44h10.2c-2.4-4.44-4.14-9.6-5.4-15.18l5.88-1.08c0.3,1.32,0.66,2.64,1.08,3.9
			c1.2-1.08,2.34-2.22,3.18-3.12l4.2,3.9c-1.74,1.5-3.78,3.06-5.46,4.26c0.3,0.78,0.66,1.56,1.08,2.28c1.44-1.08,3-2.28,3.96-3.24
			l4.02,3.9c-1.74,1.32-3.6,2.52-5.34,3.54c1.8,2.4,3.84,4.32,6.24,5.76c-1.56,1.2-3.72,3.6-4.68,5.22
			c-0.66-0.48-1.32-0.96-1.92-1.44v14.88h-5.52L906.01,54.63z M875.41,66.15h-11.58v2.52h-5.4V48.03h16.98V66.15z M875.11,37.11
			h-16.56v-5.4h16.56V37.11z M858.55,39.75h16.56v5.4h-16.56V39.75z M863.83,53.73v6.72h6.06v-6.72H863.83z M887.11,33.57
			c-1.2,1.74-2.46,3.3-3.9,4.68h22.86c-1.68-1.44-3.06-3.12-4.38-5.04v2.34h-14.58V33.57z M888.07,48.15h12.06v-4.5h-12.06V48.15z
			 M889.63,53.49c1.5,2.46,2.88,5.76,3.24,7.86l-3.96,1.14h6.72c1.08-2.58,2.52-6.24,3.24-9H889.63z"/>
	</g>
</g>
<g id="XMLID_1_">
	<g>
		<linearGradient id="SVGID_1_" gradientUnits="userSpaceOnUse" x1="18.6087" y1="40.5" x2="141.3505" y2="40.5">
			<stop  offset="0" style="stop-color:#7F47DD"/>
			<stop  offset="0.5169" style="stop-color:#FBAE17"/>
			<stop  offset="1" style="stop-color:#FBAE17"/>
		</linearGradient>
		<polygon class="st2" points="86.97,40.5 58.97,68.5 30.97,40.5 58.97,12.5 		"/>
		<linearGradient id="SVGID_2_" gradientUnits="userSpaceOnUse" x1="18.6087" y1="40.5" x2="141.3505" y2="40.5">
			<stop  offset="0" style="stop-color:#7F47DD"/>
			<stop  offset="0.5169" style="stop-color:#FBAE17"/>
			<stop  offset="1" style="stop-color:#FBAE17"/>
		</linearGradient>
		<polygon class="st3" points="79.64,12.5 73.88,18.26 96.12,40.5 73.88,62.74 79.64,68.5 107.64,40.5 		"/>
	</g>
</g>
</svg>
