<?xml version="1.0" encoding="utf-8"?>
<!-- Generator: Adobe Illustrator 25.2.0, SVG Export Plug-In . SVG Version: 6.00 Build 0)  -->
<svg version="1.1" id="Layer_1" xmlns="http://www.w3.org/2000/svg" xmlns:xlink="http://www.w3.org/1999/xlink" x="0px" y="0px"
	 width="1200px" height="81px" viewBox="0 0 1200 81" style="enable-background:new 0 0 1200 81;" xml:space="preserve">
<style type="text/css">
	.st0{fill:none;}
	.st1{enable-background:new    ;}
	.st2{fill:none;stroke:#00B987;stroke-width:3;stroke-miterlimit:10;stroke-dasharray:3,6;}
	.st3{fill:url(#SVGID_1_);}
	.st4{fill:url(#SVGID_2_);}
	.st5{fill:url(#SVGID_3_);}
	.st6{fill:url(#SVGID_4_);}
</style>
<rect x="121.55" y="10.49" class="st0" width="793.62" height="115.56"/>
<g id="New_Symbol_2">
	<g class="st1">
		<path d="M143.78,51.71c1.89,0.26,3.91,0.39,6.06,0.39c6.05,0,9.89-0.03,11.52-0.09c-0.32,0.46-0.62,1.1-0.92,1.91
			c-0.3,0.82-0.49,1.53-0.58,2.13h-10.23c-3.04,0-5.68-0.22-7.93-0.67c-2.25-0.45-4.26-1.26-6.04-2.45
			c-1.78-1.19-3.3-2.87-4.56-5.05c-1.46,3.76-3.48,6.74-6.06,8.94c-0.32-0.34-0.82-0.8-1.5-1.38c-0.69-0.57-1.29-1.03-1.81-1.38
			c2.26-1.69,4.01-3.96,5.25-6.82c1.23-2.85,2.09-6.27,2.58-10.26l4.13,0.39c-0.26,2.01-0.6,3.88-1.03,5.63
			c0.72,1.92,1.66,3.5,2.84,4.73c1.17,1.23,2.56,2.18,4.17,2.84V33.91h-9.93v-3.83h24.21v3.83h-10.15v6.32h12.3v3.74h-12.3V51.71z
			 M127.75,25.57v6.11h-3.91v-9.89h15.74v-4.6h4.26v4.6h15.91v9.89h-4.08v-6.11H127.75z"/>
		<path d="M178.61,18.43c-1.15,2.9-2.55,5.76-4.21,8.6v29.45h-3.78V32.75c-1.46,1.92-2.87,3.55-4.21,4.9
			c-0.2-0.46-0.52-1.1-0.97-1.91c-0.44-0.82-0.85-1.54-1.23-2.17c2.12-1.98,4.13-4.41,6.02-7.31c1.89-2.9,3.44-5.91,4.64-9.03
			L178.61,18.43z M204.72,50.89v3.78h-27.91v-3.78h14.45c0.89-2.64,1.79-5.83,2.71-9.57c0.92-3.74,1.62-7.13,2.11-10.17l4.3,0.73
			c-0.72,3.3-1.55,6.67-2.49,10.11c-0.95,3.44-1.86,6.41-2.75,8.9H204.72z M177.75,25.22h10.62v-7.57h4.04v7.57h11.31v3.78h-25.97
			V25.22z M183.95,49.22c-0.14-2.18-0.49-4.89-1.03-8.13c-0.54-3.24-1.18-6.23-1.89-8.99l3.61-0.65c0.77,2.81,1.47,5.8,2.09,8.99
			c0.62,3.18,1.01,5.82,1.18,7.91L183.95,49.22z"/>
		<path d="M215.68,36.45c-0.8-0.72-1.95-1.51-3.44-2.37c-1.49-0.86-2.94-1.59-4.34-2.19l2.19-3.01c1.4,0.54,2.86,1.21,4.36,2
			c1.5,0.79,2.69,1.51,3.55,2.17L215.68,36.45z M209.19,53.47c1.12-1.75,2.38-3.88,3.78-6.41c1.4-2.52,2.67-4.97,3.78-7.35
			l3.05,2.54c-2.35,5.05-4.74,9.63-7.18,13.76L209.19,53.47z M217.87,25.09c-0.77-0.75-1.89-1.57-3.33-2.47
			c-1.45-0.9-2.87-1.67-4.28-2.3l2.19-2.88c1.38,0.54,2.8,1.24,4.28,2.09c1.48,0.85,2.63,1.63,3.46,2.34L217.87,25.09z M242.9,30.13
			h4.21v7.52h-3.83v-4.43h-20.12v4.43h-3.65v-7.52h4.17V18.65h19.22V30.13z M242.9,52.83c0,0.95-0.12,1.66-0.34,2.13
			c-0.23,0.47-0.66,0.84-1.29,1.1c-0.57,0.26-1.3,0.42-2.19,0.47c-0.89,0.06-2.24,0.09-4.04,0.09c-0.09-0.46-0.24-0.99-0.45-1.59
			c-0.21-0.6-0.44-1.12-0.67-1.55c1.49,0.06,2.54,0.09,3.14,0.09l1.38-0.04c0.29,0,0.49-0.05,0.6-0.15c0.11-0.1,0.17-0.28,0.17-0.54
			v-3.05h-11.91v6.84h-3.7V35.84h19.31V52.83z M227.29,21.78v8.34h3.83v-5.85h8v-2.49H227.29z M239.2,38.98h-11.91v2.41h11.91V38.98
			z M227.29,46.85h11.91v-2.49h-11.91V46.85z M239.12,30.13v-3.27h-4.9v3.27H239.12z"/>
		<path d="M270.42,49.48h-7.65v7.09h-3.74v-7.09h-8v-3.57h8v-2.97h-6.36V27.85h6.36v-2.88h-7.35v-3.48h7.35v-4.34h3.78v4.34h7.18
			v3.48h-7.18v2.88h6.62v15.09h-6.67v2.97h7.65V49.48z M255.76,30.73V34h3.61v-3.27H255.76z M255.76,36.75v3.27h3.61v-3.27H255.76z
			 M266.16,34v-3.27h-3.78V34H266.16z M266.16,40.02v-3.27h-3.78v3.27H266.16z M287.23,52.4c0.34,0,0.59-0.09,0.73-0.26
			c0.2-0.31,0.31-0.72,0.34-1.2c0.11-1.26,0.16-3.01,0.13-5.25c0.66,0.63,1.59,1.16,2.79,1.59c-0.11,3.27-0.26,5.29-0.43,6.06
			c-0.2,1.09-0.6,1.86-1.2,2.32c-0.63,0.4-1.38,0.6-2.24,0.6h-2.02c-1.12,0-1.99-0.32-2.62-0.95c-0.32-0.34-0.52-0.77-0.62-1.29
			c-0.1-0.52-0.15-1.4-0.15-2.67V29.82h-3.83v1.5c0,3.58-0.18,6.8-0.54,9.65c-0.36,2.85-1.13,5.65-2.3,8.41
			c-1.18,2.75-2.92,5.23-5.25,7.44c-0.32-0.37-0.78-0.81-1.4-1.31c-0.62-0.5-1.17-0.9-1.66-1.18c2.15-2.04,3.77-4.29,4.86-6.77
			c1.09-2.48,1.8-4.99,2.13-7.53c0.33-2.54,0.49-5.44,0.49-8.71v-1.5h-4.04V26.3h4.04v-9.07h3.65v9.07h7.48v25.11
			c0,0.29,0.07,0.53,0.21,0.73c0.17,0.17,0.39,0.26,0.65,0.26H287.23z"/>
		<path d="M310.41,24.24v3.18h-16.43v-3.18H310.41z M308.86,41.61v12.64h-9.5v1.81h-3.44V41.61H308.86z M308.9,32.53
			c1.78-1.17,2.97-2.52,3.59-4.02c0.62-1.5,0.92-3.16,0.92-4.97v-5.12h13.8v10.1c0,0.49,0.04,0.8,0.13,0.95
			c0.09,0.14,0.27,0.21,0.56,0.21h1.68c0.23,0,0.4-0.11,0.52-0.32c0.11-0.22,0.2-0.63,0.26-1.25c0.06-0.62,0.1-1.6,0.13-2.95
			c0.37,0.32,0.87,0.61,1.5,0.88c0.63,0.27,1.22,0.47,1.76,0.58c-0.09,1.72-0.27,3.04-0.54,3.96c-0.27,0.92-0.66,1.56-1.16,1.94
			c-0.5,0.37-1.18,0.56-2.04,0.56h-2.75c-1,0-1.78-0.14-2.34-0.41c-0.56-0.27-0.95-0.72-1.18-1.35c-0.23-0.63-0.34-1.55-0.34-2.75
			V22h-6.19v1.59c0,5.3-1.81,9.16-5.42,11.57c-0.29-0.37-0.74-0.82-1.35-1.35c-0.62-0.53-1.13-0.92-1.53-1.18v0.56H296v-3.1h12.9
			V32.53z M296,38.94V35.8h12.9v3.14H296z M308.78,18.56v3.14h-12.6v-3.14H308.78z M305.38,44.83h-6.02v6.19h6.02V44.83z
			 M331.39,36.36c-1.38,5.05-3.7,9.23-6.97,12.56c2.75,1.92,5.89,3.33,9.42,4.21c-0.4,0.37-0.86,0.9-1.38,1.59
			c-0.52,0.69-0.92,1.3-1.2,1.85c-3.78-1.12-7.07-2.79-9.85-5.03c-2.95,2.21-6.41,3.88-10.36,5.03c-0.2-0.52-0.52-1.12-0.95-1.83
			c-0.43-0.7-0.83-1.27-1.2-1.7c3.53-0.86,6.71-2.26,9.55-4.21c-2.32-2.52-4.19-5.36-5.59-8.51l3.57-1.12
			c1.18,2.72,2.82,5.12,4.94,7.18c2.15-2.06,3.8-4.47,4.95-7.22h-15.39V35.5h17.16l0.73-0.13L331.39,36.36z"/>
		<path d="M354.14,24.24v3.18h-17.16v-3.18H354.14z M352.38,41.61v12.64h-9.93v1.81h-3.53V41.61H352.38z M339,33.18v-3.1h13.5v3.1
			H339z M339,38.94V35.8h13.5v3.14H339z M352.55,18.56v3.14h-13.29v-3.14H352.55z M348.81,44.83h-6.36v6.19h6.36V44.83z
			 M376.93,31.59v3.96h-9.29v21.03h-4.04V35.54h-9.59v-3.96h9.59V17.27h4.04v14.32H376.93z"/>
		<path d="M409.74,36.27c-0.89-0.69-2.14-1.45-3.74-2.28c-1.61-0.83-3.12-1.49-4.56-1.98l2.06-3.1c1.46,0.49,3,1.1,4.62,1.85
			c1.62,0.75,2.89,1.45,3.81,2.11L409.74,36.27z M413.44,42.42c-2.09,4.62-4.49,9.14-7.18,13.59l-3.44-2.54
			c1.15-1.75,2.42-3.87,3.83-6.36c1.4-2.49,2.67-4.92,3.78-7.27L413.44,42.42z M411.98,25.01c-0.86-0.75-2.07-1.56-3.63-2.45
			c-1.56-0.89-3.07-1.63-4.54-2.24l2.19-2.97c1.46,0.52,2.98,1.19,4.56,2.02c1.58,0.83,2.82,1.62,3.74,2.36L411.98,25.01z
			 M437.65,56.66c-0.4-1.03-0.95-2.21-1.63-3.53l-16.04,1.2c-0.4,0.03-2.49,0.17-6.28,0.43l-0.56-4.04l3.44-0.17
			c0.83-1.69,1.66-3.63,2.49-5.8c0.83-2.18,1.55-4.27,2.15-6.28h-8.13v-3.78h11.52v-7.14h-9.37v-3.78h9.37v-6.62h4.13v6.62h9.8v3.78
			h-9.8v7.14h11.83v3.78h-14.58c-1.61,4.3-3.31,8.26-5.12,11.87l13.03-0.73c-1.29-2.06-2.62-3.93-4-5.59l3.44-1.81
			c1.66,1.92,3.25,4.04,4.77,6.34c1.52,2.31,2.61,4.31,3.27,6L437.65,56.66z"/>
		<path d="M446.33,19.03h35.86v37.71h-3.96v-1.89h-28.12v1.89h-3.78V19.03z M450.12,51.24h28.12v-28.6h-28.12V51.24z M475.06,32.88
			c-1,3.78-2.54,7.18-4.6,10.19c0.77,1.95,1.71,3.03,2.79,3.23c0.49,0.17,0.87-1.25,1.16-4.26c0.31,0.32,0.72,0.66,1.23,1.03
			c0.5,0.37,0.94,0.66,1.31,0.86c-0.23,1.95-0.66,3.41-1.29,4.39c-0.63,0.98-1.4,1.46-2.32,1.46c-0.37,0-0.8-0.09-1.29-0.26
			c-1.55-0.4-2.85-1.59-3.91-3.57c-1.55,1.69-3.25,3.12-5.12,4.3c-0.23-0.32-0.58-0.73-1.05-1.25c-0.47-0.52-0.87-0.92-1.18-1.2
			c1.2-0.72,2.31-1.49,3.31-2.32c-1.69,0.29-4.46,0.77-8.3,1.46l-3.7,0.65l-0.43-3.01c2.32-0.32,6.48-0.95,12.47-1.89l0.09,2.67
			c0.95-0.83,1.81-1.73,2.58-2.71c-0.92-2.92-1.62-6.92-2.11-12h-12.6v-2.97h12.34l-0.26-4.13h3.31c0.03,1.03,0.1,2.41,0.21,4.13
			h6.06c-0.4-0.46-1-0.97-1.81-1.53c-0.8-0.56-1.62-1.04-2.45-1.44l1.85-1.85c0.83,0.37,1.66,0.82,2.47,1.35
			c0.82,0.53,1.45,1.03,1.91,1.48l-1.89,1.98h2.62v2.97h-8.51c0.31,3.18,0.73,5.99,1.25,8.43c1.12-1.98,2.01-4.26,2.67-6.84
			L475.06,32.88z M453.43,32.92h9.5v8.26h-9.5V32.92z M460.14,38.9v-3.7h-4.04v3.7H460.14z"/>
		<path d="M526.66,47.28h-9.93v5.29c0,1-0.14,1.77-0.41,2.3s-0.78,0.92-1.53,1.18c-0.66,0.23-1.49,0.37-2.49,0.43
			s-2.52,0.09-4.56,0.09c-0.09-0.49-0.25-1.06-0.49-1.72c-0.24-0.66-0.49-1.23-0.75-1.72c1.83,0.06,3.12,0.09,3.87,0.09l1.59-0.04
			c0.34-0.03,0.57-0.09,0.69-0.19c0.11-0.1,0.17-0.28,0.17-0.54v-5.16h-14.28c1.12,0.72,2.22,1.51,3.31,2.39
			c1.09,0.88,1.94,1.64,2.54,2.3l-2.92,2.58c-0.66-0.8-1.63-1.73-2.92-2.77c-1.29-1.05-2.57-1.98-3.83-2.82l1.94-1.68h-8.73v-3.23
			h24.9v-2.19c-9.06,0.23-16.74,0.39-23.05,0.47l-0.13-3.01c3.78,0,6.92-0.01,9.4-0.04c2.48-0.03,3.99-0.04,4.54-0.04h1.68v-2.02
			h-12.81V25.31h12.81v-2.02h-16.12v-3.1h16.12v-3.01h3.91v3.01h15.87v3.1h-15.87v2.02h13.24v11.91h-4c1.26,0.57,2.49,1.2,3.68,1.89
			c1.19,0.69,2.19,1.35,2.99,1.98l-2.36,2.15c-0.43-0.37-1.18-0.9-2.24-1.59l-3.74,0.09v2.32h9.93V47.28z M496.21,27.89v2.15h9.03
			v-2.15H496.21z M496.21,34.73h9.03v-2.24h-9.03V34.73z M518.49,27.89h-9.33v2.15h9.33V27.89z M518.49,34.73v-2.24h-9.33v2.24
			H518.49z M516.08,39.16c-0.89-0.43-1.76-0.8-2.62-1.12l0.99-0.82h-5.29v2.02L516.08,39.16z"/>
		<path d="M543.51,29.87h7.78v3.7h-7.78v2.84c0.92,0.69,2.21,1.73,3.87,3.12c1.66,1.39,2.97,2.5,3.91,3.33l-2.28,3.4
			c-1.46-1.66-3.3-3.55-5.5-5.68v15.95h-3.91V39.46c-1.12,2.32-2.32,4.49-3.59,6.51c-1.28,2.02-2.56,3.68-3.85,4.97
			c-0.32-0.8-1.02-2.09-2.11-3.87c1.6-1.52,3.2-3.52,4.79-6s2.9-4.98,3.93-7.5H531v-3.7h8.6v-6.41c-2.69,0.54-5.29,0.96-7.78,1.25
			c-0.09-0.43-0.24-0.95-0.47-1.55c-0.23-0.6-0.47-1.12-0.73-1.55c3.47-0.52,6.78-1.15,9.93-1.89c3.15-0.75,5.68-1.53,7.57-2.36
			l2.88,3.05c-1.95,0.77-4.44,1.52-7.48,2.24V29.87z M557.7,22.26v23.65h-3.87V22.26H557.7z M568.11,51.54
			c0,1.23-0.17,2.18-0.49,2.84c-0.33,0.66-0.87,1.16-1.61,1.5c-0.75,0.29-1.75,0.48-3.01,0.58s-2.95,0.15-5.07,0.15
			c-0.11-0.57-0.31-1.26-0.58-2.06c-0.27-0.8-0.55-1.49-0.84-2.06c1.86,0.09,3.5,0.13,4.9,0.13l1.59-0.04c0.4,0,0.69-0.08,0.86-0.24
			c0.17-0.16,0.26-0.42,0.26-0.79V17.96h4V51.54z"/>
		<path d="M611.11,34l-0.04,1.76c-0.26,6.54-0.54,11.17-0.86,13.89c-0.32,2.72-0.77,4.46-1.38,5.2c-0.4,0.52-0.85,0.89-1.33,1.12
			c-0.49,0.23-1.08,0.37-1.76,0.43c-0.69,0.09-1.65,0.13-2.88,0.13c-1.15,0-2.04-0.01-2.67-0.04c-0.03-0.57-0.14-1.22-0.34-1.93
			c-0.2-0.72-0.46-1.33-0.77-1.85c1.49,0.14,3.12,0.21,4.9,0.21c0.29,0,0.53-0.04,0.73-0.13c0.2-0.09,0.39-0.24,0.56-0.47
			c0.43-0.46,0.77-1.81,1.03-4.06c0.26-2.25,0.49-5.83,0.69-10.73h-25.11c-0.75,7.71-2.61,13.7-5.59,17.97
			c-0.34-0.37-0.86-0.82-1.55-1.35c-0.69-0.53-1.25-0.92-1.68-1.18c2.12-3.04,3.52-6.54,4.19-10.51c0.67-3.97,1.01-8.28,1.01-12.92
			V19.25h29.8v11.52h-25.84c0,0.66-0.03,1.73-0.09,3.22H611.11z M604.06,22.64h-21.84v4.69h21.84V22.64z M601.52,51.88h-12.81v2.49
			h-3.7V40.53h16.51V51.88z M597.78,43.71h-9.07v4.95h9.07V43.71z"/>
		<path d="M631.83,24.24v3.18h-15.35v-3.18H631.83z M630.67,41.61v12.64h-8.99v1.81h-3.35V41.61H630.67z M630.63,30.08v3.1h-12.25
			v-3.1H630.63z M618.38,38.94V35.8h12.25v3.14H618.38z M630.5,18.56v3.14h-11.95v-3.14H630.5z M627.28,44.83h-5.59v6.19h5.59V44.83
			z M630.76,52.44c1.58-1.75,2.64-4.83,3.18-9.24l3.23,0.82c-0.26,2.21-0.65,4.19-1.18,5.96c-0.53,1.76-1.3,3.2-2.3,4.32
			L630.76,52.44z M635.23,24.11c1.38,0.43,2.92,1.02,4.64,1.76c0.31-1,0.59-2.19,0.82-3.57h-6.88v-3.44h20.81l-0.04,1.59
			c-0.23,5.13-0.47,8.77-0.73,10.9c-0.26,2.14-0.66,3.52-1.2,4.15c-0.34,0.46-0.72,0.79-1.14,1.01c-0.42,0.21-0.94,0.35-1.57,0.41
			c-0.37,0.06-1.15,0.09-2.32,0.09c-1.09,0-1.92-0.01-2.49-0.04c-0.03-0.57-0.14-1.2-0.32-1.89s-0.42-1.28-0.71-1.76
			c1.17,0.12,2.51,0.17,4,0.17h0.26c0.26,0,0.47-0.04,0.64-0.11c0.17-0.07,0.33-0.19,0.47-0.37c0.29-0.37,0.54-1.38,0.75-3.03
			c0.22-1.65,0.39-4.21,0.54-7.68h-6.45c-0.29,1.83-0.69,3.53-1.2,5.07c1.75,0.86,3.25,1.71,4.51,2.54l-1.93,3.1
			c-0.92-0.69-2.22-1.49-3.91-2.41c-1.72,3.24-4.26,5.72-7.61,7.44c-0.23-0.46-0.57-0.97-1.01-1.55c-0.45-0.57-0.88-1.02-1.31-1.33
			c2.98-1.35,5.22-3.41,6.71-6.19c-1.75-0.83-3.48-1.53-5.2-2.11L635.23,24.11z M646.2,52.79c0.37,0,0.64-0.11,0.8-0.32
			c0.16-0.21,0.27-0.64,0.34-1.27c0.07-0.63,0.14-1.68,0.19-3.14c0.32,0.29,0.8,0.57,1.44,0.86c0.65,0.29,1.27,0.5,1.87,0.64
			c-0.14,1.81-0.36,3.18-0.65,4.13c-0.29,0.95-0.71,1.61-1.27,2c-0.56,0.39-1.33,0.58-2.3,0.58h-4.21c-1.18,0-2.06-0.14-2.67-0.43
			c-0.6-0.29-1.03-0.76-1.27-1.42c-0.24-0.66-0.37-1.61-0.37-2.84v-9.93h3.66v9.89c0,0.54,0.07,0.89,0.21,1.03s0.49,0.21,1.03,0.21
			H646.2z M641.29,35.84c1.43,0.75,2.87,1.63,4.32,2.67c1.45,1.03,2.54,1.96,3.29,2.79l-2.49,2.62c-0.72-0.86-1.79-1.83-3.2-2.9
			s-2.83-2.03-4.24-2.86L641.29,35.84z M651.87,42.34c1.12,1.58,2.11,3.32,2.99,5.22c0.87,1.91,1.47,3.61,1.78,5.1l-3.53,1.46
			c-0.26-1.46-0.81-3.17-1.66-5.14c-0.85-1.96-1.8-3.75-2.86-5.35L651.87,42.34z"/>
		<path d="M674.27,24.24v3.18h-14.79v-3.18H674.27z M673.03,41.61v12.56h-8.47v1.89h-3.27V41.61H673.03z M698.96,25.01
			c-1.41,1-2.79,1.92-4.17,2.75c1.46,1.72,3.02,3.01,4.69,3.87c-0.4,0.37-0.85,0.87-1.35,1.48c-0.5,0.62-0.9,1.17-1.18,1.66
			c-1.89-1.12-3.6-2.65-5.12-4.6v2.02h-11.39V30.6c-1.61,2.01-3.46,3.63-5.55,4.86c-0.2-0.4-0.49-0.86-0.86-1.38
			c-0.37-0.52-0.72-0.93-1.03-1.25v0.34h-11.65v-3.1h11.65v2.24c1.72-0.95,3.37-2.37,4.95-4.26c-0.92-0.95-2.02-1.92-3.31-2.92
			l2.15-2.28c1.17,0.77,2.19,1.58,3.05,2.41c0.69-1.17,1.23-2.34,1.63-3.48h-6.11v-3.14h7.48l0.64-0.13l2.28,0.86
			c-0.83,3.53-2.21,6.74-4.13,9.63H691c-1.95-2.87-3.48-6.56-4.6-11.09l3.35-0.73c0.31,1.32,0.7,2.59,1.16,3.83
			c1.43-1.18,2.49-2.12,3.18-2.84l2.19,2.15c-1.29,0.95-2.75,1.92-4.39,2.92c0.52,1.03,0.97,1.85,1.38,2.45
			c1.52-1.2,2.67-2.21,3.44-3.01L698.96,25.01z M672.98,35.8v3.14h-11.65V35.8H672.98z M672.86,18.56v3.14h-11.27v-3.14H672.86z
			 M669.72,44.83h-5.16v6.19h5.16V44.83z M698.53,51.84v3.44h-24.17v-3.44h6.58c-0.14-0.86-0.4-1.88-0.77-3.05
			c-0.37-1.18-0.79-2.26-1.25-3.27l3.4-0.86c0.49,0.95,0.94,2.01,1.35,3.2c0.42,1.19,0.7,2.21,0.84,3.07l-3.14,0.9H698.53z
			 M695.39,34.51v10.11h-18.28V34.51H695.39z M691.52,41.48v-3.87h-10.79v3.87H691.52z M693.84,45.52c-1.32,3.3-2.21,5.4-2.67,6.32
			l-3.23-0.82c0.37-0.86,0.77-1.91,1.18-3.14c0.42-1.23,0.74-2.32,0.97-3.27L693.84,45.52z"/>
	</g>
	<line class="st2" x1="100.72" y1="65.1" x2="833.59" y2="65.1"/>
</g>
<g id="XMLID_1_">
	<g>
		<linearGradient id="SVGID_1_" gradientUnits="userSpaceOnUse" x1="18.6087" y1="40.5" x2="141.3505" y2="40.5">
			<stop  offset="0" style="stop-color:#7F47DD"/>
			<stop  offset="0.5169" style="stop-color:#FBAE17"/>
			<stop  offset="1" style="stop-color:#FBAE17"/>
		</linearGradient>
		<polygon class="st3" points="86.97,40.5 58.97,68.5 30.97,40.5 58.97,12.5 		"/>
		<linearGradient id="SVGID_2_" gradientUnits="userSpaceOnUse" x1="18.6087" y1="40.5" x2="141.3505" y2="40.5">
			<stop  offset="0" style="stop-color:#7F47DD"/>
			<stop  offset="0.5169" style="stop-color:#FBAE17"/>
			<stop  offset="1" style="stop-color:#FBAE17"/>
		</linearGradient>
		<polygon class="st4" points="79.64,12.5 73.88,18.26 96.12,40.5 73.88,62.74 79.64,68.5 107.64,40.5 		"/>
	</g>
</g>
</svg>
