<?xml version="1.0" encoding="utf-8"?>
<!-- Generator: Adobe Illustrator 25.2.0, SVG Export Plug-In . SVG Version: 6.00 Build 0)  -->
<svg version="1.1" id="Layer_1" xmlns="http://www.w3.org/2000/svg" xmlns:xlink="http://www.w3.org/1999/xlink" x="0px" y="0px"
	 width="688.39px" height="58px" viewBox="0 0 688.39 58" style="enable-background:new 0 0 688.39 58;" xml:space="preserve">
<style type="text/css">
	.st0{enable-background:new    ;}
	.st1{fill:none;stroke:#00B987;stroke-width:3;stroke-miterlimit:10;stroke-dasharray:3,6;}
	.st2{fill:none;stroke:#00B987;stroke-width:2;stroke-miterlimit:10;stroke-dasharray:2,3,2,3,2,3;}
	.st3{fill:none;}
	.st4{fill:url(#SVGID_1_);}
	.st5{fill:url(#SVGID_2_);}
	.st6{fill:#FF0000;}
	.st7{fill:url(#SVGID_3_);}
	.st8{fill:url(#SVGID_4_);}
	.st9{fill:url(#SVGID_5_);}
	.st10{fill:url(#SVGID_6_);}
</style>
<g id="New_Symbol_2">
	<g class="st0">
		<path d="M82.27,18.21h24.98v3.5H96.52v5.87h11.35v3.35H96.52v6.97c2.01,0.33,4.66,0.5,7.96,0.5c2.69,0,5.45-0.1,8.26-0.3
			l-0.72,3.81c-9.5,0-15.53-0.34-18.09-1.03c-2.03-0.41-4.13-1.38-6.28-2.93c-1.19-0.84-2.23-1.88-3.12-3.12
			c-1.09,2.44-2.84,5-5.26,7.69l-2.63-3.24c2.13-2.21,3.71-4.38,4.72-6.51c1.07-2.01,1.92-4.7,2.55-8.07l3.69,0.61
			c-0.51,2.23-1.03,4.16-1.56,5.79c1.19,2.11,2.69,3.68,4.49,4.72c0.66,0.41,1.38,0.75,2.17,1.03V21.71H82.27V18.21z M95.6,7.01
			c0.51,1.04,0.98,2.18,1.41,3.43h14.66v9.22h-3.66v-5.71H81.51v5.71h-3.66v-9.22H92.9c-0.46-0.99-0.95-1.92-1.49-2.78L95.6,7.01z"
			/>
		<path d="M123.86,6.86l3.2,1.49c-0.97,3.02-1.96,5.61-2.97,7.77v26.39h-3.5V21.94c-1.07,1.55-2.23,3.07-3.5,4.57l-1.29-4.27
			c1.65-2.13,3.11-4.32,4.38-6.55C121.44,13.66,122.67,10.72,123.86,6.86z M125.38,36.95h26.2v3.5h-26.2V36.95z M126.41,15.16h24.11
			v3.5h-24.11V15.16z M132.09,19.96c1.93,4.11,3.66,8.81,5.18,14.09l-3.85,0.99c-1.24-4.82-2.86-9.47-4.84-13.94L132.09,19.96z
			 M135.29,7.16c2.41,1.68,4.44,3.33,6.09,4.95l-2.67,2.67c-1.35-1.62-3.3-3.38-5.87-5.26L135.29,7.16z M144.43,19.96l3.66,0.99
			c-1.22,5.23-2.79,10.03-4.72,14.4l-3.66-1.33C141.53,30.33,143.11,25.65,144.43,19.96z"/>
		<path d="M156.58,17.06c2.18,0.97,4.18,2.12,5.98,3.47l-2.44,3.69c-1.83-1.7-3.71-3.05-5.64-4.04L156.58,17.06z M160.84,26.21
			l3.08,2.29c-1.7,5.38-3.64,10.05-5.83,14.02l-2.86-3.2C157.05,36.26,158.91,31.89,160.84,26.21z M158.4,7.47
			c2.23,1.04,4.28,2.3,6.13,3.77l-2.44,3.69c-1.88-1.83-3.81-3.28-5.79-4.34L158.4,7.47z M186.85,8v10.21h2.67v8.61h-2.89v11.81
			c0,1.32-0.33,2.31-0.99,2.97c-0.56,0.61-1.36,0.91-2.4,0.91h-4.65l-0.8-3.5l3.96,0.15c0.81-0.05,1.22-0.57,1.22-1.56v-1.41h-13.25
			v6.63h-3.66V26.66h-2.89v-8.46h2.67V8H186.85z M166.52,23.46h19.65v-2.06h-19.65V23.46z M169.34,18.21h3.88v-5.03h10.13V11.2
			h-14.02V18.21z M169.72,28.49h13.25v-1.98h-13.25V28.49z M169.72,33.29h13.25v-2.06h-13.25V33.29z M176.88,18.21h6.47v-2.44h-6.47
			V18.21z"/>
		<path d="M194.55,9.83h6.93V7.31h3.5v2.51h6.47v3.2h-6.47v2.59h6.17v16.76h-6.17v2.51h6.17v1.98c1.29-2.49,2.25-5.07,2.86-7.73
			c0.69-2.72,1.07-6.61,1.14-11.69h-3.39v-3.5h3.43V7.01h3.5v6.93h6.7l-1.18,21.56c0,0.94,0.13,1.57,0.38,1.9
			c0.28,0.28,0.57,0.42,0.88,0.42h0.27c0.2,0,0.39-0.11,0.57-0.34c0.15-0.15,0.33-2.18,0.53-6.09l3.35,1.03
			c-0.36,4.65-0.85,7.33-1.49,8.04c-0.63,0.66-1.51,0.99-2.63,0.99h-2.21c-0.74,0-1.41-0.33-2.02-0.99
			c-0.69-0.79-1.03-1.99-1.03-3.62l0.99-19.39h-3.16c-0.1,5.08-0.53,9.36-1.29,12.83c-0.89,4.04-2.56,8.16-5.03,12.38l-2.97-2.63
			c0.46-0.69,0.86-1.38,1.22-2.09h-5.6v5.18h-3.5v-5.18h-7.39v-3.05h7.39v-2.51h-6.17V15.62h6.17v-2.59h-6.93V9.83z M198.66,22.63
			h2.82v-4.11h-2.82V22.63z M201.48,29.48v-4.27h-2.82v4.27H201.48z M204.98,18.51v4.11h2.82v-4.11H204.98z M207.8,29.48v-4.27
			h-2.82v4.27H207.8z"/>
		<path d="M240.63,7.01c0.56,1.29,1.1,2.74,1.64,4.34h5.45v3.2h-14.78v-3.2h5.71c-0.53-1.37-1.12-2.63-1.75-3.77L240.63,7.01z
			 M246.12,28.57v11.27h-8.53v2.82h-3.5V28.57H246.12z M234.31,17.22h11.88v3.05h-11.88V17.22z M234.31,22.85h11.88v3.05h-11.88
			V22.85z M237.59,36.64h5.03v-4.88h-5.03V36.64z M263.64,8v8.95c0,0.97,0.48,1.45,1.45,1.45h3.05v3.54h-3.92
			c-1.5,0-2.59-0.32-3.28-0.95c-0.74-0.63-1.1-1.75-1.1-3.35V11.2h-5.87c-0.08,2.62-0.3,4.51-0.69,5.67
			c-0.46,1.52-1.66,3.31-3.62,5.37l-2.86-2.48c1.62-1.78,2.64-3.19,3.05-4.23c0.3-0.96,0.46-3.48,0.46-7.54H263.64z M248.36,22.78
			h16.87v2.74c-0.91,3.91-2.48,7.29-4.68,10.13c2.18,1.32,4.91,2.46,8.19,3.43l-2.32,3.43c-3.63-1.27-6.51-2.64-8.65-4.11
			c-2.21,1.7-5.15,3.17-8.84,4.42l-2.13-3.24c3.3-1.04,5.95-2.25,7.96-3.62c-2.23-2.13-4.08-4.61-5.52-7.43l3.2-1.87
			c1.37,2.77,3.11,5.04,5.22,6.82c1.75-2.06,3.03-4.56,3.85-7.5h-13.14V22.78z"/>
		<path d="M280.09,7.01c0.76,1.29,1.49,2.74,2.17,4.34h6.44v3.2h-16.76v-3.2h6.7c-0.69-1.37-1.45-2.63-2.29-3.77L280.09,7.01z
			 M273.31,17.37h14.05v3.05h-14.05V17.37z M273.31,22.85h14.05v3.05h-14.05V22.85z M276.89,39.84v2.82h-3.5V28.57h13.56v13.52h-3.5
			v-2.25H276.89z M283.44,36.64v-4.88h-6.55v4.88H283.44z M289.31,18.05h7.39V7.01h3.81v11.04h7.54v3.5h-7.54v21.25h-3.81V21.56
			h-7.39V18.05z"/>
		<path d="M332.46,17.37c2.34,1.09,4.46,2.4,6.36,3.92l-2.32,3.54c-1.96-1.88-3.97-3.36-6.06-4.46L332.46,17.37z M336.8,26.66
			l2.93,2.17c-1.83,5.31-3.91,9.92-6.25,13.83l-2.74-3.05C332.67,36.59,334.69,32.27,336.8,26.66z M334.36,7.89
			c2.29,1.17,4.38,2.54,6.28,4.11l-2.44,3.69c-1.93-1.96-3.91-3.5-5.94-4.65L334.36,7.89z M342.47,12.34h7.85V7.01h3.81v5.33h10.13
			v3.35h-10.13v6.78h11.81v3.5h-13.56c-0.81,3.48-2.15,7.12-4,10.93c4.27-0.25,7.85-0.74,10.74-1.45c-1.04-2.13-2.12-4.11-3.24-5.94
			l3.5-1.18c2.51,3.99,4.7,8.21,6.55,12.68l-3.66,1.64c-0.53-1.35-1.07-2.62-1.6-3.81c-4.57,1.02-11.2,1.83-19.88,2.44l-1.22-4.15
			c1.42,0,2.78-0.01,4.08-0.04c1.9-3.4,3.41-7.11,4.53-11.12h-8v-3.5h10.13v-6.78h-7.85V12.34z"/>
		<path d="M403.87,7.89v34.62h-3.35v-1.22h-26.2v1.22h-3.35V7.89H403.87z M374.31,38.24h26.2V10.97h-26.2V38.24z M388.48,29.86v2.97
			c-3.45,0.89-7.5,1.78-12.15,2.67l-0.8-3.35C379.95,31.69,384.27,30.93,388.48,29.86z M375.69,15.31h12.49
			c-0.03-1.17-0.05-2.36-0.08-3.58h3.2c0,1.29,0.02,2.49,0.08,3.58h3.58c-0.36-0.99-0.79-1.93-1.29-2.82l2.82-0.91
			c0.66,0.97,1.24,2.07,1.75,3.31l-1.64,0.42h2.82v2.89h-7.92c0.1,2.49,0.29,4.52,0.57,6.09c0.23,1.32,0.5,2.53,0.8,3.62
			c1.22-1.96,2.45-4.81,3.69-8.57l2.59,1.71c-1.78,4.67-3.38,8.1-4.8,10.28c-0.05,0.08-0.09,0.14-0.11,0.19
			c0.05,0.15,0.11,0.29,0.19,0.42c0.63,1.22,1.22,1.83,1.75,1.83c0.23,0,0.57-1.51,1.03-4.53l3.01,2.32
			c-0.81,2.87-1.43,4.54-1.87,5.03c-0.43,0.58-1.03,0.88-1.79,0.88c-1.09,0-2.2-0.71-3.31-2.13c-0.36-0.46-0.67-0.91-0.95-1.37
			c-1.27,1.37-2.73,2.64-4.38,3.81l-1.87-2.51c1.93-1.37,3.52-2.82,4.76-4.34c-0.51-1.37-0.97-2.87-1.37-4.49
			c-0.53-2.11-0.9-4.85-1.1-8.23h-12.64V15.31z M376.9,20.19h9.29v8.99h-9.29V20.19z M383.45,26.59v-3.81h-3.81v3.81H383.45z"/>
		<path d="M408.74,9.45h15.62V7.47h3.5v1.98h15.92v2.74h-15.92v1.75h12.95v11.88h-1.83c1.65,1.75,2.95,3.28,3.88,4.57l-2.74,1.94
			c-0.41-0.66-0.84-1.35-1.29-2.06c-1.07,0.08-2.13,0.14-3.2,0.19v2.36h8.15v2.89h-8.15V39c0,1.29-0.29,2.2-0.88,2.7
			c-0.56,0.53-1.57,0.8-3.05,0.8h-3.77l-0.76-3.5c1.42,0.15,2.59,0.23,3.5,0.23c0.96,0,1.45-0.28,1.45-0.84v-2.67h-23.38v-2.89
			h23.38v-2.09c-6.47,0.38-13.58,0.75-21.33,1.1l-0.69-3.05c4.85-0.13,9.6-0.29,14.24-0.5v-2.48h-12.8V13.94h12.8v-1.75h-15.62V9.45
			z M415.07,18.74h9.29v-2.21h-9.29V18.74z M424.36,23.23v-2.06h-9.29v2.06H424.36z M417.73,36.11c2.77,1.09,5.1,2.18,7.01,3.28
			l-2.67,2.7c-1.57-1.09-3.83-2.3-6.78-3.62L417.73,36.11z M427.86,16.53v2.21h9.45v-2.21H427.86z M437.31,23.23v-2.06h-9.45v2.06
			H437.31z M427.86,25.82v2.32c3.05-0.15,6.06-0.3,9.03-0.46c-0.25-0.33-0.5-0.63-0.72-0.91l1.52-0.95H427.86z"/>
		<path d="M464.39,7.31l1.33,3.54c-1.9,0.63-4.06,1.18-6.47,1.64v5.1h7.08v3.5h-7.08v0.3c2.51,2.41,5.03,5.12,7.54,8.11l-2.17,3.24
			c-2.11-3.07-3.9-5.5-5.37-7.27v17.33h-3.5V26.21c-0.71,1.65-1.36,2.96-1.94,3.92c-1.27,2.16-2.86,4.25-4.76,6.28l-2.06-3.5
			c1.88-1.68,3.52-3.68,4.91-6.02c1.02-1.68,1.92-3.61,2.7-5.79h-6.86v-3.5h8V13.1c-2.06,0.3-4.27,0.56-6.63,0.76l-0.76-3.54
			C454.37,9.84,459.72,8.84,464.39,7.31z M468.77,10.06h3.66v24.83h-3.66V10.06z M476.88,42.35h-6.02l-0.88-3.96
			c2.34,0.18,4.27,0.27,5.79,0.27c1.07,0,1.6-0.32,1.6-0.95V7.16h3.81v31.23c0,1.45-0.32,2.46-0.95,3.05
			C479.62,42.05,478.5,42.35,476.88,42.35z"/>
		<path d="M519.88,18.44h-26.51v2.82h27.88c-0.08,11.25-0.83,17.67-2.25,19.27c-0.74,1.42-3.3,2.13-7.69,2.13l-0.8-3.96
			c1.22,0.2,2.22,0.3,3.01,0.3c1.24,0,2.18-0.48,2.82-1.45c0.56-0.94,0.93-5.31,1.1-13.1h-24.15c-0.1,2.34-0.33,4.75-0.69,7.24
			c-0.66,3.76-1.75,7.46-3.28,11.12l-3.05-2.74c1.45-3,2.44-6.14,2.97-9.45c0.41-3.38,0.61-6.53,0.61-9.45V8.38h30.01V18.44z
			 M516.37,11.73h-23v3.35h23V11.73z M496.42,27.27h16.61v10.21h-16.61V27.27z M509.52,34.13v-3.5h-9.6v3.5H509.52z"/>
		<path d="M532.83,7.01c0.48,1.29,0.94,2.74,1.37,4.34h5.41v3.2h-14.47v-3.2h5.45c-0.43-1.37-0.93-2.63-1.49-3.77L532.83,7.01z
			 M538.01,28.57v9.06c1.09-2.54,1.82-5.23,2.17-8.07l3.08,0.8c-0.38,3.2-1.14,6.28-2.29,9.25l-2.97-0.99v1.22h-8.23v2.82h-3.5
			V28.57H538.01z M526.51,17.22h11.43v3.05h-11.43V17.22z M526.51,22.85h11.43v3.05h-11.43V22.85z M529.78,36.64h4.72v-4.88h-4.72
			V36.64z M541.85,13.87l3.08,0.8c-0.38,2.21-1.14,4.33-2.29,6.36l-3.35-1.1C540.6,18.04,541.45,16.02,541.85,13.87z M554.92,25.14
			c-1.24,0-2.3-0.05-3.16-0.15l-0.57-3.2c1.88,0.15,2.97,0.23,3.28,0.23c0.71,0,1.18-0.25,1.41-0.76c0.43-0.38,0.75-3.38,0.95-8.99
			h-5.9c-0.25,3.66-1.05,6.63-2.4,8.91c-1.32,2.29-3.63,4.42-6.93,6.4l-1.98-3.12c2.72-1.37,4.71-2.98,5.98-4.84
			c1.19-1.75,1.89-4.2,2.09-7.35h-7.16v-3.2h19.84c-0.3,8.02-0.66,12.38-1.07,13.06c-0.28,1.02-0.75,1.73-1.41,2.13
			C557.33,24.77,556.34,25.06,554.92,25.14z M552.25,39.31c0.41,0,0.7-0.15,0.88-0.46c0.23-0.3,0.38-1.73,0.46-4.27l3.24,1.07
			c-0.25,3.3-0.69,5.24-1.29,5.83c-0.51,0.58-1.45,0.88-2.82,0.88h-5.6c-1.02,0-1.83-0.29-2.44-0.88c-0.63-0.58-0.95-1.37-0.95-2.36
			v-9.56h3.35v8.57c0,0.79,0.44,1.18,1.33,1.18H552.25z M549.81,24.99c1.29,1.88,2.41,3.88,3.35,6.02L550,32.45
			c-0.96-2.41-2.04-4.56-3.24-6.44L549.81,24.99z M558.5,28.34c1.24,2.84,2.31,5.87,3.2,9.06l-3.16,1.45
			c-0.91-3.55-1.96-6.72-3.12-9.48L558.5,28.34z"/>
		<path d="M571.83,7.01c0.38,1.24,0.75,2.64,1.1,4.19h5.22v3.2h-14.02v-3.2h5.22c-0.36-1.29-0.77-2.5-1.26-3.62L571.83,7.01z
			 M565.35,17.06h11.12v1.9c1.78-0.91,3.24-1.78,4.38-2.59c-0.74-0.79-1.6-1.6-2.59-2.44l2.13-2.06c1.07,0.81,2.02,1.6,2.86,2.36
			c0.81-0.86,1.54-1.9,2.17-3.12h-6.51V8.08h10.47c0.46,0.97,1.02,1.92,1.68,2.86c0.38-0.25,0.71-0.53,0.99-0.84
			c0.53-0.51,1.07-1.18,1.6-2.02l2.63,1.64c-0.66,1.12-1.29,1.97-1.9,2.55c-0.38,0.41-0.79,0.79-1.22,1.14
			c0.38,0.41,0.77,0.8,1.18,1.18c0.48-0.33,0.91-0.69,1.29-1.07c0.63-0.61,1.26-1.41,1.87-2.4l2.74,1.71
			c-0.76,1.27-1.5,2.25-2.21,2.93c-0.36,0.36-0.71,0.69-1.07,0.99c1.12,0.86,2.31,1.68,3.58,2.44l-1.98,2.74
			c-1.5-0.91-2.82-1.83-3.96-2.74v1.6h-11.58v-1.98c-1.29,1.04-2.82,2.08-4.57,3.12l-1.98-2.4v0.57h-11.12V17.06z M565.35,22.85
			h11.27v3.05h-11.27V22.85z M576.7,28.87v11.12h-7.77v2.67h-3.5V28.87H576.7z M568.93,36.79h4.27v-4.72h-4.27V36.79z M585.08,33.67
			c0.74,1.47,1.43,3.22,2.09,5.26h2.97c0.79-1.62,1.35-3.33,1.68-5.1l3.69,0.5c-0.41,1.65-1,3.19-1.79,4.61h6.06v2.89h-21.33v-2.89
			h5.18c-0.48-1.24-1.09-2.59-1.83-4.04L585.08,33.67z M579.37,23.54h18.43v9.6h-18.43V23.54z M594.41,30.24v-3.81h-11.69v3.81
			H594.41z M584.4,17.6h8.27c-0.2-0.2-0.39-0.39-0.57-0.57c-1.5-1.4-2.77-2.93-3.81-4.61c-0.84,1.57-1.69,2.83-2.55,3.77
			C585.35,16.67,584.9,17.14,584.4,17.6z"/>
	</g>
	<line class="st2" x1="54.16" y1="50.6" x2="650.81" y2="50.6"/>
	<rect x="89.55" y="-1.01" class="st3" width="793.62" height="115.56"/>
	<g id="XMLID_4_">
		<g>
			<polygon class="st6" points="51.18,29 29.18,51 7.18,29 29.18,7 			"/>
			<polygon class="st6" points="45.43,7 40.9,11.53 58.37,29 40.9,46.47 45.43,51 67.43,29 			"/>
		</g>
	</g>
</g>
</svg>
