<?xml version="1.0" encoding="utf-8"?>
<!-- Generator: Adobe Illustrator 25.2.0, SVG Export Plug-In . SVG Version: 6.00 Build 0)  -->
<svg version="1.1" id="Layer_1" xmlns="http://www.w3.org/2000/svg" xmlns:xlink="http://www.w3.org/1999/xlink" x="0px" y="0px"
	 width="688.39px" height="40px" viewBox="0 0 688.39 40" style="enable-background:new 0 0 688.39 40;" xml:space="preserve">
<style type="text/css">
	.st0{enable-background:new    ;}
	.st1{fill:none;stroke:#00B987;stroke-width:3;stroke-miterlimit:10;stroke-dasharray:3,6;}
	.st2{fill:none;stroke:#00B987;stroke-width:2;stroke-miterlimit:10;stroke-dasharray:2,3,2,3,2,3;}
	.st3{fill:none;}
	.st4{fill:url(#SVGID_1_);}
	.st5{fill:url(#SVGID_2_);}
	.st6{fill:#FF0000;}
	.st7{fill:url(#SVGID_3_);}
	.st8{fill:url(#SVGID_4_);}
	.st9{fill:url(#SVGID_5_);}
	.st10{fill:url(#SVGID_6_);}
</style>
<g id="New_Symbol_2">
	<rect x="-625.41" y="10.49" class="st3" width="793.62" height="115.56"/>
	<line class="st2" x1="5.16" y1="36.6" x2="601.81" y2="36.6"/>
	<g id="XMLID_5_">
		<g>
			<polygon class="st6" points="30.93,19 20.43,29.5 9.93,19 20.43,8.5 			"/>
			<polygon class="st6" points="28.18,8.5 26.02,10.66 34.36,19 26.02,27.34 28.18,29.5 38.68,19 			"/>
		</g>
	</g>
	<g class="st0">
		<path d="M58.25,4.89l2.73,0.33c-0.35,0.6-0.73,1.15-1.15,1.64h10.55v2.05c-1.71,2.15-4.08,4.05-7.11,5.69
			c-3.79,2.17-8.29,3.67-13.51,4.51l-1.18-2.32c3.81-0.47,7.09-1.24,9.84-2.3c-0.84-0.88-1.85-1.81-3.04-2.82l2.05-1.31
			c1.49,1.11,2.72,2.08,3.66,2.9c2.02-1.11,3.83-2.44,5.41-3.99h-9.3c-0.13,0.09-0.23,0.16-0.3,0.22c-1.64,1.24-3.77,2.37-6.4,3.39
			l-1.7-2.16c2.37-0.82,4.35-1.7,5.93-2.65C56.02,7.35,57.18,6.29,58.25,4.89z M64.46,14.73l2.87,0.46
			c-0.57,0.8-1.15,1.52-1.75,2.16h7.57v2.27c-1.95,3.37-4.21,5.8-6.78,7.27c-2.92,1.7-7.7,2.96-14.36,3.8l-1.86-2.57
			c5.36-0.46,9.47-1.19,12.33-2.21c-0.89-0.89-1.94-1.84-3.14-2.84l2.05-1.34c1.49,1.11,2.75,2.09,3.77,2.93
			c1.97-1.11,3.56-2.74,4.79-4.89h-7.11c-0.11,0.07-0.21,0.14-0.3,0.19c-1.84,1.39-5,2.85-9.46,4.4l-2.05-2.52
			c3.94-1.08,6.85-2.13,8.75-3.17C61.72,17.69,63.27,16.37,64.46,14.73z"/>
		<path d="M76.41,6.31h24.94v2.41H90.3c-0.29,0.88-0.7,1.73-1.23,2.57h11.07v19.3h-2.62v-1.59H80.15v1.59H77.5v-19.3h8.78
			c0.51-0.84,0.93-1.7,1.26-2.57H76.41V6.31z M80.15,26.71h3.09V13.58h-3.09V26.71z M85.76,16.37h6.07v-2.79h-6.07V16.37z
			 M85.76,21.51h6.07v-2.95h-6.07V21.51z M85.76,26.71h6.07V23.7h-6.07V26.71z M94.24,26.71h3.28V13.58h-3.28V26.71z"/>
		<path d="M115.32,5l3.2,0.44c-0.38,1.15-0.92,2.22-1.61,3.23h11.35v18.57c0,1.04-0.26,1.81-0.77,2.32
			c-0.44,0.47-1.07,0.71-1.89,0.71h-3.72l-0.63-2.73l3.23,0.11c0.62-0.04,0.93-0.45,0.93-1.23V11.18h-17.06v19.41h-2.84V8.66h8.18
			C114.41,7.51,114.95,6.29,115.32,5z M111.03,14.4h11.48v10.28h-11.48V14.4z M119.78,22.28v-5.47h-6.02v5.47H119.78z"/>
		<path d="M137.85,5l2.54,0.36c-0.31,1.44-0.76,2.76-1.34,3.96h3.96v5.88c0.82-1.37,1.45-2.71,1.89-4.02
			c0.56-1.57,1.02-3.66,1.37-6.29l2.76,0.46c-0.26,1.46-0.5,2.74-0.74,3.86h8.61c0,9.86-0.16,15.71-0.46,17.53
			c-0.24,1.44-0.69,2.37-1.37,2.79c-0.78,0.56-2.22,0.85-4.32,0.85c-0.6,0-1.3-0.04-2.11-0.11l-0.49-2.73
			c0.86,0.11,1.73,0.16,2.62,0.16c1.71,0,2.67-0.57,2.87-1.72c0.35-1.46,0.56-6.21,0.63-14.25h-6.67c-0.05,0.2-0.11,0.38-0.16,0.55
			c-0.6,2.01-1.64,4.14-3.12,6.4l-1.31-1.61v11.46h-2.41v-1.37h-5.14v2.13h-2.41V9.32h3.47C137.14,7.95,137.58,6.51,137.85,5z
			 M135.47,17.14h5.14v-5.52h-5.14V17.14z M135.47,24.85h5.14v-5.52h-5.14V24.85z M148.54,15.5c1.57,2.55,2.79,4.75,3.66,6.59
			l-2.62,1.83c-0.78-2.04-1.88-4.38-3.28-7L148.54,15.5z"/>
		<path d="M160.08,11.67h7.22v1.86c-0.88,1.51-2.01,3.12-3.42,4.81h3.28v1.59c-0.4,1.9-0.84,3.35-1.31,4.38
			c1.06,1.2,1.92,1.96,2.6,2.27c0.6,0.35,1.49,0.61,2.65,0.79c1.35,0.2,4,0.31,7.96,0.33c2.92,0,5.09-0.06,6.51-0.19l-0.41,2.65
			c-7.66,0-12.32-0.1-14-0.3c-1.59-0.22-2.82-0.56-3.69-1.01c-0.82-0.37-1.73-1.18-2.73-2.43c-0.77,1.31-1.76,2.67-2.98,4.07
			l-1.89-2c1.44-1.46,2.45-2.73,3.04-3.83c0.49-0.66,1.06-2.03,1.7-4.13h-3.75v-1.97c1.15-1.18,2.35-2.75,3.61-4.7h-4.38V11.67z
			 M163.14,5.22c1.26,1.28,2.31,2.53,3.17,3.77l-1.8,1.8c-0.69-1.22-1.7-2.55-3.01-3.99L163.14,5.22z M184.91,5.82v4.76h-1.2v1.09
			h-6.12v1.15h6.62v8.53h-6.62v1.42h7.44v2.08h-7.44v2.13h-2.41v-2.13h-7v-2.08h7v-1.42h-6.29v-8.53h6.29v-1.15h-5.58v-1.09h-1.75
			V5.82H184.91z M170.25,9.7h4.92V7.9h-4.92V9.7z M171.18,16.15h3.99v-1.48h-3.99V16.15z M175.17,19.49V17.9h-3.99v1.59H175.17z
			 M177.58,7.9v1.8h4.92V7.9H177.58z M177.58,14.68v1.48h4.32v-1.48H177.58z M181.9,19.49V17.9h-4.32v1.59H181.9z"/>
		<path d="M200.47,5.52l1.18,2.02c-1.51,0.24-3.25,0.42-5.2,0.55v1.78h5.74v2.08h-5.74v1.48h5.52v8.64h-5.52v1.59h4.98v1.86h-4.98
			v2.24c1.82-0.15,3.48-0.32,4.98-0.52v0.85c1.7-2.5,2.89-5.17,3.58-8.01c0.51-1.84,0.83-4.4,0.96-7.68h-3.01v-2.3h3.06
			c0-0.42,0-0.84,0-1.26V5.11h2.41v3.72c0,0.44,0,0.86,0,1.26h5.03c0,9.5-0.1,15.13-0.3,16.9c-0.15,1.38-0.43,2.28-0.85,2.68
			c-0.49,0.55-1.39,0.82-2.71,0.82c-0.6,0-1.3-0.04-2.11-0.11L207,27.64c0.86,0.13,1.72,0.19,2.6,0.19c0.71,0,1.1-0.56,1.18-1.67
			c0.15-1.42,0.24-6.02,0.27-13.78h-2.71c-0.15,3.28-0.5,6.09-1.07,8.42c-0.69,3.12-2.06,6.31-4.1,9.57l-1.75-1.53v0.33
			c-2.46,0.44-6.79,0.84-12.99,1.2l-0.36-2.3c2.17-0.04,4.19-0.1,6.07-0.19v-2.38h-4.87v-1.86h4.87v-1.59h-5.09v-8.64h5.09v-1.48
			h-6.29V9.87h6.29V8.2c-1.5,0.05-3.1,0.08-4.81,0.08l-0.74-2.11C193.27,6.17,197.22,5.96,200.47,5.52z M191.47,17.03h2.68v-1.86
			h-2.68V17.03z M194.15,20.31v-1.75h-2.68v1.75H194.15z M196.45,15.17v1.86h3.12v-1.86H196.45z M199.56,20.31v-1.75h-3.12v1.75
			H199.56z"/>
		<path d="M220.67,4.78l2.73,0.96c-0.69,1.73-1.46,3.25-2.3,4.54c1.8-0.07,3.34-0.16,4.62-0.27c-0.51-0.66-1.07-1.33-1.67-2.02
			l1.78-1.12c1.86,1.93,3.31,3.6,4.35,5l-2.08,1.45c-0.22-0.35-0.46-0.71-0.71-1.09c-2.46,0.37-6.07,0.66-10.83,0.88l-0.82-2.73
			h2.35C219.07,8.66,219.93,6.8,220.67,4.78z M223.19,30.26l-0.55-2.41l2.35,0.11c0.55-0.04,0.82-0.39,0.82-1.07v-1.39h-6.34v5.2
			h-2.41V14.3h11.16v13.32c0,0.89-0.22,1.57-0.66,2.02c-0.37,0.42-0.89,0.63-1.59,0.63H223.19z M219.47,18.94h6.34V16.7h-6.34V18.94
			z M219.47,23.43h6.34v-2.41h-6.34V23.43z M237.82,14.08c0.36,0,0.63-0.1,0.79-0.3c0.2-0.2,0.34-1.16,0.41-2.87l2.54,0.82
			c-0.22,2.33-0.57,3.71-1.07,4.13c-0.42,0.42-1.19,0.63-2.32,0.63h-5.11c-0.8,0-1.44-0.23-1.91-0.68c-0.49-0.47-0.74-1.1-0.74-1.89
			v-8.8h2.62v4.02c2.84-0.77,5.24-1.63,7.19-2.6l1.45,2.02c-2.48,1.19-5.36,2.19-8.64,3.01v1.59c0,0.62,0.35,0.93,1.04,0.93H237.82z
			 M238.37,27.64c0.24,0,0.41-0.1,0.52-0.3c0.13-0.2,0.21-1.16,0.25-2.87l2.54,0.82c-0.18,2.28-0.49,3.63-0.93,4.05
			c-0.37,0.4-1.04,0.6-2.02,0.6h-5.66c-0.8,0-1.44-0.22-1.91-0.66c-0.49-0.46-0.74-1.06-0.74-1.8V17.36h2.62v4.18
			c2.83-0.8,5.21-1.72,7.16-2.76l1.59,2.21c-2.52,1.28-5.43,2.34-8.75,3.2v2.57c0,0.58,0.35,0.88,1.04,0.88H238.37z"/>
		<path d="M263.39,29.94c-1.9,0-3.25-0.05-4.05-0.16l-0.82-3.01c1.6,0.18,3.22,0.27,4.84,0.27c1.11,0,1.79-0.78,2.05-2.32
			c0.29-1.04,0.46-4.89,0.49-11.57h-8.04c-0.29,4.23-1.24,7.72-2.84,10.47c-1.73,2.99-4.56,5.28-8.48,6.86l-1.59-2.54
			c3.92-1.7,6.58-3.85,7.98-6.45c1.18-2.26,1.89-5.04,2.11-8.34h-9.65v-2.73h9.76V4.89h2.82v5.52h10.88
			c-0.2,9.7-0.61,15.39-1.23,17.09C266.98,29.12,265.57,29.94,263.39,29.94z"/>
		<path d="M286.65,13.97h-3.5v-3.5h3.5V13.97z M286.65,25.18h-3.5v-3.47h3.5V25.18z"/>
		<path d="M300.41,10.19h3.83v-5.3h2.41v5.3h2.95v2.3h-2.95v1.2c1.18,1.24,2.39,2.59,3.61,4.05l-1.5,2.24
			c-0.84-1.35-1.54-2.44-2.11-3.28v13.89h-2.41V17.41c-0.84,2.37-1.88,4.43-3.12,6.18l-1.15-2.95c1.68-2.37,3.03-5.09,4.05-8.15
			h-3.61V10.19z M323.16,15.94l2.19,1.15c-1.48,2.57-3.15,4.79-5.03,6.67c2.13,1.6,3.96,3.2,5.47,4.79l-2.05,2.05
			c-1.28-1.59-3.05-3.26-5.33-5.03c-2.19,1.9-5.21,3.54-9.08,4.92l-1.48-2.24c3.63-1.31,6.6-2.88,8.91-4.7
			C318.75,22.02,320.88,19.49,323.16,15.94z M317.96,4.89c0.4,0.82,0.77,1.73,1.12,2.73h6.7v2.41h-8.07
			c-0.58,1.53-1.45,3.13-2.6,4.79c1.31-0.04,2.52-0.09,3.64-0.16c0.64-0.91,1.27-1.9,1.89-2.98l2.08,1.09
			c-1.5,2.9-3.26,5.3-5.3,7.22c-1.68,1.59-4,2.97-6.97,4.16l-1.39-2.13c2.75-1.11,4.99-2.43,6.73-3.96
			c0.38-0.31,0.77-0.67,1.15-1.09c-1.7,0.13-3.83,0.26-6.4,0.41l-0.38-2.41c0.67,0,1.3-0.01,1.89-0.03
			c1.24-1.51,2.23-3.14,2.98-4.89h-5.41V7.62h6.78c-0.35-0.82-0.75-1.59-1.2-2.32L317.96,4.89z"/>
		<path d="M330.81,12.87l2.84,0.6c-0.69,5.45-1.67,10.14-2.93,14.05l-2.65-1.7C329.39,21.82,330.3,17.5,330.81,12.87z M344.32,27.64
			c0.38,0,0.66-0.21,0.82-0.63c0.2-0.42,0.34-2.36,0.41-5.82l2.65,0.85c-0.22,4.05-0.58,6.43-1.09,7.14
			c-0.44,0.73-1.24,1.09-2.41,1.09h-6.37c-0.84,0-1.5-0.25-2-0.74c-0.51-0.53-0.77-1.22-0.77-2.08V11.78h2.73v14.85
			c0,0.67,0.36,1.01,1.09,1.01H344.32z M340.14,5.76c2.33,2.48,4.15,4.61,5.44,6.4l-2.73,1.91c-1.22-2-2.9-4.28-5.03-6.84
			L340.14,5.76z M349.74,12.98c1.42,3.83,2.66,7.9,3.72,12.22l-2.73,1.23c-1.08-4.72-2.28-8.91-3.61-12.58L349.74,12.98z"/>
		<path d="M363.44,6.15h23.19v2.3h-10.39v10.01h11.38v2.41h-11.38v9.73h-2.62v-9.73h-11.16v-2.41h11.16V8.44h-10.17V6.15z
			 M367.41,9.92c0.93,1.86,1.83,3.92,2.71,6.18l-2.52,1.26c-0.8-2.31-1.68-4.4-2.62-6.26L367.41,9.92z M382.69,9.92l2.41,1.15
			c-0.8,2.17-1.86,4.27-3.17,6.29l-2.41-1.26C380.85,13.97,381.91,11.91,382.69,9.92z"/>
		<path d="M395.22,5.11l1.7,1.5c-1.42,1.79-3.22,3.4-5.39,4.84l-1.61-2.08C391.88,8.22,393.65,6.8,395.22,5.11z M394.81,12.11
			l2.11,0.98v-1.23c-0.13,0.09-0.26,0.17-0.38,0.25l-1.48-1.91c1.15-0.75,2.11-1.55,2.9-2.41c0.6-0.66,1.17-1.62,1.7-2.9l2.41,0.3
			c-0.16,0.49-0.35,0.94-0.55,1.34h5.06v1.64c-0.49,0.93-0.98,1.73-1.45,2.41h2.52V21.4h-4.29c-0.02,0.49-0.06,0.95-0.14,1.37h5.96
			v2.08h-5.99c1.51,0.89,3.04,1.9,4.57,3.04l-1.31,1.94c-1.82-1.55-3.29-2.68-4.4-3.39c-0.13,0.24-0.26,0.45-0.38,0.63
			c-1,1.49-2.64,2.63-4.92,3.42l-1.23-1.94c2.19-0.78,3.67-1.78,4.46-2.98c0.16-0.24,0.3-0.47,0.41-0.71h-4.32v-2.08h4.95
			c0.09-0.42,0.15-0.88,0.16-1.37h-4.24v-8.01c-0.6,1.35-1.22,2.47-1.86,3.36v13.84h-2.41V19.57c-0.57,0.55-1.15,1.08-1.75,1.61
			l-0.88-2.95c0.98-0.84,1.85-1.7,2.6-2.6C393.39,14.81,394.11,13.64,394.81,12.11z M398.5,10.58h3.83
			c0.56-0.58,1.15-1.28,1.75-2.08h-3.72c-0.13,0.2-0.27,0.39-0.44,0.57C399.5,9.62,399.03,10.12,398.5,10.58z M399.1,15.01h2.08
			v-2.49h-2.08V15.01z M401.18,19.44v-2.57h-2.08v2.57H401.18z M403.37,12.52v2.49h2.08v-2.49H403.37z M405.44,19.44v-2.57h-2.08
			v2.57H405.44z M408.31,13.91h7.63v2.52h-2.46v11.21c0,1-0.21,1.7-0.63,2.11c-0.4,0.42-1.13,0.63-2.19,0.63h-2.11l-0.6-2.73
			c0.8,0.13,1.46,0.19,1.97,0.19c0.69,0,1.04-0.22,1.04-0.66V16.43h-2.65V13.91z M408.62,6.47h6.78v2.52h-6.78V6.47z"/>
		<path d="M424.4,11.67h7.22v1.86c-0.88,1.51-2.01,3.12-3.42,4.81h3.28v1.59c-0.4,1.9-0.84,3.35-1.31,4.38
			c1.06,1.2,1.92,1.96,2.6,2.27c0.6,0.35,1.49,0.61,2.65,0.79c1.35,0.2,4,0.31,7.96,0.33c2.92,0,5.09-0.06,6.51-0.19l-0.41,2.65
			c-7.66,0-12.32-0.1-14-0.3c-1.59-0.22-2.82-0.56-3.69-1.01c-0.82-0.37-1.73-1.18-2.73-2.43c-0.77,1.31-1.76,2.67-2.98,4.07
			l-1.89-2c1.44-1.46,2.45-2.73,3.04-3.83c0.49-0.66,1.06-2.03,1.7-4.13h-3.75v-1.97c1.15-1.18,2.35-2.75,3.61-4.7h-4.38V11.67z
			 M427.46,5.22c1.26,1.28,2.32,2.53,3.17,3.77l-1.8,1.8c-0.69-1.22-1.7-2.55-3.01-3.99L427.46,5.22z M449.23,5.82v4.76h-1.2v1.09
			h-6.12v1.15h6.62v8.53h-6.62v1.42h7.44v2.08h-7.44v2.13h-2.41v-2.13h-7v-2.08h7v-1.42h-6.29v-8.53h6.29v-1.15h-5.58v-1.09h-1.75
			V5.82H449.23z M434.57,9.7h4.92V7.9h-4.92V9.7z M435.5,16.15h3.99v-1.48h-3.99V16.15z M439.49,19.49V17.9h-3.99v1.59H439.49z
			 M441.9,7.9v1.8h4.92V7.9H441.9z M441.9,14.68v1.48h4.32v-1.48H441.9z M446.22,19.49V17.9h-4.32v1.59H446.22z"/>
		<path d="M464.79,5.52l1.18,2.02c-1.51,0.24-3.25,0.42-5.2,0.55v1.78h5.74v2.08h-5.74v1.48h5.52v8.64h-5.52v1.59h4.98v1.86h-4.98
			v2.24c1.82-0.15,3.48-0.32,4.98-0.52v0.85c1.7-2.5,2.89-5.17,3.58-8.01c0.51-1.84,0.83-4.4,0.96-7.68h-3.01v-2.3h3.06
			c0-0.42,0-0.84,0-1.26V5.11h2.41v3.72c0,0.44,0,0.86,0,1.26h5.03c0,9.5-0.1,15.13-0.3,16.9c-0.15,1.38-0.43,2.28-0.85,2.68
			c-0.49,0.55-1.39,0.82-2.71,0.82c-0.6,0-1.3-0.04-2.11-0.11l-0.49-2.73c0.86,0.13,1.72,0.19,2.6,0.19c0.71,0,1.1-0.56,1.18-1.67
			c0.15-1.42,0.24-6.02,0.27-13.78h-2.71c-0.15,3.28-0.5,6.09-1.07,8.42c-0.69,3.12-2.06,6.31-4.1,9.57l-1.75-1.53v0.33
			c-2.46,0.44-6.79,0.84-12.99,1.2l-0.36-2.3c2.17-0.04,4.19-0.1,6.07-0.19v-2.38h-4.87v-1.86h4.87v-1.59h-5.09v-8.64h5.09v-1.48
			h-6.29V9.87h6.29V8.2c-1.5,0.05-3.1,0.08-4.81,0.08l-0.74-2.11C457.59,6.17,461.54,5.96,464.79,5.52z M455.79,17.03h2.68v-1.86
			h-2.68V17.03z M458.47,20.31v-1.75h-2.68v1.75H458.47z M460.77,15.17v1.86h3.12v-1.86H460.77z M463.88,20.31v-1.75h-3.12v1.75
			H463.88z"/>
		<path d="M484.58,4.89l2.49,0.96c-0.37,1.06-0.7,1.96-1.01,2.71h7.14v2.52h-3.8c-0.04,1.68-0.12,3.23-0.25,4.65h4.92v2.62h-5.28
			c-0.07,0.53-0.16,1.02-0.25,1.48c1.77,1.79,3.57,3.78,5.41,5.99l-1.8,2.71c-1.75-2.7-3.18-4.71-4.29-6.04
			c-0.02,0.02-0.03,0.04-0.03,0.05c-0.8,2.7-2.68,5.24-5.63,7.63l-1.8-2.19c2.37-1.79,3.97-3.7,4.81-5.74
			c0.44-1.06,0.78-2.35,1.04-3.88h-4.98v-2.62h5.31c0.16-1.42,0.26-2.97,0.3-4.65h-2c-0.55,1.02-1.41,2.17-2.6,3.45l-2.11-1.86
			c1.15-1.18,2.07-2.36,2.76-3.53C483.58,7.96,484.13,6.55,484.58,4.89z M505.28,7.4v22.67h-2.52v-1.89h-4.92v2.3h-2.52V7.4H505.28z
			 M497.85,25.78h4.92V9.81h-4.92V25.78z"/>
		<path d="M512.34,17.47h17.5v8.97h-5.09v0.85c0,0.53,0.33,0.79,0.98,0.79h4.54c0.36,0,0.63-0.11,0.79-0.33
			c0.18-0.22,0.31-1.24,0.38-3.06l2.43,0.79c-0.2,2.3-0.55,3.65-1.04,4.05c-0.4,0.42-1.15,0.63-2.24,0.63h-5.82
			c-0.77,0-1.39-0.2-1.86-0.6c-0.46-0.4-0.68-0.94-0.68-1.61v-1.5h-2.9c-0.77,1.15-1.61,1.99-2.54,2.52c-1.73,1.06-4.07,1.6-7,1.64
			l-1.39-2.19c2.83,0,4.77-0.24,5.82-0.71c0.88-0.37,1.59-0.78,2.13-1.26h-4.02V17.47z M516.14,5.22l0.79,1.91
			c-0.97,0.16-2.54,0.34-4.73,0.52l0.03,0.9h4.48v1.64h-4.43l0.05,1.31h4.38v1.64h-4.32l0.08,1.42h17.36l0.05-1.42h-3.99v-1.64h4.1
			l0.05-1.31h-4.16V8.55h4.24l0.05-1.04h-4.51v-2h6.89l-0.44,9.05h1.64v5.74h-2.41v-3.88h-20.34v3.88h-2.41v-5.74h1.56l-0.3-8.7
			C511.85,5.8,513.93,5.58,516.14,5.22z M514.74,20.09h12.69V19h-12.69V20.09z M514.74,22.5h12.69V21.4h-12.69V22.5z M527.43,24.9
			v-1.09h-12.69v1.09H527.43z M523.33,5l1.59,0.98c-0.6,0.57-1.16,1.02-1.67,1.37c0.6,0.42,1.12,0.79,1.56,1.12l-1.75,1.23
			c-0.47-0.4-0.99-0.83-1.56-1.29c-0.89,0.49-1.96,0.96-3.2,1.39l-1.04-1.7c0.93-0.24,1.8-0.55,2.62-0.93
			c-0.51-0.36-1.06-0.74-1.64-1.12l1.5-0.96c0.67,0.42,1.29,0.8,1.86,1.15C522.19,5.91,522.77,5.49,523.33,5z M523.77,9.59
			l1.59,0.98c-0.58,0.49-1.14,0.91-1.67,1.26c0.53,0.35,1.01,0.68,1.45,1.01l-1.45,1.45c-0.53-0.47-1.14-0.94-1.83-1.39
			c-0.97,0.47-2.12,0.94-3.45,1.39l-1.04-1.7c0.93-0.22,1.82-0.49,2.68-0.82c-0.51-0.31-1.04-0.61-1.59-0.9l1.31-1.29
			c0.78,0.4,1.52,0.8,2.21,1.2C522.59,10.45,523.18,10.05,523.77,9.59z"/>
	</g>
</g>
</svg>
