<?xml version="1.0" encoding="utf-8"?>
<!-- Generator: Adobe Illustrator 25.2.0, SVG Export Plug-In . SVG Version: 6.00 Build 0)  -->
<svg version="1.1" id="Layer_1" xmlns="http://www.w3.org/2000/svg" xmlns:xlink="http://www.w3.org/1999/xlink" x="0px" y="0px"
	 width="688.39px" height="40px" viewBox="0 0 688.39 40" style="enable-background:new 0 0 688.39 40;" xml:space="preserve">
<style type="text/css">
	.st0{enable-background:new    ;}
	.st1{fill:none;stroke:#00B987;stroke-width:3;stroke-miterlimit:10;stroke-dasharray:3,6;}
	.st2{fill:none;stroke:#00B987;stroke-width:2;stroke-miterlimit:10;stroke-dasharray:2,3,2,3,2,3;}
	.st3{fill:none;}
	.st4{fill:url(#SVGID_1_);}
	.st5{fill:url(#SVGID_2_);}
	.st6{fill:#FF0000;}
	.st7{fill:url(#SVGID_3_);}
	.st8{fill:url(#SVGID_4_);}
	.st9{fill:url(#SVGID_5_);}
	.st10{fill:url(#SVGID_6_);}
</style>
<g id="New_Symbol_2">
	<line class="st2" x1="5.16" y1="36.6" x2="601.81" y2="36.6"/>
	<g id="XMLID_4_">
		<g>
			<polygon class="st6" points="30.93,19 20.43,29.5 9.93,19 20.43,8.5 			"/>
			<polygon class="st6" points="28.18,8.5 26.02,10.66 34.36,19 26.02,27.34 28.18,29.5 38.68,19 			"/>
		</g>
	</g>
	<g class="st0">
		<path d="M51.91,12.93h17.94v2.52h-7.71v4.21h8.15v2.41h-8.15v5c1.44,0.24,3.34,0.36,5.71,0.36c1.93,0,3.91-0.07,5.93-0.22
			l-0.52,2.73c-6.82,0-11.15-0.25-12.99-0.74c-1.46-0.29-2.96-0.99-4.51-2.11c-0.86-0.6-1.6-1.35-2.24-2.24
			c-0.78,1.75-2.04,3.59-3.77,5.52l-1.89-2.32c1.53-1.59,2.66-3.14,3.39-4.68c0.77-1.44,1.38-3.37,1.83-5.8l2.65,0.44
			c-0.36,1.6-0.74,2.99-1.12,4.16c0.86,1.51,1.93,2.64,3.23,3.39c0.47,0.29,0.99,0.54,1.56,0.74V15.44h-7.49V12.93z M61.48,4.89
			c0.36,0.75,0.7,1.57,1.01,2.46h10.53v6.62h-2.62v-4.1H51.36v4.1h-2.62V7.35h10.8c-0.33-0.71-0.68-1.38-1.07-2L61.48,4.89z"/>
		<path d="M81.77,4.78l2.3,1.07c-0.69,2.17-1.4,4.03-2.13,5.58v18.95h-2.52V15.61c-0.77,1.11-1.6,2.21-2.52,3.28l-0.93-3.06
			c1.18-1.53,2.23-3.1,3.14-4.7C80.03,9.67,80.91,7.55,81.77,4.78z M82.86,26.38h18.81v2.52H82.86V26.38z M83.6,10.74h17.31v2.52
			H83.6V10.74z M87.67,14.19c1.39,2.95,2.62,6.33,3.72,10.12l-2.76,0.71c-0.89-3.46-2.05-6.8-3.47-10.01L87.67,14.19z M89.97,5
			c1.73,1.2,3.19,2.39,4.38,3.55l-1.91,1.91c-0.97-1.17-2.37-2.42-4.21-3.77L89.97,5z M96.53,14.19l2.62,0.71
			c-0.88,3.76-2,7.2-3.39,10.34l-2.62-0.96C94.46,21.63,95.58,18.27,96.53,14.19z"/>
		<path d="M105.26,12.11c1.57,0.69,3,1.52,4.29,2.49l-1.75,2.65c-1.31-1.22-2.66-2.19-4.05-2.9L105.26,12.11z M108.32,18.67
			l2.21,1.64c-1.22,3.87-2.62,7.22-4.18,10.06l-2.05-2.3C105.59,25.89,106.93,22.75,108.32,18.67z M106.57,5.22
			c1.6,0.75,3.07,1.65,4.4,2.71l-1.75,2.65c-1.35-1.31-2.73-2.35-4.16-3.12L106.57,5.22z M126.99,5.6v7.33h1.91v6.18h-2.08v8.48
			c0,0.95-0.24,1.66-0.71,2.13c-0.4,0.44-0.98,0.66-1.72,0.66h-3.34l-0.57-2.52l2.84,0.11c0.58-0.04,0.88-0.41,0.88-1.12v-1.01
			h-9.52v4.76h-2.62V19h-2.08v-6.07h1.91V5.6H126.99z M112.39,16.7h14.11v-1.48h-14.11V16.7z M114.42,12.93h2.79V9.32h7.27V7.9
			h-10.06V12.93z M114.69,20.31h9.52v-1.42h-9.52V20.31z M114.69,23.76h9.52v-1.48h-9.52V23.76z M119.83,12.93h4.65v-1.75h-4.65
			V12.93z"/>
		<path d="M132.52,6.91h4.98v-1.8h2.52v1.8h4.65v2.3h-4.65v1.86h4.43V23.1h-4.43v1.8h4.43v1.42c0.93-1.79,1.61-3.64,2.05-5.55
			c0.49-1.95,0.77-4.75,0.82-8.39h-2.43V9.87h2.46V4.89h2.52v4.98h4.81l-0.85,15.48c0,0.67,0.09,1.13,0.27,1.37
			c0.2,0.2,0.41,0.3,0.63,0.3h0.19c0.15,0,0.28-0.08,0.41-0.25c0.11-0.11,0.24-1.57,0.38-4.38l2.41,0.74
			c-0.25,3.34-0.61,5.26-1.07,5.77c-0.46,0.47-1.08,0.71-1.89,0.71h-1.59c-0.53,0-1.01-0.24-1.45-0.71
			c-0.49-0.57-0.74-1.43-0.74-2.6l0.71-13.92h-2.27c-0.07,3.65-0.38,6.72-0.93,9.21c-0.64,2.9-1.84,5.86-3.61,8.89l-2.13-1.89
			c0.33-0.49,0.62-0.99,0.88-1.5h-4.02v3.72h-2.52v-3.72h-5.3V24.9h5.3v-1.8h-4.43V11.07h4.43V9.21h-4.98V6.91z M135.47,16.1h2.02
			v-2.95h-2.02V16.1z M137.49,21.02v-3.06h-2.02v3.06H137.49z M140.01,13.15v2.95h2.02v-2.95H140.01z M142.03,21.02v-3.06h-2.02
			v3.06H142.03z"/>
		<path d="M165.6,4.89c0.4,0.93,0.79,1.97,1.18,3.12h3.91v2.3h-10.61v-2.3h4.1c-0.38-0.98-0.8-1.89-1.26-2.71L165.6,4.89z
			 M169.54,20.37v8.09h-6.12v2.02h-2.52V20.37H169.54z M161.06,12.22h8.53v2.19h-8.53V12.22z M161.06,16.26h8.53v2.19h-8.53V16.26z
			 M163.42,26.16h3.61v-3.5h-3.61V26.16z M182.12,5.6v6.43c0,0.69,0.35,1.04,1.04,1.04h2.19v2.54h-2.82c-1.08,0-1.86-0.23-2.35-0.68
			c-0.53-0.46-0.79-1.26-0.79-2.41V7.9h-4.21c-0.05,1.88-0.22,3.24-0.49,4.07c-0.33,1.09-1.19,2.38-2.6,3.86l-2.05-1.78
			c1.17-1.28,1.9-2.29,2.19-3.04c0.22-0.69,0.33-2.5,0.33-5.41H182.12z M171.15,16.21h12.11v1.97c-0.66,2.81-1.78,5.23-3.36,7.27
			c1.57,0.95,3.53,1.77,5.88,2.46l-1.67,2.46c-2.61-0.91-4.68-1.9-6.21-2.95c-1.59,1.22-3.7,2.28-6.34,3.17l-1.53-2.32
			c2.37-0.75,4.27-1.61,5.71-2.6c-1.6-1.53-2.93-3.31-3.96-5.33l2.3-1.34c0.98,1.99,2.23,3.62,3.75,4.89
			c1.26-1.48,2.18-3.27,2.76-5.39h-9.43V16.21z"/>
		<path d="M193.93,4.89c0.55,0.93,1.07,1.97,1.56,3.12h4.62v2.3h-12.03v-2.3h4.81c-0.49-0.98-1.04-1.89-1.64-2.71L193.93,4.89z
			 M189.06,12.33h10.09v2.19h-10.09V12.33z M189.06,16.26h10.09v2.19h-10.09V16.26z M191.63,28.46v2.02h-2.52V20.37h9.73v9.71h-2.52
			v-1.61H191.63z M196.34,26.16v-3.5h-4.7v3.5H196.34z M200.55,12.82h5.3V4.89h2.73v7.93H214v2.52h-5.41v15.26h-2.73V15.33h-5.3
			V12.82z"/>
		<path d="M231.53,12.33c1.68,0.78,3.2,1.72,4.57,2.82l-1.67,2.54c-1.4-1.35-2.85-2.42-4.35-3.2L231.53,12.33z M234.65,19l2.11,1.56
			c-1.31,3.81-2.81,7.12-4.48,9.93l-1.97-2.19C231.68,26.13,233.13,23.03,234.65,19z M232.9,5.52c1.64,0.84,3.14,1.82,4.51,2.95
			l-1.75,2.65c-1.39-1.4-2.81-2.52-4.27-3.34L232.9,5.52z M238.72,8.72h5.63V4.89h2.73v3.83h7.27v2.41h-7.27v4.87h8.48v2.52h-9.73
			c-0.58,2.5-1.54,5.11-2.87,7.85c3.06-0.18,5.63-0.53,7.71-1.04c-0.75-1.53-1.52-2.95-2.32-4.27l2.52-0.85
			c1.8,2.86,3.37,5.9,4.7,9.11l-2.62,1.18c-0.38-0.97-0.77-1.88-1.15-2.73c-3.28,0.73-8.04,1.31-14.27,1.75l-0.88-2.98
			c1.02,0,2-0.01,2.93-0.03c1.37-2.44,2.45-5.1,3.25-7.98h-5.74v-2.52h7.27v-4.87h-5.63V8.72z"/>
		<path d="M282.8,5.52v24.86h-2.41V29.5h-18.81v0.88h-2.41V5.52H282.8z M261.58,27.31h18.81V7.73h-18.81V27.31z M271.75,21.3v2.13
			c-2.48,0.64-5.39,1.28-8.72,1.91l-0.57-2.41C265.63,22.61,268.73,22.06,271.75,21.3z M262.56,10.85h8.97
			c-0.02-0.84-0.04-1.7-0.05-2.57h2.3c0,0.93,0.02,1.79,0.05,2.57h2.57c-0.25-0.71-0.57-1.38-0.93-2.02l2.02-0.66
			c0.47,0.69,0.89,1.49,1.26,2.38l-1.18,0.3h2.02v2.08h-5.69c0.07,1.79,0.21,3.25,0.41,4.37c0.16,0.95,0.36,1.81,0.57,2.6
			c0.88-1.4,1.76-3.45,2.65-6.15l1.86,1.23c-1.28,3.35-2.42,5.82-3.45,7.38c-0.04,0.05-0.06,0.1-0.08,0.14
			c0.04,0.11,0.08,0.21,0.14,0.3c0.46,0.88,0.88,1.31,1.26,1.31c0.16,0,0.41-1.08,0.74-3.25l2.16,1.67
			c-0.58,2.06-1.03,3.26-1.34,3.61c-0.31,0.42-0.74,0.63-1.29,0.63c-0.78,0-1.58-0.51-2.38-1.53c-0.25-0.33-0.48-0.66-0.68-0.98
			c-0.91,0.98-1.96,1.9-3.14,2.73l-1.34-1.8c1.39-0.98,2.52-2.02,3.42-3.12c-0.36-0.98-0.69-2.06-0.98-3.23
			c-0.38-1.51-0.65-3.48-0.79-5.91h-9.08V10.85z M263.44,14.35h6.67v6.45h-6.67V14.35z M268.14,18.94v-2.73h-2.73v2.73H268.14z"/>
		<path d="M286.3,6.64h11.21V5.22h2.52v1.42h11.43v1.97h-11.43v1.26h9.3v8.53h-1.31c1.18,1.26,2.11,2.35,2.79,3.28l-1.97,1.39
			c-0.29-0.47-0.6-0.97-0.93-1.48c-0.77,0.05-1.53,0.1-2.3,0.14v1.7h5.85v2.08h-5.85v2.35c0,0.93-0.21,1.58-0.63,1.94
			c-0.4,0.38-1.13,0.57-2.19,0.57h-2.71l-0.55-2.52c1.02,0.11,1.86,0.16,2.52,0.16c0.69,0,1.04-0.2,1.04-0.6v-1.91H286.3v-2.08
			h16.79v-1.5c-4.65,0.27-9.75,0.54-15.31,0.79l-0.49-2.19c3.48-0.09,6.89-0.21,10.23-0.36V18.4h-9.19V9.87h9.19V8.61H286.3V6.64z
			 M290.84,13.31h6.67v-1.59h-6.67V13.31z M297.51,16.54v-1.48h-6.67v1.48H297.51z M292.75,25.78c1.99,0.78,3.66,1.57,5.03,2.35
			l-1.91,1.94c-1.13-0.78-2.75-1.65-4.87-2.6L292.75,25.78z M300.03,11.72v1.59h6.78v-1.59H300.03z M306.81,16.54v-1.48h-6.78v1.48
			H306.81z M300.03,18.4v1.67c2.19-0.11,4.35-0.22,6.48-0.33c-0.18-0.24-0.36-0.46-0.52-0.66l1.09-0.68H300.03z"/>
		<path d="M326.25,5.11l0.96,2.54c-1.37,0.46-2.92,0.85-4.65,1.18v3.66h5.09v2.52h-5.09v0.22c1.8,1.73,3.61,3.67,5.41,5.82
			l-1.56,2.32c-1.51-2.21-2.8-3.95-3.86-5.22v12.44h-2.52V18.67c-0.51,1.19-0.98,2.12-1.39,2.82c-0.91,1.55-2.05,3.05-3.42,4.51
			l-1.48-2.52c1.35-1.2,2.52-2.64,3.53-4.32c0.73-1.2,1.38-2.59,1.94-4.16h-4.92v-2.52h5.74V9.26c-1.48,0.22-3.06,0.4-4.76,0.55
			l-0.55-2.54C319.06,6.92,322.89,6.2,326.25,5.11z M329.39,7.08h2.62V24.9h-2.62V7.08z M335.22,30.26h-4.32l-0.63-2.84
			c1.68,0.13,3.06,0.19,4.16,0.19c0.77,0,1.15-0.23,1.15-0.68V5h2.73v22.42c0,1.04-0.23,1.77-0.68,2.19
			C337.19,30.05,336.38,30.26,335.22,30.26z"/>
		<path d="M366.09,13.09h-19.03v2.02h20.02c-0.05,8.08-0.59,12.69-1.61,13.84c-0.53,1.02-2.37,1.53-5.52,1.53l-0.57-2.84
			c0.88,0.15,1.59,0.22,2.16,0.22c0.89,0,1.57-0.35,2.02-1.04c0.4-0.67,0.67-3.81,0.79-9.41H347c-0.07,1.68-0.24,3.41-0.49,5.2
			c-0.47,2.7-1.26,5.36-2.35,7.98l-2.19-1.97c1.04-2.15,1.75-4.41,2.13-6.78c0.29-2.42,0.44-4.68,0.44-6.78V5.87h21.55V13.09z
			 M363.57,8.28h-16.52v2.41h16.52V8.28z M349.24,19.44h11.92v7.33h-11.92V19.44z M358.65,24.36v-2.52h-6.89v2.52H358.65z"/>
		<path d="M375.38,4.89c0.35,0.93,0.67,1.97,0.98,3.12h3.88v2.3h-10.39v-2.3h3.91c-0.31-0.98-0.67-1.89-1.07-2.71L375.38,4.89z
			 M379.1,20.37v6.51c0.78-1.82,1.3-3.75,1.56-5.8l2.21,0.57c-0.27,2.3-0.82,4.51-1.64,6.64l-2.13-0.71v0.88h-5.91v2.02h-2.52V20.37
			H379.1z M370.85,12.22h8.2v2.19h-8.2V12.22z M370.85,16.26h8.2v2.19h-8.2V16.26z M373.2,26.16h3.39v-3.5h-3.39V26.16z
			 M381.87,9.81l2.21,0.57c-0.27,1.59-0.82,3.11-1.64,4.57l-2.41-0.79C380.96,12.81,381.57,11.36,381.87,9.81z M391.24,17.9
			c-0.89,0-1.65-0.04-2.27-0.11l-0.41-2.3c1.35,0.11,2.13,0.16,2.35,0.16c0.51,0,0.85-0.18,1.01-0.55c0.31-0.27,0.54-2.42,0.68-6.45
			h-4.24c-0.18,2.62-0.76,4.76-1.72,6.4c-0.95,1.64-2.61,3.17-4.98,4.59l-1.42-2.24c1.95-0.98,3.38-2.14,4.29-3.47
			c0.86-1.26,1.36-3.02,1.5-5.28h-5.14v-2.3h14.25c-0.22,5.76-0.47,8.89-0.77,9.38c-0.2,0.73-0.54,1.24-1.01,1.53
			C392.98,17.64,392.26,17.85,391.24,17.9z M389.33,28.08c0.29,0,0.5-0.11,0.63-0.33c0.16-0.22,0.27-1.24,0.33-3.06l2.32,0.77
			c-0.18,2.37-0.49,3.76-0.93,4.18c-0.36,0.42-1.04,0.63-2.02,0.63h-4.02c-0.73,0-1.31-0.21-1.75-0.63
			c-0.46-0.42-0.68-0.98-0.68-1.7v-6.86h2.41v6.15c0,0.56,0.32,0.85,0.96,0.85H389.33z M387.58,17.8c0.93,1.35,1.73,2.79,2.41,4.32
			l-2.27,1.04c-0.69-1.73-1.47-3.27-2.32-4.62L387.58,17.8z M393.81,20.2c0.89,2.04,1.66,4.21,2.3,6.51l-2.27,1.04
			c-0.66-2.55-1.4-4.82-2.24-6.81L393.81,20.2z"/>
		<path d="M403.38,4.89c0.27,0.89,0.54,1.9,0.79,3.01h3.75v2.3h-10.06V7.9h3.75c-0.25-0.93-0.56-1.8-0.9-2.6L403.38,4.89z
			 M398.74,12.11h7.98v1.37c1.28-0.66,2.32-1.28,3.14-1.86c-0.53-0.56-1.15-1.15-1.86-1.75l1.53-1.48c0.77,0.58,1.45,1.15,2.05,1.7
			c0.58-0.62,1.1-1.37,1.56-2.24h-4.68V5.65h7.52c0.33,0.69,0.73,1.38,1.2,2.05c0.27-0.18,0.51-0.38,0.71-0.6
			c0.38-0.36,0.77-0.85,1.15-1.45l1.89,1.18c-0.47,0.8-0.93,1.41-1.37,1.83c-0.27,0.29-0.57,0.57-0.88,0.82
			c0.27,0.29,0.56,0.57,0.85,0.85c0.35-0.24,0.66-0.49,0.93-0.77c0.46-0.44,0.9-1.01,1.34-1.72l1.97,1.23
			c-0.55,0.91-1.08,1.61-1.59,2.11c-0.25,0.26-0.51,0.49-0.77,0.71c0.8,0.62,1.66,1.2,2.57,1.75l-1.42,1.97
			c-1.08-0.66-2.02-1.31-2.84-1.97v1.15h-8.31v-1.42c-0.93,0.75-2.02,1.5-3.28,2.24l-1.42-1.72v0.41h-7.98V12.11z M398.74,16.26
			h8.09v2.19h-8.09V16.26z M406.88,20.58v7.98h-5.58v1.91h-2.52v-9.9H406.88z M401.31,26.27h3.06v-3.39h-3.06V26.27z M412.9,24.03
			c0.53,1.06,1.03,2.31,1.5,3.77h2.13c0.57-1.17,0.97-2.39,1.2-3.66l2.65,0.36c-0.29,1.19-0.72,2.29-1.29,3.31h4.35v2.08h-15.31
			V27.8h3.72c-0.35-0.89-0.78-1.86-1.31-2.9L412.9,24.03z M408.8,16.76h13.23v6.89H408.8V16.76z M419.6,21.57v-2.73h-8.39v2.73
			H419.6z M412.41,12.49h5.93c-0.15-0.15-0.28-0.28-0.41-0.41c-1.08-1-1.99-2.11-2.73-3.31c-0.6,1.13-1.21,2.03-1.83,2.71
			C413.09,11.83,412.77,12.16,412.41,12.49z"/>
	</g>
</g>
</svg>
