<?xml version="1.0" encoding="utf-8"?>
<!-- Generator: Adobe Illustrator 25.2.0, SVG Export Plug-In . SVG Version: 6.00 Build 0)  -->
<svg version="1.1" id="Layer_1" xmlns="http://www.w3.org/2000/svg" xmlns:xlink="http://www.w3.org/1999/xlink" x="0px" y="0px"
	 viewBox="0 0 1200 81" style="enable-background:new 0 0 1200 81;" xml:space="preserve">
<style type="text/css">
	.st0{fill:url(#SVGID_1_);}
	.st1{fill:url(#SVGID_2_);}
	.st2{opacity:0;}
</style>
<symbol  id="New_Symbol" viewBox="-53.24 -38.89 106.48 77.78">
	<linearGradient id="SVGID_1_" gradientUnits="userSpaceOnUse" x1="-53.2931" y1="18.3837" x2="72.7069" y2="-41.0946">
		<stop  offset="0" style="stop-color:#7F47DD"/>
		<stop  offset="0.5169" style="stop-color:#FBAE17"/>
		<stop  offset="1" style="stop-color:#FBAE17"/>
	</linearGradient>
	<polygon class="st0" points="24.54,0 -14.35,-38.89 -53.24,0 -14.35,38.89 	"/>
	<g>
		<linearGradient id="SVGID_2_" gradientUnits="userSpaceOnUse" x1="-48.0636" y1="29.4617" x2="77.9364" y2="-30.0165">
			<stop  offset="0" style="stop-color:#7F47DD"/>
			<stop  offset="0.5169" style="stop-color:#FBAE17"/>
			<stop  offset="1" style="stop-color:#FBAE17"/>
		</linearGradient>
		<polygon class="st1" points="53.24,0 14.35,-38.89 -24.54,0 14.35,38.89 		"/>
		
			<rect x="-29.15" y="-27.5" transform="matrix(0.7071 -0.7071 0.7071 0.7071 -0.4836 -1.1676)" class="st2" width="55" height="55"/>
	</g>
</symbol>
<symbol  id="New_Symbol_2" viewBox="-396.81 -57.78 793.62 115.56">
	<g>
		<path d="M-363.09,8.16c2.22-0.3,4.56-0.42,7.08-0.42c3.18,0,13.08,0,17.16,0.12c-1.08-1.68-2.22-5.1-2.58-7.26h-14.94
			c-11.22,0-19.44,1.86-24.9,10.56c-1.98-4.68-4.62-8.58-8.04-11.52c-1.14,1.26-4.2,3.78-5.82,4.74c6.48,4.86,9.48,13.2,10.56,23.4
			l7.26-0.66c-0.3-2.52-0.78-4.98-1.26-7.26c1.8-4.92,4.56-7.8,8.04-9.6V30.6h-12.78v6.84h33V30.6h-12.78v-7.08h16.44V16.8h-16.44
			V8.16z M-385.41,34.44h-7.02v15h22.26c-0.6,1.68-1.32,3.42-2.1,4.98l7.2,1.98c1.2-2.1,2.46-4.8,3.12-6.96h20.82v-15h-7.38v8.28
			h-36.9V34.44z"/>
		<path d="M-314.49,53.46c-1.56-4.08-3.42-8.22-5.58-12.12V-0.18h-7.2v30.3c-1.26-1.56-2.52-3.06-3.78-4.44
			c-0.66,1.8-2.64,5.7-3.84,7.44c5.4,5.4,10.62,13.92,13.68,22.44L-314.49,53.46z M-279.57,9V2.1h-37.62V9h20.88
			c2.04,7.8,4.08,19.44,4.92,28.08l7.44-1.14c-1.5-9-3.72-19.44-5.82-26.94H-279.57z M-300.99,45.72c-0.42,2.58-1.62,6.42-2.64,9.24
			l6.78,1.68c1.2-2.88,2.4-6.66,3.06-9.12l-6.3-1.8h18.48v-6.9h-33.42v6.9H-300.99z M-307.95,10.68
			c-0.48,6.24-1.92,16.74-3.54,24.78l6.48,1.44c1.8-7.86,3.48-18.18,4.08-24.24L-307.95,10.68z"/>
		<path d="M-264.51,26.58c-2.22,1.86-6.84,4.74-10.08,6.78l4.14,4.92c3.18-1.74,7.86-4.38,10.26-6.18L-264.51,26.58z M-258.09,19.26
			c-2.34-6.06-5.16-12.6-7.92-18.12l-6.48,4.14c2.52,4.44,6,11.58,8.7,18.24L-258.09,19.26z M-261.15,42.6
			c-2.16,2.04-6.96,5.4-10.2,7.68l4.38,4.74c3.24-2.04,8.1-5.04,10.44-7.02L-261.15,42.6z M-219.63,26.52h-5.7V6.06
			c0-3-0.66-4.5-2.76-5.4c-1.98-0.96-4.92-0.96-8.94-0.96c-0.3,1.68-1.08,4.02-1.92,5.58c2.34-0.12,5.04-0.12,5.82-0.12
			c0.72,0,1.02,0.24,1.02,1.02v4.8c-5.28-1.32-10.62-2.7-14.94-3.66l-1.44,3.84c-0.78-4.26-2.22-8.58-4.62-11.88
			c-1.26,1.14-4.2,3.06-5.82,3.72c4.2,5.64,4.68,13.38,4.68,18.9v4.62h-5.34v11.22h5.64V53.7h28.32V37.74h6V26.52z M-226.47,32.28
			h-26.64v-2.82h26.64V32.28z M-232.11,16.2v7.74h-15.48v-2.16c0-2.7-0.12-5.82-0.6-9c3.3,0.6,7.62,1.56,12.18,2.58
			c-2.94,1.14-7.62,2.4-11.28,2.94l2.22,4.26c4.02-0.42,9.24-1.68,12.06-2.94l-1.92-4.02L-232.11,16.2z M-247.53,37.74h4.5v7.8
			h10.74v2.76h-15.24V37.74z M-232.29,37.74v3.48h-5.04v-3.48H-232.29z"/>
		<path d="M-163.89,7.14c0.24,0,0.54,0.12,0.78,0.36c0.12,0.36,0.3,1.02,0.42,1.74c0.06,1.2,0.18,4.02,0.12,7.38
			c1.2-1.08,3.18-2.22,4.8-2.7c-0.06-3.42-0.3-7.38-0.6-9c-0.42-1.8-1.02-2.82-1.86-3.6c-0.96-0.72-2.28-1.14-3.48-1.14h-3.12
			c-1.56,0-3.12,0.48-4.14,1.68c-0.96,1.02-1.26,2.28-1.26,6.3v28.8h-3.84v-2.58c0-12.3-1.02-25.5-10.62-35.04
			c-1.32,1.38-3.84,3.48-5.58,4.38c1.8,1.74,3.24,3.6,4.44,5.58h-9.72v-9.48h-6.6V9.3h-10.62v6.18h10.62v3.54h-8.52v21.66h8.52v3.24
			h-9.78v6.18h9.78v5.64h6.72V50.1h9.54v-6.18h-9.54v-3.24h8.82V19.02h-8.94v-3.54h10.08V9.9c4.32,7.44,4.86,16.08,4.86,24.48v2.58
			h-4.68v6.24h4.68v12.48h6.54V43.2h10.38V8.52c0-0.36,0.06-0.78,0.18-0.96c0.18-0.24,0.42-0.42,0.72-0.42H-163.89z M-207.21,32.16
			h3.78v3.54h-3.78V32.16z M-207.21,23.94h3.78v3.54h-3.78V23.94z M-194.25,35.7h-3.96v-3.54h3.96V35.7z M-194.25,27.48h-3.96v-3.54
			h3.96V27.48z"/>
		<path d="M-131.01,40.26h-23.4v5.64h9.9c-0.9,2.28-2.46,5.28-3.84,7.56l5.58,2.58c1.62-2.46,3.48-5.76,4.38-7.98l-4.02-2.16h11.4
			V40.26z M-133.47,36.18c5.88,3.24,6.6,7.38,6.6,11.28v6.42h20.22V40.8c0-1.74,0.12-2.46,0.84-2.46h2.4c0.84,0,2.16,0.18,2.94,0.42
			c0.12-1.8,0.3-4.26,0.48-5.94c-0.84-0.36-2.16-0.42-3.36-0.42h-3.12c-5.64,0-6.72,2.52-6.72,8.46v6.42h-7.2v-0.06
			c0-5.82-1.68-12.54-9.18-16.56c-0.66,1.14-2.52,3.24-3.9,4.44v-2.94h-18.36v5.4h18.36V36.18z M-133.35,24.12h-18.48v5.4h18.48
			V24.12z M-101.25,28.26c-1.98-7.38-5.28-13.08-9.6-17.46c3.66-1.92,7.8-3.42,12.42-4.32c-1.5-1.44-3.42-4.5-4.38-6.42
			c-5.28,1.26-9.9,3.24-13.92,5.88c-4.08-2.64-8.76-4.68-13.92-6.06c-0.6,1.5-1.68,3.66-2.76,5.34V3.06h-12.3V0.54h-6.06v20.7h18.36
			V6.42c4.02,0.96,7.74,2.34,11.04,4.26c-3.12,3.12-5.76,6.9-7.86,11.16l3.9,1.38h-5.58v6.66h25.02l1.2,0.3L-101.25,28.26z
			 M-139.59,15.54h-6.12V8.82h6.12V15.54z M-123.81,23.22c1.74-3.24,4.14-6.06,7.08-8.52c2.64,2.4,4.8,5.22,6.42,8.52H-123.81z"/>
		<path d="M-68.01,40.26h-25.26v5.64h10.44c-0.9,2.28-2.46,5.28-3.84,7.56l5.58,2.58c1.62-2.46,3.48-5.76,4.38-7.98l-3.96-2.16
			h12.66V40.26z M-90.63,32.16v5.4h20.1v-5.4H-90.63z M-70.65,24.12h-19.98v5.4h19.98V24.12z M-70.41,3.06h-13.98V0.54h-6v20.7
			h19.98V3.06z M-84.39,15.54V8.82h7.8v6.72H-84.39z M-39.21,28.86h-11.1v-29.1h-7.44v29.1h-10.5v7.02h10.5v18.84h7.44V35.88h11.1
			V28.86z"/>
		<path d="M-9.75,27.36c-2.34,1.98-7.38,4.8-11.22,6.48l3.78,5.34c3.72-1.44,8.82-3.9,11.4-5.88L-9.75,27.36z M-18.87,5.22
			c3.24,4.56,7.8,11.94,11.34,18.9l5.28-4.8c-3.18-6.24-7.02-13.08-10.56-18.9L-18.87,5.22z M-6.27,43.26
			c-2.4,2.04-7.32,4.92-11.16,6.66l3.9,5.28c3.78-1.5,8.88-4.14,11.4-6.06L-6.27,43.26z M27.93-0.24c-0.42,1.56-1.14,3.42-2.1,5.28
			C5.85,2.64,2.79,2.16,0.81,1.14C0.39,2.7-0.81,6.24-1.71,8.28c1.38,0.42,2.52,1.68,3.9,3.84c1.08,1.62,3.96,6.9,6.36,12.84H-2.73
			v6.72h14.22v8.46H-0.33v6.78h11.82v8.94h7.26v-8.94h12.24v-6.78H18.75v-8.46h14.46v-6.72H16.89c-2.4-5.46-5.4-10.86-8.34-15.42
			l14.1,1.44c-1.26,2.16-2.64,4.32-4.02,6.18l5.82,2.88c3.96-5.22,8.34-12.18,9.9-17.04L27.93-0.24z"/>
		<path d="M92.37,53.28v-53.7h-7.08V2.1H47.97v-2.52h-6.78v53.7H92.37z M85.29,8.46v38.4h-7.44c1.92-0.96,3.96-2.34,5.04-3.48
			l-2.4-2.52h2.88v-5.04H72.63c0.3-3.36,0.66-6.48,1.14-9.18c1.2,2.34,2.1,4.8,2.82,7.5l5.46-1.08c-1.44-5.22-3.6-9.78-6.3-13.74
			c0.78-1.8,1.68-2.94,2.76-3.18c0.66-0.24,1.14,2.1,1.38,5.58c1.08-1.08,3.24-2.7,4.44-3.36c-0.96-7.38-4.08-9.66-8.04-7.86
			c-1.8,0.6-3.3,1.98-4.5,3.96c-1.92-1.92-3.96-3.66-6.24-5.1c-0.78,1.08-2.7,3.36-3.9,4.32c0.66,0.36,1.32,0.78,1.92,1.2
			c-4.8-0.72-9.48-1.38-13.44-2.04l-0.66,5.22c4.38,0.48,10.62,1.2,16.86,2.04l0.12-3c1.08,0.9,2.04,1.92,3,3
			c-1.26,4.32-2.04,9.78-2.58,15.72H50.19v5.04h16.26c-0.12,1.68-0.18,3.36-0.3,5.1h5.88c0.06-1.74,0.12-3.42,0.24-5.1h6.48
			c-1.26,1.08-3.06,2.34-4.62,3.18l2.82,2.82H47.97V8.46H85.29z M65.07,21.84H51.69v11.4h13.38V21.84z M60.27,29.46h-4.02v-3.84
			h4.02V29.46z"/>
		<path d="M154.11,12.48h-13.38V6.66c0-3.3-0.6-4.98-3.06-5.94c-2.4-0.9-5.76-0.96-10.32-0.96c-0.3,1.92-1.2,4.44-2.04,6.24
			c2.88-0.12,6.3-0.12,7.26-0.12c0.96,0.06,1.26,0.24,1.26,1.02v5.58h-16.92c2.52-1.8,5.04-3.9,6.42-5.52l-5.28-4.56
			c-1.74,2.34-5.76,5.76-9,7.98l2.52,2.1h-12v5.64h34.26v2.22c-11.82-0.24-23.16-0.42-31.56-0.48l-0.18,5.1
			c5.64-0.06,13.02,0,21.12,0v2.16h-17.28V44.4h17.28v2.16h-22.02v5.4h22.02v3.78h6.96v-3.78h21.9v-5.4h-21.9V44.4h18.12V27.12
			h-4.02c3-1.56,5.82-3.36,7.74-4.8l-4.38-3.66c-0.72,0.6-1.56,1.32-2.52,1.98l-4.38-0.12v-2.4h13.38V12.48z M112.59,37.86h10.62
			v2.22h-10.62V37.86z M123.21,31.5v2.28h-10.62V31.5H123.21z M130.17,40.08v-2.22h11.16v2.22H130.17z M141.33,31.5v2.28h-11.16
			V31.5H141.33z M130.17,25.02l7.56,0.06c-0.84,0.36-1.68,0.78-2.46,1.08l1.2,0.96h-6.3V25.02z"/>
		<path d="M178.23,38.04h10.8v-6.6h-10.8v-2.1c3-2.4,8.88-7.68,10.44-9.12l-4.08-6.06c-1.5,1.86-4.02,4.74-6.36,7.32v-21.6h-7.2
			v21.18c-2.64-5.4-5.76-10.38-9-13.8c-0.72,2.16-2.52,5.16-3.66,7.02c4.26,4.14,8.7,10.92,11.4,17.16h-10.08v6.6h11.34v7.38
			c-3.36-0.66-6.72-1.2-9.9-1.62c-0.3,1.62-1.26,4.08-2.1,5.58c8.7,1.32,18.3,3.54,24.12,6.18l5.04-5.46
			c-2.94-1.2-6.36-2.22-9.96-3.12V38.04z M199.59,15h-7.14v33.54h7.14V15z M212.31,54.78V8.64c0-4.26-0.84-6.12-3.3-7.32
			c-2.46-1.2-6.42-1.44-11.94-1.44c-0.3,2.1-1.38,5.4-2.46,7.44c3.9-0.18,7.8-0.18,9-0.18c1.14,0.06,1.62,0.36,1.62,1.56v46.08
			H212.31z"/>
		<path d="M272.43,32.04c0,0-0.06-2.04-0.12-2.88c-0.6-17.4-1.26-24.18-3.06-26.46c-1.32-1.74-2.64-2.28-4.56-2.58
			c-1.74-0.3-4.5-0.36-7.5-0.24c-0.12,1.74-0.66,4.02-1.44,5.82h-14.16V2.16h-6.6v20.16h23.64V6.36c0.96,0,1.8,0,2.34,0
			c0.9-0.06,1.44,0.18,1.98,0.84c1.02,1.2,1.68,6.06,2.1,18.66h-33.3c-0.9-8.58-3.06-17.88-7.8-24.54c-1.2,1.32-4.14,3.72-5.76,4.5
			c6.6,9.36,7.2,23.04,7.2,32.58v14.64h42.6V35.88h-35.58c-0.06-1.2-0.06-2.52-0.18-3.84H272.43z M232.41,47.04v-5.16h28.44v5.16
			H232.41z M251.97,16.68h-10.38v-5.34h10.38V16.68z"/>
		<path d="M300.33,40.26h-21.6v5.64h8.7c-0.72,2.28-1.98,5.28-3.12,7.62l6,2.1c1.38-2.58,2.94-5.94,3.66-8.16l-4.02-1.56h10.38
			V40.26z M298.89,8.76c1.5,3.3,2.46,7.74,2.94,11.76l4.98-1.44c-0.66-4.74-1.68-10.38-3.78-13.8l-4.14,1.74V2.94h-12.6v-2.4h-5.88
			v20.52h18.48V8.76z M299.07,32.1h-18.6v5.4h18.6V32.1z M280.47,29.34h18.6V24h-18.6V29.34z M292.95,15.42h-6.66v-6.9h6.66V15.42z
			 M320.49,47.76c-1.2-10.44-4.26-19.2-15.6-24.48c-0.78,1.62-2.52,3.9-3.96,5.04c4.38,1.86,7.32,4.32,9.24,7.2
			c-2.28,2.22-5.76,5.22-8.28,7.44l3.78,3.78c2.1-1.68,4.86-3.84,7.08-5.76c0.66,2.1,1.08,4.38,1.38,6.78h-11.52v6h30.6
			c0,0-0.06-1.92-0.18-2.7c-0.6-14.94-1.32-20.76-2.94-22.74c-1.14-1.56-2.52-2.1-4.38-2.4c-1.62-0.24-4.26-0.24-6.96-0.12
			c-0.18,1.86-0.9,4.44-1.86,6.12c2.28-0.18,4.5-0.24,5.58-0.24c0.78,0,1.32,0.12,1.92,0.72c0.84,1.08,1.44,5.22,1.92,15.36H320.49z
			 M320.37,6.6c1.74,0,2.04,0.96,2.22,7.26c1.32-0.96,3.84-1.86,5.46-2.28c-0.6-8.34-2.22-10.5-7.02-10.5h-6.6
			c-5.88,0-7.32,1.8-7.32,7.44V21.6h6.12V8.58c0-1.74,0.3-1.98,2.1-1.98H320.37z M316.41,26.64c2.64-2.7,5.46-6.36,6.66-8.88
			l-4.44-3.06c-1.2,2.46-3.9,6.36-6.36,9.18L316.41,26.64z M329.97,23.04c2.22-4.08,4.5-9.36,5.22-12.84l-5.22-1.92
			c-0.6,3.42-2.64,8.82-4.8,13.02L329.97,23.04z"/>
		<path d="M388.65,14.64c-1.38-2.76-2.82-5.64-4.08-7.86h9.54v-5.7h-34.08v5.7h9.06c-0.42,2.16-1.56,5.16-2.88,7.5l5.58,1.5h-7.08
			v14.16c-0.6-0.48-1.2-0.96-1.86-1.44c-0.9,1.38-2.82,3.66-4.14,4.74c2.1,1.38,4.08,3.36,5.76,5.7c-1.38,1.14-3.18,2.4-4.8,3.3
			v-1.98h-20.82v5.64h9.54c-1.02,2.28-2.64,5.28-4.02,7.56l4.86,2.94c1.68-2.46,3.66-5.76,4.62-7.92l-3.66-2.58h9.48v-3.3l3.54,4.26
			c1.38-0.72,2.94-1.62,4.32-2.52c0.54,1.26,1.08,2.58,1.5,3.96h-7.2v5.58h9.48l1.14,0.24l4.14-1.32
			c-0.96-5.04-2.52-9.54-4.56-13.44h10.2c-2.4,4.44-4.14,9.6-5.4,15.18l5.88,1.08c0.3-1.32,0.66-2.64,1.08-3.9
			c1.2,1.08,2.34,2.22,3.18,3.12l4.2-3.9c-1.74-1.5-3.78-3.06-5.46-4.26c0.3-0.78,0.66-1.56,1.08-2.28c1.44,1.08,3,2.28,3.96,3.24
			l4.02-3.9c-1.74-1.32-3.6-2.52-5.34-3.54c1.8-2.4,3.84-4.32,6.24-5.76c-1.56-1.2-3.72-3.6-4.68-5.22
			c-0.66,0.48-1.32,0.96-1.92,1.44V15.78h-5.52L388.65,14.64z M358.05,3.12h-11.58V0.6h-5.4v20.64h16.98V3.12z M357.75,32.16h-16.56
			v5.4h16.56V32.16z M341.19,29.52h16.56v-5.4h-16.56V29.52z M346.47,15.54V8.82h6.06v6.72H346.47z M369.75,35.7
			c-1.2-1.74-2.46-3.3-3.9-4.68h22.86c-1.68,1.44-3.06,3.12-4.38,5.04v-2.34h-14.58V35.7z M370.71,21.12h12.06v4.5h-12.06V21.12z
			 M372.27,15.78c1.5-2.46,2.88-5.76,3.24-7.86l-3.96-1.14h6.72c1.08,2.58,2.52,6.24,3.24,9H372.27z"/>
	</g>
</symbol>
<use xlink:href="#New_Symbol_2"  width="793.62" height="115.56" x="-396.81" y="-57.78" transform="matrix(1 0 0 -1 518.3584 68.2661)" style="overflow:visible;"/>
<use xlink:href="#New_Symbol_2"  width="793.62" height="115.56" x="-396.81" y="-57.78" transform="matrix(1 0 0 -1 251.8801 269.0052)" style="overflow:visible;"/>
<use xlink:href="#New_Symbol"  width="106.48" height="77.78" id="XMLID_1_" x="-53.24" y="-38.89" transform="matrix(0.72 0 0 -0.72 69.305 40.5)" style="overflow:visible;"/>
<g>
</g>
<g>
</g>
<g>
</g>
<g>
</g>
<g>
</g>
<g>
</g>
<g>
</g>
<g>
</g>
<g>
</g>
<g>
</g>
<g>
</g>
<g>
</g>
<g>
</g>
<g>
</g>
<g>
</g>
<g>
</g>
<g>
</g>
<g>
</g>
</svg>
