<?xml version="1.0" encoding="utf-8"?>
<!-- Generator: Adobe Illustrator 25.2.0, SVG Export Plug-In . SVG Version: 6.00 Build 0)  -->
<svg version="1.1" id="Layer_1" xmlns="http://www.w3.org/2000/svg" xmlns:xlink="http://www.w3.org/1999/xlink" x="0px" y="0px"
	 width="688.39px" height="40px" viewBox="0 0 688.39 40" style="enable-background:new 0 0 688.39 40;" xml:space="preserve">
<style type="text/css">
	.st0{enable-background:new    ;}
	.st1{fill:#FFFFFF;}
	.st2{fill:url(#SVGID_1_);}
	.st3{fill:url(#SVGID_2_);}
	.st4{fill:none;stroke:url(#SVGID_3_);stroke-width:2;stroke-miterlimit:10;stroke-dasharray:2,3,2,3,2,3;}
	.st5{fill:url(#SVGID_4_);}
	.st6{fill:url(#SVGID_5_);}
	.st7{fill:none;stroke:url(#SVGID_6_);stroke-width:2;stroke-miterlimit:10;stroke-dasharray:2,3,2,3,2,3;}
	.st8{fill:url(#SVGID_7_);}
	.st9{fill:url(#SVGID_8_);}
	.st10{fill:none;stroke:url(#SVGID_9_);stroke-width:2;stroke-miterlimit:10;stroke-dasharray:2,3,2,3,2,3;}
	.st11{fill:url(#SVGID_10_);}
	.st12{fill:url(#SVGID_11_);}
	.st13{fill:none;stroke:url(#SVGID_12_);stroke-width:2;stroke-miterlimit:10;stroke-dasharray:2,3,2,3,2,3;}
	.st14{fill:url(#SVGID_13_);}
	.st15{fill:url(#SVGID_14_);}
	.st16{fill:none;stroke:url(#SVGID_15_);stroke-width:2;stroke-miterlimit:10;stroke-dasharray:2,3,2,3,2,3;}
	.st17{fill:url(#SVGID_16_);}
	.st18{fill:url(#SVGID_17_);}
	.st19{fill:none;stroke:url(#SVGID_18_);stroke-width:2;stroke-miterlimit:10;stroke-dasharray:2,3,2,3,2,3;}
	.st20{fill:url(#SVGID_19_);}
	.st21{fill:url(#SVGID_20_);}
	.st22{fill:none;stroke:url(#SVGID_21_);stroke-width:2;stroke-miterlimit:10;stroke-dasharray:2,3,2,3,2,3;}
	.st23{fill:url(#SVGID_22_);}
	.st24{fill:url(#SVGID_23_);}
	.st25{fill:none;stroke:url(#SVGID_24_);stroke-width:2;stroke-miterlimit:10;stroke-dasharray:2,3,2,3,2,3;}
	.st26{fill:url(#SVGID_25_);}
	.st27{fill:url(#SVGID_26_);}
	.st28{fill:none;stroke:url(#SVGID_27_);stroke-width:2;stroke-miterlimit:10;stroke-dasharray:2,3,2,3,2,3;}
	.st29{fill:#ABABAB;}
	.st30{fill:url(#SVGID_28_);}
	.st31{fill:url(#SVGID_29_);}
	.st32{fill:none;stroke:url(#SVGID_30_);stroke-width:2;stroke-miterlimit:10;stroke-dasharray:2,3,2,3,2,3;}
	.st33{fill:url(#SVGID_31_);}
	.st34{fill:url(#SVGID_32_);}
	.st35{fill:none;stroke:url(#SVGID_33_);stroke-width:2;stroke-miterlimit:10;stroke-dasharray:2,3,2,3,2,3;}
	.st36{fill:url(#SVGID_34_);}
	.st37{fill:url(#SVGID_35_);}
	.st38{fill:none;stroke:url(#SVGID_36_);stroke-width:2;stroke-miterlimit:10;stroke-dasharray:2,3,2,3,2,3;}
	.st39{fill:url(#SVGID_37_);}
	.st40{fill:url(#SVGID_38_);}
	.st41{fill:none;stroke:url(#SVGID_39_);stroke-width:2;stroke-miterlimit:10;stroke-dasharray:2,3,2,3,2,3;}
	.st42{fill:url(#SVGID_40_);}
	.st43{fill:url(#SVGID_41_);}
	.st44{fill:none;stroke:url(#SVGID_42_);stroke-width:2;stroke-miterlimit:10;stroke-dasharray:2,3,2,3,2,3;}
	.st45{fill:url(#SVGID_43_);}
	.st46{fill:url(#SVGID_44_);}
	.st47{fill:none;stroke:url(#SVGID_45_);stroke-width:2;stroke-miterlimit:10;stroke-dasharray:2,3,2,3,2,3;}
</style>
<g class="st0">
	<path d="M58.25,4.89l2.73,0.33c-0.35,0.6-0.73,1.15-1.15,1.64h10.55v2.05c-1.71,2.15-4.08,4.05-7.11,5.69
		c-3.79,2.17-8.29,3.67-13.51,4.51l-1.18-2.32c3.81-0.47,7.09-1.24,9.84-2.3c-0.84-0.88-1.85-1.81-3.04-2.82l2.05-1.31
		c1.5,1.11,2.72,2.08,3.66,2.9c2.02-1.11,3.83-2.44,5.41-3.99h-9.3c-0.13,0.09-0.23,0.16-0.3,0.22c-1.64,1.24-3.77,2.37-6.4,3.39
		l-1.7-2.16c2.37-0.82,4.35-1.7,5.93-2.65C56.02,7.35,57.18,6.29,58.25,4.89z M64.46,14.73l2.87,0.46c-0.57,0.8-1.15,1.52-1.75,2.16
		h7.57v2.27c-1.95,3.37-4.21,5.8-6.78,7.27c-2.92,1.7-7.7,2.96-14.36,3.8l-1.86-2.57c5.36-0.46,9.47-1.19,12.33-2.21
		c-0.89-0.89-1.94-1.84-3.14-2.84l2.05-1.34c1.5,1.11,2.75,2.09,3.77,2.93c1.97-1.11,3.56-2.74,4.79-4.89h-7.11
		c-0.11,0.07-0.21,0.14-0.3,0.19c-1.84,1.39-5,2.85-9.46,4.4l-2.05-2.52c3.94-1.08,6.85-2.13,8.75-3.17
		C61.72,17.69,63.27,16.37,64.46,14.73z"/>
	<path d="M76.41,6.31h24.94v2.41H90.3c-0.29,0.88-0.7,1.73-1.23,2.57h11.07v19.3h-2.62v-1.59H80.15v1.59H77.5v-19.3h8.78
		c0.51-0.84,0.93-1.7,1.26-2.57H76.41V6.31z M80.15,26.71h3.09V13.58h-3.09V26.71z M85.76,16.37h6.07v-2.79h-6.07V16.37z
		 M85.76,21.51h6.07v-2.95h-6.07V21.51z M85.76,26.71h6.07V23.7h-6.07V26.71z M94.24,26.71h3.28V13.58h-3.28V26.71z"/>
	<path d="M115.32,5l3.2,0.44c-0.38,1.15-0.92,2.22-1.61,3.23h11.35v18.57c0,1.04-0.25,1.81-0.77,2.32
		c-0.44,0.47-1.07,0.71-1.89,0.71h-3.72l-0.63-2.73l3.23,0.11c0.62-0.04,0.93-0.45,0.93-1.23V11.18h-17.06v19.41h-2.84V8.66h8.18
		C114.41,7.51,114.95,6.29,115.32,5z M111.03,14.4h11.48v10.28h-11.48V14.4z M119.78,22.28v-5.47h-6.02v5.47H119.78z"/>
	<path d="M137.85,5l2.54,0.36c-0.31,1.44-0.76,2.76-1.34,3.96h3.96v5.88c0.82-1.37,1.45-2.71,1.89-4.02
		c0.57-1.57,1.02-3.66,1.37-6.29l2.76,0.46c-0.25,1.46-0.5,2.74-0.74,3.86h8.61c0,9.86-0.16,15.71-0.46,17.53
		c-0.24,1.44-0.69,2.37-1.37,2.79c-0.78,0.56-2.22,0.85-4.32,0.85c-0.6,0-1.3-0.04-2.11-0.11l-0.49-2.73
		c0.86,0.11,1.73,0.16,2.62,0.16c1.71,0,2.67-0.57,2.87-1.72c0.35-1.46,0.56-6.21,0.63-14.25h-6.67c-0.05,0.2-0.11,0.38-0.16,0.55
		c-0.6,2.01-1.64,4.14-3.12,6.4l-1.31-1.61v11.46h-2.41v-1.37h-5.14v2.13h-2.41V9.32h3.47C137.14,7.95,137.58,6.51,137.85,5z
		 M135.47,17.14h5.14v-5.52h-5.14V17.14z M135.47,24.85h5.14v-5.52h-5.14V24.85z M148.54,15.5c1.57,2.55,2.79,4.75,3.66,6.59
		l-2.62,1.83c-0.78-2.04-1.88-4.38-3.28-7L148.54,15.5z"/>
	<path d="M160.08,11.67h7.22v1.86c-0.88,1.51-2.01,3.12-3.42,4.81h3.28v1.59c-0.4,1.9-0.84,3.35-1.31,4.38
		c1.06,1.2,1.92,1.96,2.6,2.27c0.6,0.35,1.49,0.61,2.65,0.79c1.35,0.2,4,0.31,7.96,0.33c2.92,0,5.09-0.06,6.51-0.19l-0.41,2.65
		c-7.66,0-12.32-0.1-14-0.3c-1.59-0.22-2.82-0.56-3.69-1.01c-0.82-0.37-1.73-1.18-2.73-2.43c-0.77,1.31-1.76,2.67-2.98,4.07l-1.89-2
		c1.44-1.46,2.45-2.73,3.04-3.83c0.49-0.66,1.06-2.03,1.7-4.13h-3.75v-1.97c1.15-1.18,2.35-2.75,3.61-4.7h-4.38V11.67z M163.14,5.22
		c1.26,1.28,2.32,2.53,3.17,3.77l-1.8,1.8c-0.69-1.22-1.7-2.55-3.01-3.99L163.14,5.22z M184.91,5.82v4.76h-1.2v1.09h-6.12v1.15h6.62
		v8.53h-6.62v1.42h7.44v2.08h-7.44v2.13h-2.41v-2.13h-7v-2.08h7v-1.42h-6.29v-8.53h6.29v-1.15h-5.58v-1.09h-1.75V5.82H184.91z
		 M170.25,9.7h4.92V7.9h-4.92V9.7z M171.18,16.15h3.99v-1.48h-3.99V16.15z M175.17,19.49V17.9h-3.99v1.59H175.17z M177.58,7.9v1.8
		h4.92V7.9H177.58z M177.58,14.68v1.48h4.32v-1.48H177.58z M181.9,19.49V17.9h-4.32v1.59H181.9z"/>
	<path d="M200.47,5.52l1.18,2.02c-1.51,0.24-3.25,0.42-5.2,0.55v1.78h5.74v2.08h-5.74v1.48h5.52v8.64h-5.52v1.59h4.98v1.86h-4.98
		v2.24c1.82-0.15,3.48-0.32,4.98-0.52v0.85c1.7-2.5,2.89-5.17,3.58-8.01c0.51-1.84,0.83-4.4,0.96-7.68h-3.01v-2.3h3.06
		c0-0.42,0-0.84,0-1.26V5.11h2.41v3.72c0,0.44,0,0.86,0,1.26h5.03c0,9.5-0.1,15.13-0.3,16.9c-0.15,1.38-0.43,2.28-0.85,2.68
		c-0.49,0.55-1.39,0.82-2.71,0.82c-0.6,0-1.3-0.04-2.11-0.11L207,27.64c0.86,0.13,1.72,0.19,2.6,0.19c0.71,0,1.1-0.56,1.18-1.67
		c0.15-1.42,0.24-6.02,0.27-13.78h-2.71c-0.15,3.28-0.5,6.09-1.07,8.42c-0.69,3.12-2.06,6.31-4.1,9.57l-1.75-1.53v0.33
		c-2.46,0.44-6.79,0.84-12.99,1.2l-0.36-2.3c2.17-0.04,4.19-0.1,6.07-0.19v-2.38h-4.87v-1.86h4.87v-1.59h-5.09v-8.64h5.09v-1.48
		h-6.29V9.87h6.29V8.2c-1.5,0.05-3.1,0.08-4.81,0.08l-0.74-2.11C193.27,6.17,197.22,5.96,200.47,5.52z M191.47,17.03h2.68v-1.86
		h-2.68V17.03z M194.15,20.31v-1.75h-2.68v1.75H194.15z M196.45,15.17v1.86h3.12v-1.86H196.45z M199.56,20.31v-1.75h-3.12v1.75
		H199.56z"/>
	<path d="M220.67,4.78l2.73,0.96c-0.69,1.73-1.46,3.25-2.3,4.54c1.8-0.07,3.34-0.16,4.62-0.27c-0.51-0.66-1.07-1.33-1.67-2.02
		l1.78-1.12c1.86,1.93,3.31,3.6,4.35,5l-2.08,1.45c-0.22-0.35-0.46-0.71-0.71-1.09c-2.46,0.37-6.07,0.66-10.83,0.88l-0.82-2.73h2.35
		C219.07,8.66,219.93,6.8,220.67,4.78z M223.19,30.26l-0.55-2.41l2.35,0.11c0.55-0.04,0.82-0.39,0.82-1.07v-1.39h-6.34v5.2h-2.41
		V14.29h11.16v13.32c0,0.89-0.22,1.57-0.66,2.02c-0.36,0.42-0.89,0.63-1.59,0.63H223.19z M219.47,18.94h6.34V16.7h-6.34V18.94z
		 M219.47,23.43h6.34v-2.41h-6.34V23.43z M237.82,14.08c0.36,0,0.63-0.1,0.79-0.3c0.2-0.2,0.34-1.16,0.41-2.87l2.54,0.82
		c-0.22,2.33-0.57,3.71-1.07,4.13c-0.42,0.42-1.19,0.63-2.32,0.63h-5.11c-0.8,0-1.44-0.23-1.91-0.68c-0.49-0.47-0.74-1.1-0.74-1.89
		v-8.8h2.62v4.02c2.84-0.77,5.24-1.63,7.19-2.6l1.45,2.02c-2.48,1.19-5.36,2.19-8.64,3.01v1.59c0,0.62,0.35,0.93,1.04,0.93H237.82z
		 M238.37,27.64c0.24,0,0.41-0.1,0.52-0.3c0.13-0.2,0.21-1.16,0.25-2.87l2.54,0.82c-0.18,2.28-0.49,3.63-0.93,4.05
		c-0.36,0.4-1.04,0.6-2.02,0.6h-5.66c-0.8,0-1.44-0.22-1.91-0.66c-0.49-0.46-0.74-1.06-0.74-1.8V17.36h2.62v4.18
		c2.83-0.8,5.21-1.72,7.16-2.76l1.59,2.21c-2.52,1.28-5.43,2.34-8.75,3.2v2.57c0,0.58,0.35,0.88,1.04,0.88H238.37z"/>
	<path d="M263.38,29.94c-1.9,0-3.25-0.05-4.05-0.16l-0.82-3.01c1.6,0.18,3.22,0.27,4.84,0.27c1.11,0,1.8-0.78,2.05-2.32
		c0.29-1.04,0.46-4.89,0.49-11.57h-8.04c-0.29,4.23-1.24,7.72-2.84,10.47c-1.73,2.99-4.56,5.28-8.48,6.86l-1.59-2.54
		c3.92-1.7,6.58-3.85,7.98-6.45c1.18-2.26,1.89-5.04,2.11-8.34h-9.65v-2.73h9.76V4.89h2.82v5.52h10.88
		c-0.2,9.7-0.61,15.39-1.23,17.09C266.99,29.12,265.57,29.94,263.38,29.94z"/>
</g>
<g>
	<g>
		<g id="XMLID_4_">
			<g>
				<linearGradient id="SVGID_1_" gradientUnits="userSpaceOnUse" x1="-8.9433" y1="7.2509" x2="42.7225" y2="27.9173">
					<stop  offset="5.618000e-03" style="stop-color:#FF2727"/>
					<stop  offset="0.3525" style="stop-color:#FFFF00"/>
					<stop  offset="0.3814" style="stop-color:#F8EE10"/>
					<stop  offset="0.4388" style="stop-color:#E6C13A"/>
					<stop  offset="0.5185" style="stop-color:#C9797D"/>
					<stop  offset="0.5955" style="stop-color:#AA2EC3"/>
					<stop  offset="0.7367" style="stop-color:#4F66C6"/>
					<stop  offset="0.8536" style="stop-color:#0097C9"/>
					<stop  offset="1" style="stop-color:#FFFF00"/>
				</linearGradient>
				<polygon class="st2" points="30.93,19 20.43,29.5 9.93,19 20.43,8.5 				"/>
				<linearGradient id="SVGID_2_" gradientUnits="userSpaceOnUse" x1="-7.8742" y1="4.5781" x2="43.7917" y2="25.2444">
					<stop  offset="5.618000e-03" style="stop-color:#FF2727"/>
					<stop  offset="0.2129" style="stop-color:#FFFF00"/>
					<stop  offset="0.2584" style="stop-color:#F8EE10"/>
					<stop  offset="0.3488" style="stop-color:#E6C13A"/>
					<stop  offset="0.4743" style="stop-color:#C9797D"/>
					<stop  offset="0.5955" style="stop-color:#AA2EC3"/>
					<stop  offset="0.78" style="stop-color:#4F66C6"/>
					<stop  offset="0.9327" style="stop-color:#0097C9"/>
					<stop  offset="1" style="stop-color:#FFFF00"/>
				</linearGradient>
				<polygon class="st3" points="28.18,8.5 26.02,10.66 34.36,19 26.02,27.34 28.18,29.5 38.68,19 				"/>
			</g>
		</g>
	</g>
</g>
<g>
	<g>
		<linearGradient id="SVGID_3_" gradientUnits="userSpaceOnUse" x1="13.3622" y1="36.6047" x2="620.1619" y2="36.6047">
			<stop  offset="0" style="stop-color:#00B987"/>
			<stop  offset="1" style="stop-color:#FFFFFF"/>
		</linearGradient>
		<line class="st4" x1="13.36" y1="36.6" x2="620.16" y2="36.6"/>
	</g>
</g>
</svg>
