<?xml version="1.0" encoding="utf-8"?>
<!-- Generator: Adobe Illustrator 25.2.0, SVG Export Plug-In . SVG Version: 6.00 Build 0)  -->
<svg version="1.1" id="Layer_1" xmlns="http://www.w3.org/2000/svg" xmlns:xlink="http://www.w3.org/1999/xlink" x="0px" y="0px"
	 width="688.39px" height="40px" viewBox="0 0 688.39 40" style="enable-background:new 0 0 688.39 40;" xml:space="preserve">
<style type="text/css">
	.st0{enable-background:new    ;}
	.st1{fill:#FFFFFF;}
	.st2{fill:url(#SVGID_1_);}
	.st3{fill:url(#SVGID_2_);}
	.st4{fill:none;stroke:url(#SVGID_3_);stroke-width:2;stroke-miterlimit:10;stroke-dasharray:2,3,2,3,2,3;}
	.st5{fill:url(#SVGID_4_);}
	.st6{fill:url(#SVGID_5_);}
	.st7{fill:none;stroke:url(#SVGID_6_);stroke-width:2;stroke-miterlimit:10;stroke-dasharray:2,3,2,3,2,3;}
	.st8{fill:url(#SVGID_7_);}
	.st9{fill:url(#SVGID_8_);}
	.st10{fill:none;stroke:url(#SVGID_9_);stroke-width:2;stroke-miterlimit:10;stroke-dasharray:2,3,2,3,2,3;}
	.st11{fill:url(#SVGID_10_);}
	.st12{fill:url(#SVGID_11_);}
	.st13{fill:none;stroke:url(#SVGID_12_);stroke-width:2;stroke-miterlimit:10;stroke-dasharray:2,3,2,3,2,3;}
	.st14{fill:url(#SVGID_13_);}
	.st15{fill:url(#SVGID_14_);}
	.st16{fill:none;stroke:url(#SVGID_15_);stroke-width:2;stroke-miterlimit:10;stroke-dasharray:2,3,2,3,2,3;}
	.st17{fill:url(#SVGID_16_);}
	.st18{fill:url(#SVGID_17_);}
	.st19{fill:none;stroke:url(#SVGID_18_);stroke-width:2;stroke-miterlimit:10;stroke-dasharray:2,3,2,3,2,3;}
	.st20{fill:url(#SVGID_19_);}
	.st21{fill:url(#SVGID_20_);}
	.st22{fill:none;stroke:url(#SVGID_21_);stroke-width:2;stroke-miterlimit:10;stroke-dasharray:2,3,2,3,2,3;}
	.st23{fill:url(#SVGID_22_);}
	.st24{fill:url(#SVGID_23_);}
	.st25{fill:none;stroke:url(#SVGID_24_);stroke-width:2;stroke-miterlimit:10;stroke-dasharray:2,3,2,3,2,3;}
	.st26{fill:url(#SVGID_25_);}
	.st27{fill:url(#SVGID_26_);}
	.st28{fill:none;stroke:url(#SVGID_27_);stroke-width:2;stroke-miterlimit:10;stroke-dasharray:2,3,2,3,2,3;}
	.st29{fill:#ABABAB;}
	.st30{fill:url(#SVGID_28_);}
	.st31{fill:url(#SVGID_29_);}
	.st32{fill:none;stroke:url(#SVGID_30_);stroke-width:2;stroke-miterlimit:10;stroke-dasharray:2,3,2,3,2,3;}
	.st33{fill:url(#SVGID_31_);}
	.st34{fill:url(#SVGID_32_);}
	.st35{fill:none;stroke:url(#SVGID_33_);stroke-width:2;stroke-miterlimit:10;stroke-dasharray:2,3,2,3,2,3;}
	.st36{fill:url(#SVGID_34_);}
	.st37{fill:url(#SVGID_35_);}
	.st38{fill:none;stroke:url(#SVGID_36_);stroke-width:2;stroke-miterlimit:10;stroke-dasharray:2,3,2,3,2,3;}
	.st39{fill:url(#SVGID_37_);}
	.st40{fill:url(#SVGID_38_);}
	.st41{fill:none;stroke:url(#SVGID_39_);stroke-width:2;stroke-miterlimit:10;stroke-dasharray:2,3,2,3,2,3;}
</style>
<g class="st0">
	<path d="M49.17,7.79h10.17V5.22h2.62v2.57h10.39v2.52H61.97v6.23c1.08,2.17,2.41,4.07,3.99,5.69c1.6,1.79,4.14,3.55,7.6,5.28
		l-1.91,2.21c-2.55-1.57-4.62-3.07-6.21-4.51c-1.31-1.24-2.47-2.6-3.47-4.07v9.24h-2.62v-9.41c-1.04,1.48-2,2.62-2.87,3.45
		c-1.8,1.86-4.07,3.66-6.81,5.41l-1.48-2.52c2.7-1.46,5.05-3.19,7.05-5.2c1.49-1.53,2.86-3.33,4.1-5.39V10.3H49.17V7.79z
		 M53.41,10.9l2.43,0.41c-0.31,1.31-0.62,2.43-0.93,3.36c1.04,0.88,2,1.87,2.9,2.98l-1.45,2.21c-0.8-1.17-1.6-2.13-2.38-2.9
		c-0.67,1.51-1.78,3.1-3.31,4.76l-1.72-2.13c1.31-1.31,2.28-2.61,2.9-3.88C52.49,14.53,53.01,12.93,53.41,10.9z M66.76,11.01
		l2.54,0.41c-0.31,1.31-0.64,2.41-0.98,3.28c1.59,1.24,3.04,2.66,4.38,4.27l-1.45,2.21c-1.29-1.73-2.59-3.17-3.88-4.32
		c-0.58,1.02-1.38,2.06-2.38,3.12l-1.8-2.21c1.06-1.02,1.83-2.02,2.32-3.01C66.03,13.83,66.45,12.58,66.76,11.01z"/>
	<path d="M86.23,4.89L89.1,5.3c-0.22,0.86-0.54,1.65-0.96,2.38h11.02v22.48h-2.62v-1.48H80.78v1.48h-2.62V7.68h7.11
		C85.69,6.79,86.01,5.86,86.23,4.89z M80.78,13.37h15.75v-3.17H80.78V13.37z M80.78,19.6h15.75v-3.72H80.78V19.6z M80.78,26.16
		h15.75v-4.05H80.78V26.16z"/>
	<path d="M105.53,12.33c1.68,0.78,3.2,1.72,4.57,2.82l-1.67,2.54c-1.4-1.35-2.85-2.42-4.35-3.2L105.53,12.33z M108.65,19l2.11,1.56
		c-1.31,3.81-2.81,7.12-4.48,9.93l-1.97-2.19C105.68,26.13,107.13,23.03,108.65,19z M106.9,5.52c1.64,0.84,3.14,1.82,4.51,2.95
		l-1.75,2.65c-1.39-1.4-2.81-2.52-4.27-3.34L106.9,5.52z M112.72,8.72h5.63V4.89h2.73v3.83h7.27v2.41h-7.27v4.87h8.48v2.52h-9.73
		c-0.58,2.5-1.54,5.11-2.87,7.85c3.06-0.18,5.63-0.53,7.71-1.04c-0.75-1.53-1.52-2.95-2.32-4.27l2.52-0.85
		c1.8,2.86,3.37,5.9,4.7,9.11l-2.62,1.18c-0.38-0.97-0.77-1.88-1.15-2.73c-3.28,0.73-8.04,1.31-14.27,1.75l-0.88-2.98
		c1.02,0,2-0.01,2.93-0.03c1.37-2.44,2.45-5.1,3.25-7.98h-5.74v-2.52h7.27v-4.87h-5.63V8.72z"/>
	<path d="M156.8,5.52v24.86h-2.41V29.5h-18.81v0.88h-2.41V5.52H156.8z M135.58,27.31h18.81V7.73h-18.81V27.31z M145.75,21.3v2.13
		c-2.48,0.64-5.39,1.28-8.72,1.91l-0.57-2.41C139.63,22.61,142.73,22.06,145.75,21.3z M136.57,10.85h8.97
		c-0.02-0.84-0.04-1.7-0.05-2.57h2.3c0,0.93,0.02,1.79,0.05,2.57h2.57c-0.26-0.71-0.57-1.38-0.93-2.02l2.02-0.66
		c0.47,0.69,0.89,1.49,1.26,2.38l-1.18,0.3h2.02v2.08h-5.69c0.07,1.79,0.21,3.25,0.41,4.38c0.16,0.95,0.36,1.81,0.57,2.6
		c0.88-1.4,1.76-3.45,2.65-6.15l1.86,1.23c-1.28,3.35-2.42,5.82-3.45,7.38c-0.04,0.05-0.06,0.1-0.08,0.14
		c0.04,0.11,0.08,0.21,0.14,0.3c0.46,0.88,0.88,1.31,1.26,1.31c0.16,0,0.41-1.08,0.74-3.25l2.16,1.67
		c-0.58,2.06-1.03,3.26-1.34,3.61c-0.31,0.42-0.74,0.63-1.29,0.63c-0.78,0-1.58-0.51-2.38-1.53c-0.26-0.33-0.48-0.66-0.68-0.98
		c-0.91,0.98-1.96,1.9-3.14,2.73l-1.34-1.8c1.38-0.98,2.52-2.02,3.42-3.12c-0.37-0.98-0.69-2.06-0.98-3.23
		c-0.38-1.51-0.65-3.48-0.79-5.91h-9.08V10.85z M137.44,14.35h6.67v6.45h-6.67V14.35z M142.14,18.94v-2.73h-2.73v2.73H142.14z"/>
	<path d="M177.25,5.76h19.2v15.31c0,3.25,0.13,5.06,0.38,5.44c0.16,0.46,0.3,0.68,0.41,0.68c0.29,0,0.6-1.06,0.93-3.17l1.94,1.18
		c-0.37,2.26-0.79,3.72-1.29,4.38c-0.38,0.46-0.83,0.68-1.34,0.68c-0.88,0-1.58-0.32-2.11-0.96c-0.93-1.11-1.41-3.86-1.45-8.23V8.17
		h-15.42v9.3c0,2.04-0.15,4.2-0.44,6.48c-0.4,2.31-1.04,4.6-1.91,6.86l-2.19-1.97c0.82-1.8,1.38-3.7,1.67-5.69
		c0.24-2.04,0.36-3.94,0.36-5.69V5.76H177.25z M179.55,9.76H193v2.3h-5.63v2.35h4.92v8.53h-4.92v3.45c1.13-0.11,2.13-0.25,3.01-0.41
		c-0.33-0.62-0.66-1.18-0.98-1.7l2.08-0.68c1.06,1.6,1.97,3.32,2.73,5.14l-2.16,0.98c-0.2-0.53-0.41-1.05-0.63-1.56
		c-2.79,0.53-6.81,0.94-12.06,1.23l-0.79-2.62c2.33,0,4.43-0.05,6.29-0.16v-3.66h-4.81V14.4h4.81v-2.35h-5.3V9.76z M184.85,20.75
		v-4.16h-2.52v4.16H184.85z M189.99,20.75v-4.16h-2.62v4.16H189.99z"/>
	<path d="M208.51,11.34l1.89,1.67c-0.62,1.06-1.29,2.08-2.02,3.06v14.52h-2.52V19.11c-0.73,0.8-1.5,1.57-2.32,2.3l-1.78-2.3
		C204.27,17.03,206.52,14.44,208.51,11.34z M208.26,4.78l1.8,1.59c-1.66,2.24-3.76,4.27-6.29,6.07l-1.7-2.19
		C204.38,8.79,206.44,6.97,208.26,4.78z M210.94,13.64h16.73v2.43h-4.1v11.68c0,0.97-0.23,1.64-0.68,2.02
		c-0.44,0.4-1.24,0.6-2.41,0.6h-4.59l-0.57-2.62c1.77,0.13,3.23,0.19,4.38,0.19c0.77,0,1.15-0.21,1.15-0.63V16.07h-9.9V13.64z
		 M212.36,6.26h13.89v2.52h-13.89V6.26z"/>
	<path d="M244.52,5.52v2.21h-11.38v18.98h10.72v0.96c1.37-1.48,2.38-3.14,3.04-5c0.71-2.04,1.08-4.54,1.12-7.49V13.2h2.62v1.97
		c0,2.24,0.44,4.53,1.31,6.86c0.93,2.61,2.21,4.79,3.83,6.56l-1.75,1.89c-1.33-1.7-2.26-3.16-2.79-4.4
		c-0.77-1.7-1.31-3.54-1.64-5.55c-0.42,2.1-0.97,3.89-1.64,5.39c-0.75,1.64-1.82,3.2-3.23,4.68l-1.75-1.59h-9.84v1.59h-2.41V5.52
		H244.52z M234.15,16.15h4.46v9.19h-4.46V16.15z M234.67,9.15h8.75v5.8h-8.75V9.15z M237.08,23.15v-4.81h-1.42v4.81H237.08z
		 M241.24,13.2v-2.3h-4.38v2.3H241.24z M239.71,16.15h4.38v9.19h-4.38V16.15z M242.55,23.15v-4.81h-1.31v4.81H242.55z M248.37,11.45
		c-0.6,2.06-1.36,3.7-2.27,4.92l-2.24-1.59c1.79-2.5,2.88-5.76,3.28-9.79l2.41,0.41c-0.18,1.31-0.38,2.53-0.6,3.66h6.54
		c-0.18,2.7-0.4,4.55-0.66,5.55c-0.27,1.29-0.75,2.61-1.42,3.94l-1.8-1.64c0.56-1.2,0.98-3.03,1.26-5.47H248.37z"/>
	<path d="M266.31,4.89c0.77,0.88,1.46,1.91,2.08,3.12h4.95c0.86-1,1.6-2.08,2.24-3.23l2.62,0.9c-0.57,0.86-1.19,1.63-1.89,2.32h5.93
		v2.3h-10.34v1.75h9.24v2.3h-9.24v0.6c0,0.49-0.01,0.97-0.03,1.42h11.57v2.41H271.7c-0.09,0.77-0.22,1.48-0.38,2.13h12.14v2.3h-9.38
		c0.36,0.84,0.86,1.5,1.48,1.97c0.67,0.57,1.68,1.08,3.01,1.56c1.15,0.44,2.93,0.88,5.33,1.34l-1.72,2.52
		c-2.28-0.55-4.14-1.15-5.58-1.8c-1.48-0.67-2.61-1.45-3.39-2.32c-0.88-0.91-1.47-2-1.78-3.25h-0.77c-0.38,0.98-0.83,1.85-1.34,2.6
		c-1.79,2.5-5.21,4.06-10.25,4.68l-1.2-2.52c4.83-0.31,8-1.55,9.52-3.72c0.22-0.35,0.42-0.69,0.6-1.04h-9.68v-2.3h10.45
		c0.18-0.67,0.33-1.38,0.44-2.13H258.3v-2.41h11.07c0.02-0.49,0.03-0.97,0.03-1.42v-0.6h-8.8v-2.3h8.8V10.3h-10.01v-2.3h6.04
		c-0.47-0.67-1.07-1.39-1.78-2.13L266.31,4.89z"/>
	<path d="M325.78,5.98v2.41h-9.3c-0.22,0.84-0.51,1.64-0.88,2.41h8.04v10.83h-6.73v6.23c0,0.97-0.22,1.64-0.66,2.02
		c-0.42,0.4-1.19,0.6-2.3,0.6h-2.71l-0.57-2.62c1.02,0.13,1.86,0.19,2.52,0.19c0.73,0,1.09-0.21,1.09-0.63v-5.8h-7.27V10.8h5.77
		c0.36-0.78,0.67-1.59,0.9-2.41H305v8.64c0,2.02-0.18,4.17-0.55,6.43c-0.47,2.3-1.24,4.57-2.3,6.81l-2.3-2.05
		c1.02-1.77,1.71-3.63,2.08-5.58c0.29-2.02,0.44-3.89,0.44-5.61V5.98H325.78z M309.19,22.5l2.05,0.98c-1.17,2.3-2.54,4.27-4.13,5.91
		l-2.21-1.59C306.48,26.29,307.91,24.52,309.19,22.5z M309.54,15.01h11.59v-2.02h-11.59V15.01z M321.14,19.44v-2.35h-11.59v2.35
		H321.14z M321.16,22.39c1.97,2.12,3.51,3.93,4.62,5.44l-2.41,1.67c-1.04-1.7-2.46-3.63-4.27-5.8L321.16,22.39z"/>
	<path d="M328.19,10.14h11.1V4.89h2.95v5.25h11.21v2.62h-8.42c0.93,2.08,2.03,4.03,3.31,5.85c1.31,1.8,3.16,3.76,5.55,5.85l-2,2.52
		c-2.55-2.39-4.59-4.79-6.12-7.22c-1.33-1.97-2.46-4.3-3.39-7h-0.14V30.7h-2.95V12.96c-0.8,2.35-1.64,4.21-2.52,5.58
		c-1.46,2.68-3.86,5.5-7.19,8.45l-1.61-2.65c2.48-2.08,4.39-4.13,5.74-6.15c1.08-1.46,2.05-3.26,2.93-5.41h-8.45V10.14z"/>
	<path d="M359.03,4.89l2.19,0.46c-0.18,0.46-0.38,0.88-0.6,1.29h2.19V4.89h2.52v1.75h5.85v1.75h-5.85v1.26h6.51v1.86h-6.51v1.42
		h5.96v3.04c0,0.69-0.23,1.21-0.68,1.56c-0.35,0.33-0.88,0.49-1.59,0.49h-2l-0.44-1.86l1.48,0.08c0.55-0.02,0.82-0.29,0.82-0.82
		v-0.63h-3.55v4.43h-2.52v-4.43h-3.01v3.55h-2.41v-5.41h5.41v-1.42h-6.21V9.65h1.07l-1.59-1.04C357.5,7.46,358.49,6.22,359.03,4.89z
		 M369.81,18.34c0.31,0.53,0.61,1.11,0.9,1.75h10.75v2.19h-9.46c0.86,1.04,1.67,1.89,2.43,2.54c0.44-0.22,0.88-0.47,1.31-0.77
		c0.55-0.36,1.09-0.85,1.64-1.45l1.89,1.18c-0.66,0.8-1.28,1.41-1.86,1.83c-0.27,0.22-0.57,0.43-0.9,0.63
		c1.33,0.75,3.09,1.46,5.28,2.13l-1.39,2.21c-2.92-1.02-5.09-2.08-6.51-3.17c-1.53-1.17-2.99-2.88-4.38-5.14h-1.23
		c-0.86,0.8-1.73,1.49-2.62,2.05v3.45c2.15-0.22,4.06-0.51,5.74-0.88v2.16c-2.04,0.56-5.62,1.08-10.75,1.53l-0.41-2.52
		c1-0.02,1.97-0.05,2.9-0.11v-2.35c-1.57,0.69-3.31,1.29-5.22,1.8l-1.39-2.27c2.72-0.64,4.84-1.28,6.37-1.91
		c0.69-0.31,1.34-0.63,1.94-0.96h-8.42v-2.19h11.73c-0.27-0.49-0.57-0.95-0.9-1.37L369.81,18.34z M362.81,9.65V8.39h-3.31
		c-0.35,0.46-0.71,0.88-1.09,1.26H362.81z M373.2,6.31h2.52v8.2h-2.52V6.31z M377.49,18.89h-2.84l-0.49-2.41
		c1.04,0.11,1.9,0.16,2.6,0.16c0.69,0,1.04-0.19,1.04-0.57V4.89h2.52v11.59c0,0.88-0.21,1.5-0.63,1.86
		C379.28,18.71,378.55,18.89,377.49,18.89z"/>
	<path d="M389.88,4.78l2.3,1.07c-0.73,2.26-1.48,4.17-2.24,5.74v18.79h-2.52V15.66c-0.78,1.09-1.62,2.17-2.52,3.23l-0.93-3.06
		c1.2-1.53,2.27-3.1,3.2-4.7C388.12,9.67,389.02,7.55,389.88,4.78z M396.55,4.78l2.73,0.6c-0.42,1.2-0.86,2.33-1.31,3.39h11.48v2.52
		h-9.73v3.83h9.08v2.52h-9.08v4.27h9.08v2.52h-9.08v5.96h-2.62V11.29h-0.22c-1.19,2.5-2.42,4.56-3.69,6.18l-2-2.38
		C393.56,12.01,395.35,8.57,396.55,4.78z"/>
	<path d="M450.47,6.2v24.17h-2.62v-1.42H429.8v1.42h-2.62V6.2H450.47z M429.8,26.52h18.05V8.61H429.8V26.52z M432.64,12.22h11.92
		v10.72h-11.92V12.22z M442.16,20.53v-5.91h-7.11v5.91H442.16z"/>
	<path d="M459.28,4.89l2.68,0.36c-0.2,0.47-0.46,0.9-0.79,1.29h3.58v5.58h-7.55v1.09h7.77V19h-3.36v2.3h3.42v2.19h-3.42v3.45
		c1.26-0.27,2.51-0.56,3.75-0.85v2.19c-3.06,0.78-6.65,1.56-10.77,2.32l-0.6-2.52c0.47-0.05,0.93-0.11,1.37-0.16v-7.82h2.3v7.49
		c0.55-0.07,1.08-0.16,1.59-0.25V19h-4.32V6.53h3.53C458.81,6,459.09,5.45,459.28,4.89z M457.2,10.14h5.25V8.5h-5.25V10.14z
		 M457.2,17.03h5.47v-1.86h-5.47V17.03z M478.14,14.57h-11.16v-2.08h8.75v-1.48h-9.95V9.07h9.95v-1.5h-8.64V5.49h11.05v3.58h1.64
		v1.94h-1.64V14.57z M479.67,15.83v5.14h-0.93v5.33c0,0.82-0.21,1.44-0.63,1.86c-0.35,0.38-0.85,0.57-1.5,0.57h-1.7l-0.49-2.21
		l1.26,0.11c0.51-0.04,0.77-0.37,0.77-0.98v-3.25h-2.68v8.2h-2.41v-8.2h-2.35v6.67h-2.3v-8.09h-0.93v-5.14H479.67z M468.19,20.2
		h3.17v-2.19h-3.17V20.2z M473.77,18.01v2.19h3.5v-2.19H473.77z"/>
	<path d="M492.23,4.89l2.87,0.41c-0.22,0.86-0.54,1.65-0.96,2.38h11.02v22.48h-2.62v-1.48h-15.75v1.48h-2.62V7.68h7.11
		C491.69,6.79,492.01,5.86,492.23,4.89z M486.78,13.37h15.75v-3.17h-15.75V13.37z M486.78,19.6h15.75v-3.72h-15.75V19.6z
		 M486.78,26.16h15.75v-4.05h-15.75V26.16z"/>
	<path d="M515.33,5.11l2.62,0.33c-0.15,0.6-0.32,1.17-0.52,1.7h6.95v2.02c-0.27,0.78-0.57,1.51-0.88,2.19h2.98
		c0.11-0.91,0.16-1.86,0.16-2.84V5.44h2.52V8.5c-0.02,1-0.07,1.95-0.16,2.84h6.34v2.41h-5.74c0.44,1.4,1.05,2.57,1.83,3.5
		c1.11,1.33,2.6,2.42,4.46,3.28l-1.48,2.41c-2.28-1.29-3.97-2.74-5.09-4.35c-0.58-0.77-1.07-1.62-1.45-2.57
		c-0.27,0.67-0.57,1.3-0.9,1.89c-1.31,2.19-3.45,3.87-6.4,5.03l-1.42-2.24c2.9-1.22,4.86-2.75,5.88-4.59
		c0.38-0.71,0.7-1.49,0.96-2.35h-3.66c-0.6,1.09-1.23,2.05-1.89,2.87c-1.86,2.35-4.86,4.35-9,5.99l-1.04-2.62
		c1.9-0.53,3.54-1.27,4.95-2.21c-0.8-0.62-1.61-1.14-2.43-1.56l1.23-1.8c1.11,0.53,2.14,1.13,3.09,1.8
		c0.38-0.36,0.71-0.72,0.98-1.07c0.16-0.16,0.32-0.35,0.46-0.55c-1.15-0.64-2.31-1.16-3.47-1.56l1.2-1.8
		c1.26,0.4,2.45,0.85,3.58,1.34c0.47-0.98,0.94-2.11,1.39-3.36h-4.7c-0.4,0.93-0.83,1.79-1.29,2.57c-1.04,1.84-2.39,3.52-4.05,5.03
		l-1.61-2.08c1.4-1.35,2.57-2.81,3.5-4.38C514,9.17,514.69,7.42,515.33,5.11z M513.53,22.72l2.35,1.12
		c-0.98,2.57-2.14,4.79-3.47,6.64l-2.54-1.83C511.21,26.96,512.43,24.98,513.53,22.72z M520.44,23.81c0.35,1.88,0.65,3.91,0.9,6.1
		l-2.98,0.25c-0.11-2.28-0.25-4.28-0.41-6.02L520.44,23.81z M526.79,23.7c0.58,1.91,1.1,3.97,1.56,6.18l-3.09,0.27
		c-0.29-2.3-0.65-4.33-1.07-6.1L526.79,23.7z M532.17,22.94c1.35,1.95,2.52,4.02,3.5,6.21l-2.73,1.23
		c-1.02-2.46-2.15-4.65-3.39-6.56L532.17,22.94z M531.98,6.64c1.06,1.13,1.89,2.11,2.49,2.93l-2.08,1.45
		c-0.53-0.95-1.26-2.03-2.19-3.25L531.98,6.64z"/>
	<path d="M552.3,6.64h8.42v2.43h-3.06v5.66h2.84v2.41h-2.84v6.4c1.15-0.47,2.24-0.96,3.28-1.45v2.65c-2.44,1.26-5.24,2.41-8.39,3.45
		l-0.79-2.62c1.22-0.36,2.39-0.73,3.5-1.09v-7.33h-2.73v-2.41h2.73V9.07h-2.95V6.64z M561.87,16.37h14.55v5.8h-5.44
		c0.6,1.08,1.17,1.94,1.7,2.6c0.86-0.77,1.53-1.52,2.02-2.27l2.11,1.29c-0.55,0.69-1.44,1.53-2.68,2.52
		c0.95,0.77,2.17,1.49,3.66,2.19l-1.39,2.21c-2.06-1.04-3.58-2.11-4.57-3.2c-1.06-1.22-2.11-3-3.14-5.33h-0.82
		c-0.22,0.31-0.43,0.61-0.63,0.9v4.76c1.2-0.18,2.42-0.4,3.66-0.66v2.24c-2.39,0.49-5.05,0.88-7.98,1.18l-0.33-2.3
		c0.78-0.04,1.57-0.1,2.35-0.19v-2.68c-1.39,1.09-2.96,2.01-4.73,2.76l-1.23-2c1.9-0.77,3.38-1.58,4.46-2.43
		c0.62-0.49,1.18-1.02,1.67-1.59h-3.23V16.37z M560.94,13.04h16.52v2.08h-16.52V13.04z M561.6,5.65h15.2v6.23h-15.2V5.65z
		 M566.3,9.92v-2.3H564v2.3H566.3z M573.9,20.2v-1.86h-9.52v1.86H573.9z M570.24,9.92v-2.3h-1.97v2.3H570.24z M574.39,9.92v-2.3
		h-2.19v2.3H574.39z"/>
	<path d="M585.66,5l2.3,1.07c-0.78,2.53-1.6,4.64-2.46,6.32v17.99h-2.52V16.43c-0.64,0.89-1.33,1.79-2.08,2.68l-0.93-3.04
		c1.17-1.55,2.2-3.13,3.09-4.73C583.95,9.88,584.82,7.77,585.66,5z M589.05,6.2h14.11v9.08h-5.69v2.35h8.2v2.52h-5.99
		c0.64,1.17,1.38,2.23,2.21,3.2c0.98,1.13,2.35,2.34,4.1,3.64l-1.72,2.19c-1.9-1.59-3.43-3.18-4.59-4.79
		c-0.84-1.13-1.58-2.44-2.21-3.94v10.14h-2.62v-9.9c-0.53,1.22-1.07,2.21-1.61,2.95c-1.17,1.79-3.05,3.66-5.66,5.63l-1.48-2.43
		c1.9-1.29,3.36-2.55,4.4-3.77c0.77-0.82,1.45-1.79,2.05-2.93h-5.8v-2.52h8.09v-2.35h-5.8V6.2z M600.53,12.87V8.61h-8.86v4.27
		H600.53z"/>
	<path d="M610.38,20.31h8.97v-2.84h2.84v2.84h8.86v2.41h-8.86v4.32h11.16v2.52h-24.94v-2.52h10.94v-4.32h-8.97V20.31z M608.6,6.15
		h24.42v2.52h-12.63c-0.73,1.71-1.88,3.52-3.45,5.41c3.61-0.09,6.66-0.27,9.16-0.55c-0.8-0.8-1.67-1.62-2.6-2.46l2.16-1.37
		c2.95,2.46,5.26,4.58,6.92,6.37l-2.52,1.72c-0.57-0.69-1.19-1.41-1.89-2.16c-4.1,0.55-10.2,0.98-18.29,1.29l-0.82-2.73
		c1.49,0,2.92-0.01,4.27-0.03c1.62-1.7,2.93-3.53,3.91-5.5h-8.64V6.15z"/>
	<path d="M646.14,5.22h2.84v8.15h11.05v2.52h-11.05v11.43h12.47v2.62H636.3v-2.62h9.84V5.22z"/>
</g>
<g>
	<g>
		<g id="XMLID_10_">
			<g>
				<linearGradient id="SVGID_1_" gradientUnits="userSpaceOnUse" x1="-8.9433" y1="7.2509" x2="42.7225" y2="27.9173">
					<stop  offset="5.618000e-03" style="stop-color:#FF2727"/>
					<stop  offset="0.3525" style="stop-color:#FFFF00"/>
					<stop  offset="0.3814" style="stop-color:#F8EE10"/>
					<stop  offset="0.4388" style="stop-color:#E6C13A"/>
					<stop  offset="0.5185" style="stop-color:#C9797D"/>
					<stop  offset="0.5955" style="stop-color:#AA2EC3"/>
					<stop  offset="0.7367" style="stop-color:#4F66C6"/>
					<stop  offset="0.8536" style="stop-color:#0097C9"/>
					<stop  offset="1" style="stop-color:#FFFF00"/>
				</linearGradient>
				<polygon class="st2" points="30.93,19 20.43,29.5 9.93,19 20.43,8.5 				"/>
				<linearGradient id="SVGID_2_" gradientUnits="userSpaceOnUse" x1="-7.8742" y1="4.5781" x2="43.7917" y2="25.2444">
					<stop  offset="5.618000e-03" style="stop-color:#FF2727"/>
					<stop  offset="0.2129" style="stop-color:#FFFF00"/>
					<stop  offset="0.2584" style="stop-color:#F8EE10"/>
					<stop  offset="0.3488" style="stop-color:#E6C13A"/>
					<stop  offset="0.4743" style="stop-color:#C9797D"/>
					<stop  offset="0.5955" style="stop-color:#AA2EC3"/>
					<stop  offset="0.78" style="stop-color:#4F66C6"/>
					<stop  offset="0.9327" style="stop-color:#0097C9"/>
					<stop  offset="1" style="stop-color:#FFFF00"/>
				</linearGradient>
				<polygon class="st3" points="28.18,8.5 26.02,10.66 34.36,19 26.02,27.34 28.18,29.5 38.68,19 				"/>
			</g>
		</g>
	</g>
</g>
<g>
	<g>
		<linearGradient id="SVGID_3_" gradientUnits="userSpaceOnUse" x1="13.3622" y1="36.6047" x2="620.1619" y2="36.6047">
			<stop  offset="0" style="stop-color:#00B987"/>
			<stop  offset="1" style="stop-color:#FFFFFF"/>
		</linearGradient>
		<line class="st4" x1="13.36" y1="36.6" x2="620.16" y2="36.6"/>
	</g>
</g>
</svg>
