<?xml version="1.0" encoding="utf-8"?>
<!-- Generator: Adobe Illustrator 25.2.0, SVG Export Plug-In . SVG Version: 6.00 Build 0)  -->
<svg version="1.1" id="Layer_1" xmlns="http://www.w3.org/2000/svg" xmlns:xlink="http://www.w3.org/1999/xlink" x="0px" y="0px"
	 width="688.39px" height="40px" viewBox="0 0 688.39 40" style="enable-background:new 0 0 688.39 40;" xml:space="preserve">
<style type="text/css">
	.st0{enable-background:new    ;}
	.st1{fill:#FFFFFF;}
	.st2{fill:url(#SVGID_1_);}
	.st3{fill:url(#SVGID_2_);}
	.st4{fill:none;stroke:url(#SVGID_3_);stroke-width:2;stroke-miterlimit:10;stroke-dasharray:2,3,2,3,2,3;}
	.st5{fill:url(#SVGID_4_);}
	.st6{fill:url(#SVGID_5_);}
	.st7{fill:none;stroke:url(#SVGID_6_);stroke-width:2;stroke-miterlimit:10;stroke-dasharray:2,3,2,3,2,3;}
	.st8{fill:url(#SVGID_7_);}
	.st9{fill:url(#SVGID_8_);}
	.st10{fill:none;stroke:url(#SVGID_9_);stroke-width:2;stroke-miterlimit:10;stroke-dasharray:2,3,2,3,2,3;}
	.st11{fill:url(#SVGID_10_);}
	.st12{fill:url(#SVGID_11_);}
	.st13{fill:none;stroke:url(#SVGID_12_);stroke-width:2;stroke-miterlimit:10;stroke-dasharray:2,3,2,3,2,3;}
	.st14{fill:url(#SVGID_13_);}
	.st15{fill:url(#SVGID_14_);}
	.st16{fill:none;stroke:url(#SVGID_15_);stroke-width:2;stroke-miterlimit:10;stroke-dasharray:2,3,2,3,2,3;}
	.st17{fill:url(#SVGID_16_);}
	.st18{fill:url(#SVGID_17_);}
	.st19{fill:none;stroke:url(#SVGID_18_);stroke-width:2;stroke-miterlimit:10;stroke-dasharray:2,3,2,3,2,3;}
	.st20{fill:url(#SVGID_19_);}
	.st21{fill:url(#SVGID_20_);}
	.st22{fill:none;stroke:url(#SVGID_21_);stroke-width:2;stroke-miterlimit:10;stroke-dasharray:2,3,2,3,2,3;}
	.st23{fill:url(#SVGID_22_);}
	.st24{fill:url(#SVGID_23_);}
	.st25{fill:none;stroke:url(#SVGID_24_);stroke-width:2;stroke-miterlimit:10;stroke-dasharray:2,3,2,3,2,3;}
	.st26{fill:url(#SVGID_25_);}
	.st27{fill:url(#SVGID_26_);}
	.st28{fill:none;stroke:url(#SVGID_27_);stroke-width:2;stroke-miterlimit:10;stroke-dasharray:2,3,2,3,2,3;}
	.st29{fill:#ABABAB;}
	.st30{fill:url(#SVGID_28_);}
	.st31{fill:url(#SVGID_29_);}
	.st32{fill:none;stroke:url(#SVGID_30_);stroke-width:2;stroke-miterlimit:10;stroke-dasharray:2,3,2,3,2,3;}
	.st33{fill:url(#SVGID_31_);}
	.st34{fill:url(#SVGID_32_);}
	.st35{fill:none;stroke:url(#SVGID_33_);stroke-width:2;stroke-miterlimit:10;stroke-dasharray:2,3,2,3,2,3;}
	.st36{fill:url(#SVGID_34_);}
	.st37{fill:url(#SVGID_35_);}
	.st38{fill:none;stroke:url(#SVGID_36_);stroke-width:2;stroke-miterlimit:10;stroke-dasharray:2,3,2,3,2,3;}
	.st39{fill:url(#SVGID_37_);}
	.st40{fill:url(#SVGID_38_);}
	.st41{fill:none;stroke:url(#SVGID_39_);stroke-width:2;stroke-miterlimit:10;stroke-dasharray:2,3,2,3,2,3;}
</style>
<g class="st0">
	<path d="M58.25,4.89l2.73,0.33c-0.35,0.6-0.73,1.15-1.15,1.64h10.55v2.05c-1.71,2.15-4.08,4.05-7.11,5.69
		c-3.79,2.17-8.29,3.67-13.51,4.51l-1.18-2.32c3.81-0.47,7.09-1.24,9.84-2.3c-0.84-0.88-1.85-1.81-3.04-2.82l2.05-1.31
		c1.5,1.11,2.72,2.08,3.66,2.9c2.02-1.11,3.83-2.44,5.41-3.99h-9.3c-0.13,0.09-0.23,0.16-0.3,0.22c-1.64,1.24-3.77,2.37-6.4,3.39
		l-1.7-2.16c2.37-0.82,4.35-1.7,5.93-2.65C56.02,7.35,57.18,6.29,58.25,4.89z M64.46,14.73l2.87,0.46c-0.57,0.8-1.15,1.52-1.75,2.16
		h7.57v2.27c-1.95,3.37-4.21,5.8-6.78,7.27c-2.92,1.7-7.7,2.96-14.36,3.8l-1.86-2.57c5.36-0.46,9.47-1.19,12.33-2.21
		c-0.89-0.89-1.94-1.84-3.14-2.84l2.05-1.34c1.5,1.11,2.75,2.09,3.77,2.93c1.97-1.11,3.56-2.74,4.79-4.89h-7.11
		c-0.11,0.07-0.21,0.14-0.3,0.19c-1.84,1.39-5,2.85-9.46,4.4l-2.05-2.52c3.94-1.07,6.85-2.13,8.75-3.17
		C61.72,17.69,63.27,16.37,64.46,14.73z"/>
	<path d="M76.52,13.64h24.72v2.62h-7.77v10.17c0,0.66,0.37,0.98,1.12,0.98h2.21c0.64,0,1.1-0.16,1.39-0.46
		c0.36-0.31,0.6-1.76,0.71-4.35l2.76,0.88c-0.27,3.17-0.74,5.04-1.39,5.61c-0.57,0.56-1.59,0.85-3.09,0.85H93.5
		c-0.88,0-1.57-0.24-2.08-0.71c-0.55-0.49-0.82-1.15-0.82-1.97V16.26h-4.54c-0.18,3.57-0.77,6.4-1.75,8.48
		c-0.93,2.08-3.05,4.03-6.37,5.85l-1.97-2.38c2.7-1.31,4.52-2.71,5.47-4.18c1.06-1.68,1.68-4.27,1.86-7.77h-6.78V13.64z M78.81,6.42
		h19.8v2.65h-19.8V6.42z"/>
	<path d="M110.29,4.89l2.54,1.18c-0.75,2.22-1.53,4.14-2.35,5.74v18.78h-2.73v-14.6c-0.91,1.22-1.91,2.44-2.98,3.66l-1.01-3.39
		c1.35-1.57,2.53-3.18,3.55-4.84C108.33,9.91,109.32,7.73,110.29,4.89z M124.7,27.86c0.6,0,1.05-0.23,1.34-0.68
		c0.33-0.46,0.55-2.6,0.66-6.43l2.65,0.85c-0.27,4.3-0.72,6.84-1.34,7.63c-0.53,0.77-1.5,1.15-2.93,1.15h-7.79
		c-0.84,0-1.5-0.24-2-0.71c-0.51-0.49-0.77-1.15-0.77-1.97V5.11h2.73v10.17c3.96-1.95,7.26-4.14,9.93-6.56l1.72,2.41
		c-3.34,2.81-7.22,5.15-11.65,7.03v8.72c0,0.66,0.36,0.98,1.09,0.98H124.7z"/>
	<path d="M137.85,5l2.54,0.36c-0.31,1.44-0.76,2.76-1.34,3.96h3.96v5.88c0.82-1.37,1.45-2.71,1.89-4.02
		c0.57-1.57,1.02-3.66,1.37-6.29l2.76,0.46c-0.25,1.46-0.5,2.74-0.74,3.86h8.61c0,9.86-0.16,15.7-0.46,17.53
		c-0.24,1.44-0.69,2.37-1.37,2.79c-0.78,0.56-2.22,0.85-4.32,0.85c-0.6,0-1.3-0.04-2.11-0.11l-0.49-2.73
		c0.86,0.11,1.73,0.16,2.62,0.16c1.71,0,2.67-0.57,2.87-1.72c0.35-1.46,0.56-6.21,0.63-14.25h-6.67c-0.05,0.2-0.11,0.38-0.16,0.55
		c-0.6,2.01-1.64,4.14-3.12,6.4l-1.31-1.61v11.46h-2.41v-1.37h-5.14v2.13h-2.41V9.32h3.47C137.14,7.95,137.58,6.51,137.85,5z
		 M135.47,17.14h5.14v-5.52h-5.14V17.14z M135.47,24.85h5.14v-5.52h-5.14V24.85z M148.54,15.5c1.57,2.55,2.79,4.75,3.66,6.59
		l-2.62,1.83c-0.78-2.04-1.88-4.37-3.28-7L148.54,15.5z"/>
	<path d="M165.38,4.89c0.4,0.89,0.78,1.9,1.15,3.01h3.94v2.3h-10.61V7.9h4.05c-0.35-0.93-0.75-1.8-1.2-2.6L165.38,4.89z
		 M169.32,20.04v7.98h-6.12v1.91h-2.52v-9.9H169.32z M160.74,12h8.75v2.19h-8.75V12z M160.74,15.94h8.86v2.19h-8.86V15.94z
		 M163.2,25.72h3.61v-3.39h-3.61V25.72z M172.11,5.44h2.62v9.84c0,3.45-0.23,6.3-0.68,8.56c-0.44,2.24-1.29,4.53-2.54,6.86
		l-2.24-1.97c1.08-1.79,1.83-3.72,2.27-5.8c0.38-1.68,0.57-4.23,0.57-7.66V5.44z M176.87,7.08h2.52v20.89h-2.52V7.08z M181.96,5.44
		h2.62v25.16h-2.62V5.44z"/>
	<path d="M188.87,23.15l2.05,0.27c-0.16,2.7-0.47,4.98-0.93,6.84l-2.35-0.74C188.26,27.52,188.67,25.4,188.87,23.15z M192.67,4.89
		l2.3,0.79c-0.98,2.61-2.11,4.91-3.36,6.92c0.86-0.13,1.68-0.25,2.46-0.38c0.49-0.95,0.97-1.93,1.42-2.95l2.21,0.85
		c-1.86,3.9-3.76,7.1-5.71,9.6c1.22-0.15,2.26-0.33,3.12-0.55c-0.16-0.93-0.36-1.83-0.57-2.71l1.94-0.63
		c0.51,1.79,0.96,3.83,1.34,6.12l-2.13,0.55c-0.07-0.46-0.15-0.9-0.22-1.34c-1.64,0.42-3.87,0.76-6.7,1.01l-0.68-2.3
		c0.49,0,0.96-0.01,1.39-0.03c1.13-1.44,2.27-3.22,3.42-5.33c-1.4,0.27-2.93,0.53-4.59,0.77l-0.55-2.3
		c0.42-0.04,0.83-0.07,1.23-0.11C190.4,10.5,191.63,7.84,192.67,4.89z M193.9,23.15c0.25,1.44,0.43,3.39,0.52,5.85l-2.24,0.27
		c-0.02-2.53-0.07-4.5-0.16-5.91L193.9,23.15z M197.02,22.61c0.36,1.22,0.68,2.59,0.96,4.1c0.91-0.8,1.63-1.59,2.16-2.35
		c0.58-0.73,1.11-1.62,1.59-2.68h-3.75v-10.5h6.07v-1.8h-6.56V7.19h6.56v-2.3h2.41v2.3h6.89v2.19h-6.89v1.8h6.07v10.5h-3.99
		c0.53,1.09,1.16,2.1,1.89,3.01c0.84,1,2,2.1,3.47,3.28l-1.72,2.19c-1.57-1.46-2.83-2.94-3.77-4.43c-0.77-1.13-1.41-2.44-1.94-3.94
		v8.8h-2.41v-8.78c-0.47,1.31-0.96,2.35-1.45,3.12c-0.88,1.62-2.32,3.34-4.35,5.14l-1.42-2.38c0.25-0.2,0.49-0.4,0.71-0.6
		l-1.64,0.44c-0.22-1.49-0.49-2.93-0.82-4.29L197.02,22.61z M204.05,19.6v-6.34h-3.77v6.34H204.05z M202.52,14.19
		c0.36,1.2,0.69,2.58,0.98,4.13l-1.8,0.46c-0.22-1.4-0.49-2.75-0.82-4.05L202.52,14.19z M210.23,19.6v-6.34h-3.77v6.34H210.23z
		 M208.1,14.19l1.75,0.46c-0.35,1.5-0.78,2.87-1.31,4.13l-1.75-0.63C207.29,17.11,207.73,15.79,208.1,14.19z"/>
	<path d="M227.02,4.78c1.73,1.08,3.19,2.14,4.38,3.2l-1.07,1.09h11.13v2.6h-15.59v2.19c0,0.58-0.01,1.15-0.03,1.7h12.44
		c-0.05,7.78-0.71,12.23-1.97,13.34c-0.64,0.98-2.89,1.48-6.75,1.48l-0.57-2.84c0.88,0.15,1.59,0.22,2.16,0.22
		c1.37,0,2.39-0.32,3.06-0.96c0.64-0.64,1.05-3.54,1.23-8.72h-9.79c-0.24,1.97-0.65,3.68-1.23,5.14c-0.91,2.44-2.69,4.94-5.33,7.49
		l-2.35-2.05c2.41-1.97,4.11-4.09,5.11-6.37c0.86-1.84,1.29-4.65,1.29-8.42v-2.19h-6.84v-2.6h12.09c-0.91-0.82-1.99-1.65-3.23-2.49
		L227.02,4.78z"/>
	<path d="M244.41,9.81h13.48c-0.05-1.46-0.08-2.99-0.08-4.59h2.73c0,1.64,0.04,3.17,0.11,4.59h8.5V12h-8.39
		c0.35,4.52,1.06,7.94,2.13,10.25c1.62,3.39,2.79,5.09,3.5,5.09c0.4,0,0.86-1.76,1.37-5.28l2.35,1.61
		c-0.73,3.35-1.41,5.38-2.05,6.07c-0.38,0.56-0.83,0.85-1.34,0.85c-1.2,0-2.42-0.66-3.64-1.97c-1.6-1.86-2.91-4.54-3.91-8.04
		c-0.58-2.31-0.98-5.18-1.18-8.59h-13.59V9.81z M245.61,15.39h12.03v2.19h-4.98v7.03c1.95-0.47,3.93-1.06,5.93-1.75v2.57
		c-4.14,1.33-8.75,2.4-13.84,3.2L244.41,26c1.8-0.15,3.65-0.41,5.52-0.79v-7.63h-4.32V15.39z M263.99,5.11
		c1.46,1.06,2.59,1.97,3.39,2.73l-2.19,1.53c-0.75-0.91-1.76-1.94-3.04-3.09L263.99,5.11z"/>
	<path d="M279.35,5.11l1.04,2.54c-0.97,0.49-2.52,1-4.68,1.53l0.05,2.11h4.07v2.3h-3.99l0.11,3.34h3.64v2.19h-3.58l0.08,3.06h4.32
		l1.01-7.22h2.52l-1.01,7.22h2.43l0.85-8.64h-3.12l-0.08,0.66h-2.41l1.2-9.41h2.41l-0.25,1.97h4.51v2.19h-4.79l-0.3,2.41h5.41
		l-0.9,10.83h5.74l0.08-3.01h-3.94v-2.3h3.99l0.11-3.28h-4.1v-2.3h4.16l0.08-2.84h-4.24v-2.3h6.73l-0.46,16.02h1.61v2.41h-25.81
		v-2.41h1.83l-0.41-15.18C275.2,6.78,277.22,6.15,279.35,5.11z M280.37,25.01l1.89,1.67c-2.22,1.44-5.02,2.74-8.39,3.91l-1.78-2.3
		C275.16,27.42,277.92,26.33,280.37,25.01z M289.06,24.9c3.03,0.93,5.79,2.05,8.29,3.36l-1.67,2.54c-2.61-1.57-5.3-2.82-8.07-3.75
		L289.06,24.9z"/>
	<path d="M300.3,6.58h9.62V9.1h-3.77v5.58h3.23v2.52h-3.23v6.26c1.29-0.47,2.52-0.96,3.66-1.45v2.76c-2.68,1.24-5.76,2.38-9.24,3.42
		l-0.82-2.73c1.35-0.36,2.64-0.74,3.88-1.12v-7.14h-3.12v-2.52h3.12V9.1h-3.34V6.58z M309.81,13.64h15.2v2.62h-4.38v10.72
		c0,0.66,0.35,0.98,1.04,0.98h0.36c0.44,0,0.76-0.17,0.96-0.52c0.24-0.33,0.39-1.9,0.46-4.73l2.54,0.82
		c-0.22,3.41-0.59,5.42-1.12,6.04c-0.46,0.6-1.29,0.9-2.49,0.9h-1.72c-0.8,0-1.44-0.24-1.91-0.71c-0.49-0.49-0.74-1.15-0.74-1.97
		V16.26h-2.32c-0.13,3.63-0.61,6.49-1.45,8.59c-0.77,2.11-2.52,4.1-5.28,5.96l-1.89-2.3c2.19-1.33,3.67-2.77,4.46-4.32
		c0.88-1.7,1.39-4.34,1.53-7.93h-3.25V13.64z M310.69,6.58h13.56V9.1h-13.56V6.58z"/>
	<path d="M329.53,12.33c1.68,0.78,3.2,1.72,4.57,2.82l-1.67,2.54c-1.4-1.35-2.85-2.42-4.35-3.2L329.53,12.33z M332.65,19l2.11,1.56
		c-1.31,3.81-2.81,7.12-4.48,9.93l-1.97-2.19C329.68,26.13,331.13,23.03,332.65,19z M330.9,5.52c1.64,0.84,3.14,1.82,4.51,2.95
		l-1.75,2.65c-1.39-1.4-2.81-2.52-4.27-3.34L330.9,5.52z M336.72,8.72h5.63V4.89h2.73v3.83h7.27v2.41h-7.27v4.87h8.48v2.52h-9.73
		c-0.58,2.5-1.54,5.11-2.87,7.85c3.06-0.18,5.63-0.53,7.71-1.04c-0.75-1.53-1.52-2.95-2.32-4.27l2.52-0.85
		c1.8,2.86,3.37,5.9,4.7,9.1l-2.62,1.18c-0.38-0.97-0.77-1.88-1.15-2.73c-3.28,0.73-8.04,1.31-14.27,1.75l-0.88-2.98
		c1.02,0,2-0.01,2.93-0.03c1.37-2.44,2.45-5.1,3.25-7.98h-5.74v-2.52h7.27v-4.87h-5.63V8.72z"/>
</g>
<g>
	<g>
		<g id="XMLID_6_">
			<g>
				<linearGradient id="SVGID_1_" gradientUnits="userSpaceOnUse" x1="-8.9433" y1="7.2509" x2="42.7225" y2="27.9173">
					<stop  offset="5.618000e-03" style="stop-color:#FF2727"/>
					<stop  offset="0.3525" style="stop-color:#FFFF00"/>
					<stop  offset="0.3814" style="stop-color:#F8EE10"/>
					<stop  offset="0.4388" style="stop-color:#E6C13A"/>
					<stop  offset="0.5185" style="stop-color:#C9797D"/>
					<stop  offset="0.5955" style="stop-color:#AA2EC3"/>
					<stop  offset="0.7367" style="stop-color:#4F66C6"/>
					<stop  offset="0.8536" style="stop-color:#0097C9"/>
					<stop  offset="1" style="stop-color:#FFFF00"/>
				</linearGradient>
				<polygon class="st2" points="30.93,19 20.43,29.5 9.93,19 20.43,8.5 				"/>
				<linearGradient id="SVGID_2_" gradientUnits="userSpaceOnUse" x1="-7.8742" y1="4.5781" x2="43.7917" y2="25.2444">
					<stop  offset="5.618000e-03" style="stop-color:#FF2727"/>
					<stop  offset="0.2129" style="stop-color:#FFFF00"/>
					<stop  offset="0.2584" style="stop-color:#F8EE10"/>
					<stop  offset="0.3488" style="stop-color:#E6C13A"/>
					<stop  offset="0.4743" style="stop-color:#C9797D"/>
					<stop  offset="0.5955" style="stop-color:#AA2EC3"/>
					<stop  offset="0.78" style="stop-color:#4F66C6"/>
					<stop  offset="0.9327" style="stop-color:#0097C9"/>
					<stop  offset="1" style="stop-color:#FFFF00"/>
				</linearGradient>
				<polygon class="st3" points="28.18,8.5 26.02,10.66 34.36,19 26.02,27.34 28.18,29.5 38.68,19 				"/>
			</g>
		</g>
	</g>
</g>
<g>
	<g>
		<linearGradient id="SVGID_3_" gradientUnits="userSpaceOnUse" x1="13.3622" y1="36.6047" x2="620.1619" y2="36.6047">
			<stop  offset="0" style="stop-color:#00B987"/>
			<stop  offset="1" style="stop-color:#FFFFFF"/>
		</linearGradient>
		<line class="st4" x1="13.36" y1="36.6" x2="620.16" y2="36.6"/>
	</g>
</g>
</svg>
