<?xml version="1.0" encoding="utf-8"?>
<!-- Generator: Adobe Illustrator 25.2.0, SVG Export Plug-In . SVG Version: 6.00 Build 0)  -->
<svg version="1.1" id="Layer_1" xmlns="http://www.w3.org/2000/svg" xmlns:xlink="http://www.w3.org/1999/xlink" x="0px" y="0px"
	 width="688.39px" height="40px" viewBox="0 0 688.39 40" style="enable-background:new 0 0 688.39 40;" xml:space="preserve">
<style type="text/css">
	.st0{enable-background:new    ;}
	.st1{fill:#FFFFFF;}
	.st2{fill:url(#SVGID_1_);}
	.st3{fill:url(#SVGID_2_);}
	.st4{fill:none;stroke:url(#SVGID_3_);stroke-width:2;stroke-miterlimit:10;stroke-dasharray:2,3,2,3,2,3;}
	.st5{fill:url(#SVGID_4_);}
	.st6{fill:url(#SVGID_5_);}
	.st7{fill:none;stroke:url(#SVGID_6_);stroke-width:2;stroke-miterlimit:10;stroke-dasharray:2,3,2,3,2,3;}
	.st8{fill:url(#SVGID_7_);}
	.st9{fill:url(#SVGID_8_);}
	.st10{fill:none;stroke:url(#SVGID_9_);stroke-width:2;stroke-miterlimit:10;stroke-dasharray:2,3,2,3,2,3;}
	.st11{fill:url(#SVGID_10_);}
	.st12{fill:url(#SVGID_11_);}
	.st13{fill:none;stroke:url(#SVGID_12_);stroke-width:2;stroke-miterlimit:10;stroke-dasharray:2,3,2,3,2,3;}
	.st14{fill:url(#SVGID_13_);}
	.st15{fill:url(#SVGID_14_);}
	.st16{fill:none;stroke:url(#SVGID_15_);stroke-width:2;stroke-miterlimit:10;stroke-dasharray:2,3,2,3,2,3;}
	.st17{fill:url(#SVGID_16_);}
	.st18{fill:url(#SVGID_17_);}
	.st19{fill:none;stroke:url(#SVGID_18_);stroke-width:2;stroke-miterlimit:10;stroke-dasharray:2,3,2,3,2,3;}
	.st20{fill:url(#SVGID_19_);}
	.st21{fill:url(#SVGID_20_);}
	.st22{fill:none;stroke:url(#SVGID_21_);stroke-width:2;stroke-miterlimit:10;stroke-dasharray:2,3,2,3,2,3;}
	.st23{fill:url(#SVGID_22_);}
	.st24{fill:url(#SVGID_23_);}
	.st25{fill:none;stroke:url(#SVGID_24_);stroke-width:2;stroke-miterlimit:10;stroke-dasharray:2,3,2,3,2,3;}
	.st26{fill:url(#SVGID_25_);}
	.st27{fill:url(#SVGID_26_);}
	.st28{fill:none;stroke:url(#SVGID_27_);stroke-width:2;stroke-miterlimit:10;stroke-dasharray:2,3,2,3,2,3;}
	.st29{fill:#ABABAB;}
	.st30{fill:url(#SVGID_28_);}
	.st31{fill:url(#SVGID_29_);}
	.st32{fill:none;stroke:url(#SVGID_30_);stroke-width:2;stroke-miterlimit:10;stroke-dasharray:2,3,2,3,2,3;}
	.st33{fill:url(#SVGID_31_);}
	.st34{fill:url(#SVGID_32_);}
	.st35{fill:none;stroke:url(#SVGID_33_);stroke-width:2;stroke-miterlimit:10;stroke-dasharray:2,3,2,3,2,3;}
	.st36{fill:url(#SVGID_34_);}
	.st37{fill:url(#SVGID_35_);}
	.st38{fill:none;stroke:url(#SVGID_36_);stroke-width:2;stroke-miterlimit:10;stroke-dasharray:2,3,2,3,2,3;}
	.st39{fill:url(#SVGID_37_);}
	.st40{fill:url(#SVGID_38_);}
	.st41{fill:none;stroke:url(#SVGID_39_);stroke-width:2;stroke-miterlimit:10;stroke-dasharray:2,3,2,3,2,3;}
	.st42{fill:url(#SVGID_40_);}
	.st43{fill:url(#SVGID_41_);}
	.st44{fill:none;stroke:url(#SVGID_42_);stroke-width:2;stroke-miterlimit:10;stroke-dasharray:2,3,2,3,2,3;}
	.st45{fill:url(#SVGID_43_);}
	.st46{fill:url(#SVGID_44_);}
	.st47{fill:none;stroke:url(#SVGID_45_);stroke-width:2;stroke-miterlimit:10;stroke-dasharray:2,3,2,3,2,3;}
</style>
<g class="st0">
	<path d="M48.19,9.97h3.23V4.89h2.52v5.09h3.01v2.3h-3.01v5.33c0.89-0.49,1.79-1.06,2.68-1.7v2.68c-0.89,0.58-1.79,1.11-2.68,1.59
		v7.46c0,1-0.22,1.7-0.66,2.11c-0.38,0.42-1.1,0.63-2.16,0.63h-2l-0.6-2.73c0.75,0.13,1.37,0.19,1.86,0.19
		c0.69,0,1.04-0.22,1.04-0.66V21.4c-0.95,0.42-1.93,0.78-2.95,1.09l-0.38-2.73c1.08-0.18,2.19-0.5,3.34-0.96v-6.54h-3.23V9.97z
		 M56.94,17.9h6.62v-2.3h2.52v2.3h7.27v2.41h-6.89c0.73,1.06,1.58,2.04,2.54,2.95c1.15,1.04,2.74,2.17,4.79,3.39l-1.8,2.3
		c-2.1-1.51-3.78-3.04-5.06-4.57c-0.29-0.35-0.57-0.7-0.85-1.07v7.27h-2.52v-7.46c-1.88,2.42-4.07,4.44-6.56,6.04l-1.59-2.38
		c3.19-1.84,5.71-4,7.55-6.48h-6.02V17.9z M72.12,5l1.23,2.11c-3.97,1.51-9.27,2.27-15.89,2.27l-0.74-2.21
		C62.77,7.16,67.9,6.44,72.12,5z M59.81,10.58c0.77,1.4,1.45,3.01,2.05,4.81l-2.54,0.68c-0.47-1.64-1.08-3.22-1.83-4.73L59.81,10.58
		z M65.69,9.7c0.31,1.42,0.57,3.02,0.77,4.79l-2.73,0.36c-0.16-1.8-0.35-3.41-0.55-4.81L65.69,9.7z M70.72,9.26l2.43,1.15
		c-0.75,2.02-1.7,3.97-2.87,5.85l-2.41-1.26C69.08,13.02,70.03,11.11,70.72,9.26z"/>
	<path d="M79.91,5.98h20.67v21.33c0,0.91-0.2,1.64-0.6,2.19c-0.42,0.51-1.09,0.77-2.02,0.77h-3.58l-0.68-2.62l3.47,0.11
		c0.53,0,0.79-0.3,0.79-0.9V21.9h-7.16v7.93h-2.52V21.9h-7.16c-0.09,0.97-0.24,1.95-0.44,2.95c-0.47,1.95-1.24,3.86-2.3,5.74
		l-2.3-2.05c1.02-1.44,1.71-2.95,2.08-4.54c0.29-1.64,0.44-3.16,0.44-4.57V5.98H79.91z M81.22,12.71h7.05V8.39h-7.05V12.71z
		 M81.22,19.6h7.05v-4.59h-7.05V19.6z M90.79,8.39v4.32h7.16V8.39H90.79z M90.79,15.01v4.59h7.16v-4.59H90.79z"/>
	<path d="M111.35,5.11l1.04,2.54c-0.97,0.49-2.52,1-4.68,1.53l0.05,2.11h4.07v2.3h-3.99l0.11,3.34h3.64v2.19h-3.58l0.08,3.06h4.32
		l1.01-7.22h2.52l-1.01,7.22h2.43l0.85-8.64h-3.12l-0.08,0.66h-2.41l1.2-9.41h2.41l-0.25,1.97h4.51v2.19h-4.79l-0.3,2.41h5.41
		l-0.9,10.83h5.74l0.08-3.01h-3.94v-2.3h3.99l0.11-3.28h-4.1v-2.3h4.16l0.08-2.84h-4.24v-2.3h6.73l-0.46,16.02h1.61v2.41h-25.81
		v-2.41h1.83l-0.41-15.18C107.2,6.78,109.22,6.15,111.35,5.11z M112.37,25.01l1.89,1.67c-2.22,1.44-5.02,2.74-8.39,3.91l-1.78-2.3
		C107.16,27.42,109.92,26.33,112.37,25.01z M121.06,24.9c3.03,0.93,5.79,2.05,8.29,3.36l-1.67,2.54c-2.61-1.57-5.3-2.82-8.07-3.75
		L121.06,24.9z"/>
	<path d="M145.37,5c0.42,0.57,0.8,1.17,1.15,1.8h10.72v2.3H132.6V6.8h11.13c-0.36-0.51-0.75-0.97-1.15-1.39L145.37,5z M151.17,30.59
		l-0.6-2.62l2.41,0.11c0.58-0.04,0.88-0.43,0.88-1.18v-6.81h-17.94v10.5h-2.62V17.9h23.19v9.76c0,1-0.24,1.75-0.71,2.24
		c-0.4,0.46-0.98,0.68-1.72,0.68H151.17z M135.96,10.41h17.61v6.02h-17.61V10.41z M138.26,21.46h13.02v6.23h-13.02V21.46z
		 M151.06,14.35v-1.86h-12.58v1.86H151.06z M148.76,25.62v-2.08h-7.98v2.08H148.76z"/>
	<path d="M160.85,5.98h8.53v2.02c-0.64,2.1-1.39,4.32-2.27,6.67c0.75,1.29,1.28,2.45,1.59,3.47c0.38,1.06,0.57,1.96,0.57,2.71
		c-0.04,1.48-0.32,2.53-0.85,3.14c-0.58,0.75-1.86,1.12-3.83,1.12l-0.79-2.71c0.49,0.13,0.95,0.19,1.37,0.19
		c0.49,0,0.85-0.13,1.07-0.38c0.27-0.22,0.41-0.67,0.41-1.37c0-0.84-0.14-1.62-0.41-2.35c-0.31-0.97-0.89-2.11-1.75-3.45
		c1.08-2.62,1.83-4.85,2.27-6.67h-3.28v22.2h-2.62V5.98z M170.36,5.33h2.41v2.62h4.16v2.19h-4.16v3.77c1.33-0.38,2.68-0.88,4.05-1.5
		v2.68c-2.21,0.95-4.67,1.71-7.38,2.27l-0.38-2.73c0.44-0.04,0.88-0.1,1.31-0.19V5.33z M175.78,15.94l2.68,0.36
		c-0.15,0.75-0.37,1.43-0.68,2.05h6.59v12.25h-2.41v-1.42h-9.08v1.53h-2.41V18.34h4.65C175.43,17.58,175.65,16.77,175.78,15.94z
		 M172.88,22.44h9.08v-1.91h-9.08V22.44z M172.88,26.98h9.08v-2.24h-9.08V26.98z M182.28,14.19c0.42,0,0.73-0.08,0.93-0.25
		c0.24-0.16,0.39-0.88,0.46-2.16l2.32,0.74c-0.22,1.95-0.57,3.1-1.07,3.45c-0.42,0.35-1.19,0.52-2.32,0.52h-2.49
		c-0.73,0-1.31-0.22-1.75-0.66c-0.46-0.46-0.68-1.06-0.68-1.8v-8.8h2.41v3.45c1.51-0.66,2.81-1.37,3.88-2.13l1.37,1.94
		c-1.51,1-3.26,1.85-5.25,2.54v2.3c0,0.58,0.32,0.88,0.96,0.88H182.28z"/>
	<path d="M189.26,12.11c1.57,0.69,3,1.52,4.29,2.49l-1.75,2.65c-1.31-1.22-2.66-2.19-4.05-2.9L189.26,12.11z M192.32,18.67
		l2.21,1.64c-1.22,3.87-2.62,7.22-4.18,10.06l-2.05-2.3C189.59,25.89,190.93,22.75,192.32,18.67z M190.57,5.22
		c1.6,0.75,3.07,1.65,4.4,2.71l-1.75,2.65c-1.35-1.31-2.73-2.35-4.16-3.12L190.57,5.22z M210.99,5.6v7.33h1.91v6.18h-2.08v8.48
		c0,0.95-0.24,1.66-0.71,2.13c-0.4,0.44-0.98,0.66-1.72,0.66h-3.34l-0.57-2.52l2.84,0.11c0.58-0.04,0.88-0.41,0.88-1.12v-1.01h-9.52
		v4.76h-2.62V19h-2.08v-6.07h1.91V5.6H210.99z M196.39,16.7h14.11v-1.48h-14.11V16.7z M198.42,12.93h2.79V9.32h7.27V7.9h-10.06
		V12.93z M198.69,20.31h9.52v-1.42h-9.52V20.31z M198.69,23.76h9.52v-1.48h-9.52V23.76z M203.83,12.93h4.65v-1.75h-4.65V12.93z"/>
	<path d="M216.3,10.14h3.5V4.89h2.62v5.25h3.61v2.38h-3.61v0.9c1.37,1.33,2.75,2.82,4.16,4.46l-1.56,2.32
		c-1-1.51-1.87-2.75-2.6-3.72v14.11h-2.62V18.53c-0.8,1.95-1.73,3.67-2.79,5.17l-1.26-3.2c1.66-2.21,3.01-4.74,4.05-7.6v-0.38h-3.5
		V10.14z M240.22,4.89l1.45,2.62c-3.46,0.69-7.35,1.1-11.65,1.23v3.53h10.88v2.16c-0.62,3.77-1.72,6.98-3.31,9.62
		c1.26,1.35,2.73,2.51,4.4,3.47l-1.56,2.54c-1.75-1.2-3.24-2.46-4.46-3.77c-1.5,1.59-3.5,2.98-6.02,4.18l-1.53-2.32
		c2.46-1.11,4.4-2.44,5.82-3.99c-0.25-0.36-0.48-0.71-0.68-1.04c-1.46-2.28-2.49-5.06-3.09-8.34h-0.46v1.15
		c-0.05,2.44-0.35,5.03-0.88,7.77c-0.49,2.33-1.31,4.56-2.46,6.67l-1.97-2.05c0.93-1.77,1.6-3.57,2.02-5.41
		c0.38-2,0.64-4.33,0.77-6.97V6.37C232.61,6.37,236.85,5.87,240.22,4.89z M233.12,14.79c0.58,2.86,1.48,5.2,2.68,7
		c0.04,0.07,0.07,0.13,0.11,0.16c1.09-1.99,1.9-4.38,2.41-7.16H233.12z"/>
	<path d="M244.3,9.97h4.65V4.89h2.52v5.09h4.1v2.3h-4.1v1.26c1.53,1.51,3.08,3.23,4.65,5.14l-1.61,2.41
		c-1.18-1.82-2.2-3.28-3.04-4.38v13.89h-2.52V17.41c-1.02,2.44-2.26,4.58-3.72,6.4l-1.26-3.2c2.02-2.41,3.66-5.19,4.89-8.34h-4.57
		V9.97z M268.74,5.98v24.61h-2.52v-1.86h-7.33v1.97h-2.52V5.98H268.74z M258.9,12.49h7.33v-4.1h-7.33V12.49z M258.9,19.27h7.33
		v-4.48h-7.33V19.27z M258.9,26.33h7.33v-4.76h-7.33V26.33z"/>
	<path d="M289.88,30.37l-0.63-2.73l3.39,0.11c0.62-0.04,0.93-0.45,0.93-1.23V8.5h-17.28v22.09h-2.73V5.87h22.75v21.46
		c0,1.04-0.25,1.81-0.74,2.32c-0.42,0.47-1.03,0.71-1.83,0.71H289.88z M277.88,11.12h14.22v2.41h-14.22V11.12z M278.64,15.94h12.58
		v9.08h-12.58V15.94z M288.6,22.61v-4.27h-7.33v4.27H288.6z"/>
	<path d="M300.41,10.19h4.32V5h2.73v5.2h3.99v2.3h-3.99v1.59c1.53,1.44,3.08,3.04,4.65,4.79l-1.56,2.32
		c-1.2-1.68-2.23-3.04-3.09-4.1v13.4h-2.73V17.82c-1.02,2.53-2.22,4.75-3.61,6.64l-1.26-3.2c1.91-2.53,3.49-5.46,4.73-8.78h-4.18
		V10.19z M312.55,9.81h7.33V5h2.62v4.81h3.06v2.41h-3.06v15.31c0,1-0.22,1.7-0.66,2.11c-0.42,0.42-1.18,0.63-2.3,0.63h-3.45
		l-0.6-2.73c1.33,0.11,2.42,0.16,3.28,0.16c0.73,0,1.09-0.21,1.09-0.63V15.58c-0.47,1.13-0.94,2.09-1.39,2.87
		c-1.48,2.81-3.88,5.76-7.22,8.86l-1.56-2.54c2.52-2.22,4.44-4.41,5.77-6.56c1.15-1.6,2.17-3.6,3.06-5.99h-5.99V9.81z"/>
	<path d="M337.05,26.44l1.42,1.83c-1.5,0.56-2.83,0.97-3.99,1.2c-1.35,0.31-3.06,0.61-5.14,0.9l-1.37-2.32
		c2.04-0.2,3.81-0.43,5.3-0.68C334.7,27.11,335.96,26.8,337.05,26.44z M339.07,5l1.26,2.24c-2.41,0.26-5.09,0.41-8.04,0.46V8.5
		c0,0.18-0.01,0.35-0.03,0.49h8.5v2.08h-3.17v3.01h3.66l-1.15-1.23c0.64-0.55,1.1-1.1,1.39-1.67c0.25-0.62,0.43-1.32,0.52-2.11V5.76
		c3.77,0,6.91-0.25,9.41-0.77l1.26,2.24c-2.5,0.31-5.29,0.49-8.37,0.55v1.29h8.83v1.94h-3.75v3.06h1.2v12.03h-19.47V14.08h4.05
		v-3.01h-3.2c-0.09,0.51-0.2,1.01-0.33,1.5c-0.36,1.22-0.96,2.39-1.78,3.5l-1.8-1.91c0.64-0.8,1.1-1.63,1.39-2.49
		c0.25-0.91,0.43-1.97,0.52-3.17V5.65C333.64,5.65,336.67,5.44,339.07,5z M333.55,17.58h14.66v-1.5h-14.66V17.58z M333.55,20.8
		h14.66v-1.48h-14.66V20.8z M348.21,24.14v-1.7h-14.66v1.7H348.21z M342.49,14.08H347v-3.06h-2.98c-0.07,0.38-0.18,0.75-0.33,1.09
		C343.42,12.8,343.02,13.46,342.49,14.08z M343.94,26.44c3.03,0.4,6.16,1.02,9.41,1.86l-0.98,2.41c-3.03-0.93-6.2-1.63-9.52-2.11
		L343.94,26.44z"/>
	<path d="M370.68,17.19c0,1.7-0.78,3.14-2.35,4.32l-0.98-1.2c0.93-0.75,1.48-1.6,1.64-2.57h-1.91v-3.58h3.61V17.19z"/>
	<path d="M396.19,9.07l-7.85,19.41h-2.87L393.4,9.4h-9.84V7.1h12.63V9.07z"/>
	<path d="M422.8,11.67h-3.53l-1.18,1.91h4.92v6.67h-19.14v-6.67h4.51l-1.12-1.91h-4.59v2.95c0,2.42-0.16,4.99-0.46,7.68
		c-0.4,2.77-1.05,5.5-1.94,8.18l-2.3-2.05c0.84-2.19,1.41-4.48,1.72-6.89c0.24-2.48,0.36-4.79,0.36-6.92V5.76h22.75V11.67z
		 M420.39,7.73h-17.72V9.7h17.72V7.73z M421.87,21.4v9.19h-2.52v-0.98h-12.03v0.98h-2.52V21.4H421.87z M412.19,18.62v-3.39h-5.91
		v3.39H412.19z M407.32,24.63h12.03v-1.48h-12.03V24.63z M407.32,27.86h12.03v-1.59h-12.03V27.86z M409.46,15.5
		c0.51,0.67,0.95,1.39,1.31,2.13l-1.83,0.82c-0.36-0.89-0.77-1.69-1.23-2.38L409.46,15.5z M410.9,13.58h4.68l1.18-1.91h-7
		L410.9,13.58z M420.61,18.62v-3.39h-6.02v3.39H420.61z M417.55,15.5l1.75,0.85c-0.38,0.77-0.89,1.5-1.53,2.21l-1.75-0.9
		C416.66,16.91,417.17,16.19,417.55,15.5z"/>
	<path d="M426.3,10.19h3.17V5h2.41v5.2h2.62v2.3h-2.62v1.94c0.75,0.88,1.48,1.79,2.19,2.73v-1.23h2.9v-2.62h-2.13v-2.19h16.32v2.19
		h-1.89v2.62h2.41v2.19h-2.41v2.73h1.75v2.21h-6.86v2.16h6.43v2.19h-6.43v3.17h-2.43v-3.17h-6.45v-2.19h6.45v-2.16h-7v-2.21h2.24
		v-2.73h-2.21c0.13,0.13,0.23,0.26,0.3,0.38l-1.45,2.13c-0.64-1.24-1.21-2.3-1.72-3.17v13.12h-2.41V17.74
		c-0.75,2.19-1.63,4.1-2.65,5.74l-1.07-2.73c1.5-2.41,2.7-5.16,3.61-8.26h-3.06V10.19z M434.39,6.75h3.28V4.89h2.41v1.86h5.8V4.89
		h2.41v1.86h3.17v2.19h-3.17v1.53h-2.41V8.94h-5.8v1.53h-2.41V8.94h-3.28V6.75z M441.72,15.94v-2.62h-2.46v2.62H441.72z
		 M439.26,20.86h2.46v-2.73h-2.46V20.86z M446.86,15.94v-2.62h-2.71v2.62H446.86z M444.15,18.12v2.73h2.71v-2.73H444.15z"/>
	<path d="M454.19,10.14h11.1V4.89h2.95v5.25h11.21v2.62h-8.42c0.93,2.08,2.03,4.03,3.31,5.85c1.31,1.8,3.16,3.76,5.55,5.85l-2,2.52
		c-2.55-2.39-4.59-4.79-6.12-7.22c-1.33-1.97-2.46-4.3-3.39-7h-0.14V30.7h-2.95V12.96c-0.8,2.35-1.64,4.21-2.52,5.58
		c-1.46,2.68-3.86,5.5-7.19,8.45l-1.61-2.65c2.48-2.08,4.39-4.13,5.74-6.15c1.08-1.46,2.05-3.26,2.93-5.41h-8.45V10.14z"/>
	<path d="M482.3,10.14h3.5V4.89h2.62v5.25h3.61v2.38h-3.61v0.9c1.37,1.33,2.75,2.82,4.16,4.46l-1.56,2.32
		c-1-1.51-1.87-2.75-2.6-3.72v14.11h-2.62V18.53c-0.8,1.95-1.73,3.67-2.79,5.17l-1.26-3.2c1.66-2.21,3.01-4.74,4.05-7.6v-0.38h-3.5
		V10.14z M506.22,4.89l1.45,2.62c-3.46,0.69-7.35,1.1-11.65,1.23v3.53h10.88v2.16c-0.62,3.77-1.72,6.98-3.31,9.62
		c1.26,1.35,2.72,2.51,4.4,3.47l-1.56,2.54c-1.75-1.2-3.24-2.46-4.46-3.77c-1.5,1.59-3.5,2.98-6.02,4.18l-1.53-2.32
		c2.46-1.11,4.4-2.44,5.82-3.99c-0.26-0.36-0.48-0.71-0.68-1.04c-1.46-2.28-2.49-5.06-3.09-8.34h-0.46v1.15
		c-0.05,2.44-0.35,5.03-0.88,7.77c-0.49,2.33-1.31,4.56-2.46,6.67l-1.97-2.05c0.93-1.77,1.6-3.57,2.02-5.41
		c0.38-2,0.64-4.33,0.77-6.97V6.37C498.61,6.37,502.85,5.87,506.22,4.89z M499.12,14.79c0.58,2.86,1.48,5.2,2.68,7
		c0.04,0.07,0.07,0.13,0.11,0.16c1.09-1.99,1.9-4.38,2.41-7.16H499.12z"/>
	<path d="M523.37,5c0.42,0.57,0.8,1.17,1.15,1.8h10.72v2.3H510.6V6.8h11.13c-0.37-0.51-0.75-0.97-1.15-1.39L523.37,5z M529.17,30.59
		l-0.6-2.62l2.41,0.11c0.58-0.04,0.88-0.43,0.88-1.18v-6.81h-17.94v10.5h-2.62V17.9h23.19v9.76c0,1-0.24,1.75-0.71,2.24
		c-0.4,0.46-0.98,0.68-1.72,0.68H529.17z M513.96,10.41h17.61v6.02h-17.61V10.41z M516.26,21.46h13.02v6.23h-13.02V21.46z
		 M529.06,14.35v-1.86h-12.58v1.86H529.06z M526.76,25.62v-2.08h-7.98v2.08H526.76z"/>
	<path d="M563.46,5.65v2.19h-21.38v8.53c0,2.15-0.13,4.41-0.38,6.78c-0.33,2.44-0.88,4.85-1.64,7.22l-2.19-1.97
		c0.69-1.91,1.16-3.92,1.39-6.02c0.2-2.15,0.3-4.16,0.3-6.02V5.65H563.46z M544.1,24.25h7.82v-1.42h2.52v1.42h7.82v1.97h-7.82v1.75
		h9.24v1.97h-21.33v-1.97h9.57v-1.75h-7.82V24.25z M548.77,22.72l-0.3-1.31l1.7,0.05c0.51-0.02,0.77-0.21,0.77-0.57v-0.19h-5.47
		v2.38h-2.3v-7.9h10.06v6.1c0,0.49-0.21,0.87-0.63,1.12c-0.35,0.22-0.85,0.33-1.5,0.33H548.77z M543.33,8.72h9.84v5.58h-9.84V8.72z
		 M545.46,17.41h5.47v-0.93h-5.47V17.41z M545.46,19.49h5.47v-0.88h-5.47V19.49z M545.52,10.85h5.47v-0.82h-5.47V10.85z
		 M550.99,12.98v-0.93h-5.47v0.93H550.99z M553.72,12.33H557V8.5h2.19v3.83h2c-0.35-0.71-0.76-1.49-1.23-2.32l1.5-0.93
		c0.71,0.95,1.28,1.77,1.7,2.46l-1.18,0.79h1.26v2.19h-3.47c0.38,1.09,0.83,2.1,1.34,3.01c0.58,1.02,1.4,2.13,2.46,3.34l-1.56,1.97
		c-1.15-1.44-2.07-2.9-2.76-4.38c-0.2-0.42-0.38-0.84-0.55-1.26c-0.07,0.38-0.17,0.72-0.3,1.01c-0.49,1.48-1.46,2.98-2.9,4.51
		l-1.89-1.64c1.28-1.13,2.18-2.35,2.71-3.66c0.31-0.71,0.51-1.68,0.6-2.9h-3.2V12.33z"/>
	<path d="M566.87,23.48l2.16,0.27c-0.16,2.66-0.47,4.9-0.93,6.73l-2.46-0.77C566.26,27.78,566.67,25.71,566.87,23.48z M570.78,4.89
		l2.41,0.85c-0.93,2.46-1.97,4.66-3.12,6.59c0.89-0.07,1.74-0.16,2.54-0.27c0.6-1.2,1.22-2.5,1.86-3.88l2.32,0.9
		c-2.1,4.43-4.24,8.05-6.43,10.86c1.53-0.11,2.82-0.3,3.86-0.57c-0.24-1-0.51-1.96-0.82-2.87l2.02-0.66
		c0.64,1.75,1.21,3.75,1.72,5.99l-2.27,0.57c-0.07-0.33-0.15-0.66-0.22-0.98c-1.91,0.46-4.54,0.82-7.88,1.09l-0.71-2.41
		c0.58,0,1.13-0.01,1.64-0.03c1.24-1.57,2.49-3.49,3.75-5.77c-1.57,0.22-3.29,0.44-5.17,0.66l-0.55-2.3
		c0.53-0.02,1.07-0.04,1.61-0.08C568.68,10.26,569.82,7.7,570.78,4.89z M572.1,23.48c0.38,1.4,0.64,3.32,0.77,5.74l-2.35,0.27
		c-0.05-2.5-0.17-4.43-0.36-5.8L572.1,23.48z M575.38,22.72c0.67,1.9,1.18,3.63,1.53,5.2l-2.19,0.82c-0.33-1.86-0.73-3.69-1.2-5.5
		L575.38,22.72z M577.02,8.28h6.02V4.89h2.62v3.39h5.91v2.41h-5.91v3.66h5.03v2.3h-12.8v-2.3h5.14v-3.66h-6.02V8.28z M590.58,19.16
		v11.43h-2.41v-1.37h-7.44v1.37h-2.41V19.16H590.58z M580.74,26.93h7.44v-5.47h-7.44V26.93z"/>
	<path d="M606.77,5h1.37c1.68,1.93,3.41,3.47,5.2,4.62c1.28,0.89,3.43,1.94,6.45,3.14l-1.78,2.73c-1.22-0.46-2.42-1.01-3.58-1.67
		v1.72h-15.09v-1.67c-1.19,0.73-2.52,1.46-3.99,2.19l-1.48-2.84c3.13-1.29,5.54-2.6,7.22-3.91c1.35-1.04,2.79-2.48,4.32-4.32H606.77
		z M616.23,18.67v11.92h-2.73v-1.53h-13.12v1.53h-2.73V18.67H616.23z M600.37,26.65h13.12v-5.58h-13.12V26.65z M600.64,13.04h12.5
		c-2.08-1.35-4.2-3.23-6.37-5.63c-1.64,1.86-3.24,3.41-4.79,4.65C601.56,12.4,601.12,12.73,600.64,13.04z"/>
</g>
<g>
	<g>
		<g id="XMLID_17_">
			<g>
				<linearGradient id="SVGID_1_" gradientUnits="userSpaceOnUse" x1="-8.9433" y1="7.2509" x2="42.7225" y2="27.9173">
					<stop  offset="5.618000e-03" style="stop-color:#FF2727"/>
					<stop  offset="0.3525" style="stop-color:#FFFF00"/>
					<stop  offset="0.3814" style="stop-color:#F8EE10"/>
					<stop  offset="0.4388" style="stop-color:#E6C13A"/>
					<stop  offset="0.5185" style="stop-color:#C9797D"/>
					<stop  offset="0.5955" style="stop-color:#AA2EC3"/>
					<stop  offset="0.7367" style="stop-color:#4F66C6"/>
					<stop  offset="0.8536" style="stop-color:#0097C9"/>
					<stop  offset="1" style="stop-color:#FFFF00"/>
				</linearGradient>
				<polygon class="st2" points="30.93,19 20.43,29.5 9.93,19 20.43,8.5 				"/>
				<linearGradient id="SVGID_2_" gradientUnits="userSpaceOnUse" x1="-7.8742" y1="4.5781" x2="43.7917" y2="25.2444">
					<stop  offset="5.618000e-03" style="stop-color:#FF2727"/>
					<stop  offset="0.2129" style="stop-color:#FFFF00"/>
					<stop  offset="0.2584" style="stop-color:#F8EE10"/>
					<stop  offset="0.3488" style="stop-color:#E6C13A"/>
					<stop  offset="0.4743" style="stop-color:#C9797D"/>
					<stop  offset="0.5955" style="stop-color:#AA2EC3"/>
					<stop  offset="0.78" style="stop-color:#4F66C6"/>
					<stop  offset="0.9327" style="stop-color:#0097C9"/>
					<stop  offset="1" style="stop-color:#FFFF00"/>
				</linearGradient>
				<polygon class="st3" points="28.18,8.5 26.02,10.66 34.36,19 26.02,27.34 28.18,29.5 38.68,19 				"/>
			</g>
		</g>
	</g>
</g>
<g>
	<g>
		<linearGradient id="SVGID_3_" gradientUnits="userSpaceOnUse" x1="13.3622" y1="36.6047" x2="620.1619" y2="36.6047">
			<stop  offset="0" style="stop-color:#00B987"/>
			<stop  offset="1" style="stop-color:#FFFFFF"/>
		</linearGradient>
		<line class="st4" x1="13.36" y1="36.6" x2="620.16" y2="36.6"/>
	</g>
</g>
</svg>
