<?xml version="1.0" encoding="utf-8"?>
<!-- Generator: Adobe Illustrator 25.2.0, SVG Export Plug-In . SVG Version: 6.00 Build 0)  -->
<svg version="1.1" id="Layer_1" xmlns="http://www.w3.org/2000/svg" xmlns:xlink="http://www.w3.org/1999/xlink" x="0px" y="0px"
	 width="688.39px" height="40px" viewBox="0 0 688.39 40" style="enable-background:new 0 0 688.39 40;" xml:space="preserve">
<style type="text/css">
	.st0{enable-background:new    ;}
	.st1{fill:#FFFFFF;}
	.st2{fill:url(#SVGID_1_);}
	.st3{fill:url(#SVGID_2_);}
	.st4{fill:none;stroke:url(#SVGID_3_);stroke-width:2;stroke-miterlimit:10;stroke-dasharray:2,3,2,3,2,3;}
	.st5{fill:url(#SVGID_4_);}
	.st6{fill:url(#SVGID_5_);}
	.st7{fill:none;stroke:url(#SVGID_6_);stroke-width:2;stroke-miterlimit:10;stroke-dasharray:2,3,2,3,2,3;}
	.st8{fill:url(#SVGID_7_);}
	.st9{fill:url(#SVGID_8_);}
	.st10{fill:none;stroke:url(#SVGID_9_);stroke-width:2;stroke-miterlimit:10;stroke-dasharray:2,3,2,3,2,3;}
	.st11{fill:url(#SVGID_10_);}
	.st12{fill:url(#SVGID_11_);}
	.st13{fill:none;stroke:url(#SVGID_12_);stroke-width:2;stroke-miterlimit:10;stroke-dasharray:2,3,2,3,2,3;}
	.st14{fill:url(#SVGID_13_);}
	.st15{fill:url(#SVGID_14_);}
	.st16{fill:none;stroke:url(#SVGID_15_);stroke-width:2;stroke-miterlimit:10;stroke-dasharray:2,3,2,3,2,3;}
	.st17{fill:url(#SVGID_16_);}
	.st18{fill:url(#SVGID_17_);}
	.st19{fill:none;stroke:url(#SVGID_18_);stroke-width:2;stroke-miterlimit:10;stroke-dasharray:2,3,2,3,2,3;}
	.st20{fill:url(#SVGID_19_);}
	.st21{fill:url(#SVGID_20_);}
	.st22{fill:none;stroke:url(#SVGID_21_);stroke-width:2;stroke-miterlimit:10;stroke-dasharray:2,3,2,3,2,3;}
	.st23{fill:url(#SVGID_22_);}
	.st24{fill:url(#SVGID_23_);}
	.st25{fill:none;stroke:url(#SVGID_24_);stroke-width:2;stroke-miterlimit:10;stroke-dasharray:2,3,2,3,2,3;}
	.st26{fill:url(#SVGID_25_);}
	.st27{fill:url(#SVGID_26_);}
	.st28{fill:none;stroke:url(#SVGID_27_);stroke-width:2;stroke-miterlimit:10;stroke-dasharray:2,3,2,3,2,3;}
	.st29{fill:#ABABAB;}
	.st30{fill:url(#SVGID_28_);}
	.st31{fill:url(#SVGID_29_);}
	.st32{fill:none;stroke:url(#SVGID_30_);stroke-width:2;stroke-miterlimit:10;stroke-dasharray:2,3,2,3,2,3;}
	.st33{fill:url(#SVGID_31_);}
	.st34{fill:url(#SVGID_32_);}
	.st35{fill:none;stroke:url(#SVGID_33_);stroke-width:2;stroke-miterlimit:10;stroke-dasharray:2,3,2,3,2,3;}
	.st36{fill:url(#SVGID_34_);}
	.st37{fill:url(#SVGID_35_);}
	.st38{fill:none;stroke:url(#SVGID_36_);stroke-width:2;stroke-miterlimit:10;stroke-dasharray:2,3,2,3,2,3;}
	.st39{fill:url(#SVGID_37_);}
	.st40{fill:url(#SVGID_38_);}
	.st41{fill:none;stroke:url(#SVGID_39_);stroke-width:2;stroke-miterlimit:10;stroke-dasharray:2,3,2,3,2,3;}
</style>
<g class="st0">
	<path d="M49.53,12.33c1.68,0.78,3.2,1.72,4.57,2.82l-1.67,2.54c-1.4-1.35-2.85-2.42-4.35-3.2L49.53,12.33z M52.65,19l2.11,1.56
		c-1.31,3.81-2.81,7.12-4.48,9.93L48.3,28.3C49.68,26.13,51.13,23.03,52.65,19z M50.9,5.52c1.64,0.84,3.14,1.82,4.51,2.95
		l-1.75,2.65c-1.39-1.4-2.81-2.52-4.27-3.34L50.9,5.52z M56.72,8.72h5.63V4.89h2.73v3.83h7.27v2.41h-7.27v4.87h8.48v2.52h-9.73
		c-0.58,2.5-1.54,5.11-2.87,7.85c3.06-0.18,5.63-0.53,7.71-1.04c-0.75-1.53-1.52-2.95-2.32-4.27l2.52-0.85
		c1.8,2.86,3.37,5.9,4.7,9.11l-2.62,1.18c-0.38-0.97-0.77-1.88-1.15-2.73c-3.28,0.73-8.04,1.31-14.27,1.75l-0.88-2.98
		c1.02,0,2-0.01,2.93-0.03c1.37-2.44,2.45-5.1,3.25-7.98h-5.74v-2.52h7.27v-4.87h-5.63V8.72z"/>
	<path d="M100.8,5.52v24.86h-2.41V29.5H79.58v0.88h-2.41V5.52H100.8z M79.58,27.31h18.81V7.73H79.58V27.31z M89.75,21.3v2.13
		c-2.48,0.64-5.39,1.28-8.72,1.91l-0.57-2.41C83.63,22.61,86.73,22.06,89.75,21.3z M80.56,10.85h8.97c-0.02-0.84-0.04-1.7-0.05-2.57
		h2.3c0,0.93,0.02,1.79,0.05,2.57h2.57c-0.25-0.71-0.57-1.38-0.93-2.02l2.02-0.66c0.47,0.69,0.89,1.49,1.26,2.38l-1.18,0.3h2.02
		v2.08h-5.69c0.07,1.79,0.21,3.25,0.41,4.38c0.16,0.95,0.36,1.81,0.57,2.6c0.88-1.4,1.76-3.45,2.65-6.15l1.86,1.23
		c-1.28,3.35-2.42,5.82-3.45,7.38c-0.04,0.05-0.06,0.1-0.08,0.14c0.04,0.11,0.08,0.21,0.14,0.3c0.46,0.88,0.88,1.31,1.26,1.31
		c0.16,0,0.41-1.08,0.74-3.25l2.16,1.67c-0.58,2.06-1.03,3.26-1.34,3.61c-0.31,0.42-0.74,0.63-1.29,0.63
		c-0.78,0-1.58-0.51-2.38-1.53c-0.25-0.33-0.48-0.66-0.68-0.98c-0.91,0.98-1.96,1.9-3.14,2.73L88,25.18
		c1.39-0.98,2.52-2.02,3.42-3.12c-0.36-0.98-0.69-2.06-0.98-3.23c-0.38-1.51-0.65-3.48-0.79-5.91h-9.08V10.85z M81.44,14.35h6.67
		v6.45h-6.67V14.35z M86.14,18.94v-2.73h-2.73v2.73H86.14z"/>
	<path d="M129.78,5.98v2.41h-9.3c-0.22,0.84-0.51,1.64-0.88,2.41h8.04v10.83h-6.73v6.23c0,0.97-0.22,1.64-0.66,2.02
		c-0.42,0.4-1.18,0.6-2.3,0.6h-2.71l-0.57-2.62c1.02,0.13,1.86,0.19,2.52,0.19c0.73,0,1.09-0.21,1.09-0.63v-5.8h-7.27V10.8h5.77
		c0.36-0.78,0.67-1.59,0.9-2.41H109v8.64c0,2.02-0.18,4.17-0.55,6.43c-0.47,2.3-1.24,4.57-2.3,6.81l-2.3-2.05
		c1.02-1.77,1.71-3.63,2.08-5.58c0.29-2.02,0.44-3.89,0.44-5.61V5.98H129.78z M113.19,22.5l2.05,0.98c-1.17,2.3-2.54,4.27-4.13,5.91
		l-2.21-1.59C110.48,26.29,111.91,24.52,113.19,22.5z M113.54,15.01h11.59v-2.02h-11.59V15.01z M125.13,19.44v-2.35h-11.59v2.35
		H125.13z M125.16,22.39c1.97,2.12,3.51,3.93,4.62,5.44l-2.41,1.67c-1.04-1.7-2.46-3.63-4.27-5.8L125.16,22.39z"/>
	<path d="M140.83,5h1.2c2.59,1.64,5.1,3.44,7.55,5.39l-1.18,2.71c-2.32-2.26-4.74-4.23-7.27-5.91c-1.6,1.6-3.61,3.19-6.02,4.76h5.25
		c-0.36-0.84-0.79-1.63-1.29-2.38l2.68-0.41c0.44,0.84,0.85,1.77,1.23,2.79h4.13v9.19h-10.58c-0.07,1.11-0.2,2.22-0.38,3.34
		c-0.46,1.99-1.18,3.96-2.16,5.91l-2.02-1.78c0.95-1.53,1.59-3.14,1.94-4.84c0.27-1.75,0.41-3.37,0.41-4.87v-6.48
		c-0.36,0.26-0.72,0.48-1.07,0.68l-1.29-2.52c2.93-1.5,5.42-3.35,7.46-5.58H140.83z M147.72,22.66v7.93h-2.41v-1.31h-6.34v1.31
		h-2.41v-7.93H147.72z M144.82,14.02h-8.2v1.53h8.2V14.02z M136.62,17.41v1.64h8.2v-1.64H136.62z M138.97,27.31h6.34v-2.57h-6.34
		V27.31z M149.85,6.75h2.52v17.72h-2.52V6.75z M154.06,30.26h-3.53l-0.63-2.84c1.37,0.13,2.5,0.19,3.39,0.19
		c0.73,0,1.09-0.23,1.09-0.68V5h2.62v22.42c0,1.04-0.22,1.77-0.66,2.19C155.94,30.05,155.18,30.26,154.06,30.26z"/>
	<path d="M165.6,4.89c0.4,0.93,0.79,1.97,1.18,3.12h3.91v2.3h-10.61v-2.3h4.1c-0.38-0.98-0.8-1.89-1.26-2.71L165.6,4.89z
		 M169.54,20.37v8.09h-6.12v2.02h-2.52V20.37H169.54z M161.06,12.22h8.53v2.19h-8.53V12.22z M161.06,16.26h8.53v2.19h-8.53V16.26z
		 M163.42,26.16h3.61v-3.5h-3.61V26.16z M182.12,5.6v6.43c0,0.69,0.35,1.04,1.04,1.04h2.19v2.54h-2.82c-1.08,0-1.86-0.23-2.35-0.68
		c-0.53-0.46-0.79-1.26-0.79-2.41V7.9h-4.21c-0.05,1.88-0.22,3.24-0.49,4.07c-0.33,1.09-1.19,2.38-2.6,3.86l-2.05-1.78
		c1.17-1.28,1.9-2.29,2.19-3.04c0.22-0.69,0.33-2.5,0.33-5.41H182.12z M171.15,16.21h12.11v1.97c-0.66,2.81-1.78,5.23-3.36,7.27
		c1.57,0.95,3.53,1.77,5.88,2.46l-1.67,2.46c-2.61-0.91-4.68-1.9-6.21-2.95c-1.59,1.22-3.7,2.28-6.34,3.17l-1.53-2.32
		c2.37-0.75,4.27-1.61,5.71-2.6c-1.6-1.53-2.93-3.31-3.96-5.33l2.3-1.34c0.98,1.99,2.23,3.62,3.75,4.89
		c1.26-1.48,2.18-3.27,2.76-5.39h-9.43V16.21z"/>
	<path d="M193.93,4.89c0.55,0.93,1.07,1.97,1.56,3.12h4.62v2.3h-12.03v-2.3h4.81c-0.49-0.98-1.04-1.89-1.64-2.71L193.93,4.89z
		 M189.06,12.33h10.09v2.19h-10.09V12.33z M189.06,16.26h10.09v2.19h-10.09V16.26z M191.63,28.46v2.02h-2.52V20.37h9.73v9.71h-2.52
		v-1.61H191.63z M196.34,26.16v-3.5h-4.7v3.5H196.34z M200.55,12.82h5.3V4.89h2.73v7.93H214v2.52h-5.41v15.26h-2.73V15.33h-5.3
		V12.82z"/>
	<path class="st1" d="M224.29,8.1h-6.16V5.58h15.15V8.1h-6.16v18.12h-2.83V8.1z"/>
	<path class="st1" d="M238.59,25.6c-1.14-0.52-2-1.53-2.59-3.02s-0.88-3.7-0.88-6.61s0.3-5.13,0.9-6.65c0.6-1.52,1.46-2.55,2.6-3.09
		c1.14-0.54,2.68-0.81,4.62-0.81c1.98,0,3.54,0.27,4.68,0.81c1.14,0.54,2,1.57,2.59,3.09c0.59,1.52,0.88,3.74,0.88,6.65
		s-0.29,5.12-0.88,6.61c-0.59,1.49-1.45,2.5-2.59,3.02c-1.14,0.52-2.7,0.78-4.68,0.78C241.28,26.39,239.73,26.12,238.59,25.6z
		 M246.43,23.28c0.75-0.39,1.29-1.15,1.62-2.27s0.5-2.8,0.5-5.04c0-2.33-0.17-4.07-0.5-5.21s-0.87-1.89-1.61-2.27
		c-0.74-0.37-1.81-0.56-3.21-0.56c-1.34,0-2.38,0.19-3.12,0.57c-0.74,0.38-1.29,1.14-1.65,2.28c-0.36,1.14-0.55,2.87-0.55,5.18
		c0,2.26,0.16,3.94,0.49,5.05c0.33,1.11,0.86,1.86,1.6,2.25c0.74,0.39,1.82,0.59,3.23,0.59C244.62,23.87,245.69,23.67,246.43,23.28z
		"/>
	<path class="st1" d="M253.29,5.58h2.91l4.09,16.63l4.73-16.63h2.72l4.68,16.63l4.12-16.63h2.88l-5.18,20.64h-2.97l-4.9-16.63
		l-4.93,16.63h-2.97L253.29,5.58z"/>
	<path class="st1" d="M282.27,5.58h7.67c3.66,0,5.49,1.77,5.49,5.32c0,1.23-0.27,2.25-0.8,3.05c-0.53,0.8-1.23,1.32-2.09,1.54
		c0.95,0.24,1.79,0.77,2.52,1.6c0.73,0.82,1.09,1.96,1.09,3.42c0,2.07-0.5,3.54-1.48,4.41c-0.99,0.87-2.46,1.3-4.42,1.3h-7.98V5.58z
		 M290.03,14.54c0.82,0,1.48-0.31,1.97-0.92c0.5-0.62,0.74-1.45,0.74-2.49c0-2.02-0.94-3.02-2.83-3.02h-4.82v6.44H290.03z
		 M290.17,23.7c1.06,0,1.88-0.28,2.45-0.83s0.85-1.5,0.85-2.84c0-1.03-0.31-1.83-0.94-2.42c-0.63-0.59-1.41-0.88-2.37-0.88h-5.07
		v6.97H290.17z"/>
	<path class="st1" d="M298.01,16.95h8.32v2.3h-8.32V16.95z"/>
	<path class="st1" d="M311.69,26.23c-1.26-0.1-2.25-0.24-2.98-0.41v-2.18c1.55,0.15,3.61,0.22,6.19,0.22c1.33,0,2.35-0.2,3.08-0.6
		c0.73-0.4,1.09-1.13,1.09-2.2v-1.2c0-1.74-0.92-2.6-2.77-2.6h-2.1c-1.85,0-3.25-0.41-4.2-1.22c-0.95-0.81-1.43-2.14-1.43-3.99V10.9
		c0-1.9,0.52-3.29,1.55-4.17s2.58-1.32,4.63-1.32c0.9,0,1.92,0.07,3.08,0.2c1.16,0.13,2.15,0.27,2.97,0.42v2.18l-0.59-0.03
		c-2.39-0.17-4.11-0.25-5.15-0.25c-1.27,0-2.22,0.22-2.86,0.67c-0.63,0.45-0.95,1.26-0.95,2.44v0.84c0,0.97,0.26,1.66,0.77,2.07
		c0.51,0.41,1.28,0.62,2.31,0.62h2.27c1.68,0,2.96,0.45,3.84,1.36c0.88,0.91,1.32,2.1,1.32,3.6v1.46c0,2.04-0.59,3.44-1.76,4.23
		s-2.84,1.18-4.98,1.18C314.05,26.39,312.95,26.33,311.69,26.23z"/>
	<path class="st1" d="M325.34,5.58h8.37c1.59,0,2.91,0.47,3.96,1.4c1.05,0.93,1.58,2.72,1.58,5.35c0,2.65-0.54,4.47-1.62,5.45
		c-1.08,0.98-2.4,1.47-3.95,1.47c-0.58,0-1.45-0.04-2.62-0.11c-1.17-0.07-2.13-0.15-2.9-0.22v7.31h-2.83V5.58z M333.29,16.73
		c2.09,0,3.14-1.46,3.14-4.37c0-2.84-0.99-4.26-2.97-4.26h-5.29v8.62H333.29z"/>
	<path class="st1" d="M345.36,25.6c-1.14-0.52-2-1.53-2.59-3.02s-0.88-3.7-0.88-6.61s0.3-5.13,0.9-6.65c0.6-1.52,1.46-2.55,2.6-3.09
		c1.14-0.54,2.68-0.81,4.62-0.81c1.98,0,3.54,0.27,4.68,0.81c1.14,0.54,2,1.57,2.59,3.09c0.59,1.52,0.88,3.74,0.88,6.65
		s-0.29,5.12-0.88,6.61c-0.59,1.49-1.45,2.5-2.59,3.02c-1.14,0.52-2.7,0.78-4.68,0.78C348.04,26.39,346.49,26.12,345.36,25.6z
		 M353.2,23.28c0.75-0.39,1.29-1.15,1.62-2.27s0.5-2.8,0.5-5.04c0-2.33-0.17-4.07-0.5-5.21s-0.87-1.89-1.61-2.27
		c-0.74-0.37-1.81-0.56-3.21-0.56c-1.34,0-2.38,0.19-3.12,0.57c-0.74,0.38-1.29,1.14-1.65,2.28c-0.36,1.14-0.55,2.87-0.55,5.18
		c0,2.26,0.16,3.94,0.49,5.05c0.33,1.11,0.86,1.86,1.6,2.25c0.74,0.39,1.82,0.59,3.23,0.59C351.38,23.87,352.45,23.67,353.2,23.28z"
		/>
	<path class="st1" d="M361.71,5.58h8.26c1.68,0,3.02,0.44,4.02,1.33c1,0.89,1.5,2.52,1.5,4.91c0,1.92-0.35,3.29-1.05,4.12
		c-0.7,0.82-1.59,1.38-2.67,1.68l4.12,8.6h-2.86l-3.81-8.2l-3.84-0.06c-0.21-0.02-0.49-0.03-0.84-0.03v8.29h-2.83V5.58z
		 M369.52,15.75c1.01,0,1.79-0.28,2.34-0.84c0.55-0.56,0.83-1.59,0.83-3.08c0-1.44-0.28-2.42-0.84-2.94
		c-0.56-0.52-1.33-0.78-2.32-0.78h-4.98v7.64H369.52z"/>
	<path class="st1" d="M383.46,8.1h-6.16V5.58h15.15V8.1h-6.16v18.12h-2.83V8.1z"/>
	<path d="M437.31,6.15h23.19v2.3H450.1v10.01h11.38v2.41H450.1v9.73h-2.62v-9.73h-11.16v-2.41h11.16V8.44h-10.17V6.15z M441.27,9.92
		c0.93,1.86,1.83,3.92,2.71,6.18l-2.52,1.26c-0.8-2.31-1.68-4.4-2.62-6.26L441.27,9.92z M456.56,9.92l2.41,1.15
		c-0.8,2.17-1.86,4.27-3.17,6.29l-2.41-1.26C454.71,13.97,455.77,11.91,456.56,9.92z"/>
	<path d="M469.08,5.11l1.7,1.5c-1.42,1.79-3.22,3.4-5.39,4.84l-1.61-2.08C465.74,8.23,467.51,6.8,469.08,5.11z M468.67,12.11
		l2.11,0.98v-1.23c-0.13,0.09-0.26,0.17-0.38,0.25l-1.48-1.91c1.15-0.75,2.11-1.55,2.9-2.41c0.6-0.66,1.17-1.62,1.7-2.9l2.41,0.3
		c-0.16,0.49-0.35,0.94-0.55,1.34h5.06v1.64c-0.49,0.93-0.98,1.73-1.45,2.41h2.52V21.4h-4.29c-0.02,0.49-0.06,0.95-0.14,1.37h5.96
		v2.08h-5.99c1.51,0.89,3.04,1.9,4.57,3.04l-1.31,1.94c-1.82-1.55-3.29-2.68-4.4-3.39c-0.13,0.24-0.26,0.45-0.38,0.63
		c-1,1.49-2.64,2.63-4.92,3.42l-1.23-1.94c2.19-0.78,3.67-1.78,4.46-2.98c0.16-0.24,0.3-0.47,0.41-0.71h-4.32v-2.08h4.95
		c0.09-0.42,0.15-0.88,0.16-1.37h-4.24v-8.01c-0.6,1.35-1.22,2.47-1.86,3.36v13.84h-2.41V19.57c-0.57,0.55-1.15,1.08-1.75,1.61
		l-0.88-2.95c0.98-0.84,1.85-1.7,2.6-2.6C467.25,14.81,467.98,13.64,468.67,12.11z M472.36,10.58h3.83
		c0.56-0.58,1.15-1.28,1.75-2.08h-3.72c-0.13,0.2-0.27,0.39-0.44,0.57C473.36,9.62,472.89,10.12,472.36,10.58z M472.96,15.01h2.08
		v-2.49h-2.08V15.01z M475.04,19.44v-2.57h-2.08v2.57H475.04z M477.23,12.52v2.49h2.08v-2.49H477.23z M479.31,19.44v-2.57h-2.08
		v2.57H479.31z M482.18,13.91h7.63v2.52h-2.46v11.21c0,1-0.21,1.7-0.63,2.11c-0.4,0.42-1.13,0.63-2.19,0.63h-2.11l-0.6-2.73
		c0.8,0.13,1.46,0.19,1.97,0.19c0.69,0,1.04-0.22,1.04-0.66V16.43h-2.65V13.91z M482.48,6.48h6.78v2.52h-6.78V6.48z"/>
	<path d="M497.41,4.89c0.4,0.89,0.78,1.9,1.15,3.01h3.94v2.3h-10.61V7.9h4.05c-0.35-0.93-0.75-1.8-1.2-2.6L497.41,4.89z
		 M501.34,20.04v7.98h-6.12v1.91h-2.52v-9.9H501.34z M492.76,12h8.75v2.19h-8.75V12z M492.76,15.94h8.86v2.19h-8.86V15.94z
		 M495.22,25.73h3.61v-3.39h-3.61V25.73z M504.13,5.44h2.62v9.84c0,3.45-0.23,6.3-0.68,8.56c-0.44,2.24-1.29,4.53-2.54,6.86
		l-2.24-1.97c1.08-1.79,1.83-3.72,2.27-5.8c0.38-1.68,0.57-4.23,0.57-7.66V5.44z M508.89,7.08h2.52v20.89h-2.52V7.08z M513.98,5.44
		h2.62v25.16h-2.62V5.44z"/>
	<path d="M520.9,23.15l2.05,0.27c-0.16,2.7-0.47,4.98-0.93,6.84l-2.35-0.74C520.28,27.52,520.69,25.4,520.9,23.15z M524.7,4.89
		l2.3,0.79c-0.98,2.61-2.11,4.91-3.36,6.92c0.86-0.13,1.68-0.25,2.46-0.38c0.49-0.95,0.97-1.93,1.42-2.95l2.21,0.85
		c-1.86,3.9-3.76,7.1-5.71,9.6c1.22-0.15,2.26-0.33,3.12-0.55c-0.16-0.93-0.36-1.83-0.57-2.71l1.94-0.63
		c0.51,1.79,0.96,3.83,1.34,6.12l-2.13,0.55c-0.07-0.46-0.15-0.9-0.22-1.34c-1.64,0.42-3.87,0.76-6.7,1.01l-0.68-2.3
		c0.49,0,0.96-0.01,1.39-0.03c1.13-1.44,2.27-3.22,3.42-5.33c-1.4,0.27-2.94,0.53-4.59,0.77l-0.55-2.3
		c0.42-0.04,0.83-0.07,1.23-0.11C522.43,10.5,523.66,7.84,524.7,4.89z M525.93,23.15c0.25,1.44,0.43,3.39,0.52,5.85l-2.24,0.27
		c-0.02-2.53-0.07-4.5-0.16-5.91L525.93,23.15z M529.04,22.61c0.36,1.22,0.68,2.59,0.96,4.1c0.91-0.8,1.63-1.59,2.16-2.35
		c0.58-0.73,1.11-1.62,1.59-2.68H530v-10.5h6.07v-1.8h-6.56V7.19h6.56v-2.3h2.41v2.3h6.89v2.19h-6.89v1.8h6.07v10.5h-3.99
		c0.53,1.09,1.16,2.1,1.89,3.01c0.84,1,2,2.1,3.47,3.28l-1.72,2.19c-1.57-1.46-2.83-2.94-3.77-4.43c-0.77-1.13-1.41-2.44-1.94-3.94
		v8.8h-2.41v-8.78c-0.47,1.31-0.96,2.35-1.45,3.12c-0.88,1.62-2.32,3.34-4.35,5.14l-1.42-2.38c0.25-0.2,0.49-0.4,0.71-0.6
		l-1.64,0.44c-0.22-1.49-0.49-2.93-0.82-4.29L529.04,22.61z M536.07,19.6v-6.34h-3.77v6.34H536.07z M534.54,14.19
		c0.36,1.2,0.69,2.58,0.98,4.13l-1.8,0.46c-0.22-1.4-0.49-2.75-0.82-4.05L534.54,14.19z M542.25,19.6v-6.34h-3.77v6.34H542.25z
		 M540.12,14.19l1.75,0.46c-0.35,1.5-0.78,2.87-1.31,4.13l-1.75-0.63C539.32,17.11,539.75,15.79,540.12,14.19z"/>
	<path d="M548.32,10.14h3.5V4.89h2.62v5.25h3.61v2.38h-3.61v0.9c1.37,1.33,2.75,2.82,4.16,4.46l-1.56,2.32
		c-1-1.51-1.87-2.75-2.6-3.72v14.11h-2.62V18.53c-0.8,1.95-1.73,3.67-2.79,5.17l-1.26-3.2c1.66-2.21,3.01-4.74,4.05-7.6v-0.38h-3.5
		V10.14z M572.25,4.89l1.45,2.62c-3.46,0.69-7.35,1.1-11.65,1.23v3.53h10.88v2.16c-0.62,3.77-1.72,6.98-3.31,9.62
		c1.26,1.35,2.72,2.51,4.4,3.47l-1.56,2.54c-1.75-1.2-3.24-2.46-4.46-3.77c-1.5,1.59-3.5,2.98-6.02,4.18l-1.53-2.32
		c2.46-1.11,4.4-2.44,5.82-3.99c-0.26-0.36-0.48-0.71-0.68-1.04c-1.46-2.28-2.49-5.06-3.09-8.34h-0.46v1.15
		c-0.05,2.44-0.35,5.03-0.88,7.77c-0.49,2.33-1.31,4.56-2.46,6.67l-1.97-2.05c0.93-1.77,1.6-3.57,2.02-5.41
		c0.38-2,0.64-4.33,0.77-6.97V6.37C564.64,6.37,568.87,5.87,572.25,4.89z M565.14,14.79c0.58,2.86,1.48,5.2,2.68,7
		c0.04,0.07,0.07,0.13,0.11,0.16c1.09-1.99,1.9-4.38,2.41-7.16H565.14z"/>
</g>
<g>
	<g>
		<g id="XMLID_5_">
			<g>
				<linearGradient id="SVGID_1_" gradientUnits="userSpaceOnUse" x1="-8.9433" y1="7.2509" x2="42.7225" y2="27.9173">
					<stop  offset="5.618000e-03" style="stop-color:#FF2727"/>
					<stop  offset="0.3525" style="stop-color:#FFFF00"/>
					<stop  offset="0.3814" style="stop-color:#F8EE10"/>
					<stop  offset="0.4388" style="stop-color:#E6C13A"/>
					<stop  offset="0.5185" style="stop-color:#C9797D"/>
					<stop  offset="0.5955" style="stop-color:#AA2EC3"/>
					<stop  offset="0.7367" style="stop-color:#4F66C6"/>
					<stop  offset="0.8536" style="stop-color:#0097C9"/>
					<stop  offset="1" style="stop-color:#FFFF00"/>
				</linearGradient>
				<polygon class="st2" points="30.93,19 20.43,29.5 9.93,19 20.43,8.5 				"/>
				<linearGradient id="SVGID_2_" gradientUnits="userSpaceOnUse" x1="-7.8742" y1="4.5781" x2="43.7917" y2="25.2444">
					<stop  offset="5.618000e-03" style="stop-color:#FF2727"/>
					<stop  offset="0.2129" style="stop-color:#FFFF00"/>
					<stop  offset="0.2584" style="stop-color:#F8EE10"/>
					<stop  offset="0.3488" style="stop-color:#E6C13A"/>
					<stop  offset="0.4743" style="stop-color:#C9797D"/>
					<stop  offset="0.5955" style="stop-color:#AA2EC3"/>
					<stop  offset="0.78" style="stop-color:#4F66C6"/>
					<stop  offset="0.9327" style="stop-color:#0097C9"/>
					<stop  offset="1" style="stop-color:#FFFF00"/>
				</linearGradient>
				<polygon class="st3" points="28.18,8.5 26.02,10.66 34.36,19 26.02,27.34 28.18,29.5 38.68,19 				"/>
			</g>
		</g>
	</g>
</g>
<g>
	<g>
		<linearGradient id="SVGID_3_" gradientUnits="userSpaceOnUse" x1="13.3622" y1="36.6047" x2="620.1619" y2="36.6047">
			<stop  offset="0" style="stop-color:#00B987"/>
			<stop  offset="1" style="stop-color:#FFFFFF"/>
		</linearGradient>
		<line class="st4" x1="13.36" y1="36.6" x2="620.16" y2="36.6"/>
	</g>
</g>
<g>
	<path d="M231.31,10.21h-7.07V7.32h17.38v2.89h-7.07v20.78h-3.24V10.21z"/>
	<path d="M247.73,30.28c-1.31-0.6-2.3-1.76-2.97-3.47c-0.67-1.71-1.01-4.24-1.01-7.58s0.34-5.88,1.03-7.63
		c0.68-1.75,1.68-2.93,2.99-3.55c1.31-0.62,3.07-0.93,5.3-0.93c2.27,0,4.06,0.31,5.36,0.93s2.3,1.8,2.97,3.55
		c0.67,1.75,1.01,4.29,1.01,7.63s-0.34,5.87-1.01,7.58c-0.67,1.71-1.67,2.87-2.97,3.47s-3.09,0.9-5.36,0.9
		C250.81,31.18,249.03,30.88,247.73,30.28z M256.72,27.62c0.86-0.45,1.48-1.32,1.86-2.6c0.38-1.29,0.58-3.21,0.58-5.78
		c0-2.68-0.19-4.67-0.58-5.97c-0.39-1.31-1-2.17-1.85-2.6c-0.85-0.43-2.07-0.64-3.68-0.64c-1.54,0-2.74,0.22-3.58,0.66
		c-0.85,0.44-1.48,1.31-1.9,2.62c-0.42,1.31-0.63,3.29-0.63,5.94c0,2.59,0.19,4.52,0.56,5.8c0.37,1.27,0.98,2.14,1.83,2.59
		c0.85,0.45,2.08,0.67,3.71,0.67C254.64,28.29,255.86,28.07,256.72,27.62z"/>
	<path d="M264.59,7.32h3.34l4.69,19.08l5.43-19.08h3.12l5.36,19.08l4.72-19.08h3.31l-5.94,23.67h-3.41l-5.62-19.08l-5.65,19.08
		h-3.41L264.59,7.32z"/>
	<path d="M297.84,7.32h8.8c4.2,0,6.3,2.04,6.3,6.1c0,1.41-0.3,2.58-0.92,3.5s-1.41,1.51-2.39,1.77c1.09,0.28,2.06,0.89,2.89,1.83
		c0.84,0.94,1.25,2.25,1.25,3.92c0,2.38-0.57,4.06-1.7,5.06c-1.14,1-2.83,1.49-5.08,1.49h-9.16V7.32z M306.73,17.6
		c0.94,0,1.7-0.35,2.26-1.06c0.57-0.71,0.85-1.66,0.85-2.86c0-2.31-1.08-3.47-3.24-3.47h-5.53v7.39H306.73z M306.89,28.1
		c1.22,0,2.16-0.32,2.81-0.95s0.98-1.72,0.98-3.26c0-1.18-0.36-2.1-1.08-2.78c-0.72-0.67-1.62-1.01-2.71-1.01h-5.81v8H306.89z"/>
	<path d="M315.89,20.36h9.54v2.63h-9.54V20.36z"/>
	<path d="M331.58,31.01c-1.45-0.12-2.59-0.27-3.42-0.47v-2.51c1.78,0.17,4.14,0.26,7.1,0.26c1.52,0,2.7-0.23,3.53-0.69
		s1.25-1.3,1.25-2.52V23.7c0-1.99-1.06-2.99-3.18-2.99h-2.41c-2.12,0-3.73-0.47-4.82-1.4c-1.09-0.93-1.64-2.46-1.64-4.58v-1.32
		c0-2.18,0.59-3.78,1.78-4.79c1.19-1.01,2.96-1.51,5.32-1.51c1.03,0,2.21,0.08,3.53,0.22c1.33,0.15,2.46,0.31,3.4,0.48v2.51
		l-0.67-0.03c-2.74-0.19-4.71-0.29-5.91-0.29c-1.46,0-2.55,0.26-3.28,0.77c-0.73,0.51-1.09,1.45-1.09,2.79v0.96
		c0,1.11,0.29,1.91,0.88,2.38s1.47,0.71,2.65,0.71h2.6c1.93,0,3.39,0.52,4.4,1.56c1.01,1.04,1.51,2.41,1.51,4.13v1.67
		c0,2.33-0.67,3.95-2.02,4.85c-1.35,0.9-3.25,1.35-5.72,1.35C334.29,31.18,333.03,31.12,331.58,31.01z"/>
	<path d="M347.24,7.32h9.6c1.82,0,3.34,0.54,4.55,1.61c1.21,1.07,1.81,3.12,1.81,6.14c0,3.04-0.62,5.12-1.86,6.25
		c-1.24,1.12-2.75,1.69-4.53,1.69c-0.66,0-1.67-0.04-3-0.13c-1.34-0.09-2.45-0.17-3.33-0.26v8.38h-3.24V7.32z M356.36,20.1
		c2.4,0,3.6-1.67,3.6-5.01c0-3.25-1.14-4.88-3.41-4.88h-6.07v9.89H356.36z"/>
	<path d="M370.21,30.28c-1.31-0.6-2.3-1.76-2.97-3.47c-0.67-1.71-1.01-4.24-1.01-7.58s0.34-5.88,1.03-7.63
		c0.68-1.75,1.68-2.93,2.99-3.55c1.31-0.62,3.07-0.93,5.3-0.93c2.27,0,4.06,0.31,5.36,0.93s2.3,1.8,2.97,3.55
		c0.67,1.75,1.01,4.29,1.01,7.63s-0.34,5.87-1.01,7.58c-0.67,1.71-1.67,2.87-2.97,3.47s-3.09,0.9-5.36,0.9
		C373.29,31.18,371.51,30.88,370.21,30.28z M379.2,27.62c0.86-0.45,1.48-1.32,1.86-2.6c0.38-1.29,0.58-3.21,0.58-5.78
		c0-2.68-0.19-4.67-0.58-5.97c-0.39-1.31-1-2.17-1.85-2.6c-0.85-0.43-2.07-0.64-3.68-0.64c-1.54,0-2.74,0.22-3.58,0.66
		c-0.85,0.44-1.48,1.31-1.9,2.62c-0.42,1.31-0.63,3.29-0.63,5.94c0,2.59,0.19,4.52,0.56,5.8c0.37,1.27,0.98,2.14,1.83,2.59
		c0.85,0.45,2.08,0.67,3.71,0.67C377.12,28.29,378.34,28.07,379.2,27.62z"/>
	<path d="M388.96,7.32h9.48c1.93,0,3.46,0.51,4.61,1.53c1.15,1.02,1.72,2.9,1.72,5.64c0,2.21-0.4,3.78-1.21,4.72
		c-0.8,0.94-1.83,1.59-3.07,1.93l4.72,9.86h-3.28l-4.37-9.41l-4.4-0.06c-0.24-0.02-0.56-0.03-0.96-0.03v9.51h-3.24V7.32z
		 M397.93,18.98c1.16,0,2.05-0.32,2.68-0.96c0.63-0.64,0.95-1.82,0.95-3.53c0-1.65-0.32-2.77-0.96-3.37c-0.64-0.6-1.53-0.9-2.67-0.9
		h-5.72v8.77H397.93z"/>
	<path d="M413.92,10.21h-7.07V7.32h17.38v2.89h-7.07v20.78h-3.24V10.21z"/>
</g>
</svg>
