<?xml version="1.0" encoding="utf-8"?>
<!-- Generator: Adobe Illustrator 25.2.0, SVG Export Plug-In . SVG Version: 6.00 Build 0)  -->
<svg version="1.1" id="Layer_1" xmlns="http://www.w3.org/2000/svg" xmlns:xlink="http://www.w3.org/1999/xlink" x="0px" y="0px"
	 width="688.39px" height="74px" viewBox="0 0 688.39 74" style="enable-background:new 0 0 688.39 74;" xml:space="preserve">
<style type="text/css">
	.st0{fill:url(#SVGID_1_);}
	.st1{fill:url(#SVGID_2_);}
	.st2{fill:none;stroke:url(#SVGID_3_);stroke-width:2;stroke-miterlimit:10;stroke-dasharray:2,3,2,3,2,3;}
	.st3{enable-background:new    ;}
</style>
<symbol  id="New_Symbol_1" viewBox="-14.38 -10.5 28.76 21">
	<g id="XMLID_3_">
		<g>
			
				<linearGradient id="SVGID_1_" gradientUnits="userSpaceOnUse" x1="-47.6289" y1="1.2476" x2="4.0369" y2="-19.4188" gradientTransform="matrix(1 0 0 1 14.38 10.5)">
				<stop  offset="5.618000e-03" style="stop-color:#FF2727"/>
				<stop  offset="0.3525" style="stop-color:#FFFF00"/>
				<stop  offset="0.3814" style="stop-color:#F8EE10"/>
				<stop  offset="0.4388" style="stop-color:#E6C13A"/>
				<stop  offset="0.5185" style="stop-color:#C9797D"/>
				<stop  offset="0.5955" style="stop-color:#AA2EC3"/>
				<stop  offset="0.7367" style="stop-color:#4F66C6"/>
				<stop  offset="0.8536" style="stop-color:#0097C9"/>
				<stop  offset="1" style="stop-color:#FFFF00"/>
			</linearGradient>
			<polygon class="st0" points="6.62,0 -3.88,-10.5 -14.38,0 -3.88,10.5 			"/>
			
				<linearGradient id="SVGID_2_" gradientUnits="userSpaceOnUse" x1="-46.5586" y1="3.9234" x2="5.1073" y2="-16.7429" gradientTransform="matrix(1 0 0 1 14.38 10.5)">
				<stop  offset="5.618000e-03" style="stop-color:#FF2727"/>
				<stop  offset="0.2129" style="stop-color:#FFFF00"/>
				<stop  offset="0.2584" style="stop-color:#F8EE10"/>
				<stop  offset="0.3488" style="stop-color:#E6C13A"/>
				<stop  offset="0.4743" style="stop-color:#C9797D"/>
				<stop  offset="0.5955" style="stop-color:#AA2EC3"/>
				<stop  offset="0.78" style="stop-color:#4F66C6"/>
				<stop  offset="0.9327" style="stop-color:#0097C9"/>
				<stop  offset="1" style="stop-color:#FFFF00"/>
			</linearGradient>
			<polygon class="st1" points="3.88,10.5 1.72,8.34 10.06,0 1.72,-8.34 3.88,-10.5 14.38,0 			"/>
		</g>
	</g>
</symbol>
<symbol  id="New_Symbol_4" viewBox="-303.4 -1 606.8 2">
	
		<linearGradient id="SVGID_3_" gradientUnits="userSpaceOnUse" x1="-602.7" y1="-1" x2="4.1" y2="-1" gradientTransform="matrix(1 0 0 1 299.3 1)">
		<stop  offset="0" style="stop-color:#00B987"/>
		<stop  offset="1" style="stop-color:#FFFFFF"/>
	</linearGradient>
	<line class="st2" x1="-303.4" y1="0" x2="303.4" y2="0"/>
</symbol>
<g class="st3">
	<path d="M52.78,5.11l2.73,0.33c-0.18,0.95-0.39,1.82-0.63,2.62h6.73v2.46c-0.35,3.32-0.9,6.18-1.67,8.59
		c-0.71,2.12-1.7,4-2.95,5.66c-1.35,1.84-3.45,3.75-6.32,5.71l-2.16-2.3c3.28-2.04,5.67-4.21,7.16-6.51
		c-1.04-1.55-2.37-3.19-3.99-4.92l1.86-1.8c1.33,1.33,2.52,2.66,3.55,3.99c0.82-2.17,1.4-4.99,1.75-8.48H54.1
		c-0.29,0.78-0.6,1.51-0.93,2.19c-0.97,2.08-2.21,3.97-3.72,5.69l-1.7-2.16c1.26-1.55,2.32-3.24,3.17-5.06
		C51.6,9.78,52.22,7.77,52.78,5.11z M63.94,4.89h2.62v8.94c2.39,1.35,4.79,2.89,7.22,4.62l-1.61,2.41
		c-2.28-1.86-4.15-3.25-5.61-4.18V30.6h-2.62V4.89z"/>
	<path d="M96.48,14.46V6.97h2.73v10.01h-9.08v9.3h7.44v-7.05h2.73v11.38h-2.73v-1.8H80.15v1.8H77.5V19.22h2.65v7.05h7.03v-9.3h-8.64
		v-10h2.73v7.49h5.91V4.89h2.95v9.57C90.13,14.46,96.48,14.46,96.48,14.46z"/>
	<path d="M111.35,5.11l1.04,2.54c-0.97,0.49-2.52,1-4.68,1.53l0.05,2.11h4.07v2.3h-3.99l0.11,3.34h3.64v2.19h-3.58l0.08,3.06h4.32
		l1.01-7.22h2.52l-1.01,7.22h2.43l0.85-8.64h-3.12l-0.08,0.66h-2.41l1.2-9.41h2.41l-0.25,1.97h4.51v2.19h-4.79l-0.3,2.41h5.41
		l-0.9,10.83h5.74l0.08-3.01h-3.94v-2.3h3.99l0.11-3.28h-4.1v-2.3h4.16l0.08-2.84h-4.24v-2.3h6.73l-0.46,16.02h1.61v2.41h-25.81
		v-2.41h1.83L105.26,7C107.2,6.78,109.22,6.15,111.35,5.11z M112.37,25.01l1.89,1.67c-2.22,1.44-5.02,2.74-8.39,3.91l-1.78-2.3
		C107.16,27.42,109.92,26.33,112.37,25.01z M121.06,24.9c3.03,0.93,5.79,2.05,8.29,3.36l-1.67,2.54c-2.61-1.57-5.3-2.82-8.07-3.75
		L121.06,24.9z"/>
	<path d="M135.58,5.93h8.64v21.19c0,1.06-0.26,1.83-0.79,2.32c-0.49,0.47-1.29,0.71-2.38,0.71h-1.56l-0.63-2.73l1.64,0.08
		c0.73,0,1.09-0.42,1.09-1.26v-4.4h-4.87c-0.07,0.88-0.18,1.76-0.33,2.65c-0.44,2.13-1.15,4.24-2.13,6.32l-2.3-2.05
		c0.93-1.62,1.57-3.32,1.91-5.09c0.25-1.84,0.38-3.54,0.38-5.11V5.93H135.58z M136.87,19.44h4.73v-4.38h-4.7v3.5
		C136.89,18.85,136.88,19.15,136.87,19.44z M136.89,12.65h4.7V8.44h-4.7V12.65z M147.39,5.82h9.13v21.3c0,1.06-0.25,1.83-0.77,2.32
		c-0.47,0.47-1.23,0.71-2.27,0.71h-2.41l-0.63-2.73l2.52,0.08c0.69,0,1.04-0.42,1.04-1.26v-4.4h-5.41c-0.05,0.95-0.15,1.9-0.27,2.84
		c-0.33,2.06-0.86,4.1-1.59,6.12l-2.3-2.05c0.66-1.57,1.11-3.21,1.37-4.92c0.18-1.79,0.27-3.44,0.27-4.95V5.82H147.39z
		 M148.71,12.65h5.3V8.33h-5.3V12.65z M148.71,19.44h5.3v-4.38h-5.3v3.83C148.71,19.09,148.71,19.27,148.71,19.44z"/>
	<path d="M160.52,8.23h7.79c0.13-1.06,0.25-2.13,0.36-3.23h2.68c-0.11,1.11-0.24,2.19-0.38,3.23h14.38v2.73h-14.77
		c-0.18,1.28-0.38,2.46-0.6,3.55h12.77v2.05c-0.71,2.94-2.08,5.48-4.1,7.63c-0.09,0.13-0.18,0.23-0.27,0.3
		c2.02,1.4,4.46,2.6,7.3,3.58l-1.61,2.62c-3.21-1.37-5.81-2.84-7.79-4.43c-2.17,1.53-5.09,2.97-8.78,4.32l-1.5-2.73
		c3.46-0.93,6.21-2.06,8.23-3.39c-2.11-2.1-3.61-4.61-4.48-7.55h-0.33c-0.31,1.24-0.65,2.35-1.01,3.34
		c-1.4,3.65-3.49,6.92-6.26,9.82l-1.83-2.32c2.41-2.61,4.28-5.53,5.63-8.78c0.8-2.17,1.47-4.84,2-8.01h-7.41V8.23H160.52z
		 M172.49,16.92c0.88,2.41,2.13,4.37,3.77,5.88c1.48-1.35,2.67-3.31,3.58-5.88C179.84,16.92,172.49,16.92,172.49,16.92z"/>
	<path d="M195.68,5.44L198.14,7c-1.2,2.59-2.36,4.58-3.47,5.99c-0.55,0.73-1.14,1.44-1.78,2.13h16.35
		c-0.44-0.53-0.83-1.04-1.18-1.53c-1.22-1.66-2.23-3.52-3.04-5.58h-5.36V5.49H207c1.13,3.59,3.5,6.96,7.11,10.12l-1.83,2.52
		c-0.66-0.55-1.26-1.1-1.8-1.67c-0.22,6.78-0.61,10.79-1.18,12.03c-0.64,1.26-2.02,1.89-4.16,1.89c-1.84,0-3.14-0.05-3.91-0.16
		l-0.79-2.9c1.55,0.18,3.11,0.27,4.68,0.27c0.93,0,1.5-0.56,1.7-1.67c0.24-0.75,0.37-3.51,0.41-8.29h-6.48
		c-0.69,3.17-1.65,5.68-2.87,7.52c-1.48,2.11-3.69,4-6.64,5.66l-1.83-2.3c2.57-1.39,4.57-2.94,5.99-4.68
		c1.17-1.59,2.05-3.65,2.65-6.21h-5.8V15.8c-0.78,0.78-1.63,1.56-2.54,2.32l-1.61-2.65c1.55-1,3.02-2.44,4.4-4.32
		C193.56,9.67,194.62,7.77,195.68,5.44z"/>
	<path d="M218.05,18.34h20.67v2.27c-2.1,1-4.48,1.92-7.16,2.76h9.9v2.19h-10.5v2.6c-0.04,0.64-0.22,1.13-0.55,1.48
		c-0.47,0.49-1.04,0.74-1.7,0.74h-4.95l-0.57-2.41c1.26,0.04,2.59,0.05,3.99,0.05c0.62,0,0.93-0.22,0.93-0.66v-1.8h-11.92v-2.19
		h11.92v-1.09c1.9-0.42,3.88-1,5.96-1.75h-16.02L218.05,18.34L218.05,18.34z M229.04,4.89c0.38,0.69,0.74,1.44,1.07,2.24h11.24v2.3
		H216.3v-2.3h10.69c-0.31-0.64-0.67-1.23-1.07-1.78L229.04,4.89z M218.98,10.8h19.8v6.23h-19.8V10.8z M236.04,14.84v-1.86h-14.33
		v1.86H236.04z"/>
	<path d="M245.28,6.15h23.19v2.3h-10.39v10.01h11.38v2.41h-11.38v9.73h-2.62v-9.73H244.3v-2.41h11.16V8.44h-10.17V6.15H245.28z
		 M249.25,9.92c0.93,1.86,1.83,3.92,2.71,6.18l-2.52,1.26c-0.8-2.31-1.68-4.4-2.62-6.26L249.25,9.92z M264.53,9.92l2.41,1.15
		c-0.8,2.17-1.86,4.27-3.17,6.29l-2.41-1.26C262.69,13.97,263.75,11.91,264.53,9.92z"/>
	<path d="M277.06,5.11l1.7,1.5c-1.42,1.79-3.22,3.4-5.39,4.84l-1.61-2.08C273.72,8.23,275.49,6.8,277.06,5.11z M276.65,12.11
		l2.11,0.98v-1.23c-0.13,0.09-0.25,0.17-0.38,0.25l-1.48-1.91c1.15-0.75,2.11-1.55,2.9-2.41c0.6-0.66,1.17-1.62,1.7-2.9l2.41,0.3
		c-0.16,0.49-0.35,0.94-0.55,1.34h5.06v1.64c-0.49,0.93-0.98,1.73-1.45,2.41h2.52V21.4h-4.29c-0.02,0.49-0.06,0.95-0.14,1.37H291
		v2.08h-5.99c1.51,0.89,3.04,1.9,4.57,3.04l-1.31,1.94c-1.82-1.55-3.29-2.68-4.4-3.39c-0.13,0.24-0.25,0.45-0.38,0.63
		c-1,1.49-2.64,2.63-4.92,3.42l-1.23-1.94c2.19-0.78,3.67-1.78,4.46-2.98c0.16-0.24,0.3-0.47,0.41-0.71h-4.32v-2.08h4.95
		c0.09-0.42,0.15-0.88,0.16-1.37h-4.24V13.4c-0.6,1.35-1.22,2.47-1.86,3.36V30.6h-2.41V19.57c-0.57,0.55-1.15,1.08-1.75,1.61
		l-0.88-2.95c0.98-0.84,1.85-1.7,2.6-2.6C275.22,14.82,275.95,13.64,276.65,12.11z M280.34,10.58h3.83
		c0.57-0.58,1.15-1.28,1.75-2.08h-3.72c-0.13,0.2-0.27,0.39-0.44,0.57C281.34,9.62,280.87,10.12,280.34,10.58z M280.94,15.01h2.08
		v-2.49h-2.08V15.01z M283.02,19.44v-2.57h-2.08v2.57H283.02z M285.21,12.52v2.49h2.08v-2.49H285.21z M287.28,19.44v-2.57h-2.08
		v2.57H287.28z M290.15,13.91h7.63v2.52h-2.46v11.21c0,1-0.21,1.7-0.63,2.11c-0.4,0.42-1.13,0.63-2.19,0.63h-2.11l-0.6-2.73
		c0.8,0.13,1.46,0.19,1.97,0.19c0.69,0,1.04-0.22,1.04-0.66V16.43h-2.65L290.15,13.91L290.15,13.91z M290.46,6.48h6.78V9h-6.78V6.48
		z"/>
	<path d="M300.08,11.67h7.22v1.86c-0.88,1.51-2.01,3.12-3.42,4.81h3.28v1.59c-0.4,1.9-0.84,3.35-1.31,4.38
		c1.06,1.2,1.92,1.96,2.6,2.27c0.6,0.35,1.49,0.61,2.65,0.79c1.35,0.2,4,0.31,7.96,0.33c2.92,0,5.09-0.06,6.51-0.19l-0.41,2.65
		c-7.66,0-12.32-0.1-14-0.3c-1.59-0.22-2.82-0.56-3.69-1.01c-0.82-0.37-1.73-1.18-2.73-2.43c-0.77,1.31-1.76,2.67-2.98,4.07l-1.89-2
		c1.44-1.46,2.45-2.73,3.04-3.83c0.49-0.66,1.06-2.03,1.7-4.13h-3.75v-1.97c1.15-1.18,2.35-2.75,3.61-4.7h-4.38L300.08,11.67
		L300.08,11.67z M303.14,5.22c1.26,1.28,2.32,2.53,3.17,3.77l-1.8,1.8c-0.69-1.22-1.7-2.55-3.01-3.99L303.14,5.22z M324.91,5.82
		v4.76h-1.2v1.09h-6.12v1.15h6.62v8.53h-6.62v1.42h7.44v2.08h-7.44v2.13h-2.41v-2.13h-7v-2.08h7v-1.42h-6.29v-8.53h6.29v-1.15h-5.58
		v-1.09h-1.75V5.82H324.91z M310.25,9.7h4.92V7.9h-4.92V9.7z M311.18,16.15h3.99v-1.48h-3.99V16.15z M315.17,19.49V17.9h-3.99v1.59
		H315.17z M317.58,7.9v1.8h4.92V7.9H317.58z M317.58,14.68v1.48h4.32v-1.48H317.58z M321.9,19.49V17.9h-4.32v1.59H321.9z"/>
	<path d="M340.47,5.52l1.18,2.02c-1.51,0.24-3.25,0.42-5.2,0.55v1.78h5.74v2.08h-5.74v1.48h5.52v8.64h-5.52v1.59h4.98v1.86h-4.98
		v2.24c1.82-0.15,3.48-0.32,4.98-0.52v0.85c1.7-2.5,2.89-5.17,3.58-8.01c0.51-1.84,0.83-4.4,0.96-7.68h-3.01v-2.3h3.06
		c0-0.42,0-0.84,0-1.26V5.11h2.41v3.72c0,0.44,0,0.86,0,1.26h5.03c0,9.5-0.1,15.13-0.3,16.9c-0.15,1.38-0.43,2.28-0.85,2.68
		c-0.49,0.55-1.39,0.82-2.71,0.82c-0.6,0-1.3-0.04-2.11-0.11L347,27.64c0.86,0.13,1.72,0.19,2.6,0.19c0.71,0,1.1-0.56,1.18-1.67
		c0.15-1.42,0.24-6.02,0.27-13.78h-2.71c-0.15,3.28-0.5,6.09-1.07,8.42c-0.69,3.12-2.06,6.31-4.1,9.57l-1.75-1.53v0.33
		c-2.46,0.44-6.79,0.84-12.99,1.2l-0.36-2.3c2.17-0.04,4.19-0.1,6.07-0.19V25.5h-4.87v-1.86h4.87v-1.59h-5.09v-8.64h5.09v-1.48
		h-6.29V9.87h6.29V8.2c-1.5,0.05-3.1,0.08-4.81,0.08l-0.74-2.11C333.27,6.17,337.22,5.96,340.47,5.52z M331.47,17.03h2.68v-1.86
		h-2.68V17.03z M334.15,20.31v-1.75h-2.68v1.75H334.15z M336.45,15.17v1.86h3.12v-1.86C339.57,15.17,336.45,15.17,336.45,15.17z
		 M339.56,20.31v-1.75h-3.12v1.75H339.56z"/>
	<path d="M370.68,17.19c0,1.7-0.78,3.14-2.35,4.32l-0.98-1.2c0.93-0.75,1.48-1.6,1.64-2.57h-1.91v-3.58h3.61L370.68,17.19
		L370.68,17.19z"/>
	<path d="M389.6,4.89c0.4,0.93,0.79,1.97,1.18,3.12h3.91v2.3h-10.61v-2.3h4.1c-0.38-0.98-0.8-1.89-1.26-2.71L389.6,4.89z
		 M393.54,20.37v8.09h-6.12v2.02h-2.52V20.37H393.54z M385.06,12.22h8.53v2.19h-8.53V12.22z M385.06,16.26h8.53v2.19h-8.53V16.26z
		 M387.42,26.16h3.61v-3.5h-3.61V26.16z M406.12,5.6v6.43c0,0.69,0.35,1.04,1.04,1.04h2.19v2.54h-2.82c-1.08,0-1.86-0.23-2.35-0.68
		c-0.53-0.46-0.79-1.26-0.79-2.41V7.9h-4.21c-0.05,1.88-0.22,3.24-0.49,4.07c-0.33,1.09-1.19,2.38-2.6,3.86l-2.05-1.78
		c1.17-1.28,1.9-2.29,2.19-3.04c0.22-0.69,0.33-2.5,0.33-5.41C396.56,5.6,406.12,5.6,406.12,5.6z M395.15,16.21h12.11v1.97
		c-0.66,2.81-1.78,5.23-3.36,7.27c1.57,0.95,3.53,1.77,5.88,2.46l-1.67,2.46c-2.61-0.91-4.68-1.9-6.21-2.95
		c-1.59,1.22-3.7,2.28-6.34,3.17l-1.53-2.32c2.37-0.75,4.27-1.61,5.71-2.6c-1.6-1.53-2.93-3.31-3.96-5.33l2.3-1.34
		c0.98,1.99,2.23,3.62,3.75,4.89c1.26-1.48,2.18-3.27,2.76-5.39h-9.43v-2.29H395.15z"/>
	<path d="M417.93,4.89c0.55,0.93,1.07,1.97,1.56,3.12h4.62v2.3h-12.03v-2.3h4.81c-0.49-0.98-1.04-1.89-1.64-2.71L417.93,4.89z
		 M413.06,12.33h10.09v2.19h-10.09V12.33z M413.06,16.26h10.09v2.19h-10.09V16.26z M415.63,28.46v2.02h-2.52V20.37h9.73v9.71h-2.52
		v-1.61h-4.69V28.46z M420.34,26.16v-3.5h-4.7v3.5H420.34z M424.55,12.82h5.3V4.89h2.73v7.93H438v2.52h-5.41V30.6h-2.73V15.33h-5.3
		v-2.51H424.55z"/>
	<path d="M460.48,14.46V6.97h2.73v10.01h-9.08v9.3h7.44v-7.05h2.73v11.38h-2.73v-1.8h-17.42v1.8h-2.65V19.22h2.65v7.05h7.03v-9.3
		h-8.64v-10h2.73v7.49h5.91V4.89h2.95v9.57C454.13,14.46,460.48,14.46,460.48,14.46z"/>
	<path d="M478.22,4.89l2.87,0.41c-0.22,0.86-0.54,1.65-0.96,2.38h11.02v22.48h-2.62v-1.48h-15.75v1.48h-2.62V7.68h7.11
		C477.69,6.78,478.01,5.86,478.22,4.89z M472.78,13.37h15.75V10.2h-15.75V13.37z M472.78,19.6h15.75v-3.72h-15.75V19.6z
		 M472.78,26.16h15.75v-4.05h-15.75V26.16z"/>
	<path d="M518.45,17.03H501v8.04c0,0.82,0.15,1.39,0.46,1.72c0.4,0.27,1.08,0.41,2.02,0.41h13.59c0.66,0,1.1-0.17,1.34-0.52
		c0.31-0.46,0.49-2.07,0.55-4.84l2.71,0.88c0,1.24-0.11,2.5-0.33,3.77c-0.22,1.06-0.56,1.84-1.01,2.35
		c-0.57,0.58-1.5,0.88-2.82,0.88h-15.09c-1.46,0-2.51-0.3-3.14-0.9c-0.75-0.67-1.12-1.92-1.12-3.75V14.4h17.34V8.72h-18.54V6.09
		h21.49V17.03z"/>
	<path d="M529.85,5l2.54,0.36c-0.31,1.44-0.76,2.76-1.34,3.96h3.96v5.88c0.82-1.37,1.45-2.71,1.89-4.02
		c0.56-1.57,1.02-3.66,1.37-6.29l2.76,0.46c-0.26,1.46-0.5,2.74-0.74,3.86h8.61c0,9.86-0.16,15.71-0.46,17.53
		c-0.24,1.44-0.69,2.37-1.37,2.79c-0.78,0.56-2.22,0.85-4.32,0.85c-0.6,0-1.3-0.04-2.11-0.11l-0.49-2.73
		c0.86,0.11,1.73,0.16,2.62,0.16c1.71,0,2.67-0.57,2.87-1.72c0.35-1.46,0.56-6.21,0.63-14.25h-6.67c-0.05,0.2-0.11,0.38-0.16,0.55
		c-0.6,2.01-1.64,4.14-3.12,6.4l-1.31-1.61v11.46h-2.41v-1.37h-5.14v2.13h-2.41V9.32h3.47C529.14,7.95,529.58,6.51,529.85,5z
		 M527.47,17.14h5.14v-5.52h-5.14V17.14z M527.47,24.85h5.14v-5.52h-5.14V24.85z M540.54,15.5c1.57,2.55,2.79,4.75,3.66,6.59
		l-2.62,1.83c-0.78-2.04-1.88-4.38-3.28-7L540.54,15.5z"/>
	<path d="M552.3,9.98h3.01V5h2.52v4.98h2.68v2.3h-2.68v5.41c0.8-0.47,1.62-1.01,2.46-1.61v2.79c-0.8,0.57-1.62,1.08-2.46,1.53v7.36
		c0,0.97-0.21,1.64-0.63,2.02c-0.4,0.4-1.13,0.6-2.19,0.6h-1.8l-0.6-2.62c0.69,0.13,1.25,0.19,1.67,0.19c0.69,0,1.04-0.21,1.04-0.63
		v-5.66c-0.89,0.4-1.8,0.76-2.71,1.07l-0.41-2.84c1-0.16,2.04-0.47,3.12-0.93v-6.67h-3.01V9.98H552.3z M562.42,8.28
		c1,1.8,1.82,3.47,2.46,5V5.11h2.62v12.47c0,2.92-0.4,5.32-1.2,7.22c-0.77,1.9-2.24,3.83-4.43,5.8l-2.27-1.97
		c2-1.48,3.41-3.06,4.21-4.76c0.49-0.95,0.81-2.22,0.96-3.83c-1.26,1.29-2.64,2.41-4.16,3.34l-1.42-2.35
		c1.95-1.08,3.85-2.62,5.69-4.62v-1.83l-2.19,0.82c-0.67-2.21-1.51-4.37-2.52-6.48L562.42,8.28z M573.38,27.64
		c0.53,0,0.92-0.13,1.18-0.38c0.29-0.26,0.48-1.44,0.57-3.55l2.54,0.82c-0.26,2.77-0.67,4.4-1.23,4.89
		c-0.49,0.49-1.39,0.74-2.71,0.74h-1.83c-0.8,0-1.44-0.24-1.91-0.71c-0.49-0.49-0.74-1.15-0.74-1.97V5.11h2.62v11.43
		c2.15,1.09,4.12,2.38,5.91,3.86l-1.53,2.32c-1.44-1.35-2.9-2.49-4.38-3.42v7.36c0,0.66,0.35,0.98,1.04,0.98
		C572.91,27.64,573.38,27.64,573.38,27.64z M574.61,8.06l2.54,0.66c-0.62,2.35-1.39,4.5-2.32,6.45l-2.52-0.9
		C573.21,12.65,573.97,10.58,574.61,8.06z"/>
	<path d="M580.85,12.87h12.47v9.95h-4.98v1.75h6.07v2.19h-6.07v3.94h-2.3v-3.94h-6.07v-2.19h6.07v-1.75h-5.2v-9.95H580.85z
		 M580.68,5.71h5.91v6.02h-5.91V5.71z M584.51,9.87v-2.3h-1.75v2.3H584.51z M583.25,16.92h2.79v-2.08h-2.79V16.92z M586.04,20.86
		v-2.19h-2.79v2.19H586.04z M587.9,5.76h5.91v6.02h-5.91V5.76z M588.34,14.84v2.08h2.57v-2.08H588.34z M590.91,20.86v-2.19h-2.57
		v2.19H590.91z M591.73,9.81V7.73h-1.75v2.08C589.98,9.81,591.73,9.81,591.73,9.81z M605.29,11.89l0.38,2.41l-6.51,1.07
		c0.18,2.61,0.42,4.77,0.71,6.48c0.88-1.38,1.79-3.21,2.73-5.47l2.08,1.39c-1.51,3.25-2.87,5.68-4.07,7.3
		c0.53,2.04,1.07,3.06,1.61,3.06c0.47,0,0.98-1.33,1.53-3.99l2.02,1.97c-0.89,3.21-2.1,4.81-3.61,4.81c-1,0-1.88-0.54-2.62-1.61
		c-0.38-0.46-0.72-1.11-1.01-1.97c-1.19,1.09-2.57,2.11-4.16,3.04l-1.5-2.02c1.99-1.15,3.62-2.41,4.89-3.77
		c-0.07-0.4-0.15-0.8-0.22-1.2c-0.42-1.86-0.72-4.4-0.9-7.63l-2.41,0.41l-0.38-2.41l2.65-0.44c-0.11-2.44-0.17-5.18-0.19-8.2h2.52
		c0.02,2.9,0.08,5.5,0.19,7.79L605.29,11.89z M602.28,6.53c0.93,1.26,1.73,2.59,2.41,3.99l-2.27,1.04c-0.69-1.6-1.47-3.04-2.32-4.29
		L602.28,6.53z"/>
	<path d="M608.19,10.19h2.84V5h2.41v5.2h2.16v2.3h-2.16V14c1.04,1.24,2.06,2.6,3.06,4.07l-0.41,0.66h2.27
		c0.04-0.62,0.05-1.25,0.05-1.89c-0.58,0.07-1.18,0.14-1.78,0.19l-0.46-1.97c0.4-0.02,0.8-0.04,1.2-0.08
		c0.64-0.88,1.26-1.88,1.86-3.01c-0.93,0.18-1.91,0.37-2.95,0.55l-0.44-1.83c0.35-0.04,0.7-0.07,1.07-0.11
		c0.89-1.62,1.54-3.37,1.94-5.25l2.02,0.27c-0.42,1.71-1.03,3.28-1.83,4.7c0.4-0.09,0.77-0.16,1.09-0.22
		c0.36-0.73,0.7-1.48,1.01-2.24l1.91,0.74c-1.15,2.53-2.32,4.62-3.53,6.26c0.66-0.05,1.28-0.11,1.86-0.16
		c-0.13-0.49-0.26-0.99-0.41-1.5l1.48-0.41c0.6,1.51,1.06,2.9,1.37,4.16l-1.75,0.66c-0.07-0.4-0.16-0.79-0.25-1.18
		c-0.4,0.05-0.8,0.11-1.2,0.16c0,0.78-0.02,1.5-0.05,2.16h3.69c-0.46-2.95-0.75-7.56-0.88-13.84h2.19
		c0.18,6.54,0.45,11.16,0.79,13.84h2.6c-0.18-0.53-0.42-1.08-0.71-1.67c-0.46,0.07-0.94,0.14-1.45,0.19l-0.57-1.97
		c0.42,0,0.81-0.01,1.18-0.03c0.62-0.91,1.25-2,1.89-3.25c-0.93,0.18-1.91,0.36-2.95,0.52l-0.44-1.83c0.33-0.02,0.65-0.04,0.96-0.08
		c0.78-1.62,1.36-3.38,1.72-5.28l2.02,0.27c-0.37,1.71-0.9,3.3-1.61,4.76c0.44-0.05,0.83-0.12,1.18-0.19
		c0.27-0.62,0.55-1.25,0.82-1.89l1.91,0.74c-1.08,2.46-2.19,4.49-3.34,6.1c0.67-0.09,1.27-0.21,1.78-0.36
		c-0.13-0.46-0.26-0.91-0.41-1.37l1.48-0.41c0.6,1.48,1.06,2.83,1.37,4.05l-1.75,0.66c-0.09-0.44-0.18-0.85-0.27-1.23
		c-0.4,0.11-0.85,0.21-1.34,0.3c0.24,0.6,0.46,1.26,0.68,1.97h2.57v2.08h-6.92c0.25,1.22,0.56,2.28,0.9,3.17
		c0.62-0.71,1.23-1.53,1.83-2.46l1.89,0.98c-0.8,1.4-1.69,2.62-2.65,3.64c0.84,1.4,1.56,2.11,2.16,2.11c0.16,0,0.27-0.09,0.33-0.27
		c0.13-0.26,0.25-1.46,0.38-3.61l2.19,1.29c-0.29,2.1-0.64,3.47-1.04,4.13c-0.38,0.55-0.95,0.82-1.7,0.82c-1.15,0-2.42-1-3.8-3.01
		c-0.02-0.02-0.03-0.04-0.03-0.05c-1.26,1.06-2.95,1.97-5.09,2.73l-1.26-1.91c2.04-0.73,3.72-1.6,5.03-2.62
		c0.09-0.07,0.17-0.14,0.25-0.19c-0.6-1.33-1.1-2.91-1.5-4.73h-4.18c-0.04,0.35-0.06,0.67-0.08,0.98c1.33,0.8,2.55,1.75,3.66,2.84
		l-1.31,2.02c-0.93-1.02-1.86-1.89-2.79-2.6c-0.35,1.44-0.78,2.59-1.31,3.45c-0.58,1-1.43,2.03-2.54,3.09l-1.67-2.11
		c1.15-1.06,2-2.09,2.57-3.09c0.46-0.8,0.84-2.11,1.15-3.94c0.04-0.24,0.06-0.46,0.08-0.66h-2.71v-1.29l-0.44,0.68
		c-0.64-1.28-1.19-2.33-1.64-3.17v13.56h-2.41V18.81c-0.64,1.75-1.38,3.31-2.21,4.68l-1.07-2.73c1.31-2.17,2.41-4.66,3.28-7.46
		v-0.79h-2.84L608.19,10.19L608.19,10.19z"/>
	<path d="M638.6,5.52l2.52,0.55c-0.18,0.82-0.38,1.59-0.6,2.32h2.46v-3.5h2.62v3.5h5.8v2.41h-5.8v2.95h6.23v2.41h-6.23v2.73h5.52
		v7.41c0,0.89-0.23,1.57-0.68,2.02c-0.38,0.42-0.94,0.63-1.67,0.63h-1.97l-0.55-2.43l1.5,0.14c0.56-0.04,0.85-0.39,0.85-1.07V21.3
		h-3.01v9.3h-2.62v-9.3h-3.34v7.88h-2.52V18.89h5.85v-2.73h-6.89v-2.41h6.89V10.8h-3.34c-0.4,0.95-0.84,1.82-1.31,2.62l-2.35-1.5
		C637.23,9.95,638.1,7.82,638.6,5.52z M653.36,7.08h2.62V24.8h-2.62V7.08z M657.52,30.15h-3.06l-0.55-2.52
		c1.15,0.11,2.1,0.16,2.84,0.16c0.73,0,1.09-0.2,1.09-0.6V4.89h2.62v22.75c0,0.93-0.22,1.58-0.66,1.94
		C659.39,29.96,658.63,30.15,657.52,30.15z"/>
	<path d="M59.02,38.38c1.73,1.08,3.19,2.14,4.38,3.2l-1.07,1.09h11.13v2.6H57.87v2.19c0,0.58-0.01,1.15-0.03,1.7h12.44
		c-0.05,7.78-0.71,12.23-1.97,13.34c-0.64,0.98-2.89,1.48-6.75,1.48l-0.57-2.84c0.88,0.15,1.59,0.22,2.16,0.22
		c1.37,0,2.39-0.32,3.06-0.96c0.64-0.64,1.05-3.54,1.23-8.72h-9.79c-0.24,1.97-0.65,3.68-1.23,5.14c-0.91,2.44-2.69,4.94-5.33,7.49
		l-2.35-2.05c2.41-1.97,4.11-4.09,5.11-6.37c0.86-1.84,1.29-4.65,1.29-8.42v-2.19H48.3v-2.6h12.09c-0.91-0.82-1.99-1.65-3.23-2.49
		L59.02,38.38z"/>
	<path d="M81.25,38.49l2.35,1.12c-0.6,2.06-1.23,3.83-1.89,5.3v19.06H79.2v-14.6c-0.69,1.06-1.45,2.1-2.27,3.12l-0.96-3.17
		c1.09-1.49,2.05-3.04,2.87-4.62C79.68,43.26,80.48,41.19,81.25,38.49z M84.06,39.53h16.52v2.3h-7.27v1.86h6.84v11.05h-6.89
		c-0.11,1.73-0.42,3.2-0.93,4.4c0.44,0.29,0.86,0.53,1.26,0.71c1.68,0.89,4.41,1.5,8.2,1.83l-0.63,2.52
		c-3.68-0.38-6.48-1.08-8.39-2.08c-0.57-0.27-1.12-0.59-1.67-0.96c-1.4,1.6-3.9,2.62-7.49,3.04l-1.18-2.52
		c3.17-0.18,5.35-0.87,6.54-2.05c-1.29-1.08-2.56-2.36-3.8-3.86l1.5-1.04H84.4V43.68h6.4v-1.86h-6.73v-2.29H84.06z M86.8,48.06h3.99
		v-2.3H86.8V48.06z M90.79,52.65v-2.52H86.8v2.52H90.79z M87.35,54.73c0.98,1.09,1.92,2.02,2.82,2.79c0.27-0.8,0.46-1.73,0.57-2.79
		H87.35z M93.31,45.76v2.3h4.43v-2.3H93.31z M97.74,52.65v-2.52h-4.43v2.52H97.74z"/>
	<path d="M104.08,43.63h2.73v-5.14h2.41v5.14h2.38v2.19h-2.38v5.41c0.71-0.46,1.4-0.93,2.08-1.42l-0.88-1.09
		c1.7-1.53,2.97-3.23,3.83-5.09l2.08,0.46c-0.2,0.37-0.38,0.72-0.55,1.07h4.38c-0.27-0.42-0.57-0.81-0.88-1.18l2.35-0.36
		c0.31,0.47,0.6,0.98,0.88,1.53h6.4v1.53h-6.29v1.2h5.63v1.31h-5.63v1.31h5.74v1.31h-5.74v1.26h6.54v1.64h-16.38V49.6
		c-0.27,0.33-0.56,0.63-0.85,0.9l-0.41-0.46v2.24c-0.77,0.55-1.53,1.05-2.3,1.5v7.55c0,0.97-0.2,1.64-0.6,2.02
		c-0.38,0.4-1.08,0.6-2.11,0.6h-1.42l-0.57-2.62c0.53,0.13,0.95,0.19,1.26,0.19c0.69,0,1.04-0.21,1.04-0.63v-5.85
		c-0.75,0.35-1.5,0.66-2.24,0.93l-0.38-2.73c0.86-0.16,1.73-0.43,2.62-0.79v-6.64h-2.73v-2.18H104.08z M126.23,41.5v-2.13h2.52v3.99
		h-16.3v-3.99h2.52v2.13h4.38v-2.79h2.52v2.79H126.23z M124.64,64.19l-0.44-1.86l1.7,0.08c0.51-0.02,0.77-0.29,0.77-0.82V60.3h-2.57
		c-0.13,0-0.24,0-0.33,0v2.57h-6.34v-2.41c-0.42,0.31-0.88,0.6-1.39,0.88l-0.96-1.18v3.8h-2.3V55.7h16.19v6.43
		c0,0.69-0.21,1.21-0.63,1.56c-0.35,0.33-0.85,0.49-1.5,0.49L124.64,64.19L124.64,64.19z M120.1,47.9v-1.2h-5.03v1.2H120.1z
		 M120.1,50.52v-1.31h-5.03v1.31H120.1z M120.1,53.09v-1.26h-5.03v1.26H120.1z M115.07,59.65c0.75-0.33,1.33-0.7,1.75-1.12
		c0.29-0.31,0.53-0.7,0.71-1.18h-2.46V59.65z M118.82,58.94h2.98c0-0.04,0-0.06,0-0.08v-1.5h-2.35
		C119.28,57.99,119.07,58.52,118.82,58.94z M122.02,61.57v-1.31h-2.84v1.31H122.02z M123.77,57.36v0.96c0,0.38,0.26,0.57,0.79,0.57
		h2.11v-1.53H123.77z"/>
	<path d="M157.4,48.82v6.4h-2.52v-4.1h-8.91v2.68h8.37v5.88c0,0.86-0.23,1.5-0.68,1.94c-0.38,0.4-0.94,0.6-1.67,0.6h-3.2l-0.52-2.3
		l2.71,0.11c0.57-0.04,0.85-0.37,0.85-1.01v-3.04h-5.85v8.31h-2.62v-8.31h-5.41v6.12h-2.52v-8.3h7.93v-2.68h-8.48v3.99h-2.52v-6.29
		H157.4z M132.85,41.28h3.45V38.6h2.52v2.68h2.08V38.6h2.52v2.68h2.73V38.6h2.52v2.68h2.08V38.6h2.52v2.68h3.91v2.3h-3.91v0.93
		c0,0.58,0.34,0.88,1.01,0.88h2.65v2.19h-3.25c-0.91,0-1.62-0.17-2.13-0.52c-0.53-0.35-0.79-0.92-0.79-1.72v-1.75h-2.08v3.99h-7.77
		v-3.99h-2.24c-0.18,1-0.48,1.84-0.9,2.52c-0.62,0.98-1.63,1.73-3.04,2.24l-1.42-2.24c1.17-0.42,1.95-0.95,2.35-1.59
		c0.18-0.29,0.31-0.6,0.38-0.93h-3.17v-2.31H132.85z M143.4,43.57v1.8h2.73v-1.8H143.4z"/>
	<path d="M174.68,50.79c0,1.7-0.78,3.14-2.35,4.32l-0.98-1.2c0.93-0.75,1.48-1.6,1.64-2.57h-1.91v-3.58h3.61L174.68,50.79
		L174.68,50.79z"/>
	<path d="M213.4,48.82v6.4h-2.52v-4.1h-8.91v2.68h8.37v5.88c0,0.86-0.23,1.5-0.68,1.94c-0.38,0.4-0.94,0.6-1.67,0.6h-3.2l-0.52-2.3
		l2.71,0.11c0.57-0.04,0.85-0.37,0.85-1.01v-3.04h-5.85v8.31h-2.62v-8.31h-5.41v6.12h-2.52v-8.3h7.93v-2.68h-8.48v3.99h-2.52v-6.29
		H213.4z M188.85,41.28h3.45V38.6h2.52v2.68h2.08V38.6h2.52v2.68h2.73V38.6h2.52v2.68h2.08V38.6h2.52v2.68h3.91v2.3h-3.91v0.93
		c0,0.58,0.34,0.88,1.01,0.88h2.65v2.19h-3.25c-0.91,0-1.62-0.17-2.13-0.52c-0.53-0.35-0.79-0.92-0.79-1.72v-1.75h-2.08v3.99h-7.77
		v-3.99h-2.24c-0.18,1-0.48,1.84-0.9,2.52c-0.62,0.98-1.63,1.73-3.04,2.24l-1.42-2.24c1.17-0.42,1.95-0.95,2.35-1.59
		c0.18-0.29,0.31-0.6,0.38-0.93h-3.17v-2.31H188.85z M199.4,43.57v1.8h2.73v-1.8H199.4z"/>
	<path d="M218.05,45.49h8.86v-1.86h2.62v1.86h6.23v1.64c1.17-0.91,2.33-1.9,3.5-2.95l1.89,1.42c-1.42,1.4-2.92,2.68-4.48,3.83h5.11
		v2.19h-8.34c-0.53,0.33-1.05,0.64-1.56,0.93c-0.58,0.31-1.21,0.62-1.89,0.93h8.34V64.2h-2.52v-1.1h-12.69v1.09h-2.52v-7.33
		c-1.13,0.33-2.28,0.66-3.45,0.98l-1.09-2.41c4.92-1.15,8.98-2.42,12.17-3.83h-12.39v-2.19h11.05v-1.75h-8.86v-2.17H218.05z
		 M216.41,40.35h6.18V38.6h2.52v1.75h7.55V38.6h2.52v1.75h6.4v2.19h-6.4v2.19h-2.52v-2.19h-7.55v2.19h-2.52v-2.19h-6.18V40.35z
		 M223.13,57.19h12.69v-1.75h-10.83c-0.6,0.22-1.22,0.43-1.86,0.63V57.19z M223.13,61.13h12.69v-1.97h-12.69V61.13z M232.46,49.43
		c0.88-0.53,1.74-1.11,2.6-1.75h-5.52v1.75H232.46z"/>
	<path d="M257.04,38.49c0.47,0.88,0.92,1.84,1.34,2.9h10.53v7.16h-2.84V43.9h-18.48v4.65h-2.84v-7.16h10.61
		c-0.42-0.88-0.89-1.69-1.42-2.43L257.04,38.49z M264.04,48.66l1.8,2.05c-4.61,2.1-9.22,3.65-13.84,4.65v4.57
		c0,0.66,0.39,0.98,1.18,0.98h9.73c0.71,0,1.23-0.18,1.56-0.55c0.4-0.37,0.67-2.08,0.79-5.14l2.87,0.93
		c-0.29,3.57-0.79,5.69-1.5,6.34c-0.6,0.62-1.7,0.93-3.31,0.93h-11.29c-0.89,0-1.61-0.24-2.16-0.71c-0.55-0.49-0.82-1.15-0.82-1.97
		V46.12H252v6.34C256.57,51.59,260.58,50.32,264.04,48.66z"/>
	<path d="M276.97,38.49l2.62,0.36c-0.18,1-0.44,1.92-0.77,2.76h3.42v8.53h-6.89v2.68h7.33v11.16h-2.41v-1.75h-4.92v2.08h-2.41v-22.7
		h3.25C276.56,40.6,276.81,39.57,276.97,38.49z M275.36,47.84h4.48V43.9h-4.48V47.84z M275.36,60.04h4.92V55h-4.92V60.04z
		 M292.92,61.35l-0.6-2.62l1.37,0.11c0.55-0.04,0.82-0.43,0.82-1.18V45.05h-2.68v19.14h-2.52V45.05h-2.46v16.73h-2.41V42.67h4.87
		v-4.18h2.52v4.18h5.09v15.75c0,1-0.22,1.75-0.66,2.24c-0.36,0.46-0.9,0.68-1.61,0.68L292.92,61.35L292.92,61.35z"/>
	<path d="M314.46,38.49c0.4,0.62,0.77,1.31,1.12,2.08h10.09v2.19h-5.03v2.35h4.59v2.08h-4.59v4.43h-11.81v-4.43h-4.38v3.12
		c0,1.97-0.15,4.06-0.44,6.26c-0.38,2.24-1,4.46-1.86,6.64l-2.3-2.05c0.8-1.71,1.35-3.52,1.64-5.41c0.22-1.95,0.33-3.76,0.33-5.44
		v-9.73h10.88c-0.35-0.58-0.73-1.13-1.15-1.64L314.46,38.49z M306.1,52.98h17.12v1.78c-1.44,1.82-3.36,3.42-5.77,4.79
		c2.13,0.86,5.06,1.7,8.78,2.54l-1.91,2.21c-3.41-0.98-6.18-1.93-8.31-2.84c-0.4-0.2-0.78-0.38-1.15-0.55
		c-2.75,1.26-5.83,2.18-9.24,2.76l-1.26-2.57c3.01-0.37,5.59-0.93,7.74-1.7c-1.44-0.91-2.71-1.91-3.8-3.01l1.83-1.34h-4.02v-2.07
		H306.1z M308.83,45.11v-2.35h-4.38v2.35H308.83z M310.25,55.06c1.24,1.2,2.74,2.27,4.51,3.2c1.71-0.89,3.22-1.96,4.51-3.2H310.25z
		 M318.02,45.11v-2.35h-6.56v2.35H318.02z M311.46,47.18v2.49h6.56v-2.49H311.46z"/>
	<path d="M328.74,40.07h24.28v2.52h-8.5c-0.58,1.26-1.22,2.41-1.91,3.45V64.2h-2.82V49.73c-0.2,0.22-0.39,0.42-0.57,0.6
		c-2.35,2.52-5.39,4.8-9.11,6.86l-1.7-2.16c3.46-1.91,6.35-3.99,8.67-6.23c1.62-1.48,3.12-3.54,4.48-6.21h-12.82V40.07z
		 M346.02,47.79c2.77,2.37,5.1,4.71,7,7.03l-2.16,2.16c-1.57-2.24-3.84-4.67-6.81-7.27L346.02,47.79z"/>
	<path d="M357.37,45.93c1.64,0.66,3.14,1.45,4.51,2.38l-1.72,2.65c-1.4-1.17-2.83-2.1-4.29-2.79L357.37,45.93z M359.33,52.05
		l2.11,1.56c-0.98,4.07-2.11,7.59-3.39,10.58L356.08,62C357.12,59.69,358.2,56.37,359.33,52.05z M358.24,38.82
		c1.57,0.69,3,1.52,4.29,2.49l-1.75,2.65c-1.31-1.22-2.66-2.19-4.05-2.9L358.24,38.82z M381.56,41.88v2.41h-5.71
		c0.15,4.14,0.44,7.45,0.88,9.93c0.91-2.08,1.76-4.84,2.54-8.29l2.19,0.96c-1.15,4.7-2.32,8.15-3.53,10.34
		c-0.11,0.24-0.24,0.46-0.38,0.66c0.66,2.35,1.32,3.53,2,3.53c0.2,0,0.42-1.29,0.66-3.88l2.02,1.97c-0.67,3.13-1.59,4.7-2.73,4.7
		c-1.08,0-2.01-0.54-2.82-1.61c-0.4-0.46-0.76-1.08-1.07-1.89c-1.08,1.28-2.32,2.41-3.72,3.39l-1.48-2.19
		c1.73-1.22,3.17-2.62,4.32-4.18c-0.07-0.33-0.15-0.67-0.22-1.04c-0.62-2.66-1.02-6.79-1.2-12.39H365v6.78
		c0,2.02-0.15,4.17-0.44,6.43c-0.36,2.3-0.97,4.57-1.8,6.81l-2.19-1.97c0.77-1.79,1.29-3.66,1.59-5.63c0.22-2.02,0.33-3.9,0.33-5.63
		V41.9h10.77c-0.04-1.11-0.05-2.24-0.05-3.39h2.52c0,1.17,0.02,2.3,0.05,3.39h3.28c-0.49-0.78-1.11-1.63-1.86-2.54l1.7-1.07
		c1,1,1.79,1.86,2.35,2.57l-1.5,1.04h1.81V41.88z M365.76,51.29h7v8.09h-7V51.29z M365.81,46.64h6.89v2.3h-6.89V46.64z
		 M370.68,57.19v-3.72h-2.84v3.72H370.68z"/>
</g>
<g>
	<defs>
		<rect id="SVGID_4_" x="9.93" y="8.5" width="28.75" height="21"/>
	</defs>
	<clipPath id="SVGID_5_">
		<use xlink:href="#SVGID_4_"  style="overflow:visible;"/>
	</clipPath>
	<g style="clip-path:url(#SVGID_5_);">
		
			<use xlink:href="#New_Symbol_1"  width="28.76" height="21" x="-14.38" y="-10.5" transform="matrix(1 0 0 -1 24.305 19)" style="overflow:visible;"/>
	</g>
</g>
<g>
	<defs>
		<rect id="SVGID_6_" x="13.36" y="67.6" width="606.8" height="2"/>
	</defs>
	<clipPath id="SVGID_7_">
		<use xlink:href="#SVGID_6_"  style="overflow:visible;"/>
	</clipPath>
	<g style="clip-path:url(#SVGID_7_);">
		
			<use xlink:href="#New_Symbol_4"  width="606.8" height="2" x="-303.4" y="-1" transform="matrix(1 0 0 -1 316.7619 68.6047)" style="overflow:visible;"/>
	</g>
</g>
<g>
</g>
<g>
</g>
<g>
</g>
<g>
</g>
<g>
</g>
<g>
</g>
</svg>
