<?xml version="1.0" encoding="utf-8"?>
<!-- Generator: Adobe Illustrator 25.2.0, SVG Export Plug-In . SVG Version: 6.00 Build 0)  -->
<svg version="1.1" id="Layer_1" xmlns="http://www.w3.org/2000/svg" xmlns:xlink="http://www.w3.org/1999/xlink" x="0px" y="0px"
	 width="688.39px" height="40px" viewBox="0 0 688.39 40" style="enable-background:new 0 0 688.39 40;" xml:space="preserve">
<style type="text/css">
	.st0{enable-background:new    ;}
	.st1{fill:#FFFFFF;}
	.st2{fill:url(#SVGID_1_);}
	.st3{fill:url(#SVGID_2_);}
	.st4{fill:none;stroke:url(#SVGID_3_);stroke-width:2;stroke-miterlimit:10;stroke-dasharray:2,3,2,3,2,3;}
	.st5{fill:url(#SVGID_4_);}
	.st6{fill:url(#SVGID_5_);}
	.st7{fill:none;stroke:url(#SVGID_6_);stroke-width:2;stroke-miterlimit:10;stroke-dasharray:2,3,2,3,2,3;}
	.st8{fill:url(#SVGID_7_);}
	.st9{fill:url(#SVGID_8_);}
	.st10{fill:none;stroke:url(#SVGID_9_);stroke-width:2;stroke-miterlimit:10;stroke-dasharray:2,3,2,3,2,3;}
	.st11{fill:url(#SVGID_10_);}
	.st12{fill:url(#SVGID_11_);}
	.st13{fill:none;stroke:url(#SVGID_12_);stroke-width:2;stroke-miterlimit:10;stroke-dasharray:2,3,2,3,2,3;}
	.st14{fill:url(#SVGID_13_);}
	.st15{fill:url(#SVGID_14_);}
	.st16{fill:none;stroke:url(#SVGID_15_);stroke-width:2;stroke-miterlimit:10;stroke-dasharray:2,3,2,3,2,3;}
	.st17{fill:url(#SVGID_16_);}
	.st18{fill:url(#SVGID_17_);}
	.st19{fill:none;stroke:url(#SVGID_18_);stroke-width:2;stroke-miterlimit:10;stroke-dasharray:2,3,2,3,2,3;}
	.st20{fill:url(#SVGID_19_);}
	.st21{fill:url(#SVGID_20_);}
	.st22{fill:none;stroke:url(#SVGID_21_);stroke-width:2;stroke-miterlimit:10;stroke-dasharray:2,3,2,3,2,3;}
	.st23{fill:url(#SVGID_22_);}
	.st24{fill:url(#SVGID_23_);}
	.st25{fill:none;stroke:url(#SVGID_24_);stroke-width:2;stroke-miterlimit:10;stroke-dasharray:2,3,2,3,2,3;}
	.st26{fill:url(#SVGID_25_);}
	.st27{fill:url(#SVGID_26_);}
	.st28{fill:none;stroke:url(#SVGID_27_);stroke-width:2;stroke-miterlimit:10;stroke-dasharray:2,3,2,3,2,3;}
	.st29{fill:#ABABAB;}
	.st30{fill:url(#SVGID_28_);}
	.st31{fill:url(#SVGID_29_);}
	.st32{fill:none;stroke:url(#SVGID_30_);stroke-width:2;stroke-miterlimit:10;stroke-dasharray:2,3,2,3,2,3;}
	.st33{fill:url(#SVGID_31_);}
	.st34{fill:url(#SVGID_32_);}
	.st35{fill:none;stroke:url(#SVGID_33_);stroke-width:2;stroke-miterlimit:10;stroke-dasharray:2,3,2,3,2,3;}
	.st36{fill:url(#SVGID_34_);}
	.st37{fill:url(#SVGID_35_);}
	.st38{fill:none;stroke:url(#SVGID_36_);stroke-width:2;stroke-miterlimit:10;stroke-dasharray:2,3,2,3,2,3;}
	.st39{fill:url(#SVGID_37_);}
	.st40{fill:url(#SVGID_38_);}
	.st41{fill:none;stroke:url(#SVGID_39_);stroke-width:2;stroke-miterlimit:10;stroke-dasharray:2,3,2,3,2,3;}
	.st42{fill:url(#SVGID_40_);}
	.st43{fill:url(#SVGID_41_);}
	.st44{fill:none;stroke:url(#SVGID_42_);stroke-width:2;stroke-miterlimit:10;stroke-dasharray:2,3,2,3,2,3;}
	.st45{fill:url(#SVGID_43_);}
	.st46{fill:url(#SVGID_44_);}
	.st47{fill:none;stroke:url(#SVGID_45_);stroke-width:2;stroke-miterlimit:10;stroke-dasharray:2,3,2,3,2,3;}
</style>
<g class="st0">
	<path d="M59.02,4.78c1.73,1.08,3.19,2.14,4.38,3.2l-1.07,1.09h11.13v2.6H57.87v2.19c0,0.58-0.01,1.15-0.03,1.7h12.44
		c-0.05,7.78-0.71,12.23-1.97,13.34c-0.64,0.98-2.89,1.48-6.75,1.48l-0.57-2.84c0.88,0.15,1.59,0.22,2.16,0.22
		c1.37,0,2.39-0.32,3.06-0.96c0.64-0.64,1.05-3.54,1.23-8.72h-9.79c-0.24,1.97-0.65,3.68-1.23,5.14c-0.91,2.44-2.69,4.94-5.33,7.49
		l-2.35-2.05c2.41-1.97,4.11-4.09,5.11-6.37c0.86-1.84,1.29-4.65,1.29-8.42v-2.19H48.3v-2.6h12.09c-0.91-0.82-1.99-1.65-3.23-2.49
		L59.02,4.78z"/>
	<path d="M81.25,4.89l2.35,1.12c-0.6,2.06-1.23,3.83-1.89,5.3v19.06H79.2v-14.6c-0.69,1.06-1.45,2.1-2.27,3.12l-0.96-3.17
		c1.09-1.49,2.05-3.04,2.87-4.62C79.68,9.66,80.48,7.59,81.25,4.89z M84.07,5.93h16.52v2.3h-7.27v1.86h6.84v11.05h-6.89
		c-0.11,1.73-0.42,3.2-0.93,4.4c0.44,0.29,0.86,0.53,1.26,0.71c1.68,0.89,4.41,1.5,8.2,1.83l-0.63,2.52
		c-3.68-0.38-6.48-1.08-8.39-2.08c-0.57-0.27-1.12-0.59-1.67-0.96c-1.4,1.6-3.9,2.62-7.49,3.04l-1.18-2.52
		c3.17-0.18,5.35-0.87,6.54-2.05c-1.29-1.08-2.56-2.36-3.8-3.86l1.5-1.04h-2.27V10.08h6.4V8.23h-6.73V5.93z M86.8,14.46h3.99v-2.3
		H86.8V14.46z M90.79,19.05v-2.52H86.8v2.52H90.79z M87.35,21.13c0.98,1.09,1.92,2.02,2.82,2.79c0.27-0.8,0.46-1.73,0.57-2.79H87.35
		z M93.31,12.16v2.3h4.43v-2.3H93.31z M97.74,19.05v-2.52h-4.43v2.52H97.74z"/>
	<path d="M104.08,10.03h2.73V4.89h2.41v5.14h2.38v2.19h-2.38v5.41c0.71-0.46,1.4-0.93,2.08-1.42l-0.88-1.09
		c1.7-1.53,2.97-3.23,3.83-5.09l2.08,0.46c-0.2,0.37-0.38,0.72-0.55,1.07h4.38c-0.27-0.42-0.57-0.81-0.88-1.18l2.35-0.36
		c0.31,0.47,0.6,0.98,0.88,1.53h6.4v1.53h-6.29v1.2h5.63v1.31h-5.63v1.31h5.74v1.31h-5.74v1.26h6.54v1.64h-16.38v-5.11
		c-0.27,0.33-0.56,0.63-0.85,0.9l-0.41-0.46v2.24c-0.77,0.55-1.53,1.05-2.3,1.5v7.55c0,0.97-0.2,1.64-0.6,2.02
		c-0.38,0.4-1.08,0.6-2.11,0.6h-1.42l-0.57-2.62c0.53,0.13,0.95,0.19,1.26,0.19c0.69,0,1.04-0.21,1.04-0.63v-5.85
		c-0.75,0.35-1.5,0.66-2.24,0.93l-0.38-2.73c0.86-0.16,1.73-0.43,2.62-0.79v-6.64h-2.73V10.03z M126.23,7.9V5.76h2.52v3.99h-16.3
		V5.76h2.52V7.9h4.38V5.11h2.52V7.9H126.23z M124.64,30.59l-0.44-1.86l1.7,0.08c0.51-0.02,0.77-0.29,0.77-0.82v-1.29h-2.57
		c-0.13,0-0.24,0-0.33,0v2.57h-6.34v-2.41c-0.42,0.31-0.88,0.6-1.39,0.88l-0.96-1.18v3.8h-2.3v-8.26h16.19v6.43
		c0,0.69-0.21,1.21-0.63,1.56c-0.35,0.33-0.85,0.49-1.5,0.49H124.64z M120.1,14.3v-1.2h-5.03v1.2H120.1z M120.1,16.92v-1.31h-5.03
		v1.31H120.1z M120.1,19.49v-1.26h-5.03v1.26H120.1z M115.07,26.05c0.75-0.33,1.33-0.7,1.75-1.12c0.29-0.31,0.53-0.7,0.71-1.18
		h-2.46V26.05z M118.82,25.34h2.98c0-0.04,0-0.06,0-0.08v-1.5h-2.35C119.28,24.4,119.07,24.92,118.82,25.34z M122.02,27.97v-1.31
		h-2.84v1.31H122.02z M123.77,23.76v0.96c0,0.38,0.26,0.57,0.79,0.57h2.11v-1.53H123.77z"/>
	<path d="M157.4,15.23v6.4h-2.52v-4.1h-8.91v2.68h8.37v5.88c0,0.86-0.23,1.5-0.68,1.94c-0.38,0.4-0.94,0.6-1.67,0.6h-3.2l-0.52-2.3
		l2.71,0.11c0.56-0.04,0.85-0.37,0.85-1.01v-3.04h-5.85v8.31h-2.62v-8.31h-5.41v6.12h-2.52V20.2h7.93v-2.68h-8.48v3.99h-2.52v-6.29
		H157.4z M132.85,7.68h3.45V5h2.52v2.68h2.08V5h2.52v2.68h2.73V5h2.52v2.68h2.08V5h2.52v2.68h3.91v2.3h-3.91v0.93
		c0,0.58,0.34,0.88,1.01,0.88h2.65v2.19h-3.25c-0.91,0-1.62-0.17-2.13-0.52c-0.53-0.35-0.79-0.92-0.79-1.72V9.98h-2.08v3.99h-7.77
		V9.98h-2.24c-0.18,1-0.48,1.84-0.9,2.52c-0.62,0.98-1.63,1.73-3.04,2.24l-1.42-2.24c1.17-0.42,1.95-0.95,2.35-1.59
		c0.18-0.29,0.31-0.6,0.38-0.93h-3.17V7.68z M143.4,9.98v1.8h2.73v-1.8H143.4z"/>
	<path d="M174.65,13.97h-3.5v-3.5h3.5V13.97z M174.65,25.18h-3.5v-3.47h3.5V25.18z"/>
	<path d="M212.31,13.09h-8.09v3.01h9.02v2.3h-9.02v2.84h7.82v9.35h-2.62v-1.26h-12.58v1.26h-2.62v-9.35h7.49V18.4h-8.75
		c-0.09,1.37-0.24,2.77-0.44,4.21c-0.47,2.7-1.26,5.36-2.35,7.98l-2.19-1.97c1.04-2.15,1.75-4.41,2.13-6.78
		c0.29-2.42,0.44-4.68,0.44-6.78V5.87h21.77V13.09z M201.7,16.1v-3.01h-8.64v1.97c0,0.33-0.01,0.67-0.03,1.04H201.7z M209.79,8.28
		h-16.73v2.41h16.73V8.28z M196.83,27.04h12.58v-3.5h-12.58V27.04z"/>
	<path d="M220.15,11.18h17.45v2.3h-5.82c-0.71,0.6-1.46,1.14-2.24,1.61c0.98,1.2,1.7,2.42,2.13,3.66c2.06-0.91,4-2.25,5.82-4.02
		l2,1.97c-1.15,1.04-2.38,1.94-3.69,2.71c0.62,1.46,1.37,2.8,2.24,4.02c0.88,1.17,2.09,2.42,3.64,3.77l-1.83,2.3
		c-1.75-1.64-3.15-3.3-4.21-4.98c-0.77-1.17-1.44-2.5-2.02-3.99c-0.4,0.2-0.81,0.37-1.23,0.52c0.25,1.19,0.38,2.36,0.38,3.53
		c0,2.13-0.33,3.65-0.98,4.57c-0.64,0.97-2.62,1.45-5.93,1.45l-0.9-2.71c0.09,0.09,0.6,0.14,1.53,0.14c1.51,0,2.45-0.18,2.82-0.55
		c0.49-0.53,0.74-1.49,0.74-2.9c0-0.4-0.03-0.8-0.08-1.2c-1.57,1.24-3,2.17-4.29,2.79c-2.04,1.08-4.61,2.11-7.71,3.12l-1.42-2.43
		c3.06-0.82,5.72-1.79,7.98-2.9c1.88-0.93,3.52-2.02,4.92-3.28c-0.05-0.2-0.11-0.41-0.16-0.63c-0.07-0.25-0.16-0.51-0.25-0.77
		c-1.53,1.09-2.9,1.91-4.1,2.43c-1.8,0.84-4.07,1.65-6.81,2.43l-1.37-2.32c2.7-0.62,5.05-1.37,7.05-2.24
		c1.57-0.67,2.95-1.47,4.16-2.38c-0.2-0.35-0.41-0.67-0.63-0.98c-2.44,1.06-5.27,1.95-8.48,2.68l-1.45-2.35
		c3.48-0.66,6.21-1.34,8.18-2.05c0.88-0.31,1.69-0.65,2.43-1.01h-7.85V11.18z M229.15,4.89c0.35,0.64,0.67,1.33,0.98,2.08h10.83
		v5.69h-2.52V9.37h-19.14v3.28h-2.52V6.97h10.36c-0.31-0.56-0.65-1.1-1.01-1.61L229.15,4.89z"/>
	<path d="M256.47,20.89c0,2.13-0.51,3.94-1.53,5.41c-1.17,1.73-2.84,2.6-5.03,2.6s-3.87-0.88-5.06-2.62
		c-1.04-1.48-1.56-3.27-1.56-5.39c0-2.15,0.52-3.96,1.56-5.44c1.18-1.71,2.87-2.57,5.06-2.57s3.86,0.86,5.03,2.57
		C255.96,16.9,256.47,18.72,256.47,20.89z M253.92,20.89c0-1.51-0.3-2.8-0.9-3.86c-0.73-1.22-1.77-1.83-3.12-1.83
		c-1.35,0-2.4,0.61-3.14,1.83c-0.62,1.08-0.93,2.36-0.93,3.86c0,1.5,0.31,2.76,0.93,3.8c0.75,1.26,1.79,1.89,3.14,1.89
		c1.35,0,2.39-0.63,3.12-1.89C253.62,23.65,253.92,22.38,253.92,20.89z"/>
	<path d="M267.49,15.42c-0.71-0.15-1.19-0.22-1.42-0.22c-1.99,0-2.98,1.27-2.98,3.8v9.49h-2.52V16.92c0-0.88-0.1-2.1-0.3-3.66h2.54
		l0.08,1.09c0.66-0.98,1.5-1.48,2.54-1.48c0.42,0,1.1,0.07,2.05,0.22V15.42z"/>
	<path d="M275.69,11.83h18.59v2.3h-3.2c2.04,1.86,3.76,3.68,5.17,5.47l-1.8,1.8c-0.46-0.71-1-1.44-1.64-2.19
		c-1.84,0.2-4.08,0.4-6.73,0.6v2.57h10.06v2.41h-10.06v2.46h11.27v2.3h-24.94v-2.3h11.05V24.8h-9.73v-2.41h9.73v-2.43
		c-2.64,0.13-5.61,0.25-8.89,0.36l-0.74-2.52c1.29,0,2.54-0.01,3.75-0.03c1.2-1.13,2.19-2.34,2.95-3.64h-4.84V11.83z M285.7,4.89
		c0.33,0.77,0.63,1.6,0.9,2.52h10.75v5.69h-2.62V9.81h-19.58v3.28h-2.62V7.4h11.27c-0.29-0.75-0.62-1.44-0.98-2.08L285.7,4.89z
		 M290.98,17.25c-0.58-0.6-1.19-1.2-1.83-1.8l1.37-1.31h-7.03c-0.58,1.15-1.42,2.34-2.52,3.58C285,17.64,288.33,17.49,290.98,17.25z
		"/>
	<path d="M304.78,5.11l2.73,0.33c-0.18,0.95-0.39,1.82-0.63,2.62h6.73v2.46c-0.35,3.32-0.9,6.18-1.67,8.59
		c-0.71,2.12-1.7,4-2.95,5.66c-1.35,1.84-3.46,3.75-6.32,5.71l-2.16-2.3c3.28-2.04,5.67-4.21,7.16-6.51
		c-1.04-1.55-2.37-3.19-3.99-4.92l1.86-1.8c1.33,1.33,2.52,2.66,3.55,3.99c0.82-2.17,1.4-4.99,1.75-8.48h-4.76
		c-0.29,0.78-0.6,1.51-0.93,2.19c-0.97,2.08-2.21,3.97-3.72,5.69l-1.7-2.16c1.26-1.55,2.31-3.24,3.17-5.06
		C303.6,9.77,304.22,7.77,304.78,5.11z M315.94,4.89h2.62v8.94c2.39,1.35,4.79,2.89,7.22,4.62l-1.61,2.41
		c-2.28-1.86-4.15-3.25-5.61-4.18v13.92h-2.62V4.89z"/>
	<path d="M342.19,11.89h2.79V5.11h2.52v6.78h2.79v2.41h-2.79v7.27c0.95-0.42,1.88-0.89,2.79-1.42v1.2c0.77-0.49,1.45-1,2.05-1.53
		c0.55-0.47,1.05-1.09,1.5-1.86h-3.77v-2.08h17.72v2.08H356.6c-0.26,0.55-0.54,1.04-0.85,1.48h11.05c-0.05,5.82-0.57,9.13-1.53,9.95
		c-0.49,0.73-2.24,1.09-5.25,1.09l-0.55-2.62c0.82,0.15,1.49,0.22,2,0.22c0.86,0,1.5-0.21,1.94-0.63c0.4-0.42,0.66-2.36,0.77-5.82
		h-0.77c-0.84,1.88-1.75,3.35-2.73,4.43c-1.19,1.49-3.2,3.08-6.04,4.76l-1.72-2.13c2.46-1.22,4.28-2.43,5.47-3.64
		c0.97-0.91,1.78-2.05,2.43-3.42h-1.8c-0.82,1.31-1.83,2.44-3.04,3.39c-1.44,1.2-3.29,2.3-5.55,3.28l-1.56-2
		c2.02-0.8,3.72-1.68,5.09-2.62c0.77-0.51,1.49-1.19,2.19-2.05h-2.24c-0.98,0.98-2.18,1.86-3.58,2.62l-0.9-1.12
		c-1.99,1.08-4.28,2.14-6.86,3.2l-0.68-2.84c1.06-0.24,2.1-0.54,3.12-0.9V14.3h-2.79V11.89z M351.43,5.6h14.66v8.97h-14.66V5.6z
		 M353.95,9.21h9.62V7.68h-9.62V9.21z M363.57,12.49v-1.42h-9.62v1.42H363.57z"/>
	<path d="M370.3,12.22h2.9v-7h2.73v7h2.9v2.62h-2.9v8.42c0.95-0.38,1.91-0.83,2.9-1.34v2.9c-2.42,1.22-5.13,2.2-8.12,2.93
		l-0.41-2.95c0.93-0.11,1.9-0.31,2.9-0.6v-9.35h-2.9V12.22z M395.07,9.35l-0.11,9.46c-0.04,1.22-0.26,2.15-0.68,2.79
		c-0.42,0.6-1.63,0.9-3.64,0.9l-1.09-2.62h1.56c0.56,0,0.91-0.12,1.04-0.36c0.11-0.2,0.17-0.7,0.19-1.5v-4.98l-3.5,1.34V24.8h-2.52
		v-9.43l-3.01,1.15v9.82c0,0.66,0.35,0.98,1.04,0.98h7.25c0.56,0,0.97-0.12,1.23-0.36c0.31-0.24,0.52-1.32,0.63-3.25l2.54,0.82
		c-0.26,2.61-0.67,4.14-1.26,4.59c-0.51,0.47-1.44,0.71-2.79,0.71h-8.61c-0.8,0-1.44-0.24-1.91-0.71c-0.49-0.49-0.74-1.15-0.74-1.97
		v-9.62l-2.19,0.82v-2.62l2.19-0.82V7.95h2.62v5.93l3.01-1.15V5.22h2.52v6.54L395.07,9.35z"/>
	<path d="M398.74,6.48h24.28v2.52h-8.5c-0.58,1.26-1.22,2.41-1.91,3.45v18.16h-2.82V16.13c-0.2,0.22-0.39,0.42-0.57,0.6
		c-2.35,2.52-5.39,4.8-9.11,6.86l-1.7-2.16c3.46-1.91,6.35-3.99,8.67-6.23c1.62-1.48,3.12-3.54,4.48-6.21h-12.82V6.48z
		 M416.02,14.19c2.77,2.37,5.1,4.71,7,7.03l-2.16,2.16c-1.57-2.24-3.84-4.67-6.81-7.27L416.02,14.19z"/>
	<path d="M426.96,5.98h8.75v2.02c-0.62,2.1-1.34,4.32-2.16,6.67c0.75,1.29,1.28,2.45,1.59,3.47c0.38,1.06,0.57,1.96,0.57,2.71
		c-0.04,1.48-0.33,2.53-0.88,3.14c-0.62,0.75-1.96,1.12-4.02,1.12l-0.79-2.71c0.49,0.13,0.95,0.19,1.37,0.19
		c0.56,0,0.97-0.13,1.23-0.38c0.31-0.22,0.46-0.67,0.46-1.37c0-0.84-0.14-1.62-0.41-2.35c-0.31-0.97-0.89-2.11-1.75-3.45
		c1.04-2.62,1.76-4.85,2.16-6.67h-3.5v22.2h-2.62V5.98z M449.54,5.82v12.14h-5.28c0.33,1.42,0.75,2.65,1.26,3.69
		c1.28-0.71,2.48-1.7,3.61-2.98l2.02,1.97c-1.29,1.33-2.74,2.37-4.35,3.12c1.38,1.79,3.15,3.26,5.3,4.43l-1.48,2.41
		c-2.73-1.71-4.78-3.64-6.12-5.77c-1.31-1.9-2.23-4.18-2.76-6.86h-2.71v8.91c1.51-0.4,3.06-0.92,4.65-1.56v2.68
		c-2.7,1.04-5.71,1.87-9.02,2.49l-0.38-2.73c0.75-0.09,1.49-0.2,2.24-0.33V5.82H449.54z M439.04,10.63h7.98V8.12h-7.98V10.63z
		 M439.04,15.66h7.98v-2.73h-7.98V15.66z"/>
</g>
<g>
	<g>
		<g id="XMLID_16_">
			<g>
				<linearGradient id="SVGID_1_" gradientUnits="userSpaceOnUse" x1="-8.9433" y1="7.2509" x2="42.7225" y2="27.9173">
					<stop  offset="5.618000e-03" style="stop-color:#FF2727"/>
					<stop  offset="0.3525" style="stop-color:#FFFF00"/>
					<stop  offset="0.3814" style="stop-color:#F8EE10"/>
					<stop  offset="0.4388" style="stop-color:#E6C13A"/>
					<stop  offset="0.5185" style="stop-color:#C9797D"/>
					<stop  offset="0.5955" style="stop-color:#AA2EC3"/>
					<stop  offset="0.7367" style="stop-color:#4F66C6"/>
					<stop  offset="0.8536" style="stop-color:#0097C9"/>
					<stop  offset="1" style="stop-color:#FFFF00"/>
				</linearGradient>
				<polygon class="st2" points="30.93,19 20.43,29.5 9.93,19 20.43,8.5 				"/>
				<linearGradient id="SVGID_2_" gradientUnits="userSpaceOnUse" x1="-7.8742" y1="4.5781" x2="43.7917" y2="25.2444">
					<stop  offset="5.618000e-03" style="stop-color:#FF2727"/>
					<stop  offset="0.2129" style="stop-color:#FFFF00"/>
					<stop  offset="0.2584" style="stop-color:#F8EE10"/>
					<stop  offset="0.3488" style="stop-color:#E6C13A"/>
					<stop  offset="0.4743" style="stop-color:#C9797D"/>
					<stop  offset="0.5955" style="stop-color:#AA2EC3"/>
					<stop  offset="0.78" style="stop-color:#4F66C6"/>
					<stop  offset="0.9327" style="stop-color:#0097C9"/>
					<stop  offset="1" style="stop-color:#FFFF00"/>
				</linearGradient>
				<polygon class="st3" points="28.18,8.5 26.02,10.66 34.36,19 26.02,27.34 28.18,29.5 38.68,19 				"/>
			</g>
		</g>
	</g>
</g>
<g>
	<g>
		<linearGradient id="SVGID_3_" gradientUnits="userSpaceOnUse" x1="13.3622" y1="36.6047" x2="620.1619" y2="36.6047">
			<stop  offset="0" style="stop-color:#00B987"/>
			<stop  offset="1" style="stop-color:#FFFFFF"/>
		</linearGradient>
		<line class="st4" x1="13.36" y1="36.6" x2="620.16" y2="36.6"/>
	</g>
</g>
</svg>
