<?xml version="1.0" encoding="utf-8"?>
<!-- Generator: Adobe Illustrator 25.2.0, SVG Export Plug-In . SVG Version: 6.00 Build 0)  -->
<svg version="1.1" id="Layer_1" xmlns="http://www.w3.org/2000/svg" xmlns:xlink="http://www.w3.org/1999/xlink" x="0px" y="0px"
	 width="688.39px" height="40px" viewBox="0 0 688.39 40" style="enable-background:new 0 0 688.39 40;" xml:space="preserve">
<style type="text/css">
	.st0{enable-background:new    ;}
	.st1{fill:#FFFFFF;}
	.st2{fill:url(#SVGID_1_);}
	.st3{fill:url(#SVGID_2_);}
	.st4{fill:none;stroke:url(#SVGID_3_);stroke-width:2;stroke-miterlimit:10;stroke-dasharray:2,3,2,3,2,3;}
	.st5{fill:url(#SVGID_4_);}
	.st6{fill:url(#SVGID_5_);}
	.st7{fill:none;stroke:url(#SVGID_6_);stroke-width:2;stroke-miterlimit:10;stroke-dasharray:2,3,2,3,2,3;}
	.st8{fill:url(#SVGID_7_);}
	.st9{fill:url(#SVGID_8_);}
	.st10{fill:none;stroke:url(#SVGID_9_);stroke-width:2;stroke-miterlimit:10;stroke-dasharray:2,3,2,3,2,3;}
	.st11{fill:url(#SVGID_10_);}
	.st12{fill:url(#SVGID_11_);}
	.st13{fill:none;stroke:url(#SVGID_12_);stroke-width:2;stroke-miterlimit:10;stroke-dasharray:2,3,2,3,2,3;}
	.st14{fill:url(#SVGID_13_);}
	.st15{fill:url(#SVGID_14_);}
	.st16{fill:none;stroke:url(#SVGID_15_);stroke-width:2;stroke-miterlimit:10;stroke-dasharray:2,3,2,3,2,3;}
	.st17{fill:url(#SVGID_16_);}
	.st18{fill:url(#SVGID_17_);}
	.st19{fill:none;stroke:url(#SVGID_18_);stroke-width:2;stroke-miterlimit:10;stroke-dasharray:2,3,2,3,2,3;}
	.st20{fill:url(#SVGID_19_);}
	.st21{fill:url(#SVGID_20_);}
	.st22{fill:none;stroke:url(#SVGID_21_);stroke-width:2;stroke-miterlimit:10;stroke-dasharray:2,3,2,3,2,3;}
	.st23{fill:url(#SVGID_22_);}
	.st24{fill:url(#SVGID_23_);}
	.st25{fill:none;stroke:url(#SVGID_24_);stroke-width:2;stroke-miterlimit:10;stroke-dasharray:2,3,2,3,2,3;}
	.st26{fill:url(#SVGID_25_);}
	.st27{fill:url(#SVGID_26_);}
	.st28{fill:none;stroke:url(#SVGID_27_);stroke-width:2;stroke-miterlimit:10;stroke-dasharray:2,3,2,3,2,3;}
	.st29{fill:#ABABAB;}
	.st30{fill:url(#SVGID_28_);}
	.st31{fill:url(#SVGID_29_);}
	.st32{fill:none;stroke:url(#SVGID_30_);stroke-width:2;stroke-miterlimit:10;stroke-dasharray:2,3,2,3,2,3;}
	.st33{fill:url(#SVGID_31_);}
	.st34{fill:url(#SVGID_32_);}
	.st35{fill:none;stroke:url(#SVGID_33_);stroke-width:2;stroke-miterlimit:10;stroke-dasharray:2,3,2,3,2,3;}
	.st36{fill:url(#SVGID_34_);}
	.st37{fill:url(#SVGID_35_);}
	.st38{fill:none;stroke:url(#SVGID_36_);stroke-width:2;stroke-miterlimit:10;stroke-dasharray:2,3,2,3,2,3;}
	.st39{fill:url(#SVGID_37_);}
	.st40{fill:url(#SVGID_38_);}
	.st41{fill:none;stroke:url(#SVGID_39_);stroke-width:2;stroke-miterlimit:10;stroke-dasharray:2,3,2,3,2,3;}
	.st42{fill:url(#SVGID_40_);}
	.st43{fill:url(#SVGID_41_);}
	.st44{fill:none;stroke:url(#SVGID_42_);stroke-width:2;stroke-miterlimit:10;stroke-dasharray:2,3,2,3,2,3;}
	.st45{fill:url(#SVGID_43_);}
	.st46{fill:url(#SVGID_44_);}
	.st47{fill:none;stroke:url(#SVGID_45_);stroke-width:2;stroke-miterlimit:10;stroke-dasharray:2,3,2,3,2,3;}
</style>
<g class="st0">
	<path d="M53.71,12.22l2.13,0.98c-0.77,1.62-1.55,2.98-2.35,4.07v13.1h-2.52V19.98c-0.69,0.66-1.45,1.31-2.27,1.97l-0.85-2.84
		c1.2-0.95,2.26-1.92,3.17-2.93C51.96,15.25,52.86,13.93,53.71,12.22z M54.12,4.89l2.16,1.37c-0.97,1.4-1.9,2.49-2.79,3.25
		c-1.02,0.97-2.35,1.91-3.99,2.82L48.08,10c1.22-0.51,2.39-1.25,3.5-2.21C52.44,7.04,53.28,6.07,54.12,4.89z M63.04,4.89l2.43,0.93
		c-1.31,1.77-2.64,3.25-3.99,4.46c2.17-0.11,3.94-0.27,5.3-0.49c0.88-0.8,1.64-1.59,2.3-2.38l2.3,1.39
		c-1.79,1.82-4.56,4.05-8.31,6.67c2.68-0.11,4.95-0.3,6.81-0.57c-0.36-0.66-0.74-1.32-1.12-2l1.78-1.12
		c1.44,2.19,2.56,4.07,3.36,5.66l-2.08,1.45c-0.27-0.66-0.58-1.34-0.93-2.05c-1.95,0.31-4.4,0.57-7.36,0.79
		c-0.42,0.78-0.81,1.46-1.18,2.02h9.21v2.13c-1.18,1.84-2.52,3.33-3.99,4.46c1.68,0.8,3.75,1.5,6.21,2.11l-1.5,2.24
		c-3.01-0.88-5.38-1.82-7.11-2.84c-2.13,1.08-5.04,2.02-8.72,2.84l-0.93-2.3c3.03-0.46,5.54-1.14,7.55-2.05
		c-1.29-1-2.42-2.14-3.36-3.42c-0.73,0.67-1.59,1.37-2.6,2.08l-2.02-1.78c1.66-1.08,2.98-2.13,3.96-3.17
		c0.57-0.64,1.08-1.35,1.56-2.13c-1.26,0.07-2.57,0.14-3.94,0.19l-0.71-2.41c1.09,0,2.12-0.01,3.09-0.03
		c1.86-1.15,3.51-2.29,4.95-3.42c-1.84,0.18-4,0.35-6.48,0.49l-0.68-2.3h1.86C60.11,8.97,61.56,7.15,63.04,4.89z M61.97,21.84
		c0.98,1.26,2.13,2.3,3.45,3.12c1.15-0.73,2.19-1.77,3.12-3.12H61.97z"/>
	<path d="M91.45,4.89c0.31,0.64,0.59,1.35,0.85,2.13h9.16v2.3H82.81v8.04c0,2.02-0.25,4.17-0.77,6.43c-0.66,2.3-1.73,4.57-3.23,6.81
		l-2.21-1.97c1.5-1.79,2.52-3.66,3.06-5.63c0.24-1.17,0.41-2.27,0.52-3.31c-1.09,0.75-2.29,1.43-3.58,2.05l-0.74-2.52
		c1.62-0.67,3.1-1.43,4.43-2.27V7.02h9.27c-0.27-0.6-0.57-1.18-0.9-1.72L91.45,4.89z M78.16,9.15c0.77,1.46,1.43,3.01,2,4.65
		l-2.3,1.04c-0.57-1.86-1.19-3.51-1.89-4.95L78.16,9.15z M84.39,19H98.5v2.08c-1.13,2.39-2.43,4.2-3.91,5.44
		c1.88,0.66,4.24,1.23,7.08,1.72l-1.5,2.24c-3.46-0.75-6.14-1.53-8.04-2.35c-2.15,1-5.1,1.79-8.86,2.35l-1.72-2.38
		c3.26-0.33,5.85-0.81,7.77-1.45c-1.7-1.08-3.12-2.27-4.27-3.58l2.11-1.23c1.26,1.42,2.85,2.62,4.79,3.58
		c0.05-0.02,0.1-0.05,0.14-0.11c1.48-0.91,2.67-2.29,3.58-4.13H84.39V19z M96.92,10.79v3.75c0,0.62,0.31,0.93,0.93,0.93h3.17v2.32
		h-3.75c-0.97,0-1.68-0.21-2.13-0.63c-0.49-0.42-0.74-1.14-0.74-2.16v-2.02h-5.63c-0.05,1.4-0.24,2.42-0.55,3.04
		c-0.35,0.82-1.29,1.78-2.82,2.87l-1.89-1.64c1.31-0.97,2.14-1.74,2.49-2.32c0.24-0.53,0.36-1.9,0.36-4.13H96.92z"/>
	<path d="M104.85,10.9l2.08,0.14c-0.07,2.83-0.44,5.51-1.09,8.07l-2.08-0.57C104.48,15.95,104.85,13.4,104.85,10.9z M107.53,5.22
		h2.52V10l1.56-0.52c0.53,1.31,0.99,2.79,1.39,4.43h6.4v-1.59h-5.8v-1.97h5.8V8.88h-6.89V6.8h6.89V4.89h2.62V6.8h7.33v2.08h-7.33
		v1.48h6.56v1.97h-6.56v1.59h7.66v2.08h-17.39v-1.23l-1.15,0.3c-0.29-1.42-0.66-2.8-1.09-4.13v19.44h-2.52V5.22z M123.38,30.37
		l-0.49-2.19l2.08,0.08c0.58-0.04,0.88-0.37,0.88-0.98v-0.79H116v3.99h-2.62V17.52h15.09v10.42c0,0.82-0.24,1.44-0.71,1.86
		c-0.4,0.38-0.98,0.57-1.72,0.57H123.38z M116,21.02h9.84v-1.64H116V21.02z M116,24.63h9.84v-1.75H116V24.63z"/>
	<path d="M141.05,6.86v21h-2.41v-2.08h-3.5v2.73h-2.41V6.86H141.05z M135.14,15.17h3.5V9.26h-3.5V15.17z M135.14,23.37h3.5v-5.8
		h-3.5V23.37z M142.36,7.62h5.91V5h2.41v2.62h6.12v2.41h-6.12v2.79h7v2.52h-2.79v3.01h3.01v2.41h-3.01v6.67c0,1-0.21,1.7-0.63,2.11
		c-0.4,0.42-1.13,0.63-2.19,0.63h-3.42l-0.6-2.73c1.33,0.13,2.42,0.19,3.28,0.19c0.69,0,1.04-0.22,1.04-0.66v-6.21H141.6v-2.41
		h10.77v-3.01h-10.55v-2.52h6.45v-2.79h-5.91V7.62z M145.18,21.51c1.79,1.57,3.18,2.92,4.18,4.05l-2.52,1.75
		c-0.91-1.28-2.19-2.75-3.83-4.43L145.18,21.51z"/>
	<path d="M165.55,5.11l2.3,1.07c-0.62,2.06-1.26,3.84-1.91,5.33v18.87h-2.52V15.99c-0.75,1.13-1.55,2.24-2.41,3.34l-0.93-3.06
		c1.13-1.53,2.11-3.12,2.95-4.76C163.91,10.03,164.75,7.9,165.55,5.11z M184.53,11.72l0.38,2.52l-9.19,0.96
		c0.18,1.79,0.39,3.17,0.63,4.16c0.67,2.57,1.56,4.53,2.65,5.88c1.2,1.53,2.22,2.3,3.06,2.3c0.25,0,0.43-0.12,0.52-0.36
		c0.18-0.29,0.37-1.78,0.57-4.46l2.73,1.61c-0.38,2.59-0.84,4.3-1.37,5.14c-0.51,0.67-1.26,1.01-2.24,1.01
		c-1.5,0-3.13-0.99-4.89-2.98c-1.53-1.73-2.73-4.22-3.61-7.46c-0.33-1.15-0.59-2.67-0.79-4.57l-5.85,0.63l-0.38-2.52l6.02-0.63
		c-0.18-2.26-0.31-4.91-0.38-7.96h2.73c0.11,2.97,0.24,5.53,0.38,7.68L184.53,11.72z M179.52,5.98c1.55,1.44,2.76,2.67,3.64,3.69
		l-2.41,1.67c-0.78-1.18-1.88-2.53-3.28-4.05L179.52,5.98z"/>
	<path d="M193.85,5l2.54,0.36c-0.31,1.44-0.76,2.76-1.34,3.96h3.96v5.88c0.82-1.37,1.45-2.71,1.89-4.02
		c0.57-1.57,1.02-3.66,1.37-6.29l2.76,0.46c-0.25,1.46-0.5,2.74-0.74,3.86h8.61c0,9.86-0.16,15.71-0.46,17.53
		c-0.24,1.44-0.69,2.37-1.37,2.79c-0.78,0.56-2.22,0.85-4.32,0.85c-0.6,0-1.3-0.04-2.11-0.11l-0.49-2.73
		c0.86,0.11,1.73,0.16,2.62,0.16c1.71,0,2.67-0.57,2.87-1.72c0.35-1.46,0.56-6.21,0.63-14.25h-6.67c-0.05,0.2-0.11,0.38-0.16,0.55
		c-0.6,2.01-1.64,4.14-3.12,6.4l-1.31-1.61v11.46h-2.41v-1.37h-5.14v2.13h-2.41V9.32h3.47C193.14,7.95,193.58,6.51,193.85,5z
		 M191.47,17.14h5.14v-5.52h-5.14V17.14z M191.47,24.85h5.14v-5.52h-5.14V24.85z M204.54,15.5c1.57,2.55,2.79,4.75,3.66,6.59
		l-2.62,1.83c-0.78-2.04-1.88-4.38-3.28-7L204.54,15.5z"/>
	<path d="M215.97,15.17h25.7v2.19h-12.74v13.45h-2.52v-2.76c-2.88,0.35-6.17,0.68-9.87,1.01l-0.57-2.41
		c0.8-0.04,1.59-0.08,2.35-0.14v-9.16h-2.35V15.17z M218.98,5.52h20.02v8.56h-20.02V5.52z M220.84,19.05h5.58v-1.7h-5.58V19.05z
		 M220.84,22.55h5.58v-1.64h-5.58V22.55z M220.84,26.38c1.91-0.13,3.77-0.29,5.58-0.49v-1.48h-5.58V26.38z M221.71,8.88h14.55V7.51
		h-14.55V8.88z M236.26,12.11v-1.59h-14.55v1.59H236.26z M229.86,18.72h10.83v1.78c-0.62,2.46-1.7,4.57-3.25,6.32
		c1.2,0.69,2.65,1.29,4.35,1.78l-1.37,2c-2-0.71-3.61-1.47-4.81-2.27c-1.31,0.86-2.98,1.61-5,2.27l-1.39-2.13
		c1.77-0.53,3.24-1.11,4.4-1.75c-1.26-1.24-2.29-2.64-3.09-4.21l1.86-1.09c0.82,1.62,1.85,2.96,3.09,4.02
		c0.18-0.18,0.34-0.34,0.46-0.46c1.02-1.11,1.79-2.5,2.3-4.16h-8.37V18.72z"/>
	<path d="M249.58,4.89l2.38,1.12c-0.73,2.33-1.48,4.29-2.24,5.88v18.48h-2.52v-14.3c-0.67,0.93-1.39,1.87-2.16,2.82l-0.96-3.17
		c1.13-1.49,2.12-3.04,2.98-4.62C247.94,9.66,248.77,7.59,249.58,4.89z M251.96,20.58h7.11v-3.55h2.62v3.55h6.12v2.3h-6.12v4.32
		h7.77v2.41h-18.7V27.2h8.31v-4.32h-7.11V20.58z M252.28,8.22h6.67V5.22h2.62v3.01h6.23v2.3h-6.23v3.77h7.88v2.41h-18.48v-2.41h7.98
		v-3.77h-6.67V8.22z"/>
	<path d="M275.69,11.83h18.59v2.3h-3.2c2.04,1.86,3.76,3.68,5.17,5.47l-1.8,1.8c-0.46-0.71-1-1.44-1.64-2.19
		c-1.84,0.2-4.08,0.4-6.73,0.6v2.57h10.06v2.41h-10.06v2.46h11.27v2.3h-24.94v-2.3h11.05v-2.46h-9.73v-2.41h9.73v-2.43
		c-2.64,0.13-5.61,0.25-8.89,0.36l-0.74-2.52c1.29,0,2.54-0.01,3.75-0.03c1.2-1.13,2.19-2.34,2.95-3.64h-4.84V11.83z M285.7,4.89
		c0.33,0.77,0.63,1.6,0.9,2.52h10.75v5.69h-2.62V9.81h-19.58v3.28h-2.62V7.4h11.27c-0.29-0.75-0.62-1.44-0.98-2.08L285.7,4.89z
		 M290.97,17.25c-0.58-0.6-1.19-1.2-1.83-1.8l1.37-1.31h-7.03c-0.58,1.15-1.42,2.34-2.52,3.58C285,17.64,288.33,17.49,290.97,17.25z
		"/>
	<path d="M316.57,30.37l-0.63-2.73l4.05,0.11c0.62-0.04,0.93-0.45,0.93-1.23v-3.45l-1.59,1.83c-1.57-1.49-2.85-2.93-3.86-4.32
		c-0.95-1.38-1.78-2.95-2.49-4.7c-0.42,1.09-0.88,2.06-1.37,2.9c-1.29,2.21-3.16,4.39-5.61,6.56l-1.18-1.86v7h-2.73V10.41h9.52V7.73
		h-5.96V5.52h8.7v4.89h9.3v16.93c0,1.04-0.25,1.81-0.74,2.32c-0.42,0.47-1.03,0.71-1.83,0.71H316.57z M304.84,22.47
		c2.19-2.02,3.75-3.85,4.68-5.47c0.69-1.13,1.32-2.56,1.89-4.29h-6.56V22.47z M314.41,12.71c0.64,1.79,1.4,3.38,2.3,4.79
		c0.89,1.55,2.3,3.08,4.21,4.59v-9.38H314.41z"/>
	<path d="M328.08,11.67h7.22v1.86c-0.88,1.51-2.01,3.12-3.42,4.81h3.28v1.59c-0.4,1.9-0.84,3.35-1.31,4.38
		c1.06,1.2,1.92,1.96,2.6,2.27c0.6,0.35,1.49,0.61,2.65,0.79c1.35,0.2,4,0.31,7.96,0.33c2.92,0,5.09-0.06,6.51-0.19l-0.41,2.65
		c-7.66,0-12.32-0.1-14-0.3c-1.59-0.22-2.82-0.56-3.69-1.01c-0.82-0.37-1.73-1.18-2.73-2.43c-0.77,1.31-1.76,2.67-2.98,4.07l-1.89-2
		c1.44-1.46,2.45-2.73,3.04-3.83c0.49-0.66,1.06-2.03,1.7-4.13h-3.75v-1.97c1.15-1.18,2.35-2.75,3.61-4.7h-4.38V11.67z M331.14,5.22
		c1.26,1.28,2.32,2.53,3.17,3.77l-1.8,1.8c-0.69-1.22-1.7-2.55-3.01-3.99L331.14,5.22z M352.91,5.82v4.76h-1.2v1.09h-6.12v1.15h6.62
		v8.53h-6.62v1.42h7.44v2.08h-7.44v2.13h-2.41v-2.13h-7v-2.08h7v-1.42h-6.29v-8.53h6.29v-1.15h-5.58v-1.09h-1.75V5.82H352.91z
		 M338.25,9.7h4.92V7.9h-4.92V9.7z M339.18,16.15h3.99v-1.48h-3.99V16.15z M343.17,19.49V17.9h-3.99v1.59H343.17z M345.58,7.9v1.8
		h4.92V7.9H345.58z M345.58,14.68v1.48h4.32v-1.48H345.58z M349.9,19.49V17.9h-4.32v1.59H349.9z"/>
	<path d="M368.47,5.52l1.18,2.02c-1.51,0.24-3.25,0.42-5.2,0.55v1.78h5.74v2.08h-5.74v1.48h5.52v8.64h-5.52v1.59h4.98v1.86h-4.98
		v2.24c1.82-0.15,3.48-0.32,4.98-0.52v0.85c1.7-2.5,2.89-5.17,3.58-8.01c0.51-1.84,0.83-4.4,0.96-7.68h-3.01v-2.3h3.06
		c0-0.42,0-0.84,0-1.26V5.11h2.41v3.72c0,0.44,0,0.86,0,1.26h5.03c0,9.5-0.1,15.13-0.3,16.9c-0.15,1.38-0.43,2.28-0.85,2.68
		c-0.49,0.55-1.39,0.82-2.71,0.82c-0.6,0-1.3-0.04-2.11-0.11L375,27.64c0.86,0.13,1.72,0.19,2.6,0.19c0.71,0,1.1-0.56,1.18-1.67
		c0.15-1.42,0.24-6.02,0.27-13.78h-2.71c-0.15,3.28-0.5,6.09-1.07,8.42c-0.69,3.12-2.06,6.31-4.1,9.57l-1.75-1.53v0.33
		c-2.46,0.44-6.79,0.84-12.99,1.2l-0.36-2.3c2.17-0.04,4.19-0.1,6.07-0.19v-2.38h-4.87v-1.86h4.87v-1.59h-5.09v-8.64h5.09v-1.48
		h-6.29V9.87h6.29V8.2c-1.5,0.05-3.1,0.08-4.81,0.08l-0.74-2.11C361.27,6.17,365.22,5.96,368.47,5.52z M359.47,17.03h2.68v-1.86
		h-2.68V17.03z M362.15,20.31v-1.75h-2.68v1.75H362.15z M364.45,15.17v1.86h3.12v-1.86H364.45z M367.56,20.31v-1.75h-3.12v1.75
		H367.56z"/>
	<path d="M396.28,23.07l1.8,1.56c-1.17,0.98-2.62,1.88-4.35,2.68c0.4,0.07,0.8,0.14,1.2,0.19c1.39,0.16,4.1,0.26,8.15,0.3
		c2.95,0,5.15-0.06,6.59-0.19l-0.41,2.54c-7.78,0-12.53-0.09-14.25-0.27c-1.57-0.2-2.81-0.5-3.72-0.9c-0.88-0.35-1.86-1.11-2.95-2.3
		c-0.66,1.29-1.52,2.67-2.6,4.13l-1.78-1.89c1.24-1.53,2.11-2.86,2.6-3.99c0.44-0.71,0.92-2.18,1.45-4.4h-3.45v-1.97
		c1-1.18,2.03-2.75,3.09-4.7h-3.47v-2.19h6.15v1.86c-0.77,1.51-1.75,3.12-2.95,4.81h3.09v1.59c-0.4,2.02-0.81,3.56-1.23,4.62
		c1.22,1.22,2.21,1.98,2.98,2.27c0.18,0.09,0.39,0.17,0.63,0.25l-1.34-1.72C393.29,24.72,394.87,23.97,396.28,23.07z M387.03,5.22
		c1.22,1.28,2.24,2.53,3.06,3.77l-1.8,1.8c-0.67-1.22-1.64-2.55-2.9-3.99L387.03,5.22z M391.52,17.03h3.72v-1.2h2.41v1.2h4.38v-1.2
		h2.41v1.2h4.16V19h-4.16v1.91h4.73v1.86h-17.96v-1.86h4.05V19h-3.72V17.03z M399.06,5.71v5.47h-5.36v1.42
		c0,0.47,0.29,0.71,0.88,0.71h1.89c0.38,0,0.66-0.05,0.82-0.16c0.2-0.11,0.34-0.6,0.41-1.48l2.13,0.68c-0.18,1.39-0.5,2.2-0.96,2.43
		c-0.38,0.26-1.08,0.38-2.11,0.38h-3.04c-0.67,0-1.2-0.17-1.59-0.52c-0.42-0.38-0.63-0.88-0.63-1.48V5.71H399.06z M393.71,7.57v1.75
		h3.17V7.57H393.71z M397.64,20.91h4.38V19h-4.38V20.91z M408.2,5.76v5.36h-5.47v1.61c0,0.46,0.3,0.68,0.9,0.68h2.02
		c0.38,0,0.67-0.05,0.85-0.16s0.32-0.64,0.41-1.59l2.24,0.71c-0.22,1.37-0.56,2.18-1.01,2.43c-0.4,0.24-1.13,0.36-2.19,0.36h-3.2
		c-0.71,0-1.27-0.16-1.67-0.49c-0.44-0.35-0.66-0.8-0.66-1.37V5.76H408.2z M402.84,23.07c1.93,0.58,3.7,1.29,5.3,2.13l-1.45,2.21
		c-1.66-1.04-3.36-1.87-5.11-2.49L402.84,23.07z M402.73,7.51v1.86h3.17V7.51H402.73z"/>
	<path d="M412.08,9.97h2.9V4.89h2.52v5.09h2.68v2.3h-2.68v5.36c0.78-0.49,1.57-1.05,2.35-1.67v2.79c-0.78,0.58-1.57,1.11-2.35,1.59
		v7.41c0,0.97-0.21,1.64-0.63,2.02c-0.4,0.4-1.13,0.6-2.19,0.6h-1.59l-0.57-2.62c0.58,0.13,1.06,0.19,1.42,0.19
		c0.69,0,1.04-0.21,1.04-0.63v-5.63c-0.89,0.44-1.8,0.82-2.71,1.15l-0.41-2.84c1.02-0.18,2.06-0.51,3.12-0.98v-6.73h-2.9V9.97z
		 M420.5,5.71h16.41v6.23h-7.11v1.59h6.67v1.97h-6.67v1.64h7.36v1.97h-3.06c-0.33,0.82-0.73,1.59-1.2,2.3h4.35v1.97h-7.27v1.75h6.29
		v1.97h-6.29v3.5h-2.52v-3.5h-6.07v-1.97h6.07v-1.75h-7.05V21.4h4.18c-0.38-0.8-0.8-1.57-1.26-2.3h-2.82v-1.97h6.89V15.5h-6.34
		v-1.97h6.34v-1.59h-6.89V5.71z M425.31,10.08V7.57h-2.41v2.52H425.31z M426.96,21.4h3.55c0.51-0.75,0.92-1.51,1.23-2.3h-5.82
		C426.26,19.82,426.61,20.58,426.96,21.4z M429.91,10.08V7.57h-2.41v2.52H429.91z M434.5,10.08V7.57h-2.41v2.52H434.5z"/>
</g>
<g>
	<g>
		<g id="XMLID_9_">
			<g>
				<linearGradient id="SVGID_1_" gradientUnits="userSpaceOnUse" x1="-8.9433" y1="7.2509" x2="42.7225" y2="27.9173">
					<stop  offset="5.618000e-03" style="stop-color:#FF2727"/>
					<stop  offset="0.3525" style="stop-color:#FFFF00"/>
					<stop  offset="0.3814" style="stop-color:#F8EE10"/>
					<stop  offset="0.4388" style="stop-color:#E6C13A"/>
					<stop  offset="0.5185" style="stop-color:#C9797D"/>
					<stop  offset="0.5955" style="stop-color:#AA2EC3"/>
					<stop  offset="0.7367" style="stop-color:#4F66C6"/>
					<stop  offset="0.8536" style="stop-color:#0097C9"/>
					<stop  offset="1" style="stop-color:#FFFF00"/>
				</linearGradient>
				<polygon class="st2" points="30.93,19 20.43,29.5 9.93,19 20.43,8.5 				"/>
				<linearGradient id="SVGID_2_" gradientUnits="userSpaceOnUse" x1="-7.8742" y1="4.5781" x2="43.7917" y2="25.2444">
					<stop  offset="5.618000e-03" style="stop-color:#FF2727"/>
					<stop  offset="0.2129" style="stop-color:#FFFF00"/>
					<stop  offset="0.2584" style="stop-color:#F8EE10"/>
					<stop  offset="0.3488" style="stop-color:#E6C13A"/>
					<stop  offset="0.4743" style="stop-color:#C9797D"/>
					<stop  offset="0.5955" style="stop-color:#AA2EC3"/>
					<stop  offset="0.78" style="stop-color:#4F66C6"/>
					<stop  offset="0.9327" style="stop-color:#0097C9"/>
					<stop  offset="1" style="stop-color:#FFFF00"/>
				</linearGradient>
				<polygon class="st3" points="28.18,8.5 26.02,10.66 34.36,19 26.02,27.34 28.18,29.5 38.68,19 				"/>
			</g>
		</g>
	</g>
</g>
<g>
	<g>
		<linearGradient id="SVGID_3_" gradientUnits="userSpaceOnUse" x1="13.3622" y1="36.6047" x2="620.1619" y2="36.6047">
			<stop  offset="0" style="stop-color:#00B987"/>
			<stop  offset="1" style="stop-color:#FFFFFF"/>
		</linearGradient>
		<line class="st4" x1="13.36" y1="36.6" x2="620.16" y2="36.6"/>
	</g>
</g>
</svg>
