<?xml version="1.0" encoding="utf-8"?>
<!-- Generator: Adobe Illustrator 25.2.0, SVG Export Plug-In . SVG Version: 6.00 Build 0)  -->
<svg version="1.1" id="Layer_1" xmlns="http://www.w3.org/2000/svg" xmlns:xlink="http://www.w3.org/1999/xlink" x="0px" y="0px"
	 width="688.39px" height="40px" viewBox="0 0 688.39 40" style="enable-background:new 0 0 688.39 40;" xml:space="preserve">
<style type="text/css">
	.st0{enable-background:new    ;}
	.st1{fill:#FFFFFF;}
	.st2{fill:url(#SVGID_1_);}
	.st3{fill:url(#SVGID_2_);}
	.st4{fill:none;stroke:url(#SVGID_3_);stroke-width:2;stroke-miterlimit:10;stroke-dasharray:2,3,2,3,2,3;}
	.st5{fill:url(#SVGID_4_);}
	.st6{fill:url(#SVGID_5_);}
	.st7{fill:none;stroke:url(#SVGID_6_);stroke-width:2;stroke-miterlimit:10;stroke-dasharray:2,3,2,3,2,3;}
	.st8{fill:url(#SVGID_7_);}
	.st9{fill:url(#SVGID_8_);}
	.st10{fill:none;stroke:url(#SVGID_9_);stroke-width:2;stroke-miterlimit:10;stroke-dasharray:2,3,2,3,2,3;}
	.st11{fill:url(#SVGID_10_);}
	.st12{fill:url(#SVGID_11_);}
	.st13{fill:none;stroke:url(#SVGID_12_);stroke-width:2;stroke-miterlimit:10;stroke-dasharray:2,3,2,3,2,3;}
	.st14{fill:url(#SVGID_13_);}
	.st15{fill:url(#SVGID_14_);}
	.st16{fill:none;stroke:url(#SVGID_15_);stroke-width:2;stroke-miterlimit:10;stroke-dasharray:2,3,2,3,2,3;}
	.st17{fill:url(#SVGID_16_);}
	.st18{fill:url(#SVGID_17_);}
	.st19{fill:none;stroke:url(#SVGID_18_);stroke-width:2;stroke-miterlimit:10;stroke-dasharray:2,3,2,3,2,3;}
	.st20{fill:url(#SVGID_19_);}
	.st21{fill:url(#SVGID_20_);}
	.st22{fill:none;stroke:url(#SVGID_21_);stroke-width:2;stroke-miterlimit:10;stroke-dasharray:2,3,2,3,2,3;}
	.st23{fill:url(#SVGID_22_);}
	.st24{fill:url(#SVGID_23_);}
	.st25{fill:none;stroke:url(#SVGID_24_);stroke-width:2;stroke-miterlimit:10;stroke-dasharray:2,3,2,3,2,3;}
	.st26{fill:url(#SVGID_25_);}
	.st27{fill:url(#SVGID_26_);}
	.st28{fill:none;stroke:url(#SVGID_27_);stroke-width:2;stroke-miterlimit:10;stroke-dasharray:2,3,2,3,2,3;}
	.st29{fill:#ABABAB;}
	.st30{fill:url(#SVGID_28_);}
	.st31{fill:url(#SVGID_29_);}
	.st32{fill:none;stroke:url(#SVGID_30_);stroke-width:2;stroke-miterlimit:10;stroke-dasharray:2,3,2,3,2,3;}
	.st33{fill:url(#SVGID_31_);}
	.st34{fill:url(#SVGID_32_);}
	.st35{fill:none;stroke:url(#SVGID_33_);stroke-width:2;stroke-miterlimit:10;stroke-dasharray:2,3,2,3,2,3;}
	.st36{fill:url(#SVGID_34_);}
	.st37{fill:url(#SVGID_35_);}
	.st38{fill:none;stroke:url(#SVGID_36_);stroke-width:2;stroke-miterlimit:10;stroke-dasharray:2,3,2,3,2,3;}
	.st39{fill:url(#SVGID_37_);}
	.st40{fill:url(#SVGID_38_);}
	.st41{fill:none;stroke:url(#SVGID_39_);stroke-width:2;stroke-miterlimit:10;stroke-dasharray:2,3,2,3,2,3;}
</style>
<g class="st0">
	<path d="M48.3,6.91h6.07V4.89h2.73v2.02h7.93V4.89h2.62v2.02h5.69v2.3h-5.69v1.48h-2.62V9.21H57.1v1.48h-1.8v1.39
		c1.13-0.11,2.16-0.25,3.09-0.41l1.18,2c-1.24,0.27-2.66,0.48-4.27,0.63v1.37h3.61v2.08H55.3v1.48h3.86v2.19H55.3v0.3
		c1.48,1.02,2.97,2.14,4.48,3.36l-1.42,2.13c-1.2-1.18-2.22-2.14-3.06-2.87v6.37h-2.41v-7.08c-0.15,0.26-0.29,0.51-0.44,0.77
		c-0.97,1.57-2.13,2.94-3.5,4.13L47.97,26c1.77-1.35,3.24-2.88,4.4-4.59h-4.18v-2.19h4.7v-1.48h-4.16v-2.08h4.16v-1.23
		c-1.2,0.05-2.5,0.08-3.88,0.08l-0.71-2.11c1.64,0,3.17-0.04,4.59-0.14v-1.91h1.48V9.21H48.3V6.91z M59.78,12.82h2.46v-2.24h2.52
		v2.24h3.28v-2.24h2.52v2.24h2.68v2.08h-2.68v2.08h3.12v2.08H59.35v-2.08h2.9V14.9h-2.46V12.82z M72.64,20.26V30.7h-2.52v-1.15H62.9
		v1.15h-2.52V20.26H72.64z M62.9,23.92h7.22v-1.59H62.9V23.92z M62.9,27.48h7.22v-1.59H62.9V27.48z M68.04,16.98V14.9h-3.28v2.08
		H68.04z"/>
	<path d="M100.42,9.26v21.33H97.9v-1.75H79.74v1.75h-2.52V9.26h10.06V4.89h2.73v4.38H100.42z M79.74,17.47h7.55v-5.8h-7.55V17.47z
		 M79.74,26.44h7.55v-6.56h-7.55V26.44z M90.03,11.67v5.8h7.88v-5.8H90.03z M90.03,26.44h7.88v-6.56h-7.88V26.44z"/>
	<path d="M104.74,6.48h24.28v2.52h-8.5c-0.58,1.26-1.22,2.41-1.91,3.45v18.16h-2.82V16.13c-0.2,0.22-0.39,0.42-0.57,0.6
		c-2.35,2.52-5.39,4.8-9.11,6.86l-1.7-2.16c3.46-1.91,6.35-3.99,8.67-6.23c1.62-1.48,3.12-3.54,4.48-6.21h-12.82V6.48z
		 M122.02,14.19c2.77,2.37,5.1,4.71,7,7.03l-2.16,2.16c-1.57-2.24-3.84-4.67-6.81-7.27L122.02,14.19z"/>
	<path d="M149.88,30.37l-0.63-2.73l3.39,0.11c0.62-0.04,0.93-0.45,0.93-1.23V8.5h-17.28v22.09h-2.73V5.87h22.75v21.46
		c0,1.04-0.25,1.81-0.74,2.32c-0.42,0.47-1.03,0.71-1.83,0.71H149.88z M137.88,11.12h14.22v2.41h-14.22V11.12z M138.64,15.94h12.58
		v9.08h-12.58V15.94z M148.6,22.61v-4.27h-7.33v4.27H148.6z"/>
	<path d="M167.85,16.15c0.29,1,0.55,2.15,0.77,3.45l-1.12,0.27l1.34,0.71c-0.15,0.24-0.29,0.46-0.44,0.66h15.53v2.08h-3.31
		c-1.26,1.62-2.62,2.87-4.1,3.75c2.11,0.38,5.24,0.67,9.38,0.85l-0.9,2.57c-5.16-0.44-9.01-1.08-11.57-1.94
		c-3.17,1.24-7.15,1.89-11.92,1.94l-1.42-2.27c4.67,0,8.19-0.3,10.58-0.9c-1.62-0.91-3.14-2.07-4.57-3.47
		c-0.15,0.13-0.29,0.25-0.44,0.36c-0.98,0.82-2.36,1.53-4.13,2.13l-1.34-2.02c1.59-0.51,2.88-1.12,3.88-1.83
		c0.8-0.55,1.67-1.43,2.6-2.65c-0.16-1.08-0.36-2.11-0.57-3.09L167.85,16.15z M163.96,5.11l2.02,0.77
		c-0.67,1.53-1.36,2.79-2.05,3.77c0.58-0.02,1.13-0.05,1.64-0.11c0.38-0.55,0.77-1.11,1.15-1.7l1.78,0.88
		c-1.28,2.01-2.53,3.69-3.75,5.06c0.73-0.09,1.38-0.19,1.94-0.3c-0.11-0.44-0.24-0.86-0.38-1.26l1.64-0.55
		c0.4,1.08,0.77,2.31,1.09,3.69l-1.8,0.46c-0.05-0.25-0.11-0.5-0.16-0.74c-1.51,0.31-3.55,0.56-6.12,0.74l-0.55-1.86
		c0.53,0,1.02-0.01,1.48-0.03c0.8-0.77,1.58-1.63,2.32-2.6c-1,0.13-2.05,0.24-3.14,0.33l-0.46-1.86c0.38-0.02,0.74-0.04,1.07-0.05
		C162.43,8.61,163.2,7.06,163.96,5.11z M161.26,16.26l1.78,0.46c-0.11,1.39-0.34,2.73-0.68,4.02l-1.94-0.66
		C160.85,18.91,161.13,17.63,161.26,16.26z M165.49,16.48c0.07,0.89,0.13,2.12,0.16,3.66l-2.13,0.27c0.02-1.6,0.07-2.84,0.16-3.72
		L165.49,16.48z M168.26,23.32c1.57,1.31,3.29,2.29,5.17,2.93c1.8-0.86,3.2-1.83,4.18-2.93H168.26z M173.37,4.89
		c0.24,0.57,0.46,1.19,0.66,1.86h3.01V8.5h-8.42V6.75h3.12c-0.22-0.55-0.46-1.05-0.71-1.5L173.37,4.89z M169.16,9.43h7.11v1.64
		h-7.11V9.43z M169.21,14.79h7.11v4.73c0.56-1.11,0.94-2.31,1.12-3.58l1.89,0.49c-0.2,1.5-0.59,2.94-1.18,4.32l-2.11-0.68
		c0.07-0.11,0.14-0.23,0.19-0.36h-7.03V14.79z M169.27,12.05h7v1.64h-7V12.05z M174.24,18.07v-1.64h-2.95v1.64H174.24z M179.93,4.89
		l2.02,0.77c-0.71,1.44-1.41,2.64-2.11,3.61c0.78-0.04,1.49-0.09,2.13-0.16c0.38-0.51,0.77-1.04,1.15-1.59l1.78,0.88
		c-1.48,2.1-2.91,3.81-4.29,5.14c1.04-0.05,1.93-0.14,2.68-0.25c-0.16-0.47-0.36-0.94-0.57-1.39l1.64-0.55
		c0.53,1.08,1,2.31,1.42,3.69l-1.8,0.46c-0.07-0.24-0.14-0.46-0.19-0.66c-1.62,0.29-3.91,0.51-6.86,0.66l-0.55-1.86h1.42
		c0.91-0.82,1.8-1.72,2.68-2.71c-0.98,0.11-2.14,0.21-3.47,0.3l-0.3-1.86c0.31,0,0.6-0.01,0.88-0.03
		C178.35,8.23,179.13,6.75,179.93,4.89z M181.9,16.15c0.13,0.93,0.22,2.19,0.27,3.77l-2.13,0.27c0-1.64,0.02-2.92,0.05-3.83
		L181.9,16.15z M184.33,15.72c0.51,1.09,0.96,2.34,1.34,3.75l-2.02,0.52c-0.29-1.28-0.67-2.5-1.15-3.66L184.33,15.72z"/>
	<path d="M194.29,4.89l2.54,1.18c-0.75,2.22-1.53,4.14-2.35,5.74v18.79h-2.73v-14.6c-0.91,1.22-1.91,2.44-2.98,3.66l-1.01-3.39
		c1.35-1.57,2.53-3.18,3.55-4.84C192.33,9.91,193.32,7.73,194.29,4.89z M208.7,27.86c0.6,0,1.05-0.23,1.34-0.68
		c0.33-0.46,0.55-2.6,0.66-6.43l2.65,0.85c-0.27,4.3-0.72,6.84-1.34,7.63c-0.53,0.77-1.5,1.15-2.93,1.15h-7.79
		c-0.84,0-1.5-0.24-2-0.71c-0.51-0.49-0.77-1.15-0.77-1.97V5.11h2.73v10.17c3.96-1.95,7.26-4.14,9.93-6.56l1.72,2.41
		c-3.34,2.81-7.22,5.15-11.65,7.03v8.72c0,0.66,0.36,0.98,1.09,0.98H208.7z"/>
	<path d="M221.22,4.89l2.3,0.79c-0.97,2.61-2.05,4.9-3.25,6.89c0.86-0.15,1.7-0.3,2.52-0.46c0.64-1.18,1.28-2.46,1.91-3.83l2.32,0.9
		c-2.1,4.23-4.27,7.7-6.51,10.42c1.57-0.13,2.88-0.34,3.94-0.63c-0.24-1-0.52-1.99-0.85-2.95l1.97-0.63
		c0.62,1.79,1.18,3.83,1.67,6.12l-2.13,0.55c-0.05-0.35-0.12-0.68-0.19-1.01c-1.91,0.46-4.58,0.83-8.01,1.12l-0.71-2.41
		c0.58,0,1.15-0.01,1.7-0.03c1.17-1.44,2.37-3.21,3.61-5.3c-1.51,0.33-3.17,0.65-4.98,0.96l-0.55-2.3c0.56-0.05,1.1-0.11,1.61-0.16
		C218.97,10.54,220.18,7.86,221.22,4.89z M217.42,23.15l2.05,0.27c-0.16,2.75-0.47,5.07-0.93,6.95l-2.35-0.74
		C216.81,27.61,217.22,25.45,217.42,23.15z M222.48,23.07c0.35,1.5,0.58,3.54,0.71,6.15l-2.24,0.27c-0.05-2.68-0.18-4.76-0.38-6.23
		L222.48,23.07z M225.68,22.5c0.51,1.31,0.96,2.81,1.34,4.48l-2.13,0.55c-0.29-1.53-0.67-3-1.15-4.4L225.68,22.5z M239.82,6.26
		v21.11h1.75v2.3h-14.98v-2.3h1.75V6.26H239.82z M230.74,13.31h6.67V8.55h-6.67V13.31z M230.74,20.42h6.67V15.5h-6.67V20.42z
		 M230.74,27.37h6.67v-4.76h-6.67V27.37z"/>
	<path d="M256.77,5h1.37c1.68,1.93,3.41,3.47,5.2,4.62c1.28,0.89,3.43,1.94,6.45,3.14l-1.78,2.73c-1.22-0.46-2.42-1.01-3.58-1.67
		v1.72h-15.09v-1.67c-1.19,0.73-2.52,1.46-3.99,2.19l-1.48-2.84c3.13-1.29,5.54-2.6,7.22-3.91c1.35-1.04,2.79-2.48,4.32-4.32H256.77
		z M266.23,18.67v11.92h-2.73v-1.53h-13.12v1.53h-2.73V18.67H266.23z M250.37,26.65h13.12v-5.58h-13.12V26.65z M250.64,13.04h12.5
		c-2.08-1.35-4.2-3.23-6.37-5.63c-1.64,1.86-3.24,3.41-4.79,4.65C251.56,12.4,251.12,12.73,250.64,13.04z"/>
	<path d="M284.47,5.52l1.18,2.02c-1.51,0.24-3.25,0.42-5.2,0.55v1.78h5.74v2.08h-5.74v1.48h5.52v8.64h-5.52v1.59h4.98v1.86h-4.98
		v2.24c1.82-0.15,3.48-0.32,4.98-0.52v0.85c1.7-2.5,2.89-5.17,3.58-8.01c0.51-1.84,0.83-4.4,0.96-7.68h-3.01v-2.3h3.06
		c0-0.42,0-0.84,0-1.26V5.11h2.41v3.72c0,0.44,0,0.86,0,1.26h5.03c0,9.5-0.1,15.13-0.3,16.9c-0.15,1.38-0.43,2.28-0.85,2.68
		c-0.49,0.55-1.39,0.82-2.71,0.82c-0.6,0-1.3-0.04-2.11-0.11L291,27.64c0.86,0.13,1.72,0.19,2.6,0.19c0.71,0,1.1-0.56,1.18-1.67
		c0.15-1.42,0.24-6.02,0.27-13.78h-2.71c-0.15,3.28-0.5,6.09-1.07,8.42c-0.69,3.12-2.06,6.31-4.1,9.57l-1.75-1.53v0.33
		c-2.46,0.44-6.79,0.84-12.99,1.2l-0.36-2.3c2.17-0.04,4.19-0.1,6.07-0.19v-2.38h-4.87v-1.86h4.87v-1.59h-5.09v-8.64h5.09v-1.48
		h-6.29V9.87h6.29V8.2c-1.5,0.05-3.1,0.08-4.81,0.08l-0.74-2.11C277.27,6.17,281.22,5.96,284.47,5.52z M275.47,17.03h2.68v-1.86
		h-2.68V17.03z M278.15,20.31v-1.75h-2.68v1.75H278.15z M280.45,15.17v1.86h3.12v-1.86H280.45z M283.57,20.31v-1.75h-3.12v1.75
		H283.57z"/>
	<path d="M305.88,4.78l2.3,1.07c-0.73,2.26-1.48,4.17-2.24,5.74v18.79h-2.52V15.66c-0.78,1.09-1.62,2.17-2.52,3.23l-0.93-3.06
		c1.2-1.53,2.27-3.1,3.2-4.7C304.12,9.67,305.02,7.55,305.88,4.78z M312.55,4.78l2.73,0.6c-0.42,1.2-0.86,2.33-1.31,3.39h11.48v2.52
		h-9.73v3.83h9.08v2.52h-9.08v4.27h9.08v2.52h-9.08v5.96h-2.62V11.29h-0.22c-1.19,2.5-2.42,4.56-3.69,6.18l-2-2.38
		C309.56,12.01,311.35,8.57,312.55,4.78z"/>
	<path d="M342.68,17.19c0,1.7-0.78,3.14-2.35,4.32l-0.98-1.2c0.93-0.75,1.48-1.6,1.64-2.57h-1.91v-3.58h3.61V17.19z"/>
	<path d="M361.28,4.89c0.15,0.89,0.27,1.9,0.38,3.01h3.17v2.3h-8.75V7.9h3.01c-0.16-0.93-0.33-1.8-0.49-2.6L361.28,4.89z
		 M356.6,12.11h7.46v2.19h-7.46V12.11z M356.6,16.26h7.57v2.19h-7.57V16.26z M364.23,20.58v7.98h-5.03v1.91h-2.52v-9.9H364.23z
		 M359.2,26.27h2.52v-3.39h-2.52V26.27z M366.09,9.54h6.78v4.38h-1.86v1.31h4.27v-1.31h-1.42V9.54h6.78v4.38h-3.06v1.31h3.77v1.86
		h-3.77v1.37h3.23v1.75h-3.23v1.37h3.99v1.86h-6.37c0.67,1.04,1.29,1.83,1.86,2.38c0.29-0.18,0.58-0.42,0.88-0.71
		c0.36-0.36,0.73-0.83,1.09-1.39l1.78,1.12c-0.46,0.75-0.89,1.33-1.31,1.75c-0.2,0.22-0.42,0.43-0.66,0.63
		c0.86,0.53,1.88,1.02,3.06,1.48l-1.26,2.02c-2.1-0.89-3.66-1.81-4.68-2.76c-1.04-1-2.05-2.42-3.04-4.24
		c-0.55,0.53-1.11,0.98-1.7,1.37v2.62c1.28-0.26,2.46-0.51,3.55-0.77v2.21c-2.22,0.56-4.77,1.08-7.63,1.56l-0.68-2.19
		c0.86-0.13,1.68-0.26,2.46-0.38v-1.8c-0.89,0.38-1.98,0.75-3.25,1.09l-0.96-2.08c1.75-0.4,3.15-0.85,4.21-1.34
		c0.33-0.16,0.67-0.36,1.04-0.57h-5.03v-1.86h3.77V20.2h-2.79v-1.75h2.79v-1.37h-3.23v-1.86h3.23v-1.31h-2.62V9.54z M374.07,4.89
		c0.2,0.55,0.39,1.13,0.57,1.75h6.81v1.97h-16.3V6.64h6.86c-0.2-0.46-0.41-0.9-0.63-1.34L374.07,4.89z M370.79,12.49v-1.53h-2.62
		v1.53H370.79z M375.28,18.45v-1.37h-4.27v1.37H375.28z M375.28,21.57V20.2h-4.27v1.37H375.28z M378.56,12.49v-1.53h-2.62v1.53
		H378.56z"/>
	<path d="M392.39,4.67l2.62,0.57c-0.33,0.62-0.66,1.21-0.98,1.78h12.06v2.13c-2.15,2.44-4.34,4.41-6.56,5.91
		c2.62,1.13,6.08,2.1,10.36,2.9l-1.67,2.46c-5.12-1.17-8.9-2.43-11.32-3.8c-2.86,1.57-6.72,2.91-11.57,4.02l-1.37-2.43
		c4.25-0.84,7.74-1.87,10.47-3.09c-1.46-1-2.74-2.08-3.86-3.23c-1,1.17-2.02,2.19-3.06,3.06l-1.91-2.3
		C388.62,10.27,390.88,7.61,392.39,4.67z M405.68,20.09v10.5h-2.73v-1.42h-12.03v1.42h-2.73v-10.5H405.68z M390.92,26.76h12.03V22.5
		h-12.03V26.76z M392.2,9.81c1.37,1.55,2.98,2.87,4.84,3.96c1.7-1.04,3.49-2.45,5.39-4.24h-10.04
		C392.32,9.65,392.26,9.74,392.2,9.81z"/>
	<path d="M416.29,10.47c0.66,1.37,1.26,2.99,1.8,4.87h2.54c0.66-1.44,1.23-3.03,1.72-4.76l2.41,0.85c-0.46,1.46-0.96,2.76-1.5,3.91
		h3.58v2.52h-14.98v-2.52h3.64c-0.44-1.24-0.99-2.55-1.67-3.94L416.29,10.47z M419.68,4.89c0.44,0.82,0.87,1.73,1.29,2.73h5.63v2.41
		h-14.19V7.62h5.91c-0.38-0.82-0.82-1.59-1.31-2.32L419.68,4.89z M425.15,19.93v10.66h-2.52v-1.7h-7v1.7h-2.52V19.93H425.15z
		 M415.64,26.6h7v-4.38h-7V26.6z M427.67,6.2h9.79v1.97c-0.91,2.99-1.9,5.76-2.95,8.31c1.24,1.68,2.01,2.96,2.32,3.86
		c0.42,0.97,0.63,1.91,0.63,2.82c0,1.7-0.29,2.96-0.88,3.8c-0.6,0.82-2.11,1.23-4.51,1.23l-0.85-2.73c0.84,0.09,1.68,0.14,2.52,0.14
		c0.47,0,0.82-0.21,1.04-0.63c0.16-0.31,0.25-0.91,0.25-1.8c0.04-0.58-0.12-1.31-0.46-2.19c-0.38-0.89-1.24-2.39-2.57-4.48
		c1.2-2.83,2.15-5.45,2.84-7.88h-4.65v21.98h-2.52V6.2z"/>
	<path d="M445.77,4.78l2.3,1.07c-0.69,2.17-1.4,4.03-2.13,5.58v18.95h-2.52V15.61c-0.77,1.11-1.6,2.21-2.52,3.28l-0.93-3.06
		c1.18-1.53,2.23-3.1,3.14-4.7C444.03,9.67,444.91,7.55,445.77,4.78z M446.86,26.38h18.81v2.52h-18.81V26.38z M447.6,10.74h17.31
		v2.52H447.6V10.74z M451.67,14.19c1.38,2.95,2.62,6.33,3.72,10.12l-2.76,0.71c-0.89-3.46-2.05-6.8-3.47-10.01L451.67,14.19z
		 M453.97,5c1.73,1.2,3.19,2.39,4.38,3.55l-1.91,1.91c-0.97-1.17-2.37-2.42-4.21-3.77L453.97,5z M460.53,14.19l2.62,0.71
		c-0.88,3.76-2.01,7.2-3.39,10.34l-2.62-0.96C458.46,21.63,459.59,18.27,460.53,14.19z"/>
	<path d="M470.71,5.6h7.38v21.74c0,0.88-0.19,1.57-0.57,2.08c-0.4,0.49-1.05,0.74-1.94,0.74h-2.02l-0.66-2.52l1.94,0.11
		c0.49,0,0.74-0.29,0.74-0.88v-5.3h-3.72c-0.05,0.93-0.14,1.87-0.25,2.82c-0.29,2.13-0.78,4.24-1.45,6.32l-2.19-1.97
		c0.6-1.62,1.01-3.34,1.23-5.14c0.16-1.84,0.25-3.55,0.25-5.14V5.6H470.71z M471.96,12.71h3.61V7.9h-3.61V12.71z M471.96,19.05h3.61
		v-3.83h-3.61v3.23C471.96,18.65,471.96,18.85,471.96,19.05z M482.52,5.6h7.22v21.25c0,0.53,0.17,0.79,0.52,0.79h0.38
		c0.18,0,0.32-0.13,0.41-0.38c0.09-0.27,0.21-2.59,0.36-6.95l2.38,0.85c-0.2,4.36-0.5,6.97-0.9,7.85c-0.35,0.77-0.88,1.15-1.61,1.15
		h-1.91c-0.62,0-1.16-0.24-1.61-0.71c-0.42-0.4-0.63-1.14-0.63-2.21V8.12h-3.23v7.16c0,2.32-0.21,4.76-0.63,7.33
		c-0.53,2.61-1.39,5.2-2.6,7.77l-2.41-2.13c1.17-2.06,1.97-4.22,2.41-6.48c0.33-2.33,0.49-4.49,0.49-6.48V5.6H482.52z"/>
	<path d="M508.11,17.58h-6.21c-0.05,0.24-0.11,0.46-0.16,0.66c-0.13,0.55-0.32,1.09-0.57,1.64h7.05v10.39h-2.41V28.9h-4.16v1.7
		h-2.41V23.1c-0.57,0.69-1.19,1.37-1.89,2.02l-1.72-2.11c1.79-1.6,3-3.32,3.64-5.14c0.04-0.11,0.07-0.21,0.11-0.3h-2.79v-2.19h3.31
		c0.16-0.84,0.29-1.75,0.38-2.73h-3.99v-2.19h4.16c0.04-0.82,0.06-1.7,0.08-2.62h-3.25V5.65h10.83v4.81h1.2v2.19h-1.2V17.58z
		 M501.66,26.6h4.16v-4.32h-4.16V26.6z M502.7,12.65c-0.09,0.98-0.21,1.9-0.36,2.73h3.36v-2.73H502.7z M502.94,7.84
		c-0.02,0.93-0.05,1.8-0.08,2.62h2.84V7.84H502.94z M509.75,10.63h11.48v2.3h-4.54v3.39h4.21v2.3h-4.21v3.55h4.98v2.41h-4.98v6.02
		h-2.52v-6.02h-4.98v-2.41h4.98v-3.55h-3.99v-2.3h3.99v-3.39h-4.43V10.63z M512.38,5.11c0.8,1.28,1.49,2.63,2.08,4.07l-2.41,1.07
		c-0.58-1.64-1.24-3.1-1.97-4.38L512.38,5.11z M518.39,5.11l2.41,0.63c-0.55,1.64-1.28,3.14-2.19,4.51l-2.41-0.88
		C517.04,8.26,517.77,6.84,518.39,5.11z"/>
	<path d="M529.33,5.11h0.98c1.31,1.55,2.48,3.19,3.5,4.92l-1.61,1.53h0.52v2.19h-2.57v2.41h3.23v2.19h-3.23v8.01
		c1-0.27,2-0.58,3.01-0.93v2.24c-2.64,0.91-5.6,1.63-8.86,2.16l-0.33-2.3c1.26-0.11,2.55-0.31,3.88-0.6v-8.59h-3.45v-2.19h3.45
		v-2.41h-2.13v-1.12c-0.29,0.35-0.58,0.68-0.88,1.01l-0.88-2.71c1.55-1.59,2.97-3.53,4.27-5.82H529.33z M526.21,20.09
		c0.46,1.33,0.77,3.14,0.93,5.41l-2.13,0.27c-0.07-2.35-0.27-4.17-0.6-5.47L526.21,20.09z M526.6,11.56h5.25
		c-0.97-1.82-1.75-3.21-2.35-4.16C528.66,8.83,527.69,10.21,526.6,11.56z M531.38,19.87l1.67,0.22c-0.07,1.9-0.2,3.5-0.38,4.81
		l-1.91-0.6C531.06,22.92,531.27,21.44,531.38,19.87z M540.13,5l1.23,2.02c-1.46,0.84-3.08,1.44-4.87,1.8v2.57h3.77v2.08h-3.77v3.17
		h3.66v2.08h-3.66v3.86c1.44-0.33,2.92-0.78,4.43-1.37v2.35c-1.39,0.53-2.86,0.98-4.43,1.34v5.69h-2.3v-5.17
		c-0.24,0.05-0.47,0.1-0.71,0.14l-0.33-2.41c0.35-0.04,0.69-0.08,1.04-0.14V6.69C536.42,6.62,538.4,6.06,540.13,5z M540.92,16.54
		h7.79v1.97c-0.47,2.66-1.29,4.97-2.43,6.92c0.91,1.02,2.11,2.03,3.61,3.04l-1.64,1.91c-1.33-1.11-2.42-2.17-3.28-3.17
		c-1.2,1.28-2.84,2.37-4.92,3.28l-1.31-2.02c2.08-0.88,3.68-1.94,4.81-3.2c-0.89-1.4-1.66-3.02-2.3-4.84l1.64-1.2
		c0.55,1.59,1.21,2.98,2,4.18c0.69-1.31,1.2-2.83,1.53-4.57h-5.5V16.54z M547.76,5.6v6.78c0,0.51,0.25,0.77,0.77,0.77h1.26v1.91
		h-1.72c-0.8,0-1.39-0.17-1.78-0.52c-0.4-0.35-0.6-0.94-0.6-1.78V7.68h-1.86c-0.04,1.97-0.16,3.38-0.36,4.24
		c-0.22,1.13-0.82,2.47-1.8,4.02l-1.61-1.39c0.78-1.35,1.28-2.42,1.48-3.2c0.15-0.77,0.22-2.68,0.22-5.74H547.76z"/>
	<path d="M557.66,5h0.88c1.33,1.2,2.53,2.44,3.61,3.72V7.19h6.4v-2.3h2.3v2.3h6.62v2.19h-6.62v1.8h5.58v10.5h-3.58
		c0.49,0.95,1.08,1.83,1.75,2.65c0.78,0.91,1.89,1.9,3.31,2.98l-1.72,2.19c-1.46-1.37-2.64-2.73-3.55-4.1
		c-0.69-1.04-1.29-2.22-1.78-3.55v8.75h-2.3v-8.12c-0.38,0.91-0.78,1.67-1.2,2.27c-0.95,1.55-2.49,3.17-4.62,4.87l-0.98-1.61
		c-2.77,0.95-5.83,1.7-9.19,2.27l-0.36-2.52c1.33-0.13,2.7-0.34,4.1-0.63v-8.61h-3.69v-2.3h3.69v-2.3h-2.57v-1.26
		c-0.31,0.35-0.61,0.67-0.9,0.98l-0.85-2.6c1.71-1.64,3.28-3.65,4.7-6.04H557.66z M554.4,20.09c0.47,1.33,0.79,3.14,0.96,5.41
		l-2.24,0.27c-0.07-2.35-0.27-4.17-0.6-5.47L554.4,20.09z M562.03,26.93c1.22-0.95,2.19-1.87,2.9-2.76c0.6-0.67,1.15-1.5,1.64-2.49
		h-3.72v-10.5h5.69v-1.8h-5.88c0.09,0.11,0.17,0.21,0.25,0.3l-1.78,1.67c-1.33-1.73-2.43-3.04-3.31-3.94
		c-0.93,1.46-1.99,2.86-3.17,4.21h6.84v2.3h-2.9v2.3h3.66v2.3h-3.66v8.01c1.13-0.31,2.28-0.67,3.45-1.09V26.93z M560.26,20.2
		l1.78,0.22c-0.15,1.73-0.42,3.19-0.82,4.38l-2.02-0.63C559.72,22.93,560.07,21.61,560.26,20.2z M568.54,19.6v-6.34h-3.61v6.34
		H568.54z M567.09,14.4c0.4,1.19,0.76,2.53,1.07,4.05l-1.7,0.44c-0.24-1.38-0.55-2.72-0.93-3.99L567.09,14.4z M574.34,19.6v-6.34
		h-3.5v6.34H574.34z M572.42,14.4l1.53,0.41c-0.29,1.48-0.66,2.83-1.09,4.07l-1.53-0.55C571.75,17.32,572.11,16.01,572.42,14.4z"/>
	<path d="M582.6,5.71h10.58c0.62,0.75,1.42,1.46,2.41,2.13c0.49-0.27,0.97-0.62,1.42-1.04c0.53-0.49,1.05-1.13,1.56-1.91l2.08,1.29
		c-0.64,1-1.25,1.77-1.83,2.3c-0.27,0.27-0.58,0.55-0.93,0.82c0.51,0.27,1.05,0.54,1.61,0.79c0.51-0.31,1.01-0.7,1.5-1.18
		c0.58-0.56,1.16-1.29,1.72-2.16l2.08,1.29c-0.69,1.09-1.35,1.94-1.97,2.54c-0.24,0.24-0.48,0.46-0.74,0.66
		c1.22,0.53,2.56,1.04,4.02,1.53l-1.59,2.19c-1.13-0.4-2.17-0.78-3.12-1.15v2.71c0,0.6,0.3,0.9,0.9,0.9h2.49v2.24h-3.04
		c-0.93,0-1.61-0.2-2.05-0.6c-0.47-0.4-0.71-1.09-0.71-2.08v-1.31h-2.62c-0.05,1.08-0.22,1.85-0.49,2.32
		c-0.31,0.64-1.16,1.38-2.54,2.21l-1.89-1.64c1.17-0.75,1.9-1.34,2.19-1.78c0.22-0.42,0.33-1.49,0.33-3.2h7
		c-1.48-0.6-2.74-1.22-3.8-1.86c-1.8-0.97-3.31-2.03-4.51-3.2c-0.73,1.19-1.65,2.15-2.76,2.9c-0.84,0.64-2.23,1.36-4.18,2.16h5.2
		v6.34h-5.36l-0.27,2.19h5.88c-0.05,3.48-0.32,5.7-0.79,6.64c-0.47,1.08-1.56,1.61-3.25,1.61h-4.32l-0.52-2.68
		c2.22,0.15,3.88,0.22,4.98,0.22c0.46,0,0.8-0.2,1.04-0.6c0.2-0.55,0.31-1.59,0.33-3.12h-6.21l0.68-6.34h5.2v-2.19h-5.14v-1.12
		c-0.69,0.26-1.41,0.5-2.16,0.74l-1.34-2.6c1.62-0.35,3.03-0.7,4.21-1.07c-0.62-0.6-1.29-1.22-2.02-1.86l1.97-1.26
		c1.09,0.78,2.01,1.5,2.76,2.13c0.16-0.07,0.32-0.15,0.46-0.22c1.33-0.6,2.39-1.4,3.17-2.41h-7.6V5.71z M592.88,20.42h9.95v1.86
		c-0.78,1.64-1.87,3.11-3.25,4.4c1.57,0.6,3.6,1.12,6.1,1.56l-1.5,2.24c-2.94-0.66-5.16-1.37-6.67-2.13
		c-1.5,1.02-3.14,1.77-4.95,2.24l-1.09-2.21c1.46-0.31,2.72-0.77,3.77-1.37c-1.17-0.82-2.17-1.73-3.01-2.73l2.08-1.2
		c0.82,0.97,1.81,1.8,2.98,2.49c0.89-0.84,1.69-1.82,2.38-2.95h-6.78V20.42z"/>
	<path d="M632.74,12.49h-4.27v2.24h4.43v2.19h-4.43v2.35h5.3v2.3h-9.35c0.6,1.13,1.3,2.12,2.11,2.95c1.26-0.58,2.46-1.48,3.61-2.68
		l1.78,1.75c-1.09,1.04-2.31,1.86-3.64,2.46c1.4,0.98,3.24,1.73,5.5,2.24l-1.18,2.3c-2.79-0.84-5.15-2.06-7.08-3.66
		c-1.5-1.31-2.78-3.1-3.86-5.36h-2.82v5.71c1.6-0.27,3.26-0.64,4.98-1.09v2.46c-3.03,0.77-6.41,1.38-10.14,1.83l-0.36-2.52
		c0.98-0.05,1.99-0.16,3.01-0.3v-6.1h-3.69c0,0.11-0.01,0.22-0.03,0.33c-0.53,2.75-1.39,5.48-2.57,8.18l-2.3-2.08
		c1.15-2.19,1.93-4.48,2.35-6.89c0.33-2.48,0.49-4.79,0.49-6.92v-8.7h22.15V12.49z M612.95,19.27h4.87v-2.35h-4.05v-2.19h4.05v-2.24
		h-4.59v1.7C613.22,15.85,613.13,17.54,612.95,19.27z M630.23,7.79h-17.01v2.41h17.01V7.79z M625.96,14.73v-2.24h-5.74v2.24H625.96z
		 M620.22,19.27h5.74v-2.35h-5.74V19.27z"/>
</g>
<g>
	<g>
		<g id="XMLID_3_">
			<g>
				<linearGradient id="SVGID_1_" gradientUnits="userSpaceOnUse" x1="-8.9433" y1="7.2509" x2="42.7225" y2="27.9173">
					<stop  offset="5.618000e-03" style="stop-color:#FF2727"/>
					<stop  offset="0.3525" style="stop-color:#FFFF00"/>
					<stop  offset="0.3814" style="stop-color:#F8EE10"/>
					<stop  offset="0.4388" style="stop-color:#E6C13A"/>
					<stop  offset="0.5185" style="stop-color:#C9797D"/>
					<stop  offset="0.5955" style="stop-color:#AA2EC3"/>
					<stop  offset="0.7367" style="stop-color:#4F66C6"/>
					<stop  offset="0.8536" style="stop-color:#0097C9"/>
					<stop  offset="1" style="stop-color:#FFFF00"/>
				</linearGradient>
				<polygon class="st2" points="30.93,19 20.43,29.5 9.93,19 20.43,8.5 				"/>
				<linearGradient id="SVGID_2_" gradientUnits="userSpaceOnUse" x1="-7.8742" y1="4.5781" x2="43.7917" y2="25.2444">
					<stop  offset="5.618000e-03" style="stop-color:#FF2727"/>
					<stop  offset="0.2129" style="stop-color:#FFFF00"/>
					<stop  offset="0.2584" style="stop-color:#F8EE10"/>
					<stop  offset="0.3488" style="stop-color:#E6C13A"/>
					<stop  offset="0.4743" style="stop-color:#C9797D"/>
					<stop  offset="0.5955" style="stop-color:#AA2EC3"/>
					<stop  offset="0.78" style="stop-color:#4F66C6"/>
					<stop  offset="0.9327" style="stop-color:#0097C9"/>
					<stop  offset="1" style="stop-color:#FFFF00"/>
				</linearGradient>
				<polygon class="st3" points="28.18,8.5 26.02,10.66 34.36,19 26.02,27.34 28.18,29.5 38.68,19 				"/>
			</g>
		</g>
	</g>
</g>
<g>
	<g>
		<linearGradient id="SVGID_3_" gradientUnits="userSpaceOnUse" x1="13.3622" y1="36.6047" x2="620.1619" y2="36.6047">
			<stop  offset="0" style="stop-color:#00B987"/>
			<stop  offset="1" style="stop-color:#FFFFFF"/>
		</linearGradient>
		<line class="st4" x1="13.36" y1="36.6" x2="620.16" y2="36.6"/>
	</g>
</g>
</svg>
