<?xml version="1.0" encoding="utf-8"?>
<!-- Generator: Adobe Illustrator 25.2.0, SVG Export Plug-In . SVG Version: 6.00 Build 0)  -->
<svg version="1.1" id="Layer_1" xmlns="http://www.w3.org/2000/svg" xmlns:xlink="http://www.w3.org/1999/xlink" x="0px" y="0px"
	 width="688.39px" height="74px" viewBox="0 0 688.39 74" style="enable-background:new 0 0 688.39 74;" xml:space="preserve">
<style type="text/css">
	.st0{fill:url(#SVGID_1_);}
	.st1{fill:url(#SVGID_2_);}
	.st2{fill:none;stroke:url(#SVGID_3_);stroke-width:2;stroke-miterlimit:10;stroke-dasharray:2,3,2,3,2,3;}
	.st3{enable-background:new    ;}
	.st4{fill:#FFFFFF;}
	.st5{fill:none;stroke:#ABABAB;stroke-miterlimit:10;}
	.st6{fill:none;stroke:#000000;stroke-width:0.5;stroke-miterlimit:10;}
</style>
<symbol  id="New_Symbol_1" viewBox="-14.38 -10.5 28.75 21">
	<g id="XMLID_13_">
		<g>
			<linearGradient id="SVGID_1_" gradientUnits="userSpaceOnUse" x1="-33.2483" y1="11.7491" x2="18.4175" y2="-8.9173">
				<stop  offset="5.618000e-03" style="stop-color:#FF2727"/>
				<stop  offset="0.3525" style="stop-color:#FFFF00"/>
				<stop  offset="0.3814" style="stop-color:#F8EE10"/>
				<stop  offset="0.4388" style="stop-color:#E6C13A"/>
				<stop  offset="0.5185" style="stop-color:#C9797D"/>
				<stop  offset="0.5955" style="stop-color:#AA2EC3"/>
				<stop  offset="0.7367" style="stop-color:#4F66C6"/>
				<stop  offset="0.8536" style="stop-color:#0097C9"/>
				<stop  offset="1" style="stop-color:#FFFF00"/>
			</linearGradient>
			<polygon class="st0" points="6.62,0 -3.88,-10.5 -14.38,0 -3.88,10.5 			"/>
			<linearGradient id="SVGID_2_" gradientUnits="userSpaceOnUse" x1="-32.1792" y1="14.4219" x2="19.4867" y2="-6.2444">
				<stop  offset="5.618000e-03" style="stop-color:#FF2727"/>
				<stop  offset="0.2129" style="stop-color:#FFFF00"/>
				<stop  offset="0.2584" style="stop-color:#F8EE10"/>
				<stop  offset="0.3488" style="stop-color:#E6C13A"/>
				<stop  offset="0.4743" style="stop-color:#C9797D"/>
				<stop  offset="0.5955" style="stop-color:#AA2EC3"/>
				<stop  offset="0.78" style="stop-color:#4F66C6"/>
				<stop  offset="0.9327" style="stop-color:#0097C9"/>
				<stop  offset="1" style="stop-color:#FFFF00"/>
			</linearGradient>
			<polygon class="st1" points="3.88,10.5 1.72,8.34 10.06,0 1.72,-8.34 3.88,-10.5 14.38,0 			"/>
		</g>
	</g>
</symbol>
<symbol  id="New_Symbol_4" viewBox="-299.3 -1 606.8 2">
	<linearGradient id="SVGID_3_" gradientUnits="userSpaceOnUse" x1="-299.2997" y1="0" x2="307.5" y2="0">
		<stop  offset="0" style="stop-color:#00B987"/>
		<stop  offset="1" style="stop-color:#FFFFFF"/>
	</linearGradient>
	<line class="st2" x1="-299.3" y1="0" x2="307.5" y2="0"/>
</symbol>
<g class="st3">
	<path d="M48.52,6.91H53V4.89h2.19v2.02h4.7v2.3h-4.7v1.64h3.99v11.7h-3.99v2.02H60v2.19h-4.81v3.83H53v-3.83h-4.7v-2.19H53v-2.02
		h-3.99v-11.7H53V9.21h-4.48V6.91z M51.09,15.66H53v-2.73h-1.91V15.66z M53,20.47v-2.95h-1.91v2.95H53z M55.19,12.93v2.73h1.91
		v-2.73H55.19z M57.1,20.47v-2.95h-1.91v2.95H57.1z M60.77,19.6h12.47v2.3H68.1v5.8h5.8v2.3H59.67v-2.3h6.02v-5.8h-4.92V19.6z
		 M62.82,8.61l2.21,0.79c-0.69,1.59-1.52,3.06-2.49,4.43c1.24,1.59,2.18,2.97,2.82,4.16L63.04,19c-0.84-1.64-1.85-3.41-3.04-5.3
		C61.02,12.16,61.96,10.47,62.82,8.61z M60.66,5.71h13.02v2.3H60.66V5.71z M66.87,8.83l2.21,0.79c-0.6,1.46-1.32,2.82-2.16,4.07
		c1.15,1.51,2.01,2.83,2.6,3.96l-2.32,1.01c-0.78-1.57-1.72-3.25-2.82-5.06C65.29,12.15,66.12,10.56,66.87,8.83z M71.24,8.94
		l2.21,0.79c-0.6,1.46-1.32,2.83-2.16,4.1c1.04,1.42,1.83,2.66,2.38,3.72l-2.32,1.01c-0.71-1.49-1.58-3.12-2.6-4.87
		C69.66,12.25,70.49,10.67,71.24,8.94z"/>
	<path d="M89.97,5.52v1.56h-9.41V7.9h8.53v1.42h-8.53v0.88h8.42v1.42h-8.42v1.04h9.95v1.53h-2c0.53,0.93,1.01,1.93,1.45,3.01
		l-2.24,0.6c-0.11-0.35-0.23-0.67-0.36-0.98c-1.13,0.15-2.45,0.27-3.96,0.38V19h4.05v2.19h-4.05v0.96c1.31,0.95,2.62,1.99,3.94,3.12
		l-1.31,1.94c-1.02-1.09-1.9-1.98-2.62-2.65v5.82h-2.19v-5.82c-1.13,1.8-2.43,3.34-3.91,4.62l-1.45-2.16
		c2.19-1.64,3.88-3.58,5.09-5.82h-3.66V19h3.94v-1.64c-1.29,0.07-2.71,0.15-4.24,0.22l-0.57-1.97c0.77,0,1.49-0.01,2.16-0.03
		l0.9-1.39h-3.28v-1.53h1.97V5.52H89.97z M86.61,15.17c-0.16-0.36-0.34-0.69-0.52-0.98h-3.91l-0.82,1.34
		C83.4,15.45,85.15,15.33,86.61,15.17z M89.7,17.69l2.13,0.85c-0.64,1.59-1.19,2.74-1.67,3.47c-0.46,0.78-1.26,1.71-2.41,2.79
		l-1.83-1.61c0.98-0.84,1.77-1.67,2.35-2.49C88.84,19.86,89.31,18.85,89.7,17.69z M92.57,20.97L95,21.9
		c-1.17,2.33-2.36,4.26-3.58,5.77c2.11-0.07,3.92-0.18,5.41-0.33c-0.62-1.08-1.27-2.08-1.94-3.01l2.19-0.74
		c1.42,1.86,2.66,3.85,3.72,5.96l-2.27,1.04c-0.2-0.44-0.4-0.85-0.6-1.23c-2.5,0.33-6.04,0.59-10.64,0.79l-0.71-2.41h2.13
		C89.95,26.05,91.24,23.79,92.57,20.97z M98.86,5l1.29,1.67c-1.39,0.88-2.62,1.5-3.72,1.86C95.17,9,93.57,9.46,91.64,9.92
		l-1.23-2.11c1.9-0.35,3.55-0.75,4.95-1.2C96.69,6.17,97.85,5.64,98.86,5z M99.62,8.61l1.29,1.67c-1.5,0.89-2.83,1.54-3.99,1.94
		c-1.37,0.47-3.09,0.95-5.17,1.42l-1.23-2.11c2.04-0.35,3.82-0.77,5.33-1.26C97.27,9.82,98.53,9.26,99.62,8.61z M100.01,12.76
		l1.34,1.75c-1.57,0.88-2.95,1.5-4.16,1.89c-0.86,0.27-1.83,0.56-2.93,0.85h3.17c0.73,1.99,2.25,3.85,4.57,5.58l-1.5,2.08
		c-1.15-0.86-2.08-1.73-2.79-2.62c-0.71-0.84-1.32-1.79-1.83-2.84h-2.95v-1.89c-0.36,0.09-0.75,0.17-1.15,0.25l-1.26-2.21
		c2.13-0.35,3.98-0.75,5.55-1.2C97.56,13.92,98.88,13.38,100.01,12.76z"/>
	<path d="M114.14,5.22h2.84v8.15h11.05v2.52h-11.05v11.43h12.47v2.62H104.3v-2.62h9.84V5.22z"/>
	<path d="M155.24,5l1.45,2.49c-2.84,0.69-6.14,1.22-9.9,1.59v3.8h9.35v2.62h-9.35v3.88h10.88v2.73h-10.88v5.09
		c0,1.08-0.23,1.83-0.68,2.27c-0.42,0.46-1.22,0.68-2.41,0.68h-4.4l-0.66-2.95c1.73,0.15,3.15,0.22,4.27,0.22
		c0.77,0,1.15-0.24,1.15-0.71v-4.59h-12.2v-2.73h12.2V15.5h-10.34v-2.62h10.34V9.29c-3.14,0.2-6.54,0.3-10.2,0.3l-0.9-2.65
		C141.72,6.94,149.15,6.29,155.24,5z"/>
	<path d="M174.68,17.19c0,1.7-0.78,3.14-2.35,4.32l-0.98-1.2c0.93-0.75,1.48-1.6,1.64-2.57h-1.91v-3.58h3.61V17.19z"/>
	<path d="M211.16,11.62c-0.09,2.42-0.17,4.58-0.25,6.45h2.87v2.3h-2.95c-0.11,1.99-0.2,3.59-0.27,4.81h2.9v2.3h-3.09
		c-0.02,0.22-0.04,0.39-0.05,0.52c-0.09,0.89-0.41,1.54-0.96,1.94c-0.58,0.44-2.26,0.66-5.03,0.66l-0.82-2.32
		c1.18,0.09,2.26,0.14,3.23,0.14c0.77,0,1.18-0.31,1.23-0.93h-17.58c0.46-2.39,0.82-4.76,1.09-7.11h-3.5v-2.3h3.72
		c0.2-2.19,0.33-4.34,0.38-6.45H211.16z M193.77,4.78l2.62,0.57c-0.35,0.64-0.69,1.23-1.04,1.78h17.88v2.52h-19.61
		c-1.15,1.53-2.32,2.79-3.53,3.77l-1.91-2.3C190.65,9.23,192.51,7.11,193.77,4.78z M208.12,25.18c0.07-1.22,0.15-2.83,0.22-4.81
		h-14.22c-0.2,1.95-0.43,3.55-0.68,4.81h9.65c-1.99-1-4-1.81-6.04-2.43l1.26-1.89c2.46,0.66,4.7,1.45,6.73,2.38l-1.29,1.94H208.12z
		 M194.31,18.07h8.56c-1.86-0.75-3.76-1.32-5.71-1.72l1.04-2.05c2.02,0.4,4.12,0.99,6.29,1.78l-0.82,2h4.73
		c0.05-1.28,0.1-2.66,0.14-4.16h-13.95C194.51,15.43,194.42,16.81,194.31,18.07z"/>
	<path d="M221,5l2.3,1.07c-0.6,2.02-1.22,3.76-1.86,5.22v19.3h-2.41V15.55c-0.69,1.04-1.44,2.08-2.24,3.12l-0.93-3.06
		c1.06-1.46,1.99-2.96,2.79-4.51C219.47,9.69,220.25,7.66,221,5z M240.2,6.31v24.06h-2.52v-1.37H226.2v1.37h-2.52V6.31H240.2z
		 M226.2,26.49h11.48V8.5H226.2V26.49z M227.02,11.78h3.58V9.37h2.43v2.41h3.83v2.19h-3.83v2.79h2.68v7.88h-7.77v-7.88h2.65v-2.79
		h-3.58V11.78z M233.42,22.55v-3.72h-3.17v3.72H233.42z"/>
	<path d="M258.35,11.45c0.91,4.1,2.3,7.45,4.16,10.04c1.48,2.19,3.9,4.41,7.27,6.67l-1.94,2.54c-2.77-1.82-4.87-3.62-6.29-5.39
		c-1.84-2.13-3.33-4.75-4.46-7.85c-0.91,3.25-2.16,5.74-3.75,7.49c-1.64,1.97-4.17,3.88-7.57,5.74l-1.8-2.54
		c4.19-2.52,7.1-5.28,8.72-8.29c1.6-2.88,2.43-5.69,2.49-8.42V4.78h3.17V11.45z"/>
	<path d="M273.17,7.73h4.43V4.89h2.52v2.84h3.77v2.19h-3.77v3.06h1.7c1.33-1.49,2.72-3.46,4.16-5.91l1.97,1.04
		c-0.97,1.79-2.01,3.41-3.12,4.87h1.91v2.19h-3.77c-0.47,0.51-0.96,0.98-1.45,1.42c-0.49,0.46-0.99,0.88-1.5,1.26h5.63v12.74h-2.41
		v-1.7h-6.07v1.8h-2.52v-9.82c-0.49,0.22-1.01,0.43-1.56,0.63l-1.34-2.02c3.12-1.22,5.7-2.66,7.74-4.32h-7.08v-2.19h5.2V9.92h-4.43
		V7.73z M277.17,22.28h6.07v-2.35h-6.07V22.28z M277.17,26.82h6.07v-2.57h-6.07V26.82z M287.99,6.2h9.35v1.97
		c-0.84,2.95-1.75,5.69-2.73,8.2c1.28,1.68,2.08,2.96,2.41,3.86c0.44,0.97,0.66,1.91,0.66,2.84c0,1.71-0.33,3-0.98,3.86
		c-0.66,0.84-2.31,1.26-4.95,1.26l-0.85-2.73c0.84,0.09,1.68,0.14,2.52,0.14c0.6,0,1.04-0.22,1.31-0.66c0.2-0.33,0.3-0.95,0.3-1.86
		c0.04-0.6-0.13-1.34-0.49-2.21c-0.38-0.89-1.27-2.39-2.65-4.48c1.11-2.79,1.99-5.38,2.62-7.77h-3.99v21.98h-2.52V6.2z"/>
	<path d="M300.19,6.26h25.38v2.52h-3.5v18.65c0,1.08-0.24,1.83-0.71,2.27c-0.46,0.46-1.29,0.68-2.49,0.68h-4.35l-0.66-2.95
		c1.7,0.15,3.09,0.22,4.18,0.22c0.78,0,1.18-0.24,1.18-0.71V8.77h-19.03V6.26z M303.2,12.65h11.7v11.37h-11.7V12.65z M312.17,21.62
		v-6.56h-6.23v6.56H312.17z"/>
	<path d="M331.25,5.22h2.84v17.75c2.11-0.8,4.24-1.72,6.37-2.76l0.74,2.65c-3.23,1.8-7.25,3.4-12.06,4.79l-1.18-2.73
		c1.08-0.27,2.17-0.58,3.28-0.93V5.22z M346.89,5.22h2.84c-0.05,5.76-0.66,10.42-1.8,13.97c2.21,2.72,4.08,5.4,5.63,8.04l-2.27,2.27
		c-1.15-2.24-2.69-4.64-4.62-7.19c-1.53,2.9-4.31,5.62-8.34,8.18l-2.05-2.46c3.86-2.24,6.48-4.65,7.85-7.22
		C345.84,17.59,346.76,12.4,346.89,5.22z M338.61,7.84c1.95,3.08,3.47,5.72,4.57,7.93l-2.73,1.91c-1-2.44-2.39-5.23-4.16-8.37
		L338.61,7.84z"/>
	<path d="M356.52,6.91H361V4.89h2.19v2.02h4.7v2.3h-4.7v1.64h3.99v11.7h-3.99v2.02H368v2.19h-4.81v3.83H361v-3.83h-4.7v-2.19h4.7
		v-2.02h-3.99v-11.7H361V9.21h-4.48V6.91z M359.09,15.66H361v-2.73h-1.91V15.66z M361,20.47v-2.95h-1.91v2.95H361z M363.19,12.93
		v2.73h1.91v-2.73H363.19z M365.1,20.47v-2.95h-1.91v2.95H365.1z M368.77,19.6h12.47v2.3h-5.14v5.8h5.8v2.3h-14.22v-2.3h6.02v-5.8
		h-4.92V19.6z M370.82,8.61l2.21,0.79c-0.69,1.59-1.52,3.06-2.49,4.43c1.24,1.59,2.18,2.97,2.82,4.16L371.04,19
		c-0.84-1.64-1.85-3.41-3.04-5.3C369.02,12.16,369.96,10.47,370.82,8.61z M368.66,5.71h13.02v2.3h-13.02V5.71z M374.87,8.83
		l2.21,0.79c-0.6,1.46-1.32,2.82-2.16,4.07c1.15,1.51,2.01,2.83,2.6,3.96l-2.32,1.01c-0.78-1.57-1.72-3.25-2.82-5.06
		C373.29,12.15,374.12,10.56,374.87,8.83z M379.24,8.94l2.21,0.79c-0.6,1.46-1.32,2.83-2.16,4.1c1.04,1.42,1.83,2.66,2.38,3.72
		l-2.32,1.01c-0.71-1.49-1.58-3.12-2.6-4.87C377.66,12.25,378.49,10.67,379.24,8.94z"/>
	<path d="M397.97,5.52v1.56h-9.41V7.9h8.53v1.42h-8.53v0.88h8.42v1.42h-8.42v1.04h9.95v1.53h-2c0.53,0.93,1.01,1.93,1.45,3.01
		l-2.24,0.6c-0.11-0.35-0.23-0.67-0.36-0.98c-1.13,0.15-2.45,0.27-3.96,0.38V19h4.05v2.19h-4.05v0.96c1.31,0.95,2.62,1.99,3.94,3.12
		l-1.31,1.94c-1.02-1.09-1.9-1.98-2.62-2.65v5.82h-2.19v-5.82c-1.13,1.8-2.43,3.34-3.91,4.62l-1.45-2.16
		c2.19-1.64,3.88-3.58,5.09-5.82h-3.66V19h3.94v-1.64c-1.29,0.07-2.71,0.15-4.24,0.22l-0.57-1.97c0.77,0,1.49-0.01,2.16-0.03
		l0.9-1.39h-3.28v-1.53h1.97V5.52H397.97z M394.61,15.17c-0.16-0.36-0.34-0.69-0.52-0.98h-3.91l-0.82,1.34
		C391.4,15.45,393.15,15.33,394.61,15.17z M397.7,17.69l2.13,0.85c-0.64,1.59-1.19,2.74-1.67,3.47c-0.46,0.78-1.26,1.71-2.41,2.79
		l-1.83-1.61c0.98-0.84,1.77-1.67,2.35-2.49C396.84,19.86,397.31,18.85,397.7,17.69z M400.57,20.97L403,21.9
		c-1.17,2.33-2.36,4.26-3.58,5.77c2.11-0.07,3.92-0.18,5.41-0.33c-0.62-1.08-1.27-2.08-1.94-3.01l2.19-0.74
		c1.42,1.86,2.66,3.85,3.72,5.96l-2.27,1.04c-0.2-0.44-0.4-0.85-0.6-1.23c-2.5,0.33-6.04,0.59-10.64,0.79l-0.71-2.41h2.13
		C397.95,26.05,399.24,23.79,400.57,20.97z M406.86,5l1.29,1.67c-1.39,0.88-2.62,1.5-3.72,1.86c-1.26,0.47-2.85,0.94-4.79,1.39
		l-1.23-2.11c1.9-0.35,3.55-0.75,4.95-1.2C404.69,6.17,405.85,5.64,406.86,5z M407.62,8.61l1.29,1.67c-1.5,0.89-2.83,1.54-3.99,1.94
		c-1.37,0.47-3.09,0.95-5.17,1.42l-1.23-2.11c2.04-0.35,3.82-0.77,5.33-1.26C405.27,9.82,406.53,9.26,407.62,8.61z M408.01,12.76
		l1.34,1.75c-1.57,0.88-2.95,1.5-4.16,1.89c-0.86,0.27-1.83,0.56-2.93,0.85h3.17c0.73,1.99,2.25,3.85,4.57,5.58l-1.5,2.08
		c-1.15-0.86-2.08-1.73-2.79-2.62c-0.71-0.84-1.32-1.79-1.83-2.84h-2.95v-1.89c-0.36,0.09-0.75,0.17-1.15,0.25l-1.26-2.21
		c2.13-0.35,3.98-0.75,5.55-1.2C405.56,13.92,406.88,13.38,408.01,12.76z"/>
	<path d="M412.3,12.22h2.9v-7h2.73v7h2.9v2.62h-2.9v8.42c0.95-0.38,1.91-0.83,2.9-1.34v2.9c-2.42,1.22-5.13,2.2-8.12,2.93
		l-0.41-2.95c0.93-0.11,1.9-0.31,2.9-0.6v-9.35h-2.9V12.22z M437.07,9.35l-0.11,9.46c-0.04,1.22-0.26,2.15-0.68,2.79
		c-0.42,0.6-1.63,0.9-3.64,0.9l-1.09-2.62h1.56c0.56,0,0.91-0.12,1.04-0.36c0.11-0.2,0.17-0.7,0.19-1.5v-4.98l-3.5,1.34v10.42h-2.52
		v-9.43l-3.01,1.15v9.82c0,0.66,0.35,0.98,1.04,0.98h7.25c0.56,0,0.98-0.12,1.23-0.36c0.31-0.24,0.52-1.32,0.63-3.25l2.54,0.82
		c-0.26,2.61-0.67,4.14-1.26,4.59c-0.51,0.47-1.44,0.71-2.79,0.71h-8.61c-0.8,0-1.44-0.24-1.91-0.71c-0.49-0.49-0.74-1.15-0.74-1.97
		v-9.62l-2.19,0.82v-2.62l2.19-0.82V7.95h2.62v5.93l3.01-1.15V5.22h2.52v6.54L437.07,9.35z"/>
	<path d="M440.41,10.03h3.88V4.89h2.73v5.14h3.66v2.41h-3.66v5.44c1.22-0.4,2.44-0.88,3.66-1.42v2.68
		c-1.17,0.49-2.39,0.94-3.66,1.34v7.16c0,1.04-0.23,1.77-0.68,2.19c-0.44,0.44-1.24,0.66-2.41,0.66h-2.46l-0.63-2.84
		c0.93,0.13,1.7,0.19,2.3,0.19c0.77,0,1.15-0.23,1.15-0.68v-5.85c-1.22,0.33-2.46,0.62-3.72,0.88l-0.38-2.73
		c1.35-0.13,2.72-0.37,4.1-0.74v-6.26h-3.88V10.03z M464.74,10.74l0.41,2.52l-8.34,1.26c0.24,2.21,0.56,4.07,0.96,5.61
		c1.46-1.35,2.9-2.96,4.32-4.84l2.27,1.42c-1.99,2.64-3.86,4.68-5.63,6.1c1.4,3.12,2.41,4.68,3.01,4.68c0.47,0,1.03-1.44,1.67-4.32
		l2.27,1.56c-0.78,2.86-1.5,4.58-2.16,5.17c-0.44,0.47-0.92,0.71-1.45,0.71c-1.11,0-2.24-0.67-3.39-2
		c-0.86-1.08-1.61-2.42-2.27-4.02c-1.68,1.17-3.64,2.33-5.88,3.5l-1.48-2.43c2.26-0.88,4.4-2.08,6.43-3.61
		c-0.16-0.49-0.31-1-0.44-1.53c-0.38-1.6-0.67-3.46-0.88-5.58l-3.42,0.52l-0.38-2.52l3.61-0.57c-0.15-2.24-0.22-4.69-0.22-7.36h2.62
		c0,2.57,0.07,4.89,0.22,6.97L464.74,10.74z M460.29,5.87c1.37,1.11,2.43,2.06,3.2,2.84l-2.52,1.75c-0.69-0.93-1.63-2-2.82-3.23
		L460.29,5.87z"/>
	<path d="M468.3,5.52h14.55v2.43h-7.14l-2.49,5.58c2.22-0.07,4.27-0.18,6.12-0.33c-0.38-0.89-0.78-1.8-1.2-2.73l2.05-1.31
		c1.31,2.5,2.34,4.64,3.09,6.43l-2.41,1.67c-0.18-0.58-0.39-1.18-0.63-1.78c-0.97,0.13-2.16,0.26-3.58,0.38v3.58h5.2v2.41h-5.2v4.32
		c2.15-0.27,4.25-0.59,6.29-0.96v2.41c-4.03,0.71-8.77,1.41-14.22,2.11l-0.66-2.73c2.08-0.13,4.1-0.31,6.07-0.55v-4.59h-5.09v-2.41
		h5.09v-3.36c-1.51,0.11-3.21,0.21-5.09,0.3l-0.46-2.73c0.58,0,1.14-0.01,1.67-0.03l2.49-5.66h-4.46V5.52z M484.21,6.75h2.73v17.72
		h-2.73V6.75z M489.41,30.15h-3.72l-0.66-2.95c1.46,0.15,2.66,0.22,3.61,0.22c0.73,0,1.09-0.24,1.09-0.71V4.89h2.62V27.2
		c0,1.08-0.22,1.83-0.66,2.27C491.29,29.93,490.52,30.15,489.41,30.15z"/>
	<path d="M506.22,4.89l2.87,0.41c-0.22,0.86-0.54,1.65-0.96,2.38h11.02v22.48h-2.62v-1.48h-15.75v1.48h-2.62V7.68h7.11
		C505.69,6.79,506.01,5.86,506.22,4.89z M500.78,13.37h15.75v-3.17h-15.75V13.37z M500.78,19.6h15.75v-3.72h-15.75V19.6z
		 M500.78,26.16h15.75v-4.05h-15.75V26.16z"/>
	<path d="M546.45,17.03H529v8.04c0,0.82,0.15,1.39,0.46,1.72c0.4,0.27,1.08,0.41,2.02,0.41h13.59c0.66,0,1.1-0.17,1.34-0.52
		c0.31-0.46,0.49-2.07,0.55-4.84l2.71,0.88c0,1.24-0.11,2.5-0.33,3.77c-0.22,1.06-0.56,1.84-1.01,2.35
		c-0.57,0.58-1.5,0.88-2.82,0.88h-15.09c-1.46,0-2.51-0.3-3.14-0.9c-0.75-0.67-1.12-1.92-1.12-3.75V14.4h17.34V8.72h-18.54V6.09
		h21.49V17.03z"/>
	<path d="M562.14,5.22h2.84v8.15h11.05v2.52h-11.05v11.43h12.47v2.62H552.3v-2.62h9.84V5.22z"/>
	<path d="M580.3,10.14h3.5V4.89h2.62v5.25h3.61v2.38h-3.61v0.9c1.37,1.33,2.75,2.82,4.16,4.46l-1.56,2.32
		c-1-1.51-1.87-2.75-2.6-3.72v14.11h-2.62V18.53c-0.8,1.95-1.73,3.67-2.79,5.17l-1.26-3.2c1.66-2.21,3.01-4.74,4.05-7.6v-0.38h-3.5
		V10.14z M604.22,4.89l1.45,2.62c-3.46,0.69-7.35,1.1-11.65,1.23v3.53h10.88v2.16c-0.62,3.77-1.72,6.98-3.31,9.62
		c1.26,1.35,2.72,2.51,4.4,3.47l-1.56,2.54c-1.75-1.2-3.24-2.46-4.46-3.77c-1.5,1.59-3.5,2.98-6.02,4.18l-1.53-2.32
		c2.46-1.11,4.4-2.44,5.82-3.99c-0.26-0.36-0.48-0.71-0.68-1.04c-1.46-2.28-2.49-5.06-3.09-8.34h-0.46v1.15
		c-0.05,2.44-0.35,5.03-0.88,7.77c-0.49,2.33-1.31,4.56-2.46,6.67l-1.97-2.05c0.93-1.77,1.6-3.57,2.02-5.41
		c0.38-2,0.64-4.33,0.77-6.97V6.37C596.61,6.37,600.85,5.87,604.22,4.89z M597.12,14.79c0.58,2.86,1.48,5.2,2.68,7
		c0.04,0.07,0.07,0.13,0.11,0.16c1.09-1.99,1.9-4.38,2.41-7.16H597.12z"/>
	<path d="M613.85,5l2.54,0.36c-0.31,1.44-0.76,2.76-1.34,3.96h3.96v5.88c0.82-1.37,1.45-2.71,1.89-4.02
		c0.56-1.57,1.02-3.66,1.37-6.29l2.76,0.46c-0.26,1.46-0.5,2.74-0.74,3.86h8.61c0,9.86-0.16,15.71-0.46,17.53
		c-0.24,1.44-0.69,2.37-1.37,2.79c-0.78,0.56-2.22,0.85-4.32,0.85c-0.6,0-1.3-0.04-2.11-0.11l-0.49-2.73
		c0.86,0.11,1.73,0.16,2.62,0.16c1.71,0,2.67-0.57,2.87-1.72c0.35-1.46,0.56-6.21,0.63-14.25h-6.67c-0.05,0.2-0.11,0.38-0.16,0.55
		c-0.6,2.01-1.64,4.14-3.12,6.4l-1.31-1.61v11.46h-2.41v-1.37h-5.14v2.13h-2.41V9.32h3.47C613.14,7.95,613.58,6.51,613.85,5z
		 M611.47,17.14h5.14v-5.52h-5.14V17.14z M611.47,24.85h5.14v-5.52h-5.14V24.85z M624.54,15.5c1.57,2.55,2.79,4.75,3.66,6.59
		l-2.62,1.83c-0.78-2.04-1.88-4.38-3.28-7L624.54,15.5z"/>
	<path d="M49.28,39.75h23.19v2.3H62.08v10.01h11.38v2.41H62.08v9.73h-2.62v-9.73H48.3v-2.41h11.16V42.04H49.28V39.75z M53.25,43.52
		c0.93,1.86,1.83,3.92,2.71,6.18l-2.52,1.26c-0.8-2.31-1.68-4.4-2.62-6.26L53.25,43.52z M68.53,43.52l2.41,1.15
		c-0.8,2.17-1.86,4.27-3.17,6.29l-2.41-1.26C66.69,47.57,67.75,45.51,68.53,43.52z"/>
	<path d="M81.06,38.71l1.7,1.5c-1.42,1.79-3.22,3.4-5.39,4.84l-1.61-2.08C77.72,41.82,79.49,40.4,81.06,38.71z M80.65,45.71
		l2.11,0.98v-1.23c-0.13,0.09-0.26,0.17-0.38,0.25l-1.48-1.91c1.15-0.75,2.11-1.55,2.9-2.41c0.6-0.66,1.17-1.62,1.7-2.9l2.41,0.3
		c-0.16,0.49-0.35,0.94-0.55,1.34h5.06v1.64c-0.49,0.93-0.98,1.73-1.45,2.41h2.52V55h-4.29c-0.02,0.49-0.06,0.95-0.14,1.37H95v2.08
		h-5.99c1.51,0.89,3.04,1.9,4.57,3.04l-1.31,1.94c-1.82-1.55-3.29-2.68-4.4-3.39c-0.13,0.24-0.26,0.45-0.38,0.63
		c-1,1.49-2.64,2.63-4.92,3.42l-1.23-1.94c2.19-0.78,3.67-1.78,4.46-2.98c0.16-0.24,0.3-0.47,0.41-0.71h-4.32v-2.08h4.95
		c0.09-0.42,0.15-0.88,0.16-1.37h-4.24v-8.01c-0.6,1.35-1.22,2.47-1.86,3.36v13.84h-2.41V53.17c-0.57,0.55-1.15,1.08-1.75,1.61
		l-0.88-2.95c0.98-0.84,1.85-1.7,2.6-2.6C79.22,48.41,79.95,47.24,80.65,45.71z M84.34,44.18h3.83c0.56-0.58,1.15-1.28,1.75-2.08
		H86.2c-0.13,0.2-0.27,0.39-0.44,0.57C85.34,43.22,84.87,43.72,84.34,44.18z M84.94,48.61h2.08v-2.49h-2.08V48.61z M87.02,53.04
		v-2.57h-2.08v2.57H87.02z M89.21,46.12v2.49h2.08v-2.49H89.21z M91.28,53.04v-2.57h-2.08v2.57H91.28z M94.15,47.51h7.63v2.52h-2.46
		v11.21c0,1-0.21,1.7-0.63,2.11c-0.4,0.42-1.13,0.63-2.19,0.63H94.4l-0.6-2.73c0.8,0.13,1.46,0.19,1.97,0.19
		c0.69,0,1.04-0.22,1.04-0.66V50.03h-2.65V47.51z M94.46,40.07h6.78v2.52h-6.78V40.07z"/>
	<path d="M105.5,58.39l1.97,0.25c-0.2,2.15-0.58,3.96-1.15,5.44l-2.24-0.68C104.79,61.85,105.26,60.18,105.5,58.39z M105.06,39.09
		h11.92v10.5h-5.14v1.64h4.81v2.08h-4.81v1.89c1.95-0.13,3.74-0.29,5.36-0.49v1.97c-2.37,0.38-6.52,0.74-12.44,1.07l-0.36-2.3
		c1.88-0.02,3.63-0.06,5.25-0.14v-2h-4.38v-2.08h4.38v-1.64h-4.59V39.09z M109.66,47.51v-6.34h-2.62v6.34H109.66z M108.73,42.43
		c0.31,1.13,0.58,2.42,0.82,3.88l-1.48,0.38c-0.18-1.33-0.42-2.61-0.71-3.83L108.73,42.43z M110.12,58.5
		c0.31,1.26,0.52,2.95,0.63,5.09l-2.24,0.27c-0.04-2.21-0.13-3.92-0.27-5.14L110.12,58.5z M113.02,58.18
		c0.42,1.39,0.79,2.96,1.12,4.73l-2.02,0.52c-0.24-1.6-0.55-3.15-0.93-4.65L113.02,58.18z M115.02,47.51v-6.34h-3.17v6.34H115.02z
		 M113.21,42.54l1.37,0.36c-0.11,1.4-0.34,2.74-0.68,4.02l-1.5-0.49C112.81,45.21,113.08,43.92,113.21,42.54z M115.73,57.85
		c0.64,1.51,1.13,2.89,1.48,4.13l-1.86,0.68c-0.33-1.5-0.73-2.95-1.2-4.38L115.73,57.85z M121.2,38.49h2.52v4.65h5.85v2.3h-5.85
		v5.25h4.98v13.51h-2.41v-1.91h-5.69v1.91h-2.41V50.68h3.01V38.49z M120.6,59.98h5.69v-7h-5.69V59.98z"/>
	<path d="M146.68,50.79c0,1.7-0.78,3.14-2.35,4.32l-0.98-1.2c0.93-0.75,1.48-1.6,1.64-2.57h-1.91v-3.58h3.61V50.79z"/>
	<path d="M160.79,39.64h7.6v1.94c-0.55,2.08-1.19,4.28-1.91,6.62c0.66,1.28,1.12,2.42,1.39,3.45c0.35,1.06,0.52,1.96,0.52,2.71
		c-0.04,1.5-0.27,2.57-0.71,3.23c-0.49,0.77-1.57,1.15-3.23,1.15l-0.77-2.6c0.47,0.13,0.91,0.19,1.31,0.19
		c0.33,0,0.56-0.14,0.71-0.41c0.18-0.27,0.27-0.79,0.27-1.56c0-0.84-0.12-1.62-0.36-2.35c-0.27-0.97-0.8-2.11-1.59-3.45
		c0.91-2.61,1.56-4.81,1.94-6.62h-2.68v22.26h-2.52V39.64z M173.31,40.24h3.36c0.16-0.55,0.31-1.13,0.44-1.75l2,0.33
		c-0.13,0.53-0.25,1-0.36,1.42h6.48v1.97h-7.14c-0.16,0.46-0.33,0.84-0.49,1.15h6.64V45h-3.06v1.42h3.72v1.64h-9.3v-1.53
		c-0.33,0.42-0.69,0.84-1.09,1.26l-1.12-1.37c-0.62,1.73-1.42,3.52-2.41,5.36h2.93v1.5c-0.42,2.3-0.87,3.99-1.34,5.09
		c-0.02,0.05-0.04,0.11-0.05,0.16c0.93,1,1.93,1.7,3.01,2.08c1.33,0.42,3.44,0.63,6.32,0.63c1.22,0,2.35-0.05,3.39-0.14l-0.46,2.57
		c-4.9-0.05-8.11-0.33-9.62-0.82c-1.37-0.49-2.55-1.25-3.55-2.27c-0.64,1.22-1.43,2.5-2.38,3.83l-1.7-1.78
		c1.26-1.59,2.14-2.97,2.65-4.16c0.42-0.75,0.91-2.29,1.48-4.62h-2.98V52c0.78-1.35,1.61-3.12,2.49-5.3h-2.87V44.5h5.14v1.2
		c1.02-1.04,1.79-2.05,2.3-3.04c0.09-0.16,0.17-0.32,0.25-0.46h-2.65V40.24z M170.63,38.82c1,1.51,1.79,2.81,2.35,3.88l-1.97,1.37
		c-0.51-1.22-1.2-2.62-2.08-4.18L170.63,38.82z M180.34,60.25l-0.46-2.08l1.56,0.08c0.49-0.04,0.74-0.35,0.74-0.93v-0.66h-4.92v3.45
		h-2.19V49.1h9.3v8.83c0,0.78-0.2,1.38-0.6,1.78c-0.33,0.36-0.81,0.55-1.45,0.55H180.34z M175.69,46.42h3.53V45h-2.49
		C176.44,45.47,176.09,45.94,175.69,46.42z M177.25,52.16h4.92v-1.31h-4.92V52.16z M177.25,55.11h4.92v-1.42h-4.92V55.11z"/>
	<path d="M197.05,40.46v21h-2.41v-2.08h-3.5v2.73h-2.41V40.46H197.05z M191.14,48.77h3.5v-5.91h-3.5V48.77z M191.14,56.97h3.5v-5.8
		h-3.5V56.97z M198.36,41.22h5.91V38.6h2.41v2.62h6.12v2.41h-6.12v2.79h7v2.52h-2.79v3.01h3.01v2.41h-3.01v6.67
		c0,1-0.21,1.7-0.63,2.11c-0.4,0.42-1.13,0.63-2.19,0.63h-3.42l-0.6-2.73c1.33,0.13,2.42,0.19,3.28,0.19c0.69,0,1.04-0.22,1.04-0.66
		v-6.21H197.6v-2.41h10.77v-3.01h-10.55v-2.52h6.45v-2.79h-5.91V41.22z M201.18,55.11c1.79,1.57,3.18,2.92,4.18,4.05l-2.52,1.75
		c-0.91-1.28-2.19-2.75-3.83-4.43L201.18,55.11z"/>
	<path d="M227.51,39.36v10.39h-8.2v14.44h-2.52V39.36H227.51z M219.31,43.36h5.69v-1.8h-5.69V43.36z M219.31,47.57h5.69v-2.13h-5.69
		V47.57z M222.92,51.07h11.48v10.61h-11.48V51.07z M225.43,55.17h6.45v-1.91h-6.45V55.17z M231.88,59.49v-2.24h-6.45v2.24H231.88z
		 M230.96,39.36h9.73v22.01c0,1.02-0.26,1.77-0.79,2.24c-0.49,0.46-1.29,0.68-2.38,0.68h-2.02l-0.6-2.63l2.08,0.08
		c0.73,0,1.09-0.41,1.09-1.23V49.75h-8.42V39.36H230.96z M232.27,43.52h5.8v-1.97h-5.8V43.52z M232.27,47.57h5.8v-2.08h-5.8V47.57z"
		/>
	<path d="M251.74,58.18l1.42,1.83c-1.26,0.86-2.38,1.49-3.36,1.89c-1.15,0.49-2.6,0.97-4.35,1.42l-1.37-2.32
		c1.71-0.35,3.21-0.75,4.48-1.2C249.77,59.35,250.82,58.81,251.74,58.18z M246.65,38.87h20.56v9.62h-8.86l-5.11,2.71
		c2.46-0.07,4.91-0.31,7.36-0.71c0.89-0.53,1.82-1.1,2.79-1.72l2.35,1.56c-3.21,1.9-5.93,3.29-8.18,4.18
		c-0.86,0.33-1.81,0.67-2.87,1.01c3.17-0.15,6.32-0.43,9.43-0.85c-0.42-0.49-0.87-0.98-1.34-1.48l1.97-1.26
		c2,1.91,3.57,3.56,4.7,4.95l-2.3,1.61c-0.44-0.64-0.9-1.28-1.39-1.91c-2.35,0.31-4.91,0.55-7.68,0.71v6.67h-2.62v-6.54
		c-3.12,0.13-6.46,0.19-10.04,0.19l-0.46-2.43c1.6,0.15,2.85,0.26,3.75,0.36c2.79-0.73,5.05-1.49,6.78-2.3
		c0.38-0.18,0.77-0.37,1.18-0.57c-2.75,0.2-5.83,0.3-9.24,0.3l-0.38-2.11c0.93,0.09,1.71,0.16,2.35,0.22l4.95-2.6h-7.68V38.87z
		 M249.17,42.81h6.29v-1.86h-6.29V42.81z M255.46,46.42v-1.75h-6.29v1.75H255.46z M258.08,40.95v1.86h6.62v-1.86H258.08z
		 M264.7,46.42v-1.75h-6.62v1.75H264.7z M261.72,57.85c2.83,0.97,5.4,2.11,7.74,3.45l-1.53,2.38c-2.44-1.62-4.96-2.91-7.55-3.86
		L261.72,57.85z"/>
	<path d="M280.94,38.93l0.88,2.32c-1,0.35-2.13,0.64-3.39,0.88v3.96h3.28v2.3h-3.28v1.2c1.26,1.28,2.53,2.7,3.83,4.27l-1.42,2.13
		c-0.93-1.44-1.73-2.63-2.41-3.58v11.68h-2.41V52.9c-0.02,0.04-0.03,0.06-0.03,0.08c-0.84,2.24-1.86,4.19-3.06,5.85l-1.07-2.73
		c1.64-2.24,2.96-4.81,3.96-7.71h-3.53v-2.3h3.72v-3.55c-0.88,0.13-1.77,0.24-2.68,0.33l-0.49-2.32
		C275.87,40.28,278.57,39.75,280.94,38.93z M286.85,60.47l1.42,1.64c-2.35,0.98-4.7,1.71-7.05,2.19l-1.04-2.19
		C282.73,61.77,284.95,61.22,286.85,60.47z M282.36,40.13h5.8v-1.64h2.41v1.64h6.23v1.97h-6.23v1.26h5.47v1.86h-5.47v1.26h7.22v1.97
		h-15.75v-1.97h6.12v-1.26h-5v-1.86h5V42.1h-5.8V40.13z M283.02,49.48h13.34v10.61h-13.34V49.48z M285.42,52.54h8.53v-1.2h-8.53
		V52.54z M285.42,55.39h8.53v-1.2h-8.53V55.39z M293.96,58.23v-1.2h-8.53v1.2H293.96z M291.28,60.36c2.04,0.36,4.17,0.91,6.4,1.64
		l-0.93,2.3c-2.06-0.84-4.23-1.47-6.51-1.89L291.28,60.36z"/>
	<path d="M314.68,50.79c0,1.7-0.78,3.14-2.35,4.32l-0.98-1.2c0.93-0.75,1.48-1.6,1.64-2.57h-1.91v-3.58h3.61V50.79z"/>
	<path d="M329.28,39.75h23.19v2.3h-10.39v10.01h11.38v2.41h-11.38v9.73h-2.62v-9.73H328.3v-2.41h11.16V42.04h-10.17V39.75z
		 M333.25,43.52c0.93,1.86,1.83,3.92,2.71,6.18l-2.52,1.26c-0.8-2.31-1.68-4.4-2.62-6.26L333.25,43.52z M348.53,43.52l2.41,1.15
		c-0.8,2.17-1.86,4.27-3.17,6.29l-2.41-1.26C346.69,47.57,347.75,45.51,348.53,43.52z"/>
	<path d="M361.06,38.71l1.7,1.5c-1.42,1.79-3.22,3.4-5.39,4.84l-1.61-2.08C357.72,41.82,359.49,40.4,361.06,38.71z M360.65,45.71
		l2.11,0.98v-1.23c-0.13,0.09-0.26,0.17-0.38,0.25l-1.48-1.91c1.15-0.75,2.11-1.55,2.9-2.41c0.6-0.66,1.17-1.62,1.7-2.9l2.41,0.3
		c-0.16,0.49-0.35,0.94-0.55,1.34h5.06v1.64c-0.49,0.93-0.98,1.73-1.45,2.41h2.52V55h-4.29c-0.02,0.49-0.06,0.95-0.14,1.37H375v2.08
		h-5.99c1.51,0.89,3.04,1.9,4.57,3.04l-1.31,1.94c-1.82-1.55-3.29-2.68-4.4-3.39c-0.13,0.24-0.26,0.45-0.38,0.63
		c-1,1.49-2.64,2.63-4.92,3.42l-1.23-1.94c2.19-0.78,3.67-1.78,4.46-2.98c0.16-0.24,0.3-0.47,0.41-0.71h-4.32v-2.08h4.95
		c0.09-0.42,0.15-0.88,0.16-1.37h-4.24v-8.01c-0.6,1.35-1.22,2.47-1.86,3.36v13.84h-2.41V53.17c-0.57,0.55-1.15,1.08-1.75,1.61
		l-0.88-2.95c0.98-0.84,1.85-1.7,2.6-2.6C359.22,48.41,359.95,47.24,360.65,45.71z M364.34,44.18h3.83
		c0.56-0.58,1.15-1.28,1.75-2.08h-3.72c-0.13,0.2-0.27,0.39-0.44,0.57C365.34,43.22,364.87,43.72,364.34,44.18z M364.94,48.61h2.08
		v-2.49h-2.08V48.61z M367.02,53.04v-2.57h-2.08v2.57H367.02z M369.21,46.12v2.49h2.08v-2.49H369.21z M371.28,53.04v-2.57h-2.08
		v2.57H371.28z M374.15,47.51h7.63v2.52h-2.46v11.21c0,1-0.21,1.7-0.63,2.11c-0.4,0.42-1.13,0.63-2.19,0.63h-2.11l-0.6-2.73
		c0.8,0.13,1.46,0.19,1.97,0.19c0.69,0,1.04-0.22,1.04-0.66V50.03h-2.65V47.51z M374.46,40.07h6.78v2.52h-6.78V40.07z"/>
	<path d="M384.6,40.35h8.23v2.41h-2.95v13.48c1-0.42,1.99-0.88,2.95-1.39v2.49c-2.44,1.28-5.31,2.54-8.61,3.8l-0.68-2.84
		c1.33-0.27,2.64-0.64,3.94-1.09V42.75h-2.87V40.35z M398.08,58.94l1.64,1.89c-2.62,1.57-5.25,2.72-7.88,3.47l-1.2-2.52
		C393.49,61.18,395.97,60.24,398.08,58.94z M393.71,39.31h15.75v2.3h-7.14c-0.15,0.75-0.32,1.46-0.52,2.13h6.51v14.88H394.2V43.74h5
		c0.22-0.71,0.39-1.42,0.52-2.13h-6.02V39.31z M396.71,47.89h9.08v-1.97h-9.08V47.89z M396.71,52.05h9.08v-2.19h-9.08V52.05z
		 M405.79,56.43v-2.41h-9.08v2.41H405.79z M403.36,59.05c2.35,0.78,4.49,1.72,6.43,2.82l-1.53,2.32c-2.02-1.33-4.1-2.39-6.23-3.17
		L403.36,59.05z"/>
	<path d="M434.72,40.07v23.68h-2.62v-1.7h-14.44v1.7h-2.62V40.07H434.72z M417.66,46.47h14.44v-3.88h-14.44V46.47z M417.66,53.12
		h14.44v-4.24h-14.44V53.12z M417.66,59.54h14.44v-3.99h-14.44V59.54z"/>
	<path d="M440.52,40.51H445v-2.02h2.19v2.02h4.7v2.3h-4.7v1.64h3.99v11.7h-3.99v2.02H452v2.19h-4.81v3.83H445v-3.83h-4.7v-2.19h4.7
		v-2.02h-3.99v-11.7H445v-1.64h-4.48V40.51z M443.09,49.26H445v-2.73h-1.91V49.26z M445,54.07v-2.95h-1.91v2.95H445z M447.19,46.53
		v2.73h1.91v-2.73H447.19z M449.1,54.07v-2.95h-1.91v2.95H449.1z M452.77,53.2h12.47v2.3h-5.14v5.8h5.8v2.3h-14.22v-2.3h6.02v-5.8
		h-4.92V53.2z M454.82,42.21l2.21,0.79c-0.69,1.59-1.52,3.06-2.49,4.43c1.24,1.59,2.18,2.97,2.82,4.16l-2.32,1.01
		c-0.84-1.64-1.85-3.41-3.04-5.3C453.02,45.76,453.96,44.07,454.82,42.21z M452.66,39.31h13.02v2.3h-13.02V39.31z M458.87,42.43
		l2.21,0.79c-0.6,1.46-1.32,2.82-2.16,4.07c1.15,1.51,2.01,2.83,2.6,3.96l-2.32,1.01c-0.78-1.57-1.72-3.25-2.82-5.06
		C457.29,45.75,458.12,44.16,458.87,42.43z M463.24,42.54l2.21,0.79c-0.6,1.46-1.32,2.83-2.16,4.1c1.04,1.42,1.83,2.66,2.38,3.72
		l-2.32,1.01c-0.71-1.49-1.58-3.12-2.6-4.87C461.66,45.85,462.49,44.27,463.24,42.54z"/>
	<path d="M467.97,40.18h25.81v2.52H482.6c-0.31,1.19-0.74,2.32-1.29,3.39h10.66v14.96c0,1-0.25,1.75-0.74,2.24
		c-0.42,0.46-1.03,0.68-1.83,0.68h-2.68l-0.57-2.62l2.16,0.11c0.62-0.04,0.93-0.43,0.93-1.18V48.61h-3.83v14.71h-2.73V48.61h-3.61
		v14.71h-2.73V48.61h-3.5v15.59h-2.73v-18.1h8.18c0.55-1.08,0.98-2.21,1.31-3.39h-11.62V40.18z"/>
	<path d="M498.87,39.47h20.12v10.5h-12.33c-0.55,0.73-1.1,1.37-1.67,1.91h15.31c-0.05,6.42-0.62,10.08-1.7,10.99
		c-0.58,0.8-2.55,1.2-5.91,1.2l-0.55-2.63c0.82,0.15,1.49,0.22,2,0.22c1.09,0,1.9-0.26,2.43-0.77c0.51-0.53,0.84-2.84,0.98-6.95
		h-1.53c-1.55,2.68-3.12,4.65-4.7,5.91c-1.93,1.66-4.79,3.06-8.56,4.21l-1.56-2.3c3.57-1.02,6.33-2.25,8.26-3.69
		c1.29-1.02,2.52-2.4,3.66-4.13h-3.34c-1.02,1.24-2.1,2.27-3.23,3.09c-2.17,1.48-4.75,2.73-7.74,3.75l-1.45-2.35
		c2.79-0.86,4.98-1.75,6.56-2.68c0.91-0.56,1.75-1.17,2.52-1.8h-4.18c-1.46,0.89-3.08,1.68-4.87,2.35l-1.45-2.35
		c2.31-0.78,4.13-1.6,5.44-2.46c0.71-0.49,1.36-1,1.94-1.53h-4.48V39.47z M501.6,43.63h14.66v-1.97H501.6V43.63z M516.26,47.79V45.6
		H501.6v2.19H516.26z"/>
	<path d="M531.68,38.49l0.82,2c-0.95,0.26-2.47,0.53-4.57,0.82l0.03,1.29h4.21v1.86h-4.18l0.03,1.53h4.27v1.86h-4.21l0.03,1.7h5
		l0.93-3.42h2.41l-0.93,3.42h2.05l0.49-4.54h-2.68l-0.08,0.6h-2.52l1.09-7.22h2.52l-0.19,1.2h4.4v1.97h-4.7l-0.19,1.37h4.84
		l-0.6,6.62h5.55l0.05-1.7h-4.07v-1.86h4.13l0.08-1.53h-4.21v-1.86h4.27l0.03-1.37h-4.4v-1.97h6.78l-0.36,10.28h2v2.19h-6.29
		c0.71,0.67,1.37,1.17,1.97,1.48c1,0.62,2.41,1.21,4.21,1.78l-1.07,2.21c-1.5-0.6-2.74-1.17-3.75-1.7v1.26h-6.89v1.91h11.05v2.3
		h-11.05v3.23h-2.62v-3.23H524.6v-2.3h10.75v-1.91h-6.78V55.5c-0.98,0.57-2.12,1.13-3.39,1.7l-1.42-2.32
		c2.35-0.8,4.01-1.53,4.98-2.19c0.44-0.25,0.85-0.57,1.23-0.96h-6.1v-2.19h1.83l-0.19-10.01C527.45,39.4,529.51,39.05,531.68,38.49z
		 M530.01,54.57h5.33V52.6h2.62v1.97h5.41l-0.11-0.05c-0.88-0.6-1.78-1.53-2.71-2.79h-7.88c-0.6,0.93-1.29,1.71-2.05,2.35
		C530.42,54.26,530.21,54.42,530.01,54.57z"/>
</g>
<use xlink:href="#New_Symbol_1"  width="28.75" height="21" x="-14.38" y="-10.5" transform="matrix(1 0 0 -1 24.305 19)" style="overflow:visible;"/>
<use xlink:href="#New_Symbol_4"  width="606.8" height="2" x="-299.3" y="-1" transform="matrix(1 0 0 -1 312.6619 69.6047)" style="overflow:visible;"/>
</svg>
