<?xml version="1.0" encoding="utf-8"?>
<!-- Generator: Adobe Illustrator 25.2.0, SVG Export Plug-In . SVG Version: 6.00 Build 0)  -->
<svg version="1.1" id="Layer_1" xmlns="http://www.w3.org/2000/svg" xmlns:xlink="http://www.w3.org/1999/xlink" x="0px" y="0px"
	 width="688.39px" height="40px" viewBox="0 0 688.39 40" style="enable-background:new 0 0 688.39 40;" xml:space="preserve">
<style type="text/css">
	.st0{enable-background:new    ;}
	.st1{fill:#FFFFFF;}
	.st2{fill:url(#SVGID_1_);}
	.st3{fill:url(#SVGID_2_);}
	.st4{fill:none;stroke:url(#SVGID_3_);stroke-width:2;stroke-miterlimit:10;stroke-dasharray:2,3,2,3,2,3;}
	.st5{fill:url(#SVGID_4_);}
	.st6{fill:url(#SVGID_5_);}
	.st7{fill:none;stroke:url(#SVGID_6_);stroke-width:2;stroke-miterlimit:10;stroke-dasharray:2,3,2,3,2,3;}
	.st8{fill:url(#SVGID_7_);}
	.st9{fill:url(#SVGID_8_);}
	.st10{fill:none;stroke:url(#SVGID_9_);stroke-width:2;stroke-miterlimit:10;stroke-dasharray:2,3,2,3,2,3;}
	.st11{fill:url(#SVGID_10_);}
	.st12{fill:url(#SVGID_11_);}
	.st13{fill:none;stroke:url(#SVGID_12_);stroke-width:2;stroke-miterlimit:10;stroke-dasharray:2,3,2,3,2,3;}
	.st14{fill:url(#SVGID_13_);}
	.st15{fill:url(#SVGID_14_);}
	.st16{fill:none;stroke:url(#SVGID_15_);stroke-width:2;stroke-miterlimit:10;stroke-dasharray:2,3,2,3,2,3;}
	.st17{fill:url(#SVGID_16_);}
	.st18{fill:url(#SVGID_17_);}
	.st19{fill:none;stroke:url(#SVGID_18_);stroke-width:2;stroke-miterlimit:10;stroke-dasharray:2,3,2,3,2,3;}
	.st20{fill:url(#SVGID_19_);}
	.st21{fill:url(#SVGID_20_);}
	.st22{fill:none;stroke:url(#SVGID_21_);stroke-width:2;stroke-miterlimit:10;stroke-dasharray:2,3,2,3,2,3;}
	.st23{fill:url(#SVGID_22_);}
	.st24{fill:url(#SVGID_23_);}
	.st25{fill:none;stroke:url(#SVGID_24_);stroke-width:2;stroke-miterlimit:10;stroke-dasharray:2,3,2,3,2,3;}
	.st26{fill:url(#SVGID_25_);}
	.st27{fill:url(#SVGID_26_);}
	.st28{fill:none;stroke:url(#SVGID_27_);stroke-width:2;stroke-miterlimit:10;stroke-dasharray:2,3,2,3,2,3;}
	.st29{fill:#ABABAB;}
	.st30{fill:url(#SVGID_28_);}
	.st31{fill:url(#SVGID_29_);}
	.st32{fill:none;stroke:url(#SVGID_30_);stroke-width:2;stroke-miterlimit:10;stroke-dasharray:2,3,2,3,2,3;}
	.st33{fill:url(#SVGID_31_);}
	.st34{fill:url(#SVGID_32_);}
	.st35{fill:none;stroke:url(#SVGID_33_);stroke-width:2;stroke-miterlimit:10;stroke-dasharray:2,3,2,3,2,3;}
	.st36{fill:url(#SVGID_34_);}
	.st37{fill:url(#SVGID_35_);}
	.st38{fill:none;stroke:url(#SVGID_36_);stroke-width:2;stroke-miterlimit:10;stroke-dasharray:2,3,2,3,2,3;}
	.st39{fill:url(#SVGID_37_);}
	.st40{fill:url(#SVGID_38_);}
	.st41{fill:none;stroke:url(#SVGID_39_);stroke-width:2;stroke-miterlimit:10;stroke-dasharray:2,3,2,3,2,3;}
</style>
<g class="st0">
	<path d="M48.74,6.47h24.28v2.52h-8.5c-0.58,1.26-1.22,2.41-1.91,3.45v18.16h-2.82V16.13c-0.2,0.22-0.39,0.42-0.57,0.6
		c-2.35,2.52-5.39,4.8-9.11,6.86l-1.7-2.16c3.46-1.91,6.35-3.99,8.67-6.23c1.62-1.48,3.12-3.54,4.48-6.21H48.74V6.47z M66.02,14.19
		c2.77,2.37,5.1,4.71,7,7.03l-2.16,2.16c-1.57-2.24-3.84-4.67-6.81-7.27L66.02,14.19z"/>
	<path d="M93.88,30.37l-0.63-2.73l3.39,0.11c0.62-0.04,0.93-0.45,0.93-1.23V8.5H80.29v22.09h-2.73V5.87h22.75v21.46
		c0,1.04-0.25,1.81-0.74,2.32c-0.42,0.47-1.03,0.71-1.83,0.71H93.88z M81.88,11.12H96.1v2.41H81.88V11.12z M82.64,15.94h12.58v9.08
		H82.64V15.94z M92.6,22.61v-4.27h-7.33v4.27H92.6z"/>
	<path d="M104.6,6.37h13.92v2.3h-2.62v6.12h3.17v2.3h-3.17v13.29h-2.62V17.08h-2.87c-0.07,2.61-0.33,4.79-0.77,6.56
		c-0.53,2.15-1.52,4.36-2.98,6.62l-2.24-1.97c1.28-1.71,2.18-3.56,2.71-5.55c0.38-1.31,0.6-3.2,0.66-5.66h-3.69v-2.3h3.72V8.66h-3.2
		V6.37z M113.27,14.79V8.66h-2.84v6.12H113.27z M127.98,20.2l1.8,2.05c-3.61,3.77-7.22,6.55-10.83,8.34l-1.31-2.73
		C121.6,26.23,125.04,23.68,127.98,20.2z M127.73,12.44l1.72,1.97c-3.26,2.97-6.53,5.16-9.79,6.56l-1.26-2.62
		C121.98,17.08,125.09,15.12,127.73,12.44z M127.16,5.52l1.64,1.91c-2.99,2.32-5.98,4.01-8.97,5.09l-1.23-2.49
		C121.88,9.08,124.73,7.58,127.16,5.52z"/>
	<path d="M132.41,9.81h13.48c-0.05-1.46-0.08-2.99-0.08-4.59h2.73c0,1.64,0.04,3.17,0.11,4.59h8.5V12h-8.39
		c0.35,4.52,1.06,7.94,2.13,10.25c1.62,3.39,2.79,5.09,3.5,5.09c0.4,0,0.86-1.76,1.37-5.28l2.35,1.61
		c-0.73,3.35-1.41,5.38-2.05,6.07c-0.38,0.56-0.83,0.85-1.34,0.85c-1.2,0-2.42-0.66-3.64-1.97c-1.6-1.86-2.91-4.54-3.91-8.04
		c-0.58-2.31-0.98-5.18-1.18-8.59h-13.59V9.81z M133.61,15.39h12.03v2.19h-4.98v7.03c1.95-0.47,3.93-1.06,5.93-1.75v2.57
		c-4.14,1.33-8.75,2.4-13.84,3.2L132.41,26c1.8-0.15,3.65-0.41,5.52-0.79v-7.63h-4.32V15.39z M151.99,5.11
		c1.46,1.06,2.59,1.97,3.39,2.73l-2.19,1.53c-0.75-0.91-1.76-1.94-3.04-3.09L151.99,5.11z"/>
	<path d="M165.85,5l2.54,0.36c-0.31,1.44-0.76,2.76-1.34,3.96h3.96v5.88c0.82-1.37,1.45-2.71,1.89-4.02
		c0.57-1.57,1.02-3.66,1.37-6.29l2.76,0.46c-0.25,1.46-0.5,2.74-0.74,3.86h8.61c0,9.86-0.16,15.71-0.46,17.53
		c-0.24,1.44-0.69,2.37-1.37,2.79c-0.78,0.56-2.22,0.85-4.32,0.85c-0.6,0-1.3-0.04-2.11-0.11l-0.49-2.73
		c0.86,0.11,1.73,0.16,2.62,0.16c1.71,0,2.67-0.57,2.87-1.72c0.35-1.46,0.56-6.21,0.63-14.25h-6.67c-0.05,0.2-0.11,0.38-0.16,0.55
		c-0.6,2.01-1.64,4.14-3.12,6.4l-1.31-1.61v11.46h-2.41v-1.37h-5.14v2.13h-2.41V9.32h3.47C165.14,7.95,165.58,6.51,165.85,5z
		 M163.47,17.14h5.14v-5.52h-5.14V17.14z M163.47,24.85h5.14v-5.52h-5.14V24.85z M176.54,15.5c1.57,2.55,2.79,4.75,3.66,6.59
		l-2.62,1.83c-0.78-2.04-1.88-4.38-3.28-7L176.54,15.5z"/>
	<path d="M188.52,6.91H193V4.89h2.19v2.02h4.7v2.3h-4.7v1.64h3.99v11.7h-3.99v2.02H200v2.19h-4.81v3.83H193v-3.83h-4.7v-2.19h4.7
		v-2.02h-3.99v-11.7H193V9.21h-4.48V6.91z M191.09,15.66H193v-2.73h-1.91V15.66z M193,20.47v-2.95h-1.91v2.95H193z M195.19,12.93
		v2.73h1.91v-2.73H195.19z M197.1,20.47v-2.95h-1.91v2.95H197.1z M200.44,7.79h5.14v-2.9h2.41v2.9h2.27
		c-0.36-0.53-0.83-1.14-1.39-1.83l1.7-1.07c0.82,0.75,1.46,1.39,1.91,1.91l-1.42,0.98h2.62v2.3h-5.69v2.13h5.2v15.39
		c0,0.86-0.21,1.5-0.63,1.94c-0.35,0.4-0.85,0.6-1.5,0.6h-1.89l-0.52-2.3l1.48,0.11c0.51-0.04,0.77-0.37,0.77-1.01V24.3h-2.9v5.96
		h-2.41V24.3h-2.68v6.29h-2.3V12.22h4.98v-2.13h-5.14V7.79z M202.9,17.08h2.68V14.4h-2.68V17.08z M202.9,22.22h2.68v-3.06h-2.68
		V22.22z M207.99,14.4v2.68h2.9V14.4H207.99z M207.99,19.16v3.06h2.9v-3.06H207.99z"/>
	<path d="M227.84,6.2v17.91c0.42-0.13,0.8-0.25,1.15-0.38v2.43c-3.55,1.29-7.65,2.48-12.28,3.55l-0.74-2.41
		c0.62-0.13,1.22-0.26,1.8-0.38V6.2H227.84z M220.29,12.33h5.03V8.39h-5.03V12.33z M220.29,18.67h5.03v-4.16h-5.03V18.67z
		 M220.29,26.33c1.77-0.44,3.45-0.9,5.03-1.39v-4.07h-5.03V26.33z M236.92,30.48c-0.64,0-1.37-0.04-2.19-0.11l-0.49-2.84
		c0.88,0.15,1.78,0.22,2.71,0.22c0.78,0,1.23-0.54,1.34-1.61c0.15-1.35,0.24-5.75,0.27-13.21h-3.2c-0.11,3.65-0.54,6.7-1.29,9.16
		c-0.86,2.81-2.49,5.68-4.89,8.61l-2.16-1.89c2.21-2.33,3.76-4.84,4.68-7.52c0.69-1.91,1.08-4.7,1.15-8.37h-4.18v-2.52h4.21v-5.3
		h2.52v5.3h5.69c0,9.35-0.11,14.89-0.33,16.62c-0.15,1.35-0.45,2.23-0.9,2.65C239.29,30.22,238.32,30.48,236.92,30.48z"/>
	<path d="M251.35,5.11l1.04,2.54c-0.97,0.49-2.52,1-4.68,1.53l0.05,2.11h4.07v2.3h-3.99l0.11,3.34h3.64v2.19h-3.58l0.08,3.06h4.32
		l1.01-7.22h2.52l-1.01,7.22h2.43l0.85-8.64h-3.12l-0.08,0.66h-2.41l1.2-9.41h2.41l-0.25,1.97h4.51v2.19h-4.79l-0.3,2.41h5.41
		l-0.9,10.83h5.74l0.08-3.01h-3.94v-2.3h3.99l0.11-3.28h-4.1v-2.3h4.16l0.08-2.84h-4.24v-2.3h6.73l-0.46,16.02h1.61v2.41h-25.81
		v-2.41h1.83l-0.41-15.18C247.2,6.78,249.22,6.15,251.35,5.11z M252.37,25.01l1.89,1.67c-2.22,1.44-5.02,2.74-8.39,3.91l-1.78-2.3
		C247.16,27.42,249.92,26.33,252.37,25.01z M261.06,24.9c3.03,0.93,5.79,2.05,8.29,3.36l-1.67,2.54c-2.61-1.57-5.3-2.82-8.07-3.75
		L261.06,24.9z"/>
	<path d="M286.24,4.78c0.33,0.58,0.63,1.22,0.9,1.91h10.31v2.08h-21.27v6.04c1.91-1.62,3.31-3.54,4.18-5.74l2.43,0.74
		c-0.53,1.31-1.11,2.42-1.75,3.34v2.05c2-1.9,3.54-3.94,4.59-6.12l2.3,0.46c-0.33,0.66-0.65,1.28-0.96,1.86h3.61
		c-0.35-0.69-0.72-1.35-1.12-1.97l2.46-0.36c0.38,0.67,0.73,1.45,1.04,2.32h3.94v1.86h-4.48v1.26h4.27v1.56h-4.27v1.29h4.27v1.53
		h-4.27v1.42h4.81v1.97h-9.76c1.22,0.97,2.18,1.8,2.87,2.49l-2.08,1.45c-0.69-0.89-1.64-1.9-2.84-3.04l1.42-0.9h-3.23v-6.07
		c-0.42,0.46-0.83,0.88-1.23,1.26l-1.34-1.64v6.67h-2.41v-6.4c-0.62,0.62-1.31,1.26-2.08,1.91l-0.38-1.8
		c-0.02,2.06-0.16,4.25-0.41,6.56c-0.35,2.5-0.92,4.96-1.72,7.38l-2.19-1.97c0.73-1.95,1.23-4.01,1.5-6.18
		c0.2-2.22,0.3-4.28,0.3-6.18V6.69h10.58c-0.27-0.51-0.57-1-0.9-1.48L286.24,4.78z M279.22,23.26l2.05,0.98
		c-0.86,2.11-1.87,3.94-3.04,5.47l-2.21-1.59C277.2,26.75,278.27,25.12,279.22,23.26z M288.71,27.86c0.57,0,0.98-0.07,1.23-0.22
		c0.29-0.13,0.49-0.78,0.6-1.97l2.32,0.77c-0.24,1.82-0.64,2.9-1.2,3.23c-0.47,0.33-1.35,0.49-2.62,0.49h-4.35
		c-0.73,0-1.31-0.22-1.75-0.66c-0.46-0.46-0.68-1.06-0.68-1.8v-4.54h2.41v3.83c0,0.58,0.32,0.88,0.96,0.88H288.71z M290.02,14.51
		v-1.26h-4.1v1.26H290.02z M290.02,17.36v-1.29h-4.1v1.29H290.02z M290.02,20.31v-1.42h-4.1v1.42H290.02z M293.96,22.94
		c1.68,1.91,2.99,3.56,3.94,4.95l-2.3,1.61c-0.88-1.55-2.08-3.32-3.61-5.3L293.96,22.94z"/>
	<path d="M303.91,5.98h20.67v21.33c0,0.91-0.2,1.64-0.6,2.19c-0.42,0.51-1.09,0.77-2.02,0.77h-3.58l-0.68-2.62l3.47,0.11
		c0.53,0,0.79-0.3,0.79-0.9V21.9h-7.16v7.93h-2.52V21.9h-7.16c-0.09,0.97-0.24,1.95-0.44,2.95c-0.47,1.95-1.24,3.86-2.3,5.74
		l-2.3-2.05c1.02-1.44,1.71-2.95,2.08-4.54c0.29-1.64,0.44-3.16,0.44-4.57V5.98H303.91z M305.22,12.71h7.05V8.39h-7.05V12.71z
		 M305.22,19.6h7.05v-4.59h-7.05V19.6z M314.79,8.39v4.32h7.16V8.39H314.79z M314.79,15.01v4.59h7.16v-4.59H314.79z"/>
</g>
<g>
	<g>
		<g id="XMLID_8_">
			<g>
				<linearGradient id="SVGID_1_" gradientUnits="userSpaceOnUse" x1="-8.9433" y1="7.2509" x2="42.7225" y2="27.9173">
					<stop  offset="5.618000e-03" style="stop-color:#FF2727"/>
					<stop  offset="0.3525" style="stop-color:#FFFF00"/>
					<stop  offset="0.3814" style="stop-color:#F8EE10"/>
					<stop  offset="0.4388" style="stop-color:#E6C13A"/>
					<stop  offset="0.5185" style="stop-color:#C9797D"/>
					<stop  offset="0.5955" style="stop-color:#AA2EC3"/>
					<stop  offset="0.7367" style="stop-color:#4F66C6"/>
					<stop  offset="0.8536" style="stop-color:#0097C9"/>
					<stop  offset="1" style="stop-color:#FFFF00"/>
				</linearGradient>
				<polygon class="st2" points="30.93,19 20.43,29.5 9.93,19 20.43,8.5 				"/>
				<linearGradient id="SVGID_2_" gradientUnits="userSpaceOnUse" x1="-7.8742" y1="4.5781" x2="43.7917" y2="25.2444">
					<stop  offset="5.618000e-03" style="stop-color:#FF2727"/>
					<stop  offset="0.2129" style="stop-color:#FFFF00"/>
					<stop  offset="0.2584" style="stop-color:#F8EE10"/>
					<stop  offset="0.3488" style="stop-color:#E6C13A"/>
					<stop  offset="0.4743" style="stop-color:#C9797D"/>
					<stop  offset="0.5955" style="stop-color:#AA2EC3"/>
					<stop  offset="0.78" style="stop-color:#4F66C6"/>
					<stop  offset="0.9327" style="stop-color:#0097C9"/>
					<stop  offset="1" style="stop-color:#FFFF00"/>
				</linearGradient>
				<polygon class="st3" points="28.18,8.5 26.02,10.66 34.36,19 26.02,27.34 28.18,29.5 38.68,19 				"/>
			</g>
		</g>
	</g>
</g>
<g>
	<g>
		<linearGradient id="SVGID_3_" gradientUnits="userSpaceOnUse" x1="13.3622" y1="36.6047" x2="620.1619" y2="36.6047">
			<stop  offset="0" style="stop-color:#00B987"/>
			<stop  offset="1" style="stop-color:#FFFFFF"/>
		</linearGradient>
		<line class="st4" x1="13.36" y1="36.6" x2="620.16" y2="36.6"/>
	</g>
</g>
</svg>
