<?xml version="1.0" encoding="utf-8"?>
<!-- Generator: Adobe Illustrator 25.2.0, SVG Export Plug-In . SVG Version: 6.00 Build 0)  -->
<svg version="1.1" id="Layer_1" xmlns="http://www.w3.org/2000/svg" xmlns:xlink="http://www.w3.org/1999/xlink" x="0px" y="0px"
	 width="688.39px" height="40px" viewBox="0 0 688.39 40" style="enable-background:new 0 0 688.39 40;" xml:space="preserve">
<style type="text/css">
	.st0{enable-background:new    ;}
	.st1{fill:#FFFFFF;}
	.st2{fill:url(#SVGID_1_);}
	.st3{fill:url(#SVGID_2_);}
	.st4{fill:none;stroke:url(#SVGID_3_);stroke-width:2;stroke-miterlimit:10;stroke-dasharray:2,3,2,3,2,3;}
	.st5{fill:url(#SVGID_4_);}
	.st6{fill:url(#SVGID_5_);}
	.st7{fill:none;stroke:url(#SVGID_6_);stroke-width:2;stroke-miterlimit:10;stroke-dasharray:2,3,2,3,2,3;}
	.st8{fill:url(#SVGID_7_);}
	.st9{fill:url(#SVGID_8_);}
	.st10{fill:none;stroke:url(#SVGID_9_);stroke-width:2;stroke-miterlimit:10;stroke-dasharray:2,3,2,3,2,3;}
	.st11{fill:url(#SVGID_10_);}
	.st12{fill:url(#SVGID_11_);}
	.st13{fill:none;stroke:url(#SVGID_12_);stroke-width:2;stroke-miterlimit:10;stroke-dasharray:2,3,2,3,2,3;}
	.st14{fill:url(#SVGID_13_);}
	.st15{fill:url(#SVGID_14_);}
	.st16{fill:none;stroke:url(#SVGID_15_);stroke-width:2;stroke-miterlimit:10;stroke-dasharray:2,3,2,3,2,3;}
	.st17{fill:url(#SVGID_16_);}
	.st18{fill:url(#SVGID_17_);}
	.st19{fill:none;stroke:url(#SVGID_18_);stroke-width:2;stroke-miterlimit:10;stroke-dasharray:2,3,2,3,2,3;}
	.st20{fill:url(#SVGID_19_);}
	.st21{fill:url(#SVGID_20_);}
	.st22{fill:none;stroke:url(#SVGID_21_);stroke-width:2;stroke-miterlimit:10;stroke-dasharray:2,3,2,3,2,3;}
	.st23{fill:url(#SVGID_22_);}
	.st24{fill:url(#SVGID_23_);}
	.st25{fill:none;stroke:url(#SVGID_24_);stroke-width:2;stroke-miterlimit:10;stroke-dasharray:2,3,2,3,2,3;}
	.st26{fill:url(#SVGID_25_);}
	.st27{fill:url(#SVGID_26_);}
	.st28{fill:none;stroke:url(#SVGID_27_);stroke-width:2;stroke-miterlimit:10;stroke-dasharray:2,3,2,3,2,3;}
	.st29{fill:#ABABAB;}
	.st30{fill:url(#SVGID_28_);}
	.st31{fill:url(#SVGID_29_);}
	.st32{fill:none;stroke:url(#SVGID_30_);stroke-width:2;stroke-miterlimit:10;stroke-dasharray:2,3,2,3,2,3;}
	.st33{fill:url(#SVGID_31_);}
	.st34{fill:url(#SVGID_32_);}
	.st35{fill:none;stroke:url(#SVGID_33_);stroke-width:2;stroke-miterlimit:10;stroke-dasharray:2,3,2,3,2,3;}
	.st36{fill:url(#SVGID_34_);}
	.st37{fill:url(#SVGID_35_);}
	.st38{fill:none;stroke:url(#SVGID_36_);stroke-width:2;stroke-miterlimit:10;stroke-dasharray:2,3,2,3,2,3;}
	.st39{fill:url(#SVGID_37_);}
	.st40{fill:url(#SVGID_38_);}
	.st41{fill:none;stroke:url(#SVGID_39_);stroke-width:2;stroke-miterlimit:10;stroke-dasharray:2,3,2,3,2,3;}
	.st42{fill:url(#SVGID_40_);}
	.st43{fill:url(#SVGID_41_);}
	.st44{fill:none;stroke:url(#SVGID_42_);stroke-width:2;stroke-miterlimit:10;stroke-dasharray:2,3,2,3,2,3;}
	.st45{fill:url(#SVGID_43_);}
	.st46{fill:url(#SVGID_44_);}
	.st47{fill:none;stroke:url(#SVGID_45_);stroke-width:2;stroke-miterlimit:10;stroke-dasharray:2,3,2,3,2,3;}
</style>
<g class="st0">
	<path d="M49.28,6.15h23.19v2.3H62.08v10.01h11.38v2.41H62.08v9.73h-2.62v-9.73H48.3v-2.41h11.16V8.44H49.28V6.15z M53.25,9.92
		c0.93,1.86,1.83,3.92,2.71,6.18l-2.52,1.26c-0.8-2.31-1.68-4.4-2.62-6.26L53.25,9.92z M68.53,9.92l2.41,1.15
		c-0.8,2.17-1.86,4.27-3.17,6.29l-2.41-1.26C66.69,13.97,67.75,11.91,68.53,9.92z"/>
	<path d="M81.06,5.11l1.7,1.5c-1.42,1.79-3.22,3.4-5.39,4.84l-1.61-2.08C77.72,8.23,79.49,6.8,81.06,5.11z M80.65,12.11l2.11,0.98
		v-1.23c-0.13,0.09-0.25,0.17-0.38,0.25l-1.48-1.91c1.15-0.75,2.11-1.55,2.9-2.41c0.6-0.66,1.17-1.62,1.7-2.9l2.41,0.3
		c-0.16,0.49-0.35,0.94-0.55,1.34h5.06v1.64c-0.49,0.93-0.98,1.73-1.45,2.41h2.52V21.4h-4.29c-0.02,0.49-0.06,0.95-0.14,1.37H95
		v2.08h-5.99c1.51,0.89,3.04,1.9,4.57,3.04l-1.31,1.94c-1.82-1.55-3.29-2.68-4.4-3.39c-0.13,0.24-0.25,0.45-0.38,0.63
		c-1,1.49-2.64,2.63-4.92,3.42l-1.23-1.94c2.19-0.78,3.67-1.78,4.46-2.98c0.16-0.24,0.3-0.47,0.41-0.71h-4.32v-2.08h4.95
		c0.09-0.42,0.15-0.88,0.16-1.37h-4.24v-8.01c-0.6,1.35-1.22,2.47-1.86,3.36v13.84h-2.41V19.57c-0.57,0.55-1.15,1.08-1.75,1.61
		l-0.88-2.95c0.98-0.84,1.85-1.7,2.6-2.6C79.22,14.81,79.95,13.64,80.65,12.11z M84.34,10.58h3.83c0.57-0.58,1.15-1.28,1.75-2.08
		H86.2c-0.13,0.2-0.27,0.39-0.44,0.57C85.34,9.62,84.87,10.12,84.34,10.58z M84.94,15.01h2.08v-2.49h-2.08V15.01z M87.02,19.44
		v-2.57h-2.08v2.57H87.02z M89.21,12.52v2.49h2.08v-2.49H89.21z M91.28,19.44v-2.57h-2.08v2.57H91.28z M94.15,13.91h7.63v2.52h-2.46
		v11.21c0,1-0.21,1.7-0.63,2.11c-0.4,0.42-1.13,0.63-2.19,0.63H94.4l-0.6-2.73c0.8,0.13,1.46,0.19,1.97,0.19
		c0.69,0,1.04-0.22,1.04-0.66V16.43h-2.65V13.91z M94.46,6.48h6.78v2.52h-6.78V6.48z"/>
	<path d="M104.3,10.14h3.5V4.89h2.62v5.25h3.61v2.38h-3.61v0.9c1.37,1.33,2.75,2.82,4.16,4.46l-1.56,2.32
		c-1-1.51-1.87-2.75-2.6-3.72v14.11h-2.62V18.53c-0.8,1.95-1.73,3.67-2.79,5.17l-1.26-3.2c1.66-2.21,3.01-4.74,4.05-7.6v-0.38h-3.5
		V10.14z M128.22,4.89l1.45,2.62c-3.46,0.69-7.35,1.1-11.65,1.23v3.53h10.88v2.16c-0.62,3.77-1.72,6.98-3.31,9.62
		c1.26,1.35,2.73,2.51,4.4,3.47l-1.56,2.54c-1.75-1.2-3.24-2.46-4.46-3.77c-1.5,1.59-3.5,2.98-6.02,4.18l-1.53-2.32
		c2.46-1.11,4.4-2.44,5.82-3.99c-0.25-0.36-0.48-0.71-0.68-1.04c-1.46-2.28-2.49-5.06-3.09-8.34h-0.46v1.15
		c-0.05,2.44-0.35,5.03-0.88,7.77c-0.49,2.33-1.31,4.56-2.46,6.67l-1.97-2.05c0.93-1.77,1.6-3.57,2.02-5.41
		c0.38-2,0.64-4.33,0.77-6.97V6.37C120.61,6.37,124.85,5.87,128.22,4.89z M121.12,14.79c0.58,2.86,1.48,5.2,2.68,7
		c0.04,0.07,0.07,0.13,0.11,0.16c1.09-1.99,1.9-4.38,2.41-7.16H121.12z"/>
	<path d="M132.74,6.48h24.28v2.52h-8.5c-0.58,1.26-1.22,2.41-1.91,3.45v18.16h-2.82V16.13c-0.2,0.22-0.39,0.42-0.57,0.6
		c-2.35,2.52-5.39,4.8-9.11,6.86l-1.7-2.16c3.46-1.91,6.35-3.99,8.67-6.23c1.62-1.48,3.12-3.54,4.48-6.21h-12.82V6.48z
		 M150.02,14.19c2.77,2.37,5.1,4.71,7,7.03l-2.16,2.16c-1.57-2.24-3.84-4.67-6.81-7.27L150.02,14.19z"/>
	<path d="M168.06,20.2l1.97,1.75c-2.15,3.08-4.85,5.85-8.09,8.31l-1.86-2.41C163.05,25.8,165.71,23.25,168.06,20.2z M163.03,6.58
		h19.58v12.8h-19.58V6.58z M179.77,16.87V9.1h-13.89v7.77H179.77z M177.53,20.31c3.3,3.23,5.87,6.01,7.71,8.34l-2.62,1.83
		c-1.77-2.55-4.21-5.47-7.33-8.75L177.53,20.31z"/>
	<path d="M188.08,17.25h25.48v2.41H202.6v2.57h9.54v2.3h-9.54v2.87c1.37,0.13,2.99,0.19,4.87,0.19c2.59,0,4.77-0.07,6.54-0.22
		l-0.79,2.79c-8.51,0-13.59-0.31-15.23-0.93c-1.66-0.55-3.08-1.67-4.27-3.36c-0.78,1.53-2.08,3.14-3.88,4.84l-1.97-2.43
		c1.5-1.24,2.61-2.45,3.34-3.64c0.73-1.13,1.32-2.64,1.78-4.54l2.76,0.46c-0.31,1.15-0.63,2.16-0.96,3.04
		c1.13,1.59,2.52,2.64,4.16,3.17c0.33,0.11,0.68,0.2,1.07,0.27v-7.38h-11.92V17.25z M190.87,5.49h20.02v10.17h-20.02V5.49z
		 M193.6,9.59h14.55v-1.8H193.6V9.59z M208.15,13.37v-1.8H193.6v1.8H208.15z"/>
	<path d="M217.28,6.15h23.19v2.3h-10.39v10.01h11.38v2.41h-11.38v9.73h-2.62v-9.73H216.3v-2.41h11.16V8.44h-10.17V6.15z
		 M221.25,9.92c0.93,1.86,1.83,3.92,2.71,6.18l-2.52,1.26c-0.8-2.31-1.68-4.4-2.62-6.26L221.25,9.92z M236.53,9.92l2.41,1.15
		c-0.8,2.17-1.86,4.27-3.17,6.29l-2.41-1.26C234.69,13.97,235.75,11.91,236.53,9.92z"/>
	<path d="M249.06,5.11l1.7,1.5c-1.42,1.79-3.22,3.4-5.39,4.84l-1.61-2.08C245.72,8.23,247.49,6.8,249.06,5.11z M248.65,12.11
		l2.11,0.98v-1.23c-0.13,0.09-0.25,0.17-0.38,0.25l-1.48-1.91c1.15-0.75,2.11-1.55,2.9-2.41c0.6-0.66,1.17-1.62,1.7-2.9l2.41,0.3
		c-0.16,0.49-0.35,0.94-0.55,1.34h5.06v1.64c-0.49,0.93-0.98,1.73-1.45,2.41h2.52V21.4h-4.29c-0.02,0.49-0.06,0.95-0.14,1.37H263
		v2.08h-5.99c1.51,0.89,3.04,1.9,4.57,3.04l-1.31,1.94c-1.82-1.55-3.29-2.68-4.4-3.39c-0.13,0.24-0.25,0.45-0.38,0.63
		c-1,1.49-2.64,2.63-4.92,3.42l-1.23-1.94c2.19-0.78,3.67-1.78,4.46-2.98c0.16-0.24,0.3-0.47,0.41-0.71h-4.32v-2.08h4.95
		c0.09-0.42,0.15-0.88,0.16-1.37h-4.24v-8.01c-0.6,1.35-1.22,2.47-1.86,3.36v13.84h-2.41V19.57c-0.57,0.55-1.15,1.08-1.75,1.61
		l-0.88-2.95c0.98-0.84,1.85-1.7,2.6-2.6C247.22,14.81,247.95,13.64,248.65,12.11z M252.34,10.58h3.83
		c0.57-0.58,1.15-1.28,1.75-2.08h-3.72c-0.13,0.2-0.27,0.39-0.44,0.57C253.34,9.62,252.87,10.12,252.34,10.58z M252.94,15.01h2.08
		v-2.49h-2.08V15.01z M255.02,19.44v-2.57h-2.08v2.57H255.02z M257.21,12.52v2.49h2.08v-2.49H257.21z M259.28,19.44v-2.57h-2.08
		v2.57H259.28z M262.15,13.91h7.63v2.52h-2.46v11.21c0,1-0.21,1.7-0.63,2.11c-0.4,0.42-1.13,0.63-2.19,0.63h-2.11l-0.6-2.73
		c0.8,0.13,1.46,0.19,1.97,0.19c0.69,0,1.04-0.22,1.04-0.66V16.43h-2.65V13.91z M262.46,6.48h6.78v2.52h-6.78V6.48z"/>
	<path d="M272.3,10.14h3.5V4.89h2.62v5.25h3.61v2.38h-3.61v0.9c1.37,1.33,2.75,2.82,4.16,4.46l-1.56,2.32
		c-1-1.51-1.87-2.75-2.6-3.72v14.11h-2.62V18.53c-0.8,1.95-1.73,3.67-2.79,5.17l-1.26-3.2c1.66-2.21,3.01-4.74,4.05-7.6v-0.38h-3.5
		V10.14z M296.22,4.89l1.45,2.62c-3.46,0.69-7.35,1.1-11.65,1.23v3.53h10.88v2.16c-0.62,3.77-1.72,6.98-3.31,9.62
		c1.26,1.35,2.73,2.51,4.4,3.47l-1.56,2.54c-1.75-1.2-3.24-2.46-4.46-3.77c-1.5,1.59-3.5,2.98-6.02,4.18l-1.53-2.32
		c2.46-1.11,4.4-2.44,5.82-3.99c-0.25-0.36-0.48-0.71-0.68-1.04c-1.46-2.28-2.49-5.06-3.09-8.34h-0.46v1.15
		c-0.05,2.44-0.35,5.03-0.88,7.77c-0.49,2.33-1.31,4.56-2.46,6.67l-1.97-2.05c0.93-1.77,1.6-3.57,2.02-5.41
		c0.38-2,0.64-4.33,0.77-6.97V6.37C288.61,6.37,292.85,5.87,296.22,4.89z M289.12,14.79c0.58,2.86,1.48,5.2,2.68,7
		c0.04,0.07,0.07,0.13,0.11,0.16c1.09-1.99,1.9-4.38,2.41-7.16H289.12z"/>
</g>
<g>
	<g>
		<g id="XMLID_7_">
			<g>
				<linearGradient id="SVGID_1_" gradientUnits="userSpaceOnUse" x1="-8.9433" y1="7.2509" x2="42.7225" y2="27.9173">
					<stop  offset="5.618000e-03" style="stop-color:#FF2727"/>
					<stop  offset="0.3525" style="stop-color:#FFFF00"/>
					<stop  offset="0.3814" style="stop-color:#F8EE10"/>
					<stop  offset="0.4388" style="stop-color:#E6C13A"/>
					<stop  offset="0.5185" style="stop-color:#C9797D"/>
					<stop  offset="0.5955" style="stop-color:#AA2EC3"/>
					<stop  offset="0.7367" style="stop-color:#4F66C6"/>
					<stop  offset="0.8536" style="stop-color:#0097C9"/>
					<stop  offset="1" style="stop-color:#FFFF00"/>
				</linearGradient>
				<polygon class="st2" points="30.93,19 20.43,29.5 9.93,19 20.43,8.5 				"/>
				<linearGradient id="SVGID_2_" gradientUnits="userSpaceOnUse" x1="-7.8742" y1="4.5781" x2="43.7917" y2="25.2444">
					<stop  offset="5.618000e-03" style="stop-color:#FF2727"/>
					<stop  offset="0.2129" style="stop-color:#FFFF00"/>
					<stop  offset="0.2584" style="stop-color:#F8EE10"/>
					<stop  offset="0.3488" style="stop-color:#E6C13A"/>
					<stop  offset="0.4743" style="stop-color:#C9797D"/>
					<stop  offset="0.5955" style="stop-color:#AA2EC3"/>
					<stop  offset="0.78" style="stop-color:#4F66C6"/>
					<stop  offset="0.9327" style="stop-color:#0097C9"/>
					<stop  offset="1" style="stop-color:#FFFF00"/>
				</linearGradient>
				<polygon class="st3" points="28.18,8.5 26.02,10.66 34.36,19 26.02,27.34 28.18,29.5 38.68,19 				"/>
			</g>
		</g>
	</g>
</g>
<g>
	<g>
		<linearGradient id="SVGID_3_" gradientUnits="userSpaceOnUse" x1="13.3622" y1="36.6047" x2="620.1619" y2="36.6047">
			<stop  offset="0" style="stop-color:#00B987"/>
			<stop  offset="1" style="stop-color:#FFFFFF"/>
		</linearGradient>
		<line class="st4" x1="13.36" y1="36.6" x2="620.16" y2="36.6"/>
	</g>
</g>
</svg>
