<?xml version="1.0" encoding="utf-8"?>
<!-- Generator: Adobe Illustrator 25.2.0, SVG Export Plug-In . SVG Version: 6.00 Build 0)  -->
<svg version="1.1" id="Layer_1" xmlns="http://www.w3.org/2000/svg" xmlns:xlink="http://www.w3.org/1999/xlink" x="0px" y="0px"
	 width="688.39px" height="40px" viewBox="0 0 688.39 40" style="enable-background:new 0 0 688.39 40;" xml:space="preserve">
<style type="text/css">
	.st0{enable-background:new    ;}
	.st1{fill:#FFFFFF;}
	.st2{fill:url(#SVGID_1_);}
	.st3{fill:url(#SVGID_2_);}
	.st4{fill:none;stroke:url(#SVGID_3_);stroke-width:2;stroke-miterlimit:10;stroke-dasharray:2,3,2,3,2,3;}
	.st5{fill:url(#SVGID_4_);}
	.st6{fill:url(#SVGID_5_);}
	.st7{fill:none;stroke:url(#SVGID_6_);stroke-width:2;stroke-miterlimit:10;stroke-dasharray:2,3,2,3,2,3;}
	.st8{fill:url(#SVGID_7_);}
	.st9{fill:url(#SVGID_8_);}
	.st10{fill:none;stroke:url(#SVGID_9_);stroke-width:2;stroke-miterlimit:10;stroke-dasharray:2,3,2,3,2,3;}
	.st11{fill:url(#SVGID_10_);}
	.st12{fill:url(#SVGID_11_);}
	.st13{fill:none;stroke:url(#SVGID_12_);stroke-width:2;stroke-miterlimit:10;stroke-dasharray:2,3,2,3,2,3;}
	.st14{fill:url(#SVGID_13_);}
	.st15{fill:url(#SVGID_14_);}
	.st16{fill:none;stroke:url(#SVGID_15_);stroke-width:2;stroke-miterlimit:10;stroke-dasharray:2,3,2,3,2,3;}
	.st17{fill:url(#SVGID_16_);}
	.st18{fill:url(#SVGID_17_);}
	.st19{fill:none;stroke:url(#SVGID_18_);stroke-width:2;stroke-miterlimit:10;stroke-dasharray:2,3,2,3,2,3;}
	.st20{fill:url(#SVGID_19_);}
	.st21{fill:url(#SVGID_20_);}
	.st22{fill:none;stroke:url(#SVGID_21_);stroke-width:2;stroke-miterlimit:10;stroke-dasharray:2,3,2,3,2,3;}
	.st23{fill:url(#SVGID_22_);}
	.st24{fill:url(#SVGID_23_);}
	.st25{fill:none;stroke:url(#SVGID_24_);stroke-width:2;stroke-miterlimit:10;stroke-dasharray:2,3,2,3,2,3;}
	.st26{fill:url(#SVGID_25_);}
	.st27{fill:url(#SVGID_26_);}
	.st28{fill:none;stroke:url(#SVGID_27_);stroke-width:2;stroke-miterlimit:10;stroke-dasharray:2,3,2,3,2,3;}
	.st29{fill:#ABABAB;}
	.st30{fill:url(#SVGID_28_);}
	.st31{fill:url(#SVGID_29_);}
	.st32{fill:none;stroke:url(#SVGID_30_);stroke-width:2;stroke-miterlimit:10;stroke-dasharray:2,3,2,3,2,3;}
	.st33{fill:url(#SVGID_31_);}
	.st34{fill:url(#SVGID_32_);}
	.st35{fill:none;stroke:url(#SVGID_33_);stroke-width:2;stroke-miterlimit:10;stroke-dasharray:2,3,2,3,2,3;}
	.st36{fill:url(#SVGID_34_);}
	.st37{fill:url(#SVGID_35_);}
	.st38{fill:none;stroke:url(#SVGID_36_);stroke-width:2;stroke-miterlimit:10;stroke-dasharray:2,3,2,3,2,3;}
	.st39{fill:url(#SVGID_37_);}
	.st40{fill:url(#SVGID_38_);}
	.st41{fill:none;stroke:url(#SVGID_39_);stroke-width:2;stroke-miterlimit:10;stroke-dasharray:2,3,2,3,2,3;}
	.st42{fill:url(#SVGID_40_);}
	.st43{fill:url(#SVGID_41_);}
	.st44{fill:none;stroke:url(#SVGID_42_);stroke-width:2;stroke-miterlimit:10;stroke-dasharray:2,3,2,3,2,3;}
	.st45{fill:url(#SVGID_43_);}
	.st46{fill:url(#SVGID_44_);}
	.st47{fill:none;stroke:url(#SVGID_45_);stroke-width:2;stroke-miterlimit:10;stroke-dasharray:2,3,2,3,2,3;}
</style>
<g class="st0">
	<path d="M48.19,9.97h3.23V4.89h2.52v5.09h3.01v2.3h-3.01v5.33c0.89-0.49,1.79-1.06,2.68-1.7v2.68c-0.89,0.58-1.79,1.11-2.68,1.59
		v7.46c0,1-0.22,1.7-0.66,2.11c-0.38,0.42-1.1,0.63-2.16,0.63h-2l-0.6-2.73c0.75,0.13,1.37,0.19,1.86,0.19
		c0.69,0,1.04-0.22,1.04-0.66V21.4c-0.95,0.42-1.93,0.78-2.95,1.09l-0.38-2.73c1.08-0.18,2.19-0.5,3.34-0.96v-6.54h-3.23V9.97z
		 M56.94,17.9h6.62v-2.3h2.52v2.3h7.27v2.41h-6.89c0.73,1.06,1.58,2.04,2.54,2.95c1.15,1.04,2.74,2.17,4.79,3.39l-1.8,2.3
		c-2.1-1.51-3.78-3.04-5.06-4.57c-0.29-0.35-0.57-0.7-0.85-1.07v7.27h-2.52v-7.46c-1.88,2.42-4.07,4.44-6.56,6.04l-1.59-2.38
		c3.19-1.84,5.71-4,7.55-6.48h-6.02V17.9z M72.12,5l1.23,2.11c-3.97,1.51-9.27,2.27-15.89,2.27l-0.74-2.21
		C62.77,7.16,67.9,6.44,72.12,5z M59.81,10.58c0.77,1.4,1.45,3.01,2.05,4.81l-2.54,0.68c-0.47-1.64-1.08-3.22-1.83-4.73L59.81,10.58
		z M65.69,9.7c0.31,1.42,0.57,3.02,0.77,4.79l-2.73,0.36c-0.16-1.8-0.35-3.41-0.55-4.81L65.69,9.7z M70.72,9.26l2.43,1.15
		c-0.75,2.02-1.7,3.97-2.87,5.85l-2.41-1.26C69.08,13.02,70.03,11.11,70.72,9.26z"/>
	<path d="M79.91,5.98h20.67v21.33c0,0.91-0.2,1.64-0.6,2.19c-0.42,0.51-1.09,0.77-2.02,0.77h-3.58l-0.68-2.62l3.47,0.11
		c0.53,0,0.79-0.3,0.79-0.9V21.9h-7.16v7.93h-2.52V21.9h-7.16c-0.09,0.97-0.24,1.95-0.44,2.95c-0.47,1.95-1.24,3.86-2.3,5.74
		l-2.3-2.05c1.02-1.44,1.71-2.95,2.08-4.54c0.29-1.64,0.44-3.16,0.44-4.57V5.98H79.91z M81.22,12.71h7.05V8.39h-7.05V12.71z
		 M81.22,19.6h7.05v-4.59h-7.05V19.6z M90.79,8.39v4.32h7.16V8.39H90.79z M90.79,15.01v4.59h7.16v-4.59H90.79z"/>
	<path d="M109.22,5l2.3,1.07c-0.05,0.16-0.1,0.3-0.14,0.41h6.97V4.89h2.52v1.59h8.15v2.08h-8.15v1.31h6.73v7.9
		c0.78,1.24,1.4,2.3,1.86,3.17l-2.08,1.45c-0.16-0.46-0.35-0.91-0.55-1.37c-0.38,0.02-0.75,0.04-1.09,0.05v1.59h3.72v2.08h-3.72
		v3.12c0,0.93-0.22,1.58-0.66,1.94c-0.4,0.38-1.17,0.57-2.3,0.57h-2.62l-0.55-2.52c0.98,0.11,1.79,0.16,2.41,0.16
		c0.73,0,1.09-0.2,1.09-0.6v-2.68h-7.82c1.11,1.15,2,2.13,2.68,2.95l-2.41,1.7c-0.66-1.09-1.57-2.33-2.73-3.72l1.45-0.93h-3.96
		v-2.08h12.8v-1.45c-3.63,0.16-7.62,0.34-11.98,0.52l-0.49-2.08c2.61-0.04,5.18-0.1,7.71-0.19v-1.5h-6.51V9.87h6.51V8.55h-7.16V7.13
		c-0.58,1.75-1.17,3.26-1.75,4.54v18.7h-2.41V15.74c-0.69,1.04-1.44,2.05-2.24,3.04l-0.93-3.06c1.09-1.48,2.06-3,2.9-4.57
		C107.62,9.73,108.44,7.68,109.22,5z M114.25,13.09h4.1v-1.37h-4.1V13.09z M118.35,16.1v-1.26h-4.1v1.26H118.35z M120.87,11.72v1.37
		h4.32v-1.37H120.87z M125.19,16.1v-1.26h-4.32v1.26H125.19z M120.87,17.96v1.45c1.73-0.05,3.43-0.12,5.09-0.19
		c-0.11-0.22-0.23-0.43-0.36-0.63l0.98-0.63H120.87z"/>
	<path d="M136.56,4.89l2.3,0.79c-0.88,2.62-1.87,4.95-2.98,6.97c0.75-0.11,1.47-0.22,2.16-0.33c0.62-1.26,1.25-2.61,1.89-4.05
		l2.21,0.85c-1.93,4.25-3.89,7.73-5.88,10.45c1.42-0.16,2.63-0.39,3.64-0.68c-0.24-0.84-0.47-1.64-0.71-2.41l2.02-0.66
		c0.64,1.71,1.2,3.67,1.7,5.88l-2.24,0.57c-0.09-0.46-0.18-0.89-0.27-1.31c-1.8,0.49-4.34,0.89-7.6,1.2l-0.71-2.41
		c0.6,0,1.15-0.01,1.64-0.03c1.06-1.4,2.11-3.11,3.17-5.11c-1.4,0.27-2.93,0.53-4.59,0.77l-0.55-2.3c0.51-0.04,1.02-0.08,1.53-0.14
		C134.56,10.55,135.65,7.86,136.56,4.89z M132.87,23.15l2.05,0.27c-0.15,2.75-0.42,5.07-0.82,6.95l-2.35-0.74
		C132.32,27.61,132.69,25.45,132.87,23.15z M138.21,23.07c0.33,1.48,0.55,3.49,0.66,6.04l-2.35,0.27c-0.04-2.62-0.13-4.67-0.27-6.12
		L138.21,23.07z M141.46,22.5c0.42,1.4,0.79,3.01,1.12,4.81l-2.13,0.55c-0.24-1.64-0.55-3.22-0.93-4.73L141.46,22.5z M149.96,4.78
		c0.57,0.89,1.08,1.95,1.56,3.17h5.93v2.19h-8.01c-0.51,1.91-1.28,3.73-2.3,5.44c2.48-0.15,4.57-0.43,6.26-0.85
		c-0.33-0.66-0.69-1.33-1.09-2.02l1.97-1.26c1.46,2.26,2.59,4.2,3.39,5.82l-2.3,1.61c-0.27-0.69-0.59-1.41-0.96-2.16
		c-0.57,0.13-1.16,0.25-1.78,0.36v9.82c0,0.56,0.32,0.85,0.96,0.85h1.01c0.25,0,0.45-0.16,0.57-0.49s0.22-1.84,0.27-4.54l2.32,0.77
		c-0.18,3.17-0.47,5.04-0.88,5.61c-0.36,0.56-1.02,0.85-1.97,0.85h-2.27c-0.73,0-1.31-0.21-1.75-0.63c-0.46-0.42-0.68-0.98-0.68-1.7
		V17.52c-0.57,0.07-1.13,0.15-1.7,0.22c-0.18,3.5-0.62,6.09-1.31,7.77c-0.82,1.99-2.21,3.72-4.16,5.2l-1.7-2.16
		c1.75-1.22,2.95-2.58,3.61-4.07c0.6-1.28,0.98-3.44,1.15-6.48c-0.93,0.09-1.91,0.17-2.93,0.25l-0.74-2.52
		c0.69,0,1.37-0.01,2.02-0.03c1.06-1.77,1.85-3.62,2.38-5.55h-4.4V7.95h6.34c-0.35-0.71-0.78-1.47-1.31-2.27L149.96,4.78z"/>
	<path d="M160.19,9.92h3.5V4.89h2.62v5.03h3.06v2.41h-3.06v5.25c0.97-0.47,1.95-1.03,2.95-1.67v2.9c-0.95,0.58-1.93,1.1-2.95,1.56
		v7.27c0,1-0.22,1.7-0.66,2.11c-0.42,0.42-1.18,0.63-2.3,0.63h-2.24l-0.6-2.73c0.84,0.13,1.53,0.19,2.08,0.19
		c0.73,0,1.09-0.22,1.09-0.66v-5.66c-1.04,0.42-2.11,0.78-3.2,1.09l-0.41-2.95c1.18-0.18,2.39-0.5,3.61-0.96v-6.37h-3.5V9.92z
		 M170.69,8.77h5.3V4.89h2.73v3.88h6.29v2.52h-6.29v3.61h5.82v2.21c-1.2,3.04-2.59,5.39-4.16,7.03c-0.25,0.33-0.54,0.63-0.85,0.9
		c1.64,1.18,3.72,2.18,6.23,2.98l-1.59,2.35c-2.93-1.15-5.21-2.37-6.84-3.66c-2.1,1.33-4.87,2.66-8.31,3.99l-1.09-2.6
		c3.17-1,5.68-2.07,7.52-3.2c-1.62-1.71-2.96-3.69-4.02-5.93l2.19-1.29c1.06,2.3,2.37,4.2,3.94,5.71c0.07-0.05,0.14-0.11,0.19-0.16
		c1.26-1.17,2.56-3.11,3.91-5.82h-10.99V14.9h5.3v-3.61h-5.3V8.77z"/>
	<path d="M193.28,5.11l1.8,1.59c-1.46,1.93-3.3,3.66-5.52,5.2l-1.7-2.19C189.87,8.46,191.67,6.93,193.28,5.11z M192.65,11.78
		l2.21,1.04c-0.6,1.44-1.22,2.64-1.86,3.61v14.16h-2.41V19.38c-0.6,0.62-1.22,1.22-1.86,1.8l-0.88-2.95c0.98-0.89,1.85-1.8,2.6-2.73
		C191.22,14.62,191.95,13.38,192.65,11.78z M195.3,14.84l2.3,0.16c-0.09,4.48-0.53,8.73-1.31,12.74l-2.3-0.63
		C194.86,22.96,195.3,18.87,195.3,14.84z M194.97,10.08h3.72v-5.2h2.41v5.2h4.16v2.3h-4.16v18.21h-2.41V12.38h-3.72V10.08z
		 M203.72,5.52c0.58,0.97,1.09,1.98,1.53,3.04l-2.27,1.04c-0.44-1.24-0.92-2.34-1.45-3.31L203.72,5.52z M202.13,14.84h2.3v8.09
		c0,0.58,0.31,0.88,0.93,0.88h1.09V26h-1.64c-0.84,0-1.5-0.17-1.97-0.52c-0.47-0.35-0.71-0.92-0.71-1.72V14.84z M205.69,14.13h7.98
		v2.52h-2.57v10.99c0,1-0.21,1.7-0.63,2.11c-0.4,0.42-1.13,0.63-2.19,0.63h-2.32l-0.6-2.73c0.89,0.13,1.62,0.19,2.19,0.19
		c0.69,0,1.04-0.22,1.04-0.66V16.65h-2.9V14.13z M206.02,6.47h7.14v2.52h-7.14V6.47z"/>
	<path d="M217.26,12.11c1.57,0.69,3,1.52,4.29,2.49l-1.75,2.65c-1.31-1.22-2.66-2.19-4.05-2.9L217.26,12.11z M220.32,18.67
		l2.21,1.64c-1.22,3.87-2.62,7.22-4.18,10.06l-2.05-2.3C217.59,25.89,218.93,22.75,220.32,18.67z M218.57,5.22
		c1.6,0.75,3.07,1.65,4.4,2.71l-1.75,2.65c-1.35-1.31-2.73-2.35-4.16-3.12L218.57,5.22z M238.99,5.6v7.33h1.91v6.18h-2.08v8.48
		c0,0.95-0.24,1.66-0.71,2.13c-0.4,0.44-0.98,0.66-1.72,0.66h-3.34l-0.57-2.52l2.84,0.11c0.58-0.04,0.88-0.41,0.88-1.12v-1.01h-9.52
		v4.76h-2.62V19h-2.08v-6.07h1.91V5.6H238.99z M224.39,16.7h14.11v-1.48h-14.11V16.7z M226.42,12.93h2.79V9.32h7.27V7.9h-10.06
		V12.93z M226.69,20.31h9.52v-1.42h-9.52V20.31z M226.69,23.76h9.52v-1.48h-9.52V23.76z M231.83,12.93h4.65v-1.75h-4.65V12.93z"/>
	<path d="M244.3,10.14h3.5V4.89h2.62v5.25h3.61v2.38h-3.61v0.9c1.37,1.33,2.75,2.82,4.16,4.46l-1.56,2.32
		c-1-1.51-1.87-2.75-2.6-3.72v14.11h-2.62V18.53c-0.8,1.95-1.73,3.67-2.79,5.17l-1.26-3.2c1.66-2.21,3.01-4.74,4.05-7.6v-0.38h-3.5
		V10.14z M268.22,4.89l1.45,2.62c-3.46,0.69-7.35,1.1-11.65,1.23v3.53h10.88v2.16c-0.62,3.77-1.72,6.98-3.31,9.62
		c1.26,1.35,2.73,2.51,4.4,3.47l-1.56,2.54c-1.75-1.2-3.24-2.46-4.46-3.77c-1.5,1.59-3.5,2.98-6.02,4.18l-1.53-2.32
		c2.46-1.11,4.4-2.44,5.82-3.99c-0.25-0.36-0.48-0.71-0.68-1.04c-1.46-2.28-2.49-5.06-3.09-8.34h-0.46v1.15
		c-0.05,2.44-0.35,5.03-0.88,7.77c-0.49,2.33-1.31,4.56-2.46,6.67l-1.97-2.05c0.93-1.77,1.6-3.57,2.02-5.41
		c0.38-2,0.64-4.33,0.77-6.97V6.37C260.61,6.37,264.85,5.87,268.22,4.89z M261.12,14.79c0.58,2.86,1.48,5.2,2.68,7
		c0.04,0.07,0.07,0.13,0.11,0.16c1.09-1.99,1.9-4.38,2.41-7.16H261.12z"/>
	<path d="M272.08,11.62h7.27v1.94c-0.89,1.5-2.04,3.07-3.45,4.73h3.58v1.67c-0.38,1.59-0.77,2.87-1.18,3.86
		c1.17,1.4,2.55,2.34,4.16,2.82c1.62,0.49,4.51,0.74,8.67,0.74c2.64,0,4.86-0.07,6.64-0.22l-0.79,2.79c-8.64,0-13.8-0.29-15.48-0.88
		c-1.66-0.51-3.1-1.53-4.32-3.06c-0.84,1.4-1.99,2.9-3.45,4.48l-1.89-2c1.53-1.46,2.61-2.73,3.23-3.83c0.51-0.66,1.1-2.01,1.78-4.07
		h-4.18v-2.08c1.17-1.17,2.39-2.7,3.66-4.59h-4.27V11.62z M275.14,5.33c1.35,1.13,2.48,2.24,3.39,3.34l-1.8,1.8
		c-0.75-1.09-1.82-2.28-3.23-3.55L275.14,5.33z M283.46,5.22l2.52,0.52c-0.25,0.77-0.54,1.49-0.85,2.16h2.32V4.89h2.52V7.9h6.18v2.3
		h-6.18v2.73h7.38v2.3h-7.38v1.8h-2.52v-1.8h-7.38v-2.3h7.38v-2.73h-3.53c-0.57,0.93-1.18,1.79-1.83,2.57l-2.35-1.5
		C281.52,9.38,282.76,7.37,283.46,5.22z M281.76,17.69h14v7.44h-14V17.69z M293.24,22.94v-3.06h-8.97v3.06H293.24z"/>
	<path d="M301.39,5.98h13.34v2.19h-2.84v3.55h3.72v2.3h-3.72v5.74h-2.41v-5.74h-3.31c-0.11,0.89-0.29,1.69-0.55,2.38
		c-0.42,1.2-1.25,2.43-2.49,3.69l-2.08-1.8c1.08-0.88,1.83-1.8,2.27-2.79c0.18-0.38,0.32-0.88,0.41-1.48h-3.45v-2.3h3.61V8.17h-2.52
		V5.98z M302.38,21.95h8.97v-1.86h2.62v1.86h9.41v2.41h-9.41v2.84h11.48v2.41H300.3V27.2h11.05v-2.84h-8.97V21.95z M309.49,11.72
		V8.17h-3.17v3.55H309.49z M317.03,6.75h2.41v9.08h-2.41V6.75z M321.71,19.98h-3.64l-0.49-2.3c1.37,0.11,2.5,0.16,3.39,0.16
		c0.69,0,1.04-0.18,1.04-0.55V5.22h2.52v12.47c0,0.84-0.21,1.43-0.63,1.78C323.5,19.81,322.77,19.98,321.71,19.98z"/>
	<path d="M353.4,15.22v6.4h-2.52v-4.1h-8.91v2.68h8.37v5.88c0,0.86-0.23,1.5-0.68,1.94c-0.38,0.4-0.94,0.6-1.67,0.6h-3.2l-0.52-2.3
		l2.71,0.11c0.57-0.04,0.85-0.37,0.85-1.01v-3.04h-5.85v8.31h-2.62v-8.31h-5.41v6.12h-2.52V20.2h7.93v-2.68h-8.48v3.99h-2.52v-6.29
		H353.4z M328.85,7.68h3.45V5h2.52v2.68h2.08V5h2.52v2.68h2.73V5h2.52v2.68h2.08V5h2.52v2.68h3.91v2.3h-3.91v0.93
		c0,0.58,0.34,0.88,1.01,0.88h2.65v2.19h-3.25c-0.91,0-1.62-0.17-2.13-0.52c-0.53-0.35-0.79-0.92-0.79-1.72V9.97h-2.08v3.99h-7.77
		V9.97h-2.24c-0.18,1-0.48,1.84-0.9,2.52c-0.62,0.98-1.63,1.73-3.04,2.24l-1.42-2.24c1.17-0.42,1.95-0.95,2.35-1.59
		c0.18-0.29,0.31-0.6,0.38-0.93h-3.17V7.68z M339.4,9.97v1.8h2.73v-1.8H339.4z"/>
	<path d="M357.17,7.79h10.17V5.22h2.62v2.57h10.39v2.52h-10.39v6.23c1.08,2.17,2.41,4.07,3.99,5.69c1.6,1.79,4.14,3.55,7.6,5.28
		l-1.91,2.21c-2.55-1.57-4.62-3.07-6.21-4.51c-1.31-1.24-2.47-2.6-3.47-4.07v9.24h-2.62v-9.41c-1.04,1.48-2,2.62-2.87,3.45
		c-1.8,1.86-4.07,3.66-6.81,5.41l-1.48-2.52c2.7-1.46,5.05-3.19,7.05-5.2c1.5-1.53,2.86-3.33,4.1-5.39V10.3h-10.17V7.79z
		 M361.41,10.9l2.43,0.41c-0.31,1.31-0.62,2.43-0.93,3.36c1.04,0.88,2,1.87,2.9,2.98l-1.45,2.21c-0.8-1.17-1.59-2.13-2.38-2.9
		c-0.67,1.51-1.78,3.1-3.31,4.76l-1.72-2.13c1.31-1.31,2.28-2.61,2.9-3.88C360.49,14.53,361.01,12.93,361.41,10.9z M374.76,11.01
		l2.54,0.41c-0.31,1.31-0.64,2.41-0.98,3.28c1.59,1.24,3.04,2.66,4.38,4.27l-1.45,2.21c-1.29-1.73-2.59-3.17-3.88-4.32
		c-0.58,1.02-1.38,2.06-2.38,3.12l-1.8-2.21c1.06-1.02,1.83-2.02,2.32-3.01C374.03,13.83,374.45,12.58,374.76,11.01z"/>
	<path d="M384.52,6.04h24.83v2.52h-11.32v2.08h9.02V21.9h-9.52c-0.36,1.57-0.9,2.9-1.61,3.99c0.84,0.33,1.67,0.61,2.49,0.85
		c2.32,0.71,6.07,1.19,11.27,1.45l-0.66,2.52c-4.92-0.31-8.66-0.88-11.21-1.7c-1.2-0.35-2.37-0.77-3.5-1.26
		c-1.95,1.6-5,2.62-9.13,3.06l-1.2-2.52c3.43-0.2,6.02-0.81,7.79-1.83c-1.42-0.77-2.82-1.65-4.18-2.65l1.91-1.31
		c1.44,0.93,2.81,1.71,4.1,2.35c0.6-0.84,1.04-1.82,1.31-2.95h-8.42V10.63h9.02V8.55h-10.99V6.04z M389.11,15.01h6.4v-2.08h-6.4
		V15.01z M395.35,19.6c0.09-0.75,0.14-1.51,0.14-2.3h-6.37v2.3H395.35z M404.42,19.6v-2.3h-6.4c-0.02,0.82-0.06,1.59-0.14,2.3
		H404.42z M398.03,12.93v2.08h6.4v-2.08H398.03z"/>
	<path d="M422.25,4.89l2.73,0.33c-0.35,0.6-0.73,1.15-1.15,1.64h10.55v2.05c-1.71,2.15-4.08,4.05-7.11,5.69
		c-3.79,2.17-8.29,3.67-13.51,4.51l-1.18-2.32c3.81-0.47,7.09-1.24,9.84-2.3c-0.84-0.88-1.85-1.81-3.04-2.82l2.05-1.31
		c1.5,1.11,2.72,2.08,3.66,2.9c2.02-1.11,3.83-2.44,5.41-3.99h-9.3c-0.13,0.09-0.23,0.16-0.3,0.22c-1.64,1.24-3.77,2.37-6.4,3.39
		l-1.7-2.16c2.37-0.82,4.35-1.7,5.93-2.65C420.02,7.35,421.18,6.29,422.25,4.89z M428.46,14.73l2.87,0.46
		c-0.57,0.8-1.15,1.52-1.75,2.16h7.57v2.27c-1.95,3.37-4.21,5.8-6.78,7.27c-2.92,1.7-7.7,2.96-14.36,3.8l-1.86-2.57
		c5.36-0.46,9.47-1.19,12.33-2.21c-0.89-0.89-1.94-1.84-3.14-2.84l2.05-1.34c1.5,1.11,2.75,2.09,3.77,2.93
		c1.97-1.11,3.56-2.74,4.79-4.89h-7.11c-0.11,0.07-0.21,0.14-0.3,0.19c-1.84,1.39-5,2.85-9.46,4.4l-2.05-2.52
		c3.94-1.08,6.85-2.13,8.75-3.17C425.72,17.69,427.27,16.37,428.46,14.73z"/>
	<path d="M441.28,6.15h23.19v2.3h-10.39v10.01h11.38v2.41h-11.38v9.73h-2.62v-9.73H440.3v-2.41h11.16V8.44h-10.17V6.15z
		 M445.25,9.92c0.93,1.86,1.83,3.92,2.71,6.18l-2.52,1.26c-0.8-2.31-1.68-4.4-2.62-6.26L445.25,9.92z M460.53,9.92l2.41,1.15
		c-0.8,2.17-1.86,4.27-3.17,6.29l-2.41-1.26C458.69,13.97,459.75,11.91,460.53,9.92z"/>
	<path d="M473.06,5.11l1.7,1.5c-1.42,1.79-3.22,3.4-5.39,4.84l-1.61-2.08C469.72,8.22,471.49,6.8,473.06,5.11z M472.65,12.11
		l2.11,0.98v-1.23c-0.13,0.09-0.25,0.17-0.38,0.25l-1.48-1.91c1.15-0.75,2.11-1.55,2.9-2.41c0.6-0.66,1.17-1.62,1.7-2.9l2.41,0.3
		c-0.16,0.49-0.35,0.94-0.55,1.34h5.06v1.64c-0.49,0.93-0.98,1.73-1.45,2.41h2.52V21.4h-4.29c-0.02,0.49-0.06,0.95-0.14,1.37H487
		v2.08h-5.99c1.51,0.89,3.04,1.9,4.57,3.04l-1.31,1.94c-1.82-1.55-3.29-2.68-4.4-3.39c-0.13,0.24-0.25,0.45-0.38,0.63
		c-1,1.49-2.64,2.63-4.92,3.42l-1.23-1.94c2.19-0.78,3.67-1.78,4.46-2.98c0.16-0.24,0.3-0.47,0.41-0.71h-4.32v-2.08h4.95
		c0.09-0.42,0.15-0.88,0.16-1.37h-4.24v-8.01c-0.6,1.35-1.22,2.47-1.86,3.36v13.84h-2.41V19.57c-0.57,0.55-1.15,1.08-1.75,1.61
		l-0.88-2.95c0.98-0.84,1.85-1.7,2.6-2.6C471.22,14.81,471.95,13.64,472.65,12.11z M476.34,10.58h3.83
		c0.57-0.58,1.15-1.28,1.75-2.08h-3.72c-0.13,0.2-0.27,0.39-0.44,0.57C477.34,9.62,476.87,10.12,476.34,10.58z M476.94,15.01h2.08
		v-2.49h-2.08V15.01z M479.02,19.44v-2.57h-2.08v2.57H479.02z M481.21,12.52v2.49h2.08v-2.49H481.21z M483.28,19.44v-2.57h-2.08
		v2.57H483.28z M486.15,13.91h7.63v2.52h-2.46v11.21c0,1-0.21,1.7-0.63,2.11c-0.4,0.42-1.13,0.63-2.19,0.63h-2.11l-0.6-2.73
		c0.8,0.13,1.46,0.19,1.97,0.19c0.69,0,1.04-0.22,1.04-0.66V16.43h-2.65V13.91z M486.46,6.47h6.78v2.52h-6.78V6.47z"/>
	<path d="M501.85,5l2.54,0.36c-0.31,1.44-0.76,2.76-1.34,3.96h3.96v5.88c0.82-1.37,1.45-2.71,1.89-4.02
		c0.56-1.57,1.02-3.66,1.37-6.29l2.76,0.46c-0.26,1.46-0.5,2.74-0.74,3.86h8.61c0,9.86-0.16,15.71-0.46,17.53
		c-0.24,1.44-0.69,2.37-1.37,2.79c-0.78,0.56-2.22,0.85-4.32,0.85c-0.6,0-1.3-0.04-2.11-0.11l-0.49-2.73
		c0.86,0.11,1.73,0.16,2.62,0.16c1.71,0,2.67-0.57,2.87-1.72c0.35-1.46,0.56-6.21,0.63-14.25h-6.67c-0.05,0.2-0.11,0.38-0.16,0.55
		c-0.6,2.01-1.64,4.14-3.12,6.4l-1.31-1.61v11.46h-2.41v-1.37h-5.14v2.13h-2.41V9.32h3.47C501.14,7.95,501.58,6.51,501.85,5z
		 M499.47,17.14h5.14v-5.52h-5.14V17.14z M499.47,24.85h5.14v-5.52h-5.14V24.85z M512.54,15.5c1.57,2.55,2.79,4.75,3.66,6.59
		l-2.62,1.83c-0.78-2.04-1.88-4.38-3.28-7L512.54,15.5z"/>
	<path d="M537.04,4.78c0.4,0.84,0.77,1.77,1.12,2.79h10.99v2.73h-12.82c-0.82,2.12-2.07,4.32-3.75,6.62
		c2.21-0.11,4.38-0.26,6.51-0.46c1.33-1.53,2.63-3.13,3.91-4.79l2.6,1.29c-4.23,5.34-8.36,9.72-12.39,13.12
		c4.59-0.16,8.4-0.5,11.43-1.01c-0.64-1.37-1.33-2.79-2.08-4.27l2.32-1.48c2,3.54,3.56,6.58,4.68,9.13l-2.73,1.91
		c-0.35-0.89-0.71-1.82-1.09-2.79c-4.48,0.73-11.04,1.29-19.66,1.7l-0.9-3.06c1.33,0,2.61-0.01,3.83-0.03
		c2.57-2,5.07-4.29,7.49-6.86c-2.94,0.31-6.18,0.6-9.73,0.88l-0.71-2.95c0.93-0.05,1.85-0.1,2.76-0.14c1.77-2.1,3.2-4.37,4.29-6.81
		h-8.5V7.57h10.28c-0.33-0.82-0.72-1.59-1.18-2.3L537.04,4.78z"/>
	<path d="M552.19,10.19h2.84V5h2.41v5.2h2.16v2.3h-2.16v1.5c1.04,1.24,2.06,2.6,3.06,4.07l-0.41,0.66h2.27
		c0.04-0.62,0.05-1.25,0.05-1.89c-0.58,0.07-1.18,0.14-1.78,0.19l-0.46-1.97c0.4-0.02,0.8-0.04,1.2-0.08
		c0.64-0.88,1.26-1.88,1.86-3.01c-0.93,0.18-1.91,0.37-2.95,0.55l-0.44-1.83c0.35-0.04,0.7-0.07,1.07-0.11
		c0.89-1.62,1.54-3.37,1.94-5.25l2.02,0.27c-0.42,1.71-1.03,3.28-1.83,4.7c0.4-0.09,0.77-0.16,1.09-0.22
		c0.36-0.73,0.7-1.48,1.01-2.24l1.91,0.74c-1.15,2.53-2.32,4.62-3.53,6.26c0.66-0.05,1.28-0.11,1.86-0.16
		c-0.13-0.49-0.26-0.99-0.41-1.5l1.48-0.41c0.6,1.51,1.06,2.9,1.37,4.16l-1.75,0.66c-0.07-0.4-0.16-0.79-0.25-1.18
		c-0.4,0.05-0.8,0.11-1.2,0.16c0,0.78-0.02,1.5-0.05,2.16h3.69c-0.46-2.95-0.75-7.56-0.88-13.84h2.19
		c0.18,6.54,0.45,11.16,0.79,13.84h2.6c-0.18-0.53-0.42-1.08-0.71-1.67c-0.46,0.07-0.94,0.14-1.45,0.19l-0.57-1.97
		c0.42,0,0.81-0.01,1.18-0.03c0.62-0.91,1.25-2,1.89-3.25c-0.93,0.18-1.91,0.36-2.95,0.52l-0.44-1.83c0.33-0.02,0.65-0.04,0.96-0.08
		c0.78-1.62,1.36-3.38,1.72-5.28l2.02,0.27c-0.37,1.71-0.9,3.3-1.61,4.76c0.44-0.05,0.83-0.12,1.18-0.19
		c0.27-0.62,0.55-1.25,0.82-1.89l1.91,0.74c-1.08,2.46-2.19,4.49-3.34,6.1c0.67-0.09,1.27-0.21,1.78-0.36
		c-0.13-0.46-0.26-0.91-0.41-1.37l1.48-0.41c0.6,1.48,1.06,2.83,1.37,4.05l-1.75,0.66c-0.09-0.44-0.18-0.85-0.27-1.23
		c-0.4,0.11-0.85,0.21-1.34,0.3c0.24,0.6,0.46,1.26,0.68,1.97h2.57v2.08h-6.92c0.25,1.22,0.56,2.28,0.9,3.17
		c0.62-0.71,1.23-1.53,1.83-2.46l1.89,0.98c-0.8,1.4-1.69,2.62-2.65,3.64c0.84,1.4,1.56,2.11,2.16,2.11c0.16,0,0.27-0.09,0.33-0.27
		c0.13-0.26,0.25-1.46,0.38-3.61l2.19,1.29c-0.29,2.1-0.64,3.47-1.04,4.13c-0.38,0.55-0.95,0.82-1.7,0.82c-1.15,0-2.42-1-3.8-3.01
		c-0.02-0.02-0.03-0.04-0.03-0.05c-1.26,1.06-2.95,1.97-5.09,2.73l-1.26-1.91c2.04-0.73,3.72-1.6,5.03-2.62
		c0.09-0.07,0.17-0.14,0.25-0.19c-0.6-1.33-1.1-2.91-1.5-4.73h-4.18c-0.04,0.35-0.06,0.67-0.08,0.98c1.33,0.8,2.55,1.75,3.66,2.84
		l-1.31,2.02c-0.93-1.02-1.86-1.89-2.79-2.6c-0.35,1.44-0.78,2.59-1.31,3.45c-0.58,1-1.43,2.03-2.54,3.09l-1.67-2.11
		c1.15-1.06,2-2.09,2.57-3.09c0.46-0.8,0.84-2.11,1.15-3.94c0.04-0.24,0.06-0.46,0.08-0.66h-2.71v-1.29l-0.44,0.68
		c-0.64-1.28-1.19-2.33-1.64-3.17v13.56h-2.41V18.81c-0.64,1.75-1.38,3.31-2.21,4.68l-1.07-2.73c1.31-2.17,2.41-4.66,3.28-7.46
		v-0.79h-2.84V10.19z"/>
</g>
<g>
	<g>
		<g id="XMLID_14_">
			<g>
				<linearGradient id="SVGID_1_" gradientUnits="userSpaceOnUse" x1="-8.9433" y1="7.2509" x2="42.7225" y2="27.9173">
					<stop  offset="5.618000e-03" style="stop-color:#FF2727"/>
					<stop  offset="0.3525" style="stop-color:#FFFF00"/>
					<stop  offset="0.3814" style="stop-color:#F8EE10"/>
					<stop  offset="0.4388" style="stop-color:#E6C13A"/>
					<stop  offset="0.5185" style="stop-color:#C9797D"/>
					<stop  offset="0.5955" style="stop-color:#AA2EC3"/>
					<stop  offset="0.7367" style="stop-color:#4F66C6"/>
					<stop  offset="0.8536" style="stop-color:#0097C9"/>
					<stop  offset="1" style="stop-color:#FFFF00"/>
				</linearGradient>
				<polygon class="st2" points="30.93,19 20.43,29.5 9.93,19 20.43,8.5 				"/>
				<linearGradient id="SVGID_2_" gradientUnits="userSpaceOnUse" x1="-7.8742" y1="4.5781" x2="43.7917" y2="25.2444">
					<stop  offset="5.618000e-03" style="stop-color:#FF2727"/>
					<stop  offset="0.2129" style="stop-color:#FFFF00"/>
					<stop  offset="0.2584" style="stop-color:#F8EE10"/>
					<stop  offset="0.3488" style="stop-color:#E6C13A"/>
					<stop  offset="0.4743" style="stop-color:#C9797D"/>
					<stop  offset="0.5955" style="stop-color:#AA2EC3"/>
					<stop  offset="0.78" style="stop-color:#4F66C6"/>
					<stop  offset="0.9327" style="stop-color:#0097C9"/>
					<stop  offset="1" style="stop-color:#FFFF00"/>
				</linearGradient>
				<polygon class="st3" points="28.18,8.5 26.02,10.66 34.36,19 26.02,27.34 28.18,29.5 38.68,19 				"/>
			</g>
		</g>
	</g>
</g>
<g>
	<g>
		<linearGradient id="SVGID_3_" gradientUnits="userSpaceOnUse" x1="13.3622" y1="36.6047" x2="620.1619" y2="36.6047">
			<stop  offset="0" style="stop-color:#00B987"/>
			<stop  offset="1" style="stop-color:#FFFFFF"/>
		</linearGradient>
		<line class="st4" x1="13.36" y1="36.6" x2="620.16" y2="36.6"/>
	</g>
</g>
</svg>
