<?xml version="1.0" encoding="utf-8"?>
<!-- Generator: Adobe Illustrator 25.2.0, SVG Export Plug-In . SVG Version: 6.00 Build 0)  -->
<svg version="1.1" id="Layer_1" xmlns="http://www.w3.org/2000/svg" xmlns:xlink="http://www.w3.org/1999/xlink" x="0px" y="0px"
	 width="688.39px" height="40px" viewBox="0 0 688.39 40" style="enable-background:new 0 0 688.39 40;" xml:space="preserve">
<style type="text/css">
	.st0{fill:url(#SVGID_1_);}
	.st1{fill:url(#SVGID_2_);}
	.st2{fill:none;stroke:url(#SVGID_3_);stroke-width:2;stroke-miterlimit:10;stroke-dasharray:2,3,2,3,2,3;}
	.st3{enable-background:new    ;}
	.st4{fill:#FFFFFF;}
	.st5{fill:none;stroke:#ABABAB;stroke-miterlimit:10;}
	.st6{fill:none;stroke:#000000;stroke-width:0.5;stroke-miterlimit:10;}
</style>
<symbol  id="New_Symbol_1" viewBox="-14.38 -10.5 28.75 21">
	<g id="XMLID_13_">
		<g>
			<linearGradient id="SVGID_1_" gradientUnits="userSpaceOnUse" x1="-33.2483" y1="11.7491" x2="18.4175" y2="-8.9173">
				<stop  offset="5.618000e-03" style="stop-color:#FF2727"/>
				<stop  offset="0.3525" style="stop-color:#FFFF00"/>
				<stop  offset="0.3814" style="stop-color:#F8EE10"/>
				<stop  offset="0.4388" style="stop-color:#E6C13A"/>
				<stop  offset="0.5185" style="stop-color:#C9797D"/>
				<stop  offset="0.5955" style="stop-color:#AA2EC3"/>
				<stop  offset="0.7367" style="stop-color:#4F66C6"/>
				<stop  offset="0.8536" style="stop-color:#0097C9"/>
				<stop  offset="1" style="stop-color:#FFFF00"/>
			</linearGradient>
			<polygon class="st0" points="6.62,0 -3.88,-10.5 -14.38,0 -3.88,10.5 			"/>
			<linearGradient id="SVGID_2_" gradientUnits="userSpaceOnUse" x1="-32.1792" y1="14.4219" x2="19.4867" y2="-6.2444">
				<stop  offset="5.618000e-03" style="stop-color:#FF2727"/>
				<stop  offset="0.2129" style="stop-color:#FFFF00"/>
				<stop  offset="0.2584" style="stop-color:#F8EE10"/>
				<stop  offset="0.3488" style="stop-color:#E6C13A"/>
				<stop  offset="0.4743" style="stop-color:#C9797D"/>
				<stop  offset="0.5955" style="stop-color:#AA2EC3"/>
				<stop  offset="0.78" style="stop-color:#4F66C6"/>
				<stop  offset="0.9327" style="stop-color:#0097C9"/>
				<stop  offset="1" style="stop-color:#FFFF00"/>
			</linearGradient>
			<polygon class="st1" points="3.88,10.5 1.72,8.34 10.06,0 1.72,-8.34 3.88,-10.5 14.38,0 			"/>
		</g>
	</g>
</symbol>
<symbol  id="New_Symbol_4" viewBox="-299.3 -1 606.8 2">
	<linearGradient id="SVGID_3_" gradientUnits="userSpaceOnUse" x1="-299.2997" y1="0" x2="307.5" y2="0">
		<stop  offset="0" style="stop-color:#00B987"/>
		<stop  offset="1" style="stop-color:#FFFFFF"/>
	</linearGradient>
	<line class="st2" x1="-299.3" y1="0" x2="307.5" y2="0"/>
</symbol>
<g class="st3">
	<path d="M48.52,6.91H53V4.89h2.19v2.02h4.7v2.3h-4.7v1.64h3.99v11.7h-3.99v2.02H60v2.19h-4.81v3.83H53v-3.83h-4.7v-2.19H53v-2.02
		h-3.99v-11.7H53V9.21h-4.48V6.91z M51.09,15.66H53v-2.73h-1.91V15.66z M53,20.47v-2.95h-1.91v2.95H53z M55.19,12.93v2.73h1.91
		v-2.73H55.19z M57.1,20.47v-2.95h-1.91v2.95H57.1z M60.77,19.6h12.47v2.3H68.1v5.8h5.8v2.3H59.67v-2.3h6.02v-5.8h-4.92V19.6z
		 M62.82,8.61l2.21,0.79c-0.69,1.59-1.52,3.06-2.49,4.43c1.24,1.59,2.18,2.97,2.82,4.16L63.04,19c-0.84-1.64-1.85-3.41-3.04-5.3
		C61.02,12.16,61.96,10.47,62.82,8.61z M60.66,5.71h13.02v2.3H60.66V5.71z M66.87,8.83l2.21,0.79c-0.6,1.46-1.32,2.82-2.16,4.07
		c1.15,1.51,2.01,2.84,2.6,3.96l-2.32,1.01c-0.78-1.57-1.72-3.25-2.82-5.06C65.29,12.15,66.12,10.56,66.87,8.83z M71.24,8.94
		l2.21,0.79c-0.6,1.46-1.32,2.83-2.16,4.1c1.04,1.42,1.83,2.66,2.38,3.72l-2.32,1.01c-0.71-1.49-1.58-3.12-2.6-4.87
		C69.66,12.25,70.49,10.67,71.24,8.94z"/>
	<path d="M89.97,5.52v1.56h-9.41V7.9h8.53v1.42h-8.53v0.88h8.42v1.42h-8.42v1.04h9.95v1.53h-2c0.53,0.93,1.01,1.93,1.45,3.01
		l-2.24,0.6c-0.11-0.35-0.23-0.67-0.36-0.98c-1.13,0.15-2.45,0.27-3.96,0.38V19h4.05v2.19h-4.05v0.96c1.31,0.95,2.62,1.99,3.94,3.12
		l-1.31,1.94c-1.02-1.09-1.9-1.98-2.62-2.65v5.82h-2.19v-5.82c-1.13,1.8-2.43,3.35-3.91,4.62l-1.45-2.16
		c2.19-1.64,3.88-3.58,5.09-5.82h-3.66V19h3.94v-1.64c-1.29,0.07-2.71,0.15-4.24,0.22l-0.57-1.97c0.77,0,1.49-0.01,2.16-0.03
		l0.9-1.39h-3.28v-1.53h1.97V5.52H89.97z M86.61,15.17c-0.16-0.36-0.34-0.69-0.52-0.98h-3.91l-0.82,1.34
		C83.4,15.45,85.15,15.33,86.61,15.17z M89.7,17.69l2.13,0.85c-0.64,1.59-1.19,2.74-1.67,3.47c-0.46,0.79-1.26,1.71-2.41,2.79
		l-1.83-1.61c0.98-0.84,1.77-1.67,2.35-2.49C88.84,19.86,89.32,18.85,89.7,17.69z M92.57,20.97L95,21.9
		c-1.17,2.33-2.36,4.26-3.58,5.77c2.11-0.07,3.92-0.18,5.41-0.33c-0.62-1.08-1.27-2.08-1.94-3.01l2.19-0.74
		c1.42,1.86,2.66,3.85,3.72,5.96l-2.27,1.04c-0.2-0.44-0.4-0.85-0.6-1.23c-2.5,0.33-6.04,0.59-10.64,0.79l-0.71-2.41h2.13
		C89.95,26.05,91.24,23.79,92.57,20.97z M98.86,5l1.29,1.67c-1.39,0.88-2.62,1.5-3.72,1.86C95.17,9,93.57,9.46,91.64,9.92
		l-1.23-2.11c1.9-0.35,3.54-0.75,4.95-1.2C96.69,6.17,97.86,5.64,98.86,5z M99.62,8.61l1.29,1.67c-1.5,0.89-2.83,1.54-3.99,1.94
		c-1.37,0.47-3.09,0.95-5.17,1.42l-1.23-2.11c2.04-0.35,3.82-0.77,5.33-1.26C97.27,9.82,98.53,9.26,99.62,8.61z M100.01,12.76
		l1.34,1.75c-1.57,0.88-2.95,1.5-4.16,1.89c-0.86,0.27-1.83,0.56-2.93,0.85h3.17c0.73,1.99,2.25,3.85,4.57,5.58l-1.5,2.08
		c-1.15-0.86-2.08-1.73-2.79-2.62c-0.71-0.84-1.32-1.79-1.83-2.84h-2.95v-1.89c-0.37,0.09-0.75,0.17-1.15,0.25l-1.26-2.21
		c2.13-0.35,3.98-0.75,5.55-1.2C97.56,13.92,98.88,13.38,100.01,12.76z"/>
	<path d="M114.14,5.22h2.84v8.15h11.05v2.52h-11.05v11.43h12.47v2.62H104.3v-2.62h9.84V5.22z"/>
	<path d="M155.24,5l1.45,2.49c-2.84,0.69-6.14,1.22-9.9,1.59v3.8h9.35v2.62h-9.35v3.88h10.88v2.73h-10.88v5.09
		c0,1.08-0.23,1.83-0.68,2.27c-0.42,0.46-1.22,0.68-2.41,0.68h-4.4l-0.66-2.95c1.73,0.15,3.15,0.22,4.27,0.22
		c0.77,0,1.15-0.24,1.15-0.71v-4.59h-12.2v-2.73h12.2V15.5h-10.34v-2.62h10.34V9.29c-3.14,0.2-6.54,0.3-10.2,0.3l-0.9-2.65
		C141.72,6.94,149.15,6.29,155.24,5z"/>
	<path d="M174.68,17.19c0,1.7-0.78,3.14-2.35,4.32l-0.98-1.2c0.93-0.75,1.48-1.6,1.64-2.57h-1.91v-3.58h3.61V17.19z"/>
	<path d="M188.79,6.04h7.6v1.94c-0.55,2.08-1.19,4.29-1.91,6.62c0.66,1.28,1.12,2.43,1.39,3.45c0.35,1.06,0.52,1.96,0.52,2.71
		c-0.04,1.5-0.27,2.57-0.71,3.23c-0.49,0.77-1.57,1.15-3.23,1.15l-0.77-2.6c0.47,0.13,0.91,0.19,1.31,0.19
		c0.33,0,0.56-0.14,0.71-0.41c0.18-0.27,0.27-0.79,0.27-1.56c0-0.84-0.12-1.62-0.36-2.35c-0.27-0.96-0.8-2.11-1.59-3.45
		c0.91-2.61,1.56-4.81,1.94-6.62h-2.68v22.26h-2.52V6.04z M201.32,6.64h3.36c0.16-0.55,0.31-1.13,0.44-1.75l2,0.33
		c-0.13,0.53-0.25,1-0.36,1.42h6.48v1.97h-7.14c-0.16,0.46-0.33,0.84-0.49,1.15h6.64v1.64h-3.06v1.42h3.72v1.64h-9.3v-1.53
		c-0.33,0.42-0.69,0.84-1.09,1.26l-1.12-1.37c-0.62,1.73-1.42,3.52-2.41,5.36h2.93v1.5c-0.42,2.3-0.87,3.99-1.34,5.09
		c-0.02,0.05-0.04,0.11-0.05,0.16c0.93,1,1.93,1.7,3.01,2.08c1.33,0.42,3.44,0.63,6.32,0.63c1.22,0,2.35-0.04,3.39-0.14l-0.46,2.57
		c-4.9-0.05-8.11-0.33-9.62-0.82c-1.37-0.49-2.55-1.25-3.55-2.27c-0.64,1.22-1.43,2.5-2.38,3.83l-1.7-1.78
		c1.26-1.59,2.14-2.97,2.65-4.16c0.42-0.75,0.91-2.29,1.48-4.62h-2.98V18.4c0.78-1.35,1.61-3.12,2.49-5.3h-2.87V10.9h5.14v1.2
		c1.02-1.04,1.79-2.05,2.3-3.04c0.09-0.16,0.17-0.32,0.25-0.46h-2.65V6.64z M198.64,5.22c1,1.51,1.79,2.81,2.35,3.88l-1.97,1.37
		c-0.51-1.22-1.2-2.62-2.08-4.18L198.64,5.22z M208.34,26.65l-0.46-2.08l1.56,0.08c0.49-0.04,0.74-0.35,0.74-0.93v-0.66h-4.92v3.45
		h-2.19V15.5h9.3v8.83c0,0.79-0.2,1.38-0.6,1.78c-0.33,0.37-0.81,0.55-1.45,0.55H208.34z M203.69,12.82h3.53V11.4h-2.49
		C204.44,11.87,204.09,12.35,203.69,12.82z M205.25,18.56h4.92v-1.31h-4.92V18.56z M205.25,21.51h4.92v-1.42h-4.92V21.51z"/>
	<path d="M225.05,6.86v21h-2.41v-2.08h-3.5v2.73h-2.41V6.86H225.05z M219.14,15.17h3.5V9.26h-3.5V15.17z M219.14,23.37h3.5v-5.8
		h-3.5V23.37z M226.36,7.62h5.91V5h2.41v2.62h6.12v2.41h-6.12v2.79h7v2.52h-2.79v3.01h3.01v2.41h-3.01v6.67c0,1-0.21,1.71-0.63,2.11
		c-0.4,0.42-1.13,0.63-2.19,0.63h-3.42l-0.6-2.73c1.33,0.13,2.42,0.19,3.28,0.19c0.69,0,1.04-0.22,1.04-0.66v-6.21H225.6v-2.41
		h10.77v-3.01h-10.55v-2.52h6.45v-2.79h-5.91V7.62z M229.18,21.51c1.79,1.57,3.18,2.92,4.18,4.05l-2.52,1.75
		c-0.91-1.28-2.19-2.75-3.83-4.43L229.18,21.51z"/>
	<path d="M255.51,5.76v10.39h-8.2v14.44h-2.52V5.76H255.51z M247.31,9.76h5.69v-1.8h-5.69V9.76z M247.31,13.97h5.69v-2.13h-5.69
		V13.97z M250.92,17.47h11.48v10.61h-11.48V17.47z M253.43,21.57h6.45v-1.91h-6.45V21.57z M259.89,25.89v-2.24h-6.45v2.24H259.89z
		 M258.96,5.76h9.73v22.01c0,1.02-0.26,1.77-0.79,2.24c-0.49,0.46-1.29,0.68-2.38,0.68h-2.02l-0.6-2.62l2.08,0.08
		c0.73,0,1.09-0.41,1.09-1.23V16.15h-8.42V5.76H258.96z M260.27,9.92h5.8V7.95h-5.8V9.92z M260.27,13.97h5.8v-2.08h-5.8V13.97z"/>
	<path d="M279.74,24.58l1.42,1.83c-1.26,0.86-2.38,1.49-3.36,1.89c-1.15,0.49-2.6,0.97-4.35,1.42l-1.37-2.32
		c1.71-0.35,3.21-0.75,4.48-1.2C277.77,25.75,278.82,25.21,279.74,24.58z M274.65,5.27h20.56v9.62h-8.86l-5.11,2.71
		c2.46-0.07,4.91-0.31,7.36-0.71c0.89-0.53,1.82-1.1,2.79-1.72l2.35,1.56c-3.21,1.9-5.93,3.29-8.18,4.18
		c-0.86,0.33-1.81,0.67-2.87,1.01c3.17-0.14,6.32-0.43,9.43-0.85c-0.42-0.49-0.87-0.98-1.34-1.48l1.97-1.26
		c2,1.91,3.57,3.56,4.7,4.95l-2.3,1.61c-0.44-0.64-0.9-1.28-1.39-1.91c-2.35,0.31-4.91,0.55-7.68,0.71v6.67h-2.62v-6.54
		c-3.12,0.13-6.46,0.19-10.04,0.19l-0.46-2.43c1.6,0.15,2.85,0.27,3.75,0.36c2.79-0.73,5.05-1.49,6.78-2.3
		c0.38-0.18,0.77-0.37,1.18-0.57c-2.75,0.2-5.83,0.3-9.24,0.3l-0.38-2.11c0.93,0.09,1.71,0.16,2.35,0.22l4.95-2.6h-7.68V5.27z
		 M277.17,9.21h6.29V7.35h-6.29V9.21z M283.46,12.82v-1.75h-6.29v1.75H283.46z M286.08,7.35v1.86h6.62V7.35H286.08z M292.7,12.82
		v-1.75h-6.62v1.75H292.7z M289.72,24.25c2.83,0.97,5.4,2.12,7.74,3.45l-1.53,2.38c-2.44-1.62-4.96-2.91-7.55-3.86L289.72,24.25z"/>
	<path d="M308.94,5.33l0.88,2.32c-1,0.35-2.13,0.64-3.39,0.88v3.96h3.28v2.3h-3.28v1.2c1.26,1.28,2.53,2.7,3.83,4.27l-1.42,2.13
		c-0.93-1.44-1.73-2.63-2.41-3.58v11.68h-2.41V19.3c-0.02,0.04-0.03,0.06-0.03,0.08c-0.84,2.24-1.86,4.19-3.06,5.85l-1.07-2.73
		c1.64-2.24,2.96-4.81,3.96-7.71h-3.53v-2.3h3.72V8.94c-0.88,0.13-1.77,0.24-2.68,0.33l-0.49-2.32
		C303.87,6.69,306.57,6.15,308.94,5.33z M314.85,26.87l1.42,1.64c-2.35,0.98-4.7,1.71-7.05,2.19l-1.04-2.19
		C310.73,28.17,312.95,27.62,314.85,26.87z M310.36,6.53h5.8V4.89h2.41v1.64h6.23V8.5h-6.23v1.26h5.47v1.86h-5.47v1.26h7.22v1.97
		h-15.75v-1.97h6.12v-1.26h-5V9.76h5V8.5h-5.8V6.53z M311.02,15.88h13.34v10.61h-13.34V15.88z M313.42,18.94h8.53v-1.2h-8.53V18.94z
		 M313.42,21.79h8.53v-1.2h-8.53V21.79z M321.96,24.63v-1.2h-8.53v1.2H321.96z M319.28,26.76c2.04,0.37,4.17,0.91,6.4,1.64
		l-0.93,2.3c-2.06-0.84-4.23-1.47-6.51-1.89L319.28,26.76z"/>
	<path d="M342.68,17.19c0,1.7-0.78,3.14-2.35,4.32l-0.98-1.2c0.93-0.75,1.48-1.6,1.64-2.57h-1.91v-3.58h3.61V17.19z"/>
	<path d="M357.28,6.15h23.19v2.3h-10.39v10.01h11.38v2.41h-11.38v9.73h-2.62v-9.73H356.3v-2.41h11.16V8.44h-10.17V6.15z
		 M361.25,9.92c0.93,1.86,1.83,3.92,2.71,6.18l-2.52,1.26c-0.8-2.31-1.68-4.4-2.62-6.26L361.25,9.92z M376.53,9.92l2.41,1.15
		c-0.8,2.17-1.86,4.27-3.17,6.29l-2.41-1.26C374.69,13.97,375.75,11.91,376.53,9.92z"/>
	<path d="M389.06,5.11l1.7,1.5c-1.42,1.79-3.22,3.4-5.39,4.84l-1.61-2.08C385.72,8.22,387.49,6.8,389.06,5.11z M388.65,12.11
		l2.11,0.98v-1.23c-0.13,0.09-0.26,0.17-0.38,0.25l-1.48-1.91c1.15-0.75,2.11-1.55,2.9-2.41c0.6-0.66,1.17-1.62,1.7-2.9l2.41,0.3
		c-0.16,0.49-0.35,0.94-0.55,1.34h5.06v1.64c-0.49,0.93-0.98,1.73-1.45,2.41h2.52V21.4h-4.29c-0.02,0.49-0.06,0.95-0.14,1.37H403
		v2.08h-5.99c1.51,0.89,3.04,1.9,4.57,3.04l-1.31,1.94c-1.82-1.55-3.29-2.68-4.4-3.39c-0.13,0.24-0.26,0.45-0.38,0.63
		c-1,1.49-2.64,2.63-4.92,3.42l-1.23-1.94c2.19-0.78,3.67-1.78,4.46-2.98c0.16-0.24,0.3-0.47,0.41-0.71h-4.32v-2.08h4.95
		c0.09-0.42,0.15-0.88,0.16-1.37h-4.24v-8.01c-0.6,1.35-1.22,2.47-1.86,3.36v13.84h-2.41V19.57c-0.57,0.55-1.15,1.09-1.75,1.61
		l-0.88-2.95c0.98-0.84,1.85-1.7,2.6-2.6C387.23,14.81,387.95,13.64,388.65,12.11z M392.34,10.58h3.83
		c0.56-0.58,1.15-1.28,1.75-2.08h-3.72c-0.13,0.2-0.27,0.39-0.44,0.57C393.34,9.62,392.87,10.12,392.34,10.58z M392.94,15.01h2.08
		v-2.49h-2.08V15.01z M395.02,19.44v-2.57h-2.08v2.57H395.02z M397.21,12.52v2.49h2.08v-2.49H397.21z M399.28,19.44v-2.57h-2.08
		v2.57H399.28z M402.15,13.91h7.63v2.52h-2.46v11.21c0,1-0.21,1.71-0.63,2.11c-0.4,0.42-1.13,0.63-2.19,0.63h-2.11l-0.6-2.73
		c0.8,0.13,1.46,0.19,1.97,0.19c0.69,0,1.04-0.22,1.04-0.66V16.43h-2.65V13.91z M402.46,6.47h6.78v2.52h-6.78V6.47z"/>
	<path d="M412.6,6.75h8.23v2.41h-2.95v13.48c1-0.42,1.99-0.88,2.95-1.39v2.49c-2.44,1.28-5.31,2.54-8.61,3.8l-0.68-2.84
		c1.33-0.27,2.64-0.64,3.94-1.09V9.15h-2.87V6.75z M426.08,25.34l1.64,1.89c-2.62,1.57-5.25,2.72-7.88,3.47l-1.2-2.52
		C421.49,27.58,423.97,26.64,426.08,25.34z M421.71,5.71h15.75v2.3h-7.14c-0.15,0.75-0.32,1.46-0.52,2.13h6.51v14.88H422.2V10.14h5
		c0.22-0.71,0.39-1.42,0.52-2.13h-6.02V5.71z M424.71,14.29h9.08v-1.97h-9.08V14.29z M424.71,18.45h9.08v-2.19h-9.08V18.45z
		 M433.79,22.83v-2.41h-9.08v2.41H433.79z M431.36,25.45c2.35,0.78,4.49,1.72,6.43,2.82l-1.53,2.32c-2.02-1.33-4.1-2.39-6.23-3.17
		L431.36,25.45z"/>
	<path d="M462.72,6.47v23.68h-2.62v-1.7h-14.44v1.7h-2.62V6.47H462.72z M445.66,12.87h14.44V8.99h-14.44V12.87z M445.66,19.52h14.44
		v-4.24h-14.44V19.52z M445.66,25.94h14.44v-3.99h-14.44V25.94z"/>
	<path d="M468.52,6.91H473V4.89h2.19v2.02h4.7v2.3h-4.7v1.64h3.99v11.7h-3.99v2.02H480v2.19h-4.81v3.83H473v-3.83h-4.7v-2.19h4.7
		v-2.02h-3.99v-11.7H473V9.21h-4.48V6.91z M471.09,15.66H473v-2.73h-1.91V15.66z M473,20.47v-2.95h-1.91v2.95H473z M475.19,12.93
		v2.73h1.91v-2.73H475.19z M477.1,20.47v-2.95h-1.91v2.95H477.1z M480.77,19.6h12.47v2.3h-5.14v5.8h5.8v2.3h-14.22v-2.3h6.02v-5.8
		h-4.92V19.6z M482.82,8.61l2.21,0.79c-0.69,1.59-1.52,3.06-2.49,4.43c1.24,1.59,2.18,2.97,2.82,4.16L483.04,19
		c-0.84-1.64-1.85-3.41-3.04-5.3C481.02,12.16,481.96,10.47,482.82,8.61z M480.66,5.71h13.02v2.3h-13.02V5.71z M486.87,8.83
		l2.21,0.79c-0.6,1.46-1.32,2.82-2.16,4.07c1.15,1.51,2.01,2.84,2.6,3.96l-2.32,1.01c-0.78-1.57-1.72-3.25-2.82-5.06
		C485.29,12.15,486.12,10.56,486.87,8.83z M491.24,8.94l2.21,0.79c-0.6,1.46-1.32,2.83-2.16,4.1c1.04,1.42,1.83,2.66,2.38,3.72
		l-2.32,1.01c-0.71-1.49-1.58-3.12-2.6-4.87C489.66,12.25,490.49,10.67,491.24,8.94z"/>
	<path d="M495.97,6.58h25.81V9.1H510.6c-0.31,1.19-0.74,2.32-1.29,3.39h10.66v14.96c0,1-0.25,1.75-0.74,2.24
		c-0.42,0.46-1.03,0.68-1.83,0.68h-2.68l-0.57-2.62l2.16,0.11c0.62-0.04,0.93-0.43,0.93-1.18V15.01h-3.83v14.71h-2.73V15.01h-3.61
		v14.71h-2.73V15.01h-3.5v15.59h-2.73v-18.1h8.18c0.55-1.07,0.98-2.21,1.31-3.39h-11.62V6.58z"/>
	<path d="M526.87,5.87h20.12v10.5h-12.33c-0.55,0.73-1.1,1.37-1.67,1.91h15.31c-0.05,6.42-0.62,10.08-1.7,10.99
		c-0.58,0.8-2.55,1.2-5.91,1.2l-0.55-2.62c0.82,0.15,1.49,0.22,2,0.22c1.09,0,1.9-0.26,2.43-0.77c0.51-0.53,0.84-2.84,0.98-6.95
		h-1.53c-1.55,2.68-3.12,4.65-4.7,5.91c-1.93,1.66-4.79,3.06-8.56,4.21l-1.56-2.3c3.57-1.02,6.33-2.25,8.26-3.69
		c1.29-1.02,2.52-2.4,3.66-4.13h-3.34c-1.02,1.24-2.1,2.27-3.23,3.09c-2.17,1.48-4.75,2.73-7.74,3.75l-1.45-2.35
		c2.79-0.86,4.98-1.75,6.56-2.68c0.91-0.56,1.75-1.17,2.52-1.8h-4.18c-1.46,0.89-3.08,1.68-4.87,2.35l-1.45-2.35
		c2.31-0.78,4.13-1.6,5.44-2.46c0.71-0.49,1.36-1,1.94-1.53h-4.48V5.87z M529.6,10.03h14.66V8.06H529.6V10.03z M544.26,14.19V12
		H529.6v2.19H544.26z"/>
	<path d="M559.68,4.89l0.82,2c-0.95,0.26-2.47,0.53-4.57,0.82l0.03,1.29h4.21v1.86h-4.18l0.03,1.53h4.27v1.86h-4.21l0.03,1.7h5
		l0.93-3.42h2.41l-0.93,3.42h2.05l0.49-4.54h-2.68l-0.08,0.6h-2.52l1.09-7.22h2.52l-0.19,1.2h4.4v1.97h-4.7l-0.19,1.37h4.84
		l-0.6,6.62h5.55l0.05-1.7h-4.07v-1.86h4.13l0.08-1.53h-4.21V8.99h4.27l0.03-1.37h-4.4V5.65h6.78l-0.36,10.28h2v2.19h-6.29
		c0.71,0.68,1.37,1.17,1.97,1.48c1,0.62,2.41,1.21,4.21,1.78l-1.07,2.21c-1.5-0.6-2.74-1.17-3.75-1.7v1.26h-6.89v1.91h11.05v2.3
		h-11.05v3.23h-2.62v-3.23H552.6v-2.3h10.75v-1.91h-6.78V21.9c-0.98,0.57-2.12,1.13-3.39,1.7l-1.42-2.32
		c2.35-0.8,4.01-1.53,4.98-2.19c0.44-0.25,0.85-0.57,1.23-0.96h-6.1v-2.19h1.83L553.5,5.93C555.45,5.8,557.51,5.46,559.68,4.89z
		 M558.01,20.97h5.33V19h2.62v1.97h5.41l-0.11-0.05c-0.88-0.6-1.78-1.53-2.71-2.79h-7.88c-0.6,0.93-1.29,1.71-2.05,2.35
		C558.42,20.66,558.21,20.82,558.01,20.97z"/>
</g>
<use xlink:href="#New_Symbol_1"  width="28.75" height="21" x="-14.38" y="-10.5" transform="matrix(1 0 0 -1 24.305 19)" style="overflow:visible;"/>
<use xlink:href="#New_Symbol_4"  width="606.8" height="2" x="-299.3" y="-1" transform="matrix(1 0 0 -1 312.6619 36.6047)" style="overflow:visible;"/>
</svg>
