<?xml version="1.0" encoding="utf-8"?>
<!-- Generator: Adobe Illustrator 25.2.0, SVG Export Plug-In . SVG Version: 6.00 Build 0)  -->
<svg version="1.1" id="Layer_1" xmlns="http://www.w3.org/2000/svg" xmlns:xlink="http://www.w3.org/1999/xlink" x="0px" y="0px"
	 width="688.39px" height="40px" viewBox="0 0 688.39 40" style="enable-background:new 0 0 688.39 40;" xml:space="preserve">
<style type="text/css">
	.st0{fill:url(#SVGID_1_);}
	.st1{fill:url(#SVGID_2_);}
	.st2{fill:none;stroke:url(#SVGID_3_);stroke-width:2;stroke-miterlimit:10;stroke-dasharray:2,3,2,3,2,3;}
	.st3{enable-background:new    ;}
	.st4{fill:#FFFFFF;}
	.st5{fill:none;stroke:#ABABAB;stroke-miterlimit:10;}
	.st6{fill:none;stroke:#000000;stroke-width:0.5;stroke-miterlimit:10;}
</style>
<symbol  id="New_Symbol_1" viewBox="-14.38 -10.5 28.75 21">
	<g id="XMLID_13_">
		<g>
			<linearGradient id="SVGID_1_" gradientUnits="userSpaceOnUse" x1="-33.2483" y1="11.7491" x2="18.4175" y2="-8.9173">
				<stop  offset="5.618000e-03" style="stop-color:#FF2727"/>
				<stop  offset="0.3525" style="stop-color:#FFFF00"/>
				<stop  offset="0.3814" style="stop-color:#F8EE10"/>
				<stop  offset="0.4388" style="stop-color:#E6C13A"/>
				<stop  offset="0.5185" style="stop-color:#C9797D"/>
				<stop  offset="0.5955" style="stop-color:#AA2EC3"/>
				<stop  offset="0.7367" style="stop-color:#4F66C6"/>
				<stop  offset="0.8536" style="stop-color:#0097C9"/>
				<stop  offset="1" style="stop-color:#FFFF00"/>
			</linearGradient>
			<polygon class="st0" points="6.62,0 -3.88,-10.5 -14.38,0 -3.88,10.5 			"/>
			<linearGradient id="SVGID_2_" gradientUnits="userSpaceOnUse" x1="-32.1792" y1="14.4219" x2="19.4867" y2="-6.2444">
				<stop  offset="5.618000e-03" style="stop-color:#FF2727"/>
				<stop  offset="0.2129" style="stop-color:#FFFF00"/>
				<stop  offset="0.2584" style="stop-color:#F8EE10"/>
				<stop  offset="0.3488" style="stop-color:#E6C13A"/>
				<stop  offset="0.4743" style="stop-color:#C9797D"/>
				<stop  offset="0.5955" style="stop-color:#AA2EC3"/>
				<stop  offset="0.78" style="stop-color:#4F66C6"/>
				<stop  offset="0.9327" style="stop-color:#0097C9"/>
				<stop  offset="1" style="stop-color:#FFFF00"/>
			</linearGradient>
			<polygon class="st1" points="3.88,10.5 1.72,8.34 10.06,0 1.72,-8.34 3.88,-10.5 14.38,0 			"/>
		</g>
	</g>
</symbol>
<symbol  id="New_Symbol_4" viewBox="-299.3 -1 606.8 2">
	<linearGradient id="SVGID_3_" gradientUnits="userSpaceOnUse" x1="-299.2997" y1="0" x2="307.5" y2="0">
		<stop  offset="0" style="stop-color:#00B987"/>
		<stop  offset="1" style="stop-color:#FFFFFF"/>
	</linearGradient>
	<line class="st2" x1="-299.3" y1="0" x2="307.5" y2="0"/>
</symbol>
<g class="st3">
	<path d="M51.69,11.83h18.59v2.3h-3.2c2.04,1.86,3.76,3.68,5.17,5.47l-1.8,1.8c-0.46-0.71-1-1.44-1.64-2.19
		c-1.84,0.2-4.08,0.4-6.73,0.6v2.57h10.06v2.41H62.08v2.46h11.27v2.3H48.41v-2.3h11.05V24.8h-9.73v-2.41h9.73v-2.43
		c-2.64,0.13-5.61,0.25-8.89,0.36l-0.74-2.52c1.29,0,2.54-0.01,3.75-0.03c1.2-1.13,2.19-2.34,2.95-3.64h-4.84V11.83z M61.7,4.89
		c0.33,0.77,0.63,1.6,0.9,2.52h10.75v5.69h-2.62V9.81H51.14v3.28h-2.62V7.41h11.27c-0.29-0.75-0.62-1.44-0.98-2.08L61.7,4.89z
		 M66.97,17.25c-0.58-0.6-1.19-1.2-1.83-1.8l1.37-1.31h-7.03c-0.58,1.15-1.42,2.34-2.52,3.58C61,17.64,64.33,17.49,66.97,17.25z"/>
	<path d="M92.57,30.37l-0.63-2.73l4.05,0.11c0.62-0.04,0.93-0.45,0.93-1.23v-3.45l-1.59,1.83c-1.57-1.49-2.85-2.93-3.86-4.32
		c-0.95-1.38-1.78-2.95-2.49-4.7c-0.42,1.09-0.88,2.06-1.37,2.9c-1.29,2.21-3.16,4.39-5.61,6.56l-1.18-1.86v7H78.1V10.41h9.52V7.73
		h-5.96V5.52h8.7v4.89h9.3v16.93c0,1.04-0.25,1.81-0.74,2.32c-0.42,0.47-1.03,0.71-1.83,0.71H92.57z M80.84,22.47
		c2.19-2.02,3.75-3.85,4.68-5.47c0.69-1.13,1.32-2.56,1.89-4.29h-6.56V22.47z M90.41,12.71c0.64,1.79,1.4,3.38,2.3,4.79
		c0.89,1.55,2.3,3.08,4.21,4.59v-9.38H90.41z"/>
	<path d="M107.69,11.83h18.59v2.3h-3.2c2.04,1.86,3.76,3.68,5.17,5.47l-1.8,1.8c-0.46-0.71-1-1.44-1.64-2.19
		c-1.84,0.2-4.08,0.4-6.73,0.6v2.57h10.06v2.41h-10.06v2.46h11.27v2.3h-24.94v-2.3h11.05V24.8h-9.73v-2.41h9.73v-2.43
		c-2.64,0.13-5.61,0.25-8.89,0.36l-0.74-2.52c1.29,0,2.54-0.01,3.75-0.03c1.2-1.13,2.19-2.34,2.95-3.64h-4.84V11.83z M117.7,4.89
		c0.33,0.77,0.63,1.6,0.9,2.52h10.75v5.69h-2.62V9.81h-19.58v3.28h-2.62V7.41h11.27c-0.29-0.75-0.62-1.44-0.98-2.08L117.7,4.89z
		 M122.97,17.25c-0.58-0.6-1.19-1.2-1.83-1.8l1.37-1.31h-7.03c-0.58,1.15-1.42,2.34-2.52,3.58C117,17.64,120.33,17.49,122.97,17.25z
		"/>
	<path d="M136.78,5.11l2.73,0.33c-0.18,0.95-0.39,1.82-0.63,2.62h6.73v2.46c-0.35,3.32-0.9,6.18-1.67,8.59
		c-0.71,2.12-1.7,4-2.95,5.66c-1.35,1.84-3.45,3.75-6.32,5.71l-2.16-2.3c3.28-2.04,5.67-4.21,7.16-6.51
		c-1.04-1.55-2.37-3.19-3.99-4.92l1.86-1.8c1.33,1.33,2.52,2.66,3.55,3.99c0.82-2.17,1.4-4.99,1.75-8.48h-4.76
		c-0.29,0.78-0.6,1.51-0.93,2.19c-0.97,2.08-2.21,3.97-3.72,5.69l-1.7-2.16c1.26-1.55,2.31-3.24,3.17-5.06
		C135.6,9.78,136.22,7.77,136.78,5.11z M147.94,4.89h2.62v8.94c2.39,1.35,4.79,2.89,7.22,4.62l-1.61,2.41
		c-2.28-1.86-4.15-3.25-5.61-4.18v13.92h-2.62V4.89z"/>
	<path d="M174.68,17.19c0,1.7-0.78,3.14-2.35,4.32l-0.98-1.2c0.93-0.75,1.48-1.6,1.64-2.57h-1.91v-3.58h3.61V17.19z"/>
	<path d="M193.77,4.89l2.3,1.07c-0.69,2.13-1.4,3.96-2.13,5.47v18.95h-2.52V15.53c-0.8,1.11-1.68,2.23-2.62,3.36l-0.93-3.06
		c1.22-1.51,2.29-3.06,3.2-4.65C192.01,9.72,192.91,7.62,193.77,4.89z M210.69,5.52l1.45,2.52c-2.02,0.58-4.38,1.01-7.05,1.29v6.89
		h8.15v2.52h-8.15v8.15h7.16v2.41h-16.41v-2.41h6.51v-8.15h-7.38v-2.52h7.38V9.54c-1.73,0.11-3.56,0.16-5.5,0.16l-0.9-2.65
		C201.75,7.05,206.66,6.54,210.69,5.52z"/>
	<path d="M221.22,4.78l2.3,1.07c-0.53,1.79-1.09,3.35-1.7,4.7v19.82h-2.52V15.03c-0.77,1.15-1.6,2.29-2.52,3.42l-0.93-3.06
		c1.09-1.46,2.06-2.96,2.9-4.51C219.62,9.47,220.44,7.44,221.22,4.78z M223.74,6.53h17.83v2.41h-2.19v18.7c0,1-0.22,1.7-0.66,2.11
		c-0.42,0.42-1.19,0.63-2.3,0.63h-3.45l-0.6-2.73c1.33,0.13,2.42,0.19,3.28,0.19c0.73,0,1.09-0.22,1.09-0.66V8.94h-13.02V6.53z
		 M224.39,12.33h9.3v11.48h-9.3V12.33z M231.28,21.41v-6.67h-4.48v6.67H231.28z"/>
	<path d="M250.56,4.78l2.38,1.48c-0.35,0.64-0.67,1.22-0.96,1.75h17.17v2.3h-9v4.05h8.2v2.3h-8.2v5.63h9.3v2.41h-9.3v5.91h-2.62
		v-5.91H244.3v-2.41h4.27v-7.93h8.97V10.3h-6.97c-0.26,0.33-0.49,0.62-0.71,0.88c-1.13,1.42-2.62,2.83-4.46,4.21l-1.53-2.54
		c1.37-0.8,2.66-1.96,3.88-3.47C248.69,8.19,249.63,6.66,250.56,4.78z M257.53,22.28v-5.63h-6.34v5.63H257.53z"/>
	<path d="M278.26,5.22h2.3V7.3h4.21v1.97h-4.21v2.52h4.59l-0.05-0.11c1.66-1.64,3.24-3.79,4.76-6.45h2.52
		c1.6,2.33,3.48,4.44,5.63,6.32l-1.12,2.54c-2.41-2.26-4.33-4.38-5.77-6.34c-1.84,2.9-3.48,5.01-4.92,6.34l-0.77-1.7v1.37h-13.45
		v-1.97h2.08V6.42h2.19v5.36h2.02V5.22z M282.85,14.73h2.08v15.34h-2.08v-0.63h-8.09v0.93h-2.08V14.73h2.08v2.73
		c0.89-1.09,1.57-2.26,2.02-3.5l1.75,0.38c-0.18,0.44-0.35,0.83-0.49,1.18c0.46,0.27,0.88,0.58,1.26,0.93
		c0.04-0.05,0.06-0.1,0.08-0.14c0.33-0.66,0.61-1.44,0.85-2.35l1.59,0.63c-0.18,0.58-0.36,1.09-0.52,1.53
		c0.58,0.33,1.1,0.68,1.56,1.07V14.73z M274.76,18.12v1.53h8.09v-1.59l-0.66,1.04c-0.53-0.56-1.07-1.05-1.61-1.45
		c-0.29,0.57-0.71,1.16-1.26,1.78l-1.34-1.18c0.11-0.13,0.2-0.24,0.27-0.33c-0.33-0.33-0.66-0.62-0.98-0.88
		c-0.49,0.93-0.99,1.69-1.5,2.27L274.76,18.12z M274.76,21.41v3.88c0.89-1.08,1.57-2.26,2.02-3.55l1.64,0.36
		c-0.18,0.47-0.36,0.92-0.55,1.34c0.53,0.22,1,0.46,1.42,0.71c0.29-0.67,0.53-1.48,0.71-2.41l1.7,0.66
		c-0.15,0.57-0.29,1.06-0.44,1.48c0.55,0.29,1.08,0.64,1.59,1.04v-3.5H274.76z M274.76,27.58h4.62l-1.39-1.2
		c0.16-0.22,0.31-0.43,0.44-0.63c-0.42-0.33-0.85-0.61-1.29-0.85c-0.46,0.89-0.94,1.62-1.45,2.19L274.76,26V27.58z M279.46,27.58
		h3.39v-1.78l-0.38,0.96c-0.58-0.53-1.18-0.96-1.78-1.29C280.44,26.12,280.03,26.82,279.46,27.58z M285.86,17.19h11.02v2.16
		c-1.33,2.62-2.91,4.98-4.73,7.05c1,0.84,1.9,1.67,2.68,2.49l-1.8,1.8c-1.59-1.86-3.86-3.88-6.84-6.07l1.64-1.56
		c0.89,0.62,1.72,1.23,2.49,1.83c1.13-1.28,2.41-3.08,3.83-5.41h-8.29V17.19z M289.8,11.45c1.68,0.84,3.21,1.84,4.59,3.01L293,16.59
		c-1.42-1.4-2.89-2.52-4.4-3.34L289.8,11.45z"/>
	<path d="M314.68,17.19c0,1.7-0.78,3.14-2.35,4.32l-0.98-1.2c0.93-0.75,1.48-1.6,1.64-2.57h-1.91v-3.58h3.61V17.19z"/>
	<path d="M333.77,4.89l2.3,1.07c-0.73,2.22-1.48,4.1-2.24,5.63v18.79h-2.52V15.64c-0.75,1-1.55,2.01-2.41,3.04l-0.93-3.06
		c1.18-1.48,2.23-3,3.14-4.57C332.03,9.62,332.91,7.57,333.77,4.89z M340,5l2.6,0.57c-0.35,0.93-0.69,1.8-1.04,2.6h11.81
		c-0.46,2.42-1.22,4.83-2.3,7.22l-2.65-0.77c0.75-1.11,1.38-2.46,1.89-4.05h-9.9c-1.2,2.35-2.45,4.28-3.75,5.8l-1.91-2.3
		C337.07,11.36,338.82,8.33,340,5z M339.02,15.83l2.62,0.55c-0.98,3.81-2.39,7.09-4.21,9.84l-2.46-1.56
		C336.92,21.92,338.27,18.98,339.02,15.83z M342.87,30.37h-3.8l-0.6-2.73c1.46,0.13,2.66,0.19,3.61,0.19c0.77,0,1.15-0.22,1.15-0.66
		V12.22h2.73v15.42c0,1-0.23,1.7-0.68,2.11C344.84,30.16,344.04,30.37,342.87,30.37z M349.85,15.61c1.48,3.14,2.75,6.46,3.83,9.98
		l-2.62,1.18c-1.11-3.86-2.35-7.3-3.72-10.31L349.85,15.61z"/>
	<path d="M357.17,7.73h4.43V4.89h2.52v2.84h3.77v2.19h-3.77v3.06h1.7c1.33-1.49,2.72-3.46,4.16-5.91l1.97,1.04
		c-0.97,1.79-2.01,3.41-3.12,4.87h1.91v2.19h-3.77c-0.47,0.51-0.96,0.98-1.45,1.42c-0.49,0.46-0.99,0.88-1.5,1.26h5.63v12.74h-2.41
		v-1.7h-6.07v1.8h-2.52v-9.82c-0.49,0.22-1.01,0.43-1.56,0.63l-1.34-2.02c3.12-1.22,5.7-2.66,7.74-4.32h-7.08v-2.19h5.2V9.92h-4.43
		V7.73z M361.17,22.28h6.07v-2.35h-6.07V22.28z M361.17,26.82h6.07v-2.57h-6.07V26.82z M371.99,6.2h9.35v1.97
		c-0.84,2.95-1.75,5.69-2.73,8.2c1.28,1.68,2.08,2.96,2.41,3.86c0.44,0.97,0.66,1.91,0.66,2.84c0,1.71-0.33,3-0.98,3.86
		c-0.66,0.84-2.31,1.26-4.95,1.26l-0.85-2.73c0.84,0.09,1.68,0.14,2.52,0.14c0.6,0,1.04-0.22,1.31-0.66c0.2-0.33,0.3-0.95,0.3-1.86
		c0.04-0.6-0.13-1.34-0.49-2.21c-0.38-0.89-1.27-2.39-2.65-4.48c1.11-2.79,1.99-5.38,2.62-7.77h-3.99v21.98h-2.52V6.2z"/>
	<path d="M384.19,6.26h25.38v2.52h-3.5v18.65c0,1.08-0.24,1.83-0.71,2.27c-0.46,0.46-1.29,0.68-2.49,0.68h-4.35l-0.66-2.95
		c1.7,0.15,3.09,0.22,4.18,0.22c0.78,0,1.18-0.24,1.18-0.71V8.77h-19.03V6.26z M387.2,12.66h11.7v11.38h-11.7V12.66z M396.17,21.62
		v-6.56h-6.23v6.56H396.17z"/>
	<path d="M415.25,5.22h2.84v17.75c2.11-0.8,4.24-1.72,6.37-2.76l0.74,2.65c-3.23,1.8-7.25,3.4-12.06,4.79l-1.18-2.73
		c1.08-0.27,2.17-0.58,3.28-0.93V5.22z M430.89,5.22h2.84c-0.05,5.76-0.66,10.42-1.8,13.97c2.21,2.72,4.08,5.4,5.63,8.04l-2.27,2.27
		c-1.15-2.24-2.69-4.64-4.62-7.19c-1.53,2.9-4.31,5.62-8.34,8.18l-2.05-2.46c3.86-2.24,6.48-4.65,7.85-7.22
		C429.84,17.6,430.76,12.4,430.89,5.22z M422.61,7.84c1.95,3.08,3.47,5.72,4.57,7.93l-2.73,1.91c-1-2.44-2.39-5.23-4.16-8.37
		L422.61,7.84z"/>
	<path d="M440.52,6.91H445V4.89h2.19v2.02h4.7v2.3h-4.7v1.64h3.99v11.7h-3.99v2.02H452v2.19h-4.81v3.83H445v-3.83h-4.7v-2.19h4.7
		v-2.02h-3.99v-11.7H445V9.21h-4.48V6.91z M443.09,15.66H445v-2.73h-1.91V15.66z M445,20.48v-2.95h-1.91v2.95H445z M447.19,12.93
		v2.73h1.91v-2.73H447.19z M449.1,20.48v-2.95h-1.91v2.95H449.1z M452.77,19.6h12.47v2.3h-5.14v5.8h5.8v2.3h-14.22v-2.3h6.02v-5.8
		h-4.92V19.6z M454.82,8.61l2.21,0.79c-0.69,1.59-1.52,3.06-2.49,4.43c1.24,1.59,2.18,2.97,2.82,4.16L455.04,19
		c-0.84-1.64-1.85-3.41-3.04-5.3C453.02,12.16,453.96,10.47,454.82,8.61z M452.66,5.71h13.02v2.3h-13.02V5.71z M458.87,8.83
		l2.21,0.79c-0.6,1.46-1.32,2.82-2.16,4.07c1.15,1.51,2.01,2.83,2.6,3.96l-2.32,1.01c-0.78-1.57-1.72-3.25-2.82-5.06
		C457.29,12.15,458.12,10.56,458.87,8.83z M463.24,8.94l2.21,0.79c-0.6,1.46-1.32,2.83-2.16,4.1c1.04,1.42,1.83,2.66,2.38,3.72
		l-2.32,1.01c-0.71-1.49-1.58-3.12-2.6-4.87C461.66,12.25,462.49,10.67,463.24,8.94z"/>
	<path d="M481.97,5.52v1.56h-9.41V7.9h8.53v1.42h-8.53v0.88h8.42v1.42h-8.42v1.04h9.95v1.53h-2c0.53,0.93,1.01,1.93,1.45,3.01
		l-2.24,0.6c-0.11-0.35-0.23-0.67-0.36-0.98c-1.13,0.15-2.45,0.27-3.96,0.38V19h4.05v2.19h-4.05v0.96c1.31,0.95,2.62,1.99,3.94,3.12
		l-1.31,1.94c-1.02-1.09-1.9-1.98-2.62-2.65v5.82h-2.19v-5.82c-1.13,1.8-2.43,3.34-3.91,4.62l-1.45-2.16
		c2.19-1.64,3.88-3.58,5.09-5.82h-3.66V19h3.94v-1.64c-1.29,0.07-2.71,0.15-4.24,0.22l-0.57-1.97c0.77,0,1.49-0.01,2.16-0.03
		l0.9-1.39h-3.28v-1.53h1.97V5.52H481.97z M478.61,15.17c-0.16-0.36-0.34-0.69-0.52-0.98h-3.91l-0.82,1.34
		C475.4,15.45,477.15,15.33,478.61,15.17z M481.7,17.69l2.13,0.85c-0.64,1.59-1.19,2.74-1.67,3.47c-0.46,0.78-1.26,1.71-2.41,2.79
		l-1.83-1.61c0.98-0.84,1.77-1.67,2.35-2.49C480.84,19.86,481.31,18.85,481.7,17.69z M484.57,20.97L487,21.9
		c-1.17,2.33-2.36,4.26-3.58,5.77c2.11-0.07,3.92-0.18,5.41-0.33c-0.62-1.08-1.27-2.08-1.94-3.01l2.19-0.74
		c1.42,1.86,2.66,3.85,3.72,5.96l-2.27,1.04c-0.2-0.44-0.4-0.85-0.6-1.23c-2.5,0.33-6.04,0.59-10.64,0.79l-0.71-2.41h2.13
		C481.95,26.05,483.24,23.79,484.57,20.97z M490.86,5l1.29,1.67c-1.39,0.88-2.62,1.5-3.72,1.86c-1.26,0.47-2.85,0.94-4.79,1.39
		l-1.23-2.11c1.9-0.35,3.54-0.75,4.95-1.2C488.69,6.17,489.85,5.64,490.86,5z M491.62,8.61l1.29,1.67c-1.5,0.89-2.83,1.54-3.99,1.94
		c-1.37,0.47-3.09,0.95-5.17,1.42l-1.23-2.11c2.04-0.35,3.82-0.77,5.33-1.26C489.27,9.82,490.53,9.26,491.62,8.61z M492.01,12.76
		l1.34,1.75c-1.57,0.88-2.95,1.5-4.16,1.89c-0.86,0.27-1.83,0.56-2.93,0.85h3.17c0.73,1.99,2.25,3.85,4.57,5.58l-1.5,2.08
		c-1.15-0.86-2.08-1.73-2.79-2.62c-0.71-0.84-1.32-1.79-1.83-2.84h-2.95v-1.89c-0.36,0.09-0.75,0.17-1.15,0.25l-1.26-2.21
		c2.13-0.35,3.98-0.75,5.55-1.2C489.56,13.92,490.88,13.38,492.01,12.76z"/>
	<path d="M508.44,9.57h-5.28v18.92h-2.57V9.57h-5.28V7.1h13.12V9.57z"/>
	<path d="M522.63,7.1l-2.43,21.38h-2.41l-1.94-14.27l-1.89,14.27h-2.41L509.12,7.1h2.65l1.09,12.5l1.7-12.5h2.62l1.7,12.5l1.09-12.5
		H522.63z"/>
	<path d="M536.52,17.85c0,3.32-0.56,5.97-1.67,7.96c-1.17,2.08-2.82,3.12-4.95,3.12s-3.79-1.06-4.98-3.17
		c-1.13-1.99-1.7-4.65-1.7-7.98c0-3.32,0.56-5.97,1.7-7.96c1.17-2.08,2.82-3.12,4.95-3.12s3.78,1.06,4.95,3.17
		C535.96,11.85,536.52,14.51,536.52,17.85z M533.79,17.85c0-2.41-0.32-4.42-0.96-6.04c-0.71-1.77-1.69-2.65-2.93-2.65
		c-1.22,0-2.2,0.88-2.93,2.62c-0.69,1.64-1.04,3.64-1.04,5.99c0,2.37,0.35,4.38,1.04,6.02c0.71,1.79,1.68,2.68,2.9,2.68
		c1.22,0,2.19-0.88,2.9-2.62C533.45,22.22,533.79,20.22,533.79,17.85z"/>
	<path d="M550.38,22.47c0,1.71-0.44,3.09-1.31,4.13c-1.04,1.26-2.63,1.89-4.79,1.89h-6.92V7.1h6.51c1.66,0,3.01,0.49,4.05,1.48
		c1.09,1.04,1.64,2.45,1.64,4.24c0,1.82-0.85,3.3-2.54,4.43C549.26,18.31,550.38,20.05,550.38,22.47z M546.91,12.96
		c0-1.26-0.31-2.15-0.93-2.68c-0.57-0.47-1.44-0.71-2.62-0.71h-3.45v6.67h2.95c1.15,0,2.09-0.26,2.82-0.79
		C546.5,14.84,546.91,14.01,546.91,12.96z M547.68,22.28c0-1.37-0.46-2.33-1.39-2.9c-0.84-0.47-2.23-0.71-4.18-0.71h-2.19v7.36h3.58
		c1.57,0,2.68-0.31,3.34-0.93C547.39,24.55,547.68,23.61,547.68,22.28z"/>
</g>
<use xlink:href="#New_Symbol_1"  width="28.75" height="21" x="-14.38" y="-10.5" transform="matrix(1 0 0 -1 24.305 19)" style="overflow:visible;"/>
<use xlink:href="#New_Symbol_4"  width="606.8" height="2" x="-299.3" y="-1" transform="matrix(1 0 0 -1 312.6619 36.6047)" style="overflow:visible;"/>
</svg>
