<?xml version="1.0" encoding="utf-8"?>
<!-- Generator: Adobe Illustrator 25.2.0, SVG Export Plug-In . SVG Version: 6.00 Build 0)  -->
<svg version="1.1" id="Layer_1" xmlns="http://www.w3.org/2000/svg" xmlns:xlink="http://www.w3.org/1999/xlink" x="0px" y="0px"
	 width="688.39px" height="40px" viewBox="0 0 688.39 40" style="enable-background:new 0 0 688.39 40;" xml:space="preserve">
<style type="text/css">
	.st0{fill:url(#SVGID_1_);}
	.st1{fill:url(#SVGID_2_);}
	.st2{fill:none;stroke:url(#SVGID_3_);stroke-width:2;stroke-miterlimit:10;stroke-dasharray:2,3,2,3,2,3;}
	.st3{enable-background:new    ;}
	.st4{fill:#FFFFFF;}
	.st5{fill:none;stroke:#ABABAB;stroke-miterlimit:10;}
	.st6{fill:none;stroke:#000000;stroke-width:0.5;stroke-miterlimit:10;}
</style>
<symbol  id="New_Symbol_1" viewBox="-14.38 -10.5 28.75 21">
	<g id="XMLID_13_">
		<g>
			<linearGradient id="SVGID_1_" gradientUnits="userSpaceOnUse" x1="-33.2483" y1="11.7491" x2="18.4175" y2="-8.9173">
				<stop  offset="5.618000e-03" style="stop-color:#FF2727"/>
				<stop  offset="0.3525" style="stop-color:#FFFF00"/>
				<stop  offset="0.3814" style="stop-color:#F8EE10"/>
				<stop  offset="0.4388" style="stop-color:#E6C13A"/>
				<stop  offset="0.5185" style="stop-color:#C9797D"/>
				<stop  offset="0.5955" style="stop-color:#AA2EC3"/>
				<stop  offset="0.7367" style="stop-color:#4F66C6"/>
				<stop  offset="0.8536" style="stop-color:#0097C9"/>
				<stop  offset="1" style="stop-color:#FFFF00"/>
			</linearGradient>
			<polygon class="st0" points="6.62,0 -3.88,-10.5 -14.38,0 -3.88,10.5 			"/>
			<linearGradient id="SVGID_2_" gradientUnits="userSpaceOnUse" x1="-32.1792" y1="14.4219" x2="19.4867" y2="-6.2444">
				<stop  offset="5.618000e-03" style="stop-color:#FF2727"/>
				<stop  offset="0.2129" style="stop-color:#FFFF00"/>
				<stop  offset="0.2584" style="stop-color:#F8EE10"/>
				<stop  offset="0.3488" style="stop-color:#E6C13A"/>
				<stop  offset="0.4743" style="stop-color:#C9797D"/>
				<stop  offset="0.5955" style="stop-color:#AA2EC3"/>
				<stop  offset="0.78" style="stop-color:#4F66C6"/>
				<stop  offset="0.9327" style="stop-color:#0097C9"/>
				<stop  offset="1" style="stop-color:#FFFF00"/>
			</linearGradient>
			<polygon class="st1" points="3.88,10.5 1.72,8.34 10.06,0 1.72,-8.34 3.88,-10.5 14.38,0 			"/>
		</g>
	</g>
</symbol>
<symbol  id="New_Symbol_4" viewBox="-299.3 -1 606.8 2">
	<linearGradient id="SVGID_3_" gradientUnits="userSpaceOnUse" x1="-299.2997" y1="0" x2="307.5" y2="0">
		<stop  offset="0" style="stop-color:#00B987"/>
		<stop  offset="1" style="stop-color:#FFFFFF"/>
	</linearGradient>
	<line class="st2" x1="-299.3" y1="0" x2="307.5" y2="0"/>
</symbol>
<g class="st3">
	<path d="M48.3,8.44h8.97c0.55-1.09,1.06-2.31,1.53-3.66l2.84,0.36c-0.38,1.19-0.79,2.29-1.23,3.31h13.04v2.52h-14.3
		c-0.62,1.09-1.29,2.1-2,3.01c-0.71,1-1.5,1.96-2.35,2.87v13.54h-2.73V19.35c-0.64,0.57-1.31,1.1-2.02,1.61L48.3,18.7
		c2.64-1.95,4.85-4.06,6.62-6.34c0.35-0.42,0.67-0.88,0.98-1.39h-7.6V8.44z M56.72,17.9h6.62v-5.58h2.73v5.58h6.29v2.41h-6.29v6.73
		h7.38v2.52H55.52v-2.52h7.82v-6.73h-6.62V17.9z"/>
	<path d="M80.15,11.18H97.6v2.3h-5.82c-0.71,0.6-1.46,1.14-2.24,1.61c0.98,1.2,1.7,2.42,2.13,3.66c2.06-0.91,4-2.25,5.82-4.02
		l2,1.97c-1.15,1.04-2.38,1.94-3.69,2.71c0.62,1.46,1.37,2.8,2.24,4.02c0.88,1.17,2.09,2.42,3.64,3.77l-1.83,2.3
		c-1.75-1.64-3.15-3.3-4.21-4.98c-0.77-1.17-1.44-2.5-2.02-3.99c-0.4,0.2-0.81,0.37-1.23,0.52c0.25,1.19,0.38,2.36,0.38,3.53
		c0,2.13-0.33,3.65-0.98,4.57c-0.64,0.97-2.62,1.45-5.93,1.45l-0.9-2.71c0.09,0.09,0.6,0.14,1.53,0.14c1.51,0,2.45-0.18,2.82-0.55
		c0.49-0.53,0.74-1.49,0.74-2.9c0-0.4-0.03-0.8-0.08-1.2c-1.57,1.24-3,2.17-4.29,2.79c-2.04,1.08-4.61,2.11-7.71,3.12l-1.42-2.43
		c3.06-0.82,5.72-1.79,7.98-2.9c1.88-0.93,3.52-2.02,4.92-3.28c-0.05-0.2-0.11-0.41-0.16-0.63c-0.07-0.25-0.16-0.51-0.25-0.77
		c-1.53,1.09-2.9,1.91-4.1,2.43c-1.8,0.84-4.07,1.65-6.81,2.43l-1.37-2.32c2.7-0.62,5.05-1.37,7.05-2.24
		c1.57-0.67,2.95-1.47,4.16-2.38c-0.2-0.35-0.41-0.67-0.63-0.98c-2.44,1.06-5.27,1.95-8.48,2.68l-1.45-2.35
		c3.48-0.66,6.21-1.34,8.18-2.05c0.88-0.31,1.69-0.65,2.43-1.01h-7.85V11.18z M89.15,4.89c0.35,0.64,0.67,1.33,0.98,2.08h10.83v5.69
		h-2.52V9.37H79.31v3.28h-2.52V6.97h10.36c-0.31-0.56-0.65-1.1-1.01-1.61L89.15,4.89z"/>
	<path d="M116.44,9.56h-5.28v18.92h-2.57V9.56h-5.28V7.1h13.12V9.56z"/>
	<path d="M130.63,7.1l-2.43,21.38h-2.41l-1.94-14.27l-1.89,14.27h-2.41L117.12,7.1h2.65l1.09,12.5l1.7-12.5h2.62l1.7,12.5l1.09-12.5
		H130.63z"/>
	<path d="M144.52,17.85c0,3.32-0.56,5.97-1.67,7.96c-1.17,2.08-2.82,3.12-4.95,3.12s-3.79-1.06-4.98-3.17
		c-1.13-1.99-1.7-4.65-1.7-7.98c0-3.32,0.57-5.97,1.7-7.96c1.17-2.08,2.82-3.12,4.95-3.12s3.78,1.06,4.95,3.17
		C143.96,11.85,144.52,14.51,144.52,17.85z M141.79,17.85c0-2.41-0.32-4.42-0.96-6.04c-0.71-1.77-1.69-2.65-2.93-2.65
		c-1.22,0-2.2,0.88-2.93,2.62c-0.69,1.64-1.04,3.64-1.04,5.99c0,2.37,0.35,4.38,1.04,6.02c0.71,1.79,1.68,2.68,2.9,2.68
		s2.19-0.88,2.9-2.62C141.45,22.22,141.79,20.22,141.79,17.85z"/>
	<path d="M158.38,22.47c0,1.71-0.44,3.09-1.31,4.13c-1.04,1.26-2.63,1.89-4.79,1.89h-6.92V7.1h6.51c1.66,0,3.01,0.49,4.05,1.48
		c1.09,1.04,1.64,2.45,1.64,4.24c0,1.82-0.85,3.3-2.54,4.43C157.26,18.31,158.38,20.05,158.38,22.47z M154.91,12.96
		c0-1.26-0.31-2.15-0.93-2.68c-0.57-0.47-1.44-0.71-2.62-0.71h-3.45v6.67h2.95c1.15,0,2.09-0.26,2.82-0.79
		C154.5,14.84,154.91,14.01,154.91,12.96z M155.68,22.28c0-1.37-0.46-2.33-1.39-2.9c-0.84-0.47-2.23-0.71-4.18-0.71h-2.19v7.36h3.58
		c1.57,0,2.68-0.31,3.34-0.93C155.4,24.55,155.68,23.61,155.68,22.28z"/>
	<path d="M160.74,6.47h24.28v2.52h-8.5c-0.58,1.26-1.22,2.41-1.91,3.45v18.16h-2.82V16.13c-0.2,0.22-0.39,0.42-0.57,0.6
		c-2.35,2.52-5.39,4.8-9.11,6.86l-1.7-2.16c3.46-1.91,6.35-3.99,8.67-6.23c1.62-1.48,3.12-3.54,4.48-6.21h-12.82V6.47z
		 M178.02,14.19c2.77,2.37,5.1,4.71,7,7.03l-2.16,2.16c-1.57-2.24-3.84-4.67-6.81-7.27L178.02,14.19z"/>
	<path d="M189.72,5.65h21.88v2.19h-9.52V9.1h11.27v6.62h-2.62v-4.54h-8.64v6.07h-2.62v-6.07h-8.53v4.76h-2.62V9.1h11.16V7.84h-9.73
		V5.65z M188.41,18.34h24.94v2.19h-11.46l-0.85,1.7h11.05v5.82c0,0.78-0.23,1.38-0.68,1.78c-0.38,0.36-0.94,0.55-1.67,0.55h-2.38
		l-0.46-2.08l1.83,0.08c0.57-0.04,0.85-0.35,0.85-0.93V24.3h-4.43v5.96h-2.41V24.3h-3.94v5.85h-2.41V24.3h-4.1v6.29h-2.52v-8.37
		h8.67l0.82-1.7h-10.86V18.34z M191.91,12.33h6.56v1.75h-6.56V12.33z M191.91,15.39h6.56v1.75h-6.56V15.39z M203.06,12.33h6.78v1.75
		h-6.78V12.33z M203.06,15.39h6.78v1.75h-6.78V15.39z"/>
	<path d="M216.6,12.05h9.84c0.16-1.53,0.25-3.19,0.25-4.98V5.22h2.84v1.86c0,1.79-0.1,3.45-0.3,4.98h11.57v2.73h-8.48
		c0.62,2.86,1.52,5.21,2.71,7.03c1.57,2.39,3.64,4.33,6.21,5.82l-1.67,2.73c-3.1-2.12-5.41-4.47-6.92-7.08
		c-1.48-2.33-2.51-5.17-3.09-8.5h-0.74c-0.4,1.93-0.94,3.66-1.61,5.17c-1.51,3.35-4.41,6.79-8.7,10.31l-2.43-2.13
		c3.99-2.81,6.81-5.83,8.45-9.08c0.64-1.15,1.14-2.57,1.5-4.27h-9.43V12.05z"/>
	<path d="M246.81,20.2h20.02v2.41h-8.64v4.87h11.48v2.52h-25.81v-2.52h11.48v-4.87h-8.53V20.2z M253.24,11.01l2.21,1.34
		c-1.02,1.77-2.2,3.14-3.53,4.13c-1.39,0.93-3.46,1.73-6.23,2.41l-1.5-2.52c2.93-0.56,4.92-1.2,5.96-1.91
		C251.23,13.86,252.26,12.71,253.24,11.01z M257.37,4.89c0.4,0.82,0.77,1.73,1.09,2.73h10.34v5.8h-2.62v-3.39h-5.2v4.38
		c0,0.62,0.37,0.93,1.12,0.93h7.25v2.3h-7.9c-0.98,0-1.77-0.18-2.35-0.55c-0.57-0.36-0.85-0.97-0.85-1.8v-5.25h-10.88v3.39h-2.62
		v-5.8h10.91c-0.36-0.82-0.76-1.59-1.18-2.3L257.37,4.89z"/>
	<path d="M283.51,5.76v10.39h-8.2v14.44h-2.52V5.76H283.51z M275.31,9.76h5.69v-1.8h-5.69V9.76z M275.31,13.97h5.69v-2.13h-5.69
		V13.97z M278.92,17.47h11.48v10.61h-11.48V17.47z M281.43,21.57h6.45v-1.91h-6.45V21.57z M287.88,25.89v-2.24h-6.45v2.24H287.88z
		 M286.96,5.76h9.73v22.01c0,1.02-0.26,1.77-0.79,2.24c-0.49,0.46-1.29,0.68-2.38,0.68h-2.02l-0.6-2.62l2.08,0.08
		c0.73,0,1.09-0.41,1.09-1.23V16.15h-8.42V5.76H286.96z M288.27,9.92h5.8V7.95h-5.8V9.92z M288.27,13.97h5.8v-2.08h-5.8V13.97z"/>
	<path d="M314.79,6.04h7.6v1.94c-0.55,2.08-1.18,4.28-1.91,6.62c0.66,1.28,1.12,2.42,1.39,3.45c0.35,1.06,0.52,1.96,0.52,2.71
		c-0.04,1.5-0.27,2.57-0.71,3.23c-0.49,0.77-1.57,1.15-3.23,1.15l-0.77-2.6c0.47,0.13,0.91,0.19,1.31,0.19
		c0.33,0,0.57-0.14,0.71-0.41c0.18-0.27,0.27-0.79,0.27-1.56c0-0.84-0.12-1.62-0.36-2.35c-0.27-0.97-0.8-2.11-1.59-3.45
		c0.91-2.61,1.56-4.81,1.94-6.62h-2.68v22.26h-2.52V6.04z M327.31,6.64h3.36c0.16-0.55,0.31-1.13,0.44-1.75l2,0.33
		c-0.13,0.53-0.25,1-0.36,1.42h6.48v1.97h-7.14c-0.16,0.46-0.33,0.84-0.49,1.15h6.64v1.64h-3.06v1.42h3.72v1.64h-9.3v-1.53
		c-0.33,0.42-0.69,0.84-1.09,1.26l-1.12-1.37c-0.62,1.73-1.42,3.52-2.41,5.36h2.93v1.5c-0.42,2.3-0.87,3.99-1.34,5.09
		c-0.02,0.05-0.04,0.11-0.05,0.16c0.93,1,1.93,1.7,3.01,2.08c1.33,0.42,3.44,0.63,6.32,0.63c1.22,0,2.35-0.05,3.39-0.14l-0.46,2.57
		c-4.9-0.05-8.11-0.33-9.62-0.82c-1.37-0.49-2.55-1.25-3.55-2.27c-0.64,1.22-1.43,2.5-2.38,3.83l-1.7-1.78
		c1.26-1.59,2.14-2.97,2.65-4.16c0.42-0.75,0.91-2.29,1.48-4.62h-2.98V18.4c0.78-1.35,1.61-3.12,2.49-5.3h-2.87V10.9h5.14v1.2
		c1.02-1.04,1.79-2.05,2.3-3.04c0.09-0.16,0.17-0.32,0.25-0.46h-2.65V6.64z M324.63,5.22c1,1.51,1.79,2.81,2.35,3.88l-1.97,1.37
		c-0.51-1.22-1.2-2.62-2.08-4.18L324.63,5.22z M334.34,26.65l-0.46-2.08l1.56,0.08c0.49-0.04,0.74-0.35,0.74-0.93v-0.66h-4.92v3.45
		h-2.19V15.5h9.3v8.83c0,0.78-0.2,1.38-0.6,1.78c-0.33,0.36-0.81,0.55-1.45,0.55H334.34z M329.69,12.82h3.53V11.4h-2.49
		C330.44,11.87,330.09,12.34,329.69,12.82z M331.25,18.56h4.92v-1.31h-4.92V18.56z M331.25,21.51h4.92v-1.42h-4.92V21.51z"/>
	<path d="M351.05,6.86v21h-2.41v-2.08h-3.5v2.73h-2.41V6.86H351.05z M345.14,15.17h3.5V9.26h-3.5V15.17z M345.14,23.37h3.5v-5.8
		h-3.5V23.37z M352.36,7.62h5.91V5h2.41v2.62h6.12v2.41h-6.12v2.79h7v2.52h-2.79v3.01h3.01v2.41h-3.01v6.67c0,1-0.21,1.7-0.63,2.11
		c-0.4,0.42-1.13,0.63-2.19,0.63h-3.42l-0.6-2.73c1.33,0.13,2.42,0.19,3.28,0.19c0.69,0,1.04-0.22,1.04-0.66v-6.21H351.6v-2.41
		h10.77v-3.01h-10.55v-2.52h6.45v-2.79h-5.91V7.62z M355.18,21.51c1.79,1.57,3.18,2.92,4.18,4.05l-2.52,1.75
		c-0.91-1.28-2.19-2.75-3.83-4.43L355.18,21.51z"/>
	<path d="M370.79,6.04h7.6v1.94c-0.55,2.08-1.18,4.28-1.91,6.62c0.66,1.28,1.12,2.42,1.39,3.45c0.35,1.06,0.52,1.96,0.52,2.71
		c-0.04,1.5-0.27,2.57-0.71,3.23c-0.49,0.77-1.57,1.15-3.23,1.15l-0.77-2.6c0.47,0.13,0.91,0.19,1.31,0.19
		c0.33,0,0.57-0.14,0.71-0.41c0.18-0.27,0.27-0.79,0.27-1.56c0-0.84-0.12-1.62-0.36-2.35c-0.27-0.97-0.8-2.11-1.59-3.45
		c0.91-2.61,1.56-4.81,1.94-6.62h-2.68v22.26h-2.52V6.04z M383.31,6.64h3.36c0.16-0.55,0.31-1.13,0.44-1.75l2,0.33
		c-0.13,0.53-0.25,1-0.36,1.42h6.48v1.97h-7.14c-0.16,0.46-0.33,0.84-0.49,1.15h6.64v1.64h-3.06v1.42h3.72v1.64h-9.3v-1.53
		c-0.33,0.42-0.69,0.84-1.09,1.26l-1.12-1.37c-0.62,1.73-1.42,3.52-2.41,5.36h2.93v1.5c-0.42,2.3-0.87,3.99-1.34,5.09
		c-0.02,0.05-0.04,0.11-0.05,0.16c0.93,1,1.93,1.7,3.01,2.08c1.33,0.42,3.44,0.63,6.32,0.63c1.22,0,2.35-0.05,3.39-0.14l-0.46,2.57
		c-4.9-0.05-8.11-0.33-9.62-0.82c-1.37-0.49-2.55-1.25-3.55-2.27c-0.64,1.22-1.43,2.5-2.38,3.83l-1.7-1.78
		c1.26-1.59,2.14-2.97,2.65-4.16c0.42-0.75,0.91-2.29,1.48-4.62h-2.98V18.4c0.78-1.35,1.61-3.12,2.49-5.3h-2.87V10.9h5.14v1.2
		c1.02-1.04,1.79-2.05,2.3-3.04c0.09-0.16,0.17-0.32,0.25-0.46h-2.65V6.64z M380.63,5.22c1,1.51,1.79,2.81,2.35,3.88l-1.97,1.37
		c-0.51-1.22-1.2-2.62-2.08-4.18L380.63,5.22z M390.34,26.65l-0.46-2.08l1.56,0.08c0.49-0.04,0.74-0.35,0.74-0.93v-0.66h-4.92v3.45
		h-2.19V15.5h9.3v8.83c0,0.78-0.2,1.38-0.6,1.78c-0.33,0.36-0.81,0.55-1.45,0.55H390.34z M385.69,12.82h3.53V11.4h-2.49
		C386.44,11.87,386.09,12.34,385.69,12.82z M387.25,18.56h4.92v-1.31h-4.92V18.56z M387.25,21.51h4.92v-1.42h-4.92V21.51z"/>
	<path d="M408.42,4.89h2.73v1.15h10.88v2.08h-10.88v1.42h12.5c-0.42,1.82-1.13,3.63-2.13,5.41l-2.76-0.79
		c0.67-0.71,1.22-1.56,1.64-2.54h-9.95v1.5l7.14-0.25l0.3,1.97l-7.44,0.25v0.49c0,0.53,0.36,0.79,1.07,0.79h9.21v1.97h-9.84
		c-0.95,0-1.7-0.15-2.24-0.46c-0.55-0.33-0.82-0.85-0.82-1.56v-1.15l-3.31,0.11l-0.3-1.97l3.61-0.11v-1.59h-5.03v5.63
		c0,1.99-0.16,4.09-0.49,6.32c-0.4,2.26-1.08,4.49-2.02,6.7l-2.3-2.05c0.88-1.73,1.48-3.55,1.8-5.47c0.25-1.97,0.38-3.8,0.38-5.5
		V9.54h8.26V4.89z M406.47,17.58l1.89,1.18c-0.11,0.29-0.22,0.57-0.33,0.85h4.35v1.59c-0.47,2.17-1.28,4.02-2.41,5.55
		c0.11,0.07,0.21,0.13,0.3,0.16c1.42,0.71,3.96,1.07,7.63,1.07c2.33,0,4.29-0.06,5.88-0.19l-0.71,2.49
		c-7.62,0-12.18-0.39-13.67-1.18c-0.4-0.2-0.76-0.43-1.07-0.68c-1.15,0.88-2.62,1.64-4.4,2.3l-1.26-1.91
		c1.71-0.55,3.08-1.2,4.1-1.97c-0.53-0.75-1.02-1.6-1.48-2.57c-0.51,0.62-1.08,1.24-1.72,1.86l-1.23-2.02
		c0.84-0.66,1.63-1.59,2.38-2.82C405.31,20.32,405.89,19.09,406.47,17.58z M406.45,22.61c0.57,1.17,1.18,2.11,1.86,2.82
		c0.84-1.08,1.46-2.4,1.86-3.96h-3.04C406.88,21.92,406.65,22.3,406.45,22.61z M414.81,19.6h5.09v4.1c0,0.58,0.31,0.88,0.93,0.88
		h0.38c0.15-0.04,0.25-0.17,0.33-0.41c0.07-0.24,0.14-1.12,0.19-2.65l2.16,0.88c-0.18,1.7-0.39,2.79-0.63,3.28
		c-0.27,0.51-0.61,0.77-1.01,0.77h-2.21c-0.75,0-1.27-0.14-1.56-0.41c-0.44-0.42-0.66-0.99-0.66-1.72v-2.84h-1.86
		c-0.18,1.44-0.48,2.53-0.9,3.28c-0.42,0.78-1.2,1.53-2.35,2.24l-1.39-1.97c0.8-0.27,1.41-0.8,1.83-1.59c0.38-0.73,0.57-2,0.57-3.83
		H414.81z"/>
</g>
<use xlink:href="#New_Symbol_1"  width="28.75" height="21" x="-14.38" y="-10.5" transform="matrix(1 0 0 -1 24.305 19)" style="overflow:visible;"/>
<use xlink:href="#New_Symbol_4"  width="606.8" height="2" x="-299.3" y="-1" transform="matrix(1 0 0 -1 312.6619 36.6047)" style="overflow:visible;"/>
</svg>
