<?xml version="1.0" encoding="utf-8"?>
<!-- Generator: Adobe Illustrator 25.2.0, SVG Export Plug-In . SVG Version: 6.00 Build 0)  -->
<svg version="1.1" id="Layer_1" xmlns="http://www.w3.org/2000/svg" xmlns:xlink="http://www.w3.org/1999/xlink" x="0px" y="0px"
	 width="688.39px" height="40px" viewBox="0 0 688.39 40" style="enable-background:new 0 0 688.39 40;" xml:space="preserve">
<style type="text/css">
	.st0{enable-background:new    ;}
	.st1{fill:#FFFFFF;}
	.st2{fill:url(#SVGID_1_);}
	.st3{fill:url(#SVGID_2_);}
	.st4{fill:none;stroke:url(#SVGID_3_);stroke-width:2;stroke-miterlimit:10;stroke-dasharray:2,3,2,3,2,3;}
	.st5{fill:url(#SVGID_4_);}
	.st6{fill:url(#SVGID_5_);}
	.st7{fill:none;stroke:url(#SVGID_6_);stroke-width:2;stroke-miterlimit:10;stroke-dasharray:2,3,2,3,2,3;}
	.st8{fill:url(#SVGID_7_);}
	.st9{fill:url(#SVGID_8_);}
	.st10{fill:none;stroke:url(#SVGID_9_);stroke-width:2;stroke-miterlimit:10;stroke-dasharray:2,3,2,3,2,3;}
	.st11{fill:url(#SVGID_10_);}
	.st12{fill:url(#SVGID_11_);}
	.st13{fill:none;stroke:url(#SVGID_12_);stroke-width:2;stroke-miterlimit:10;stroke-dasharray:2,3,2,3,2,3;}
	.st14{fill:url(#SVGID_13_);}
	.st15{fill:url(#SVGID_14_);}
	.st16{fill:none;stroke:url(#SVGID_15_);stroke-width:2;stroke-miterlimit:10;stroke-dasharray:2,3,2,3,2,3;}
	.st17{fill:url(#SVGID_16_);}
	.st18{fill:url(#SVGID_17_);}
	.st19{fill:none;stroke:url(#SVGID_18_);stroke-width:2;stroke-miterlimit:10;stroke-dasharray:2,3,2,3,2,3;}
	.st20{fill:url(#SVGID_19_);}
	.st21{fill:url(#SVGID_20_);}
	.st22{fill:none;stroke:url(#SVGID_21_);stroke-width:2;stroke-miterlimit:10;stroke-dasharray:2,3,2,3,2,3;}
	.st23{fill:url(#SVGID_22_);}
	.st24{fill:url(#SVGID_23_);}
	.st25{fill:none;stroke:url(#SVGID_24_);stroke-width:2;stroke-miterlimit:10;stroke-dasharray:2,3,2,3,2,3;}
	.st26{fill:url(#SVGID_25_);}
	.st27{fill:url(#SVGID_26_);}
	.st28{fill:none;stroke:url(#SVGID_27_);stroke-width:2;stroke-miterlimit:10;stroke-dasharray:2,3,2,3,2,3;}
	.st29{fill:#ABABAB;}
	.st30{fill:url(#SVGID_28_);}
	.st31{fill:url(#SVGID_29_);}
	.st32{fill:none;stroke:url(#SVGID_30_);stroke-width:2;stroke-miterlimit:10;stroke-dasharray:2,3,2,3,2,3;}
	.st33{fill:url(#SVGID_31_);}
	.st34{fill:url(#SVGID_32_);}
	.st35{fill:none;stroke:url(#SVGID_33_);stroke-width:2;stroke-miterlimit:10;stroke-dasharray:2,3,2,3,2,3;}
	.st36{fill:url(#SVGID_34_);}
	.st37{fill:url(#SVGID_35_);}
	.st38{fill:none;stroke:url(#SVGID_36_);stroke-width:2;stroke-miterlimit:10;stroke-dasharray:2,3,2,3,2,3;}
	.st39{fill:url(#SVGID_37_);}
	.st40{fill:url(#SVGID_38_);}
	.st41{fill:none;stroke:url(#SVGID_39_);stroke-width:2;stroke-miterlimit:10;stroke-dasharray:2,3,2,3,2,3;}
	.st42{fill:url(#SVGID_40_);}
	.st43{fill:url(#SVGID_41_);}
	.st44{fill:none;stroke:url(#SVGID_42_);stroke-width:2;stroke-miterlimit:10;stroke-dasharray:2,3,2,3,2,3;}
	.st45{fill:url(#SVGID_43_);}
	.st46{fill:url(#SVGID_44_);}
	.st47{fill:none;stroke:url(#SVGID_45_);stroke-width:2;stroke-miterlimit:10;stroke-dasharray:2,3,2,3,2,3;}
</style>
<g class="st0">
	<path d="M69.74,5.49v7.49h3.45v6.34h-2.52v-4.16h-19.8v4.16h-2.52v-6.34h3.66V5.49H69.74z M63.48,30.48l-0.52-2.3l2.62,0.11
		c0.58-0.04,0.88-0.37,0.88-1.01v-0.9H55.3v4.21h-2.62V16.65h16.41v11.29c0,0.86-0.24,1.5-0.71,1.94c-0.4,0.4-0.98,0.6-1.72,0.6
		H63.48z M54.64,12.98h3.94V9.21h8.53V7.79H54.64V12.98z M55.3,20.58h11.16v-1.64H55.3V20.58z M55.3,24.3h11.16v-1.64H55.3V24.3z
		 M61.21,12.98h5.91v-1.91h-5.91V12.98z"/>
	<path d="M76.41,19.38h11.05v-2.13h2.62v2.13h11.07v2.3h-8.59c1.22,1.4,2.33,2.4,3.34,2.98c1.42,0.98,3.42,1.93,5.99,2.84
		l-1.29,2.65c-3.08-1.39-5.37-2.7-6.86-3.94c-1.15-0.91-2.37-2.34-3.66-4.29v8.78h-2.62v-8.67c-0.82,1.33-1.76,2.47-2.82,3.42
		c-1.68,1.49-4.1,2.99-7.27,4.48l-1.5-2.41c3.23-1.31,5.5-2.52,6.84-3.61c0.82-0.62,1.56-1.37,2.21-2.24h-8.5V19.38z M82.1,18.01
		l-0.55-2.73c0.86,0.15,1.54,0.22,2.05,0.22c0.56,0,0.99-0.19,1.29-0.57c0.25-0.36,0.42-2.09,0.49-5.17h-2.6
		c-0.2,1.84-0.63,3.39-1.29,4.65c-0.84,1.62-2.21,2.86-4.1,3.72l-1.42-2.24c1.71-0.84,2.87-1.9,3.47-3.17
		c0.38-0.82,0.66-1.8,0.82-2.95h-4.07v-2.3h4.21V4.89h2.52v2.57H88c-0.04,5.54-0.48,8.71-1.34,9.52
		C86.23,17.67,84.7,18.01,82.1,18.01z M89.59,7.08h10.72v9.95H89.59V7.08z M97.79,14.62V9.48H92.1v5.14H97.79z"/>
	<path d="M111.35,5.11l1.04,2.54c-0.97,0.49-2.52,1-4.68,1.53l0.05,2.11h4.07v2.3h-3.99l0.11,3.34h3.64v2.19h-3.58l0.08,3.06h4.32
		l1.01-7.22h2.52l-1.01,7.22h2.43l0.85-8.64h-3.12l-0.08,0.66h-2.41l1.2-9.41h2.41l-0.25,1.97h4.51v2.19h-4.79l-0.3,2.41h5.41
		l-0.9,10.83h5.74l0.08-3.01h-3.94v-2.3h3.99l0.11-3.28h-4.1v-2.3h4.16l0.08-2.84h-4.24v-2.3h6.73l-0.46,16.02h1.61v2.41h-25.81
		v-2.41h1.83l-0.41-15.18C107.2,6.78,109.22,6.15,111.35,5.11z M112.37,25.01l1.89,1.67c-2.22,1.44-5.02,2.74-8.39,3.91l-1.78-2.3
		C107.16,27.42,109.92,26.33,112.37,25.01z M121.06,24.9c3.03,0.93,5.79,2.05,8.29,3.36l-1.67,2.54c-2.61-1.57-5.3-2.82-8.07-3.75
		L121.06,24.9z"/>
	<path d="M133.42,11.78c1.55,0.75,2.96,1.65,4.24,2.71l-1.67,2.54c-1.29-1.29-2.63-2.32-4.02-3.09L133.42,11.78z M135.55,18.56
		l2.21,1.64c-1.04,4.07-2.21,7.6-3.53,10.61l-2.05-2.3C133.25,26.2,134.37,22.88,135.55,18.56z M134.08,5.22
		c1.51,0.69,2.89,1.52,4.13,2.49l-1.67,2.54c-1.26-1.2-2.57-2.16-3.94-2.87L134.08,5.22z M143.67,9.59l1.97,1.23
		c-1.06,0.97-2.06,1.71-3.01,2.21c-0.24,0.15-0.48,0.27-0.74,0.38h11.76c-1.39-0.75-2.78-1.38-4.18-1.91l1.2-1.8
		c2.73,0.98,5.25,2.17,7.55,3.55l-1.39,2.13c-0.73-0.51-1.45-0.97-2.16-1.37v6.51h-4.95c0.36,1.04,0.82,1.94,1.37,2.71
		c0.55-0.25,1.05-0.52,1.5-0.79c0.62-0.36,1.22-0.86,1.8-1.48l1.97,1.23c-0.71,0.8-1.39,1.42-2.02,1.86
		c-0.44,0.35-0.97,0.67-1.59,0.96c1.39,1.22,3.14,2.24,5.25,3.06l-1.42,2.3c-2.88-1.37-5.02-2.89-6.43-4.57
		c-1.33-1.48-2.28-3.24-2.84-5.28h-0.9c-0.6,0.88-1.26,1.6-1.97,2.19v4.48c1.66-0.37,3.23-0.77,4.7-1.2v2.32
		c-2.72,0.82-5.83,1.58-9.35,2.27l-0.71-2.3c1.02-0.18,2-0.37,2.95-0.55V24.3c-0.98,0.51-2.12,1.04-3.42,1.59l-1.5-2.41
		c2.44-0.77,4.17-1.46,5.17-2.08c0.44-0.25,0.85-0.55,1.23-0.88h-3.61v-6.18c-0.51,0.2-1.05,0.4-1.61,0.6L137,12.85
		c1.35-0.33,2.63-0.79,3.86-1.39C141.81,10.96,142.74,10.34,143.67,9.59z M148.1,4.89c0.35,0.57,0.68,1.17,1.01,1.8h7.9v2.3h-18.48
		v-2.3h7.66c-0.31-0.49-0.64-0.95-0.98-1.37L148.1,4.89z M152.37,18.34v-2.73H142.2v2.73H152.37z"/>
	<path d="M160.52,6.91h4.05V4.89h2.19v2.02h4.4v2.3h-4.4v1.64h3.66c1.64-0.93,2.91-1.86,3.8-2.79c0.77-0.78,1.58-1.88,2.43-3.28h2.3
		c1.02,1.48,2.09,2.66,3.2,3.55c0.78,0.67,2.11,1.48,3.96,2.41l-1.45,2.24c-0.71-0.31-1.39-0.67-2.05-1.09v1.59h-9.3v-1.5
		c-0.6,0.46-1.26,0.9-1.97,1.34l-0.82-1.53v10.77h-3.77v2.02h4.4v2.19h-4.4v3.83h-2.19v-3.83h-4.27v-2.19h4.27v-2.02h-3.77v-11.7
		h3.77V9.21h-4.05V6.91z M162.87,15.66h1.7v-2.73h-1.7V15.66z M164.56,20.47v-2.95h-1.7v2.95H164.56z M166.75,12.93v2.73h1.7v-2.73
		H166.75z M168.45,20.47v-2.95h-1.7v2.95H168.45z M181.27,30.59l-0.33-1.42h-1.89v-5.85h-1.64v6.07h-2.08v-6.07h-1.53v7.27h-2.3
		V15.22h13.56v12.82c0,0.86-0.21,1.5-0.63,1.94c-0.35,0.4-0.85,0.6-1.5,0.6H181.27z M173.81,21.24h1.53v-3.72h-1.53V21.24z
		 M174.33,11.18h7.36c-1.26-0.95-2.55-2.28-3.88-3.99c-0.93,1.31-1.83,2.42-2.71,3.31C174.85,10.73,174.6,10.96,174.33,11.18z
		 M177.42,17.52v3.72h1.64v-3.72H177.42z M181.14,17.52v3.72h1.64v-3.72H181.14z M181.14,23.32v5l0.88,0.08
		c0.51-0.04,0.77-0.37,0.77-1.01v-4.07H181.14z"/>
	<path d="M190.49,4.89h2.62v2.68h7.11v2.3h-7.11v3.53c2.62-0.29,5.18-0.66,7.66-1.09v2.41c-3.45,0.64-7.5,1.27-12.17,1.89
		l-0.63-2.73c0.86-0.05,1.7-0.13,2.52-0.22V4.89z M199.89,15.17l2.71,0.96c-0.31,0.53-0.65,1.03-1.01,1.5h9.35V30.7h-2.62v-1.48
		h-14.77v1.48h-2.62V17.63h7.57C199.03,16.87,199.49,16.04,199.89,15.17z M193.55,22.39h14.77v-2.46h-14.77V22.39z M193.55,26.93
		h14.77v-2.35h-14.77V26.93z M209.68,13.64c0.44,0,0.76-0.12,0.96-0.36c0.25-0.24,0.42-1.32,0.49-3.25l2.65,0.85
		c-0.24,2.53-0.62,4.03-1.15,4.48c-0.47,0.47-1.33,0.71-2.57,0.71h-5.61c-0.84,0-1.5-0.24-2-0.71c-0.51-0.47-0.77-1.1-0.77-1.89
		V4.89h2.73v3.75c3.01-0.91,5.53-1.95,7.57-3.12l1.45,2.05c-2.61,1.39-5.61,2.54-9.02,3.47v1.67c0,0.62,0.36,0.93,1.09,0.93H209.68z
		"/>
	<path d="M217.39,8.83h2.98c-0.33-1-0.7-1.93-1.12-2.79l2.57-0.38c0.35,0.95,0.69,2.01,1.04,3.17h1.91
		c0.35-1.24,0.62-2.52,0.82-3.83L228,5.41c-0.22,1.2-0.46,2.34-0.74,3.42h10.94c-0.2,1.93-0.45,3.55-0.74,4.87h2.6
		c-0.2,1.95-0.45,3.61-0.74,4.98h2.13c-0.05,6.27-0.6,9.85-1.64,10.75c-0.55,0.78-2.43,1.18-5.66,1.18l-0.57-2.73
		c0.86,0.15,1.55,0.22,2.08,0.22c1.08,0,1.89-0.24,2.43-0.71c0.49-0.47,0.81-2.64,0.96-6.51h-16.82c-1.2,1.79-2.54,3.32-4.02,4.59
		l-2.24-1.59c3.75-3.45,6.46-7.66,8.12-12.63h-6.7V8.83z M221.66,22.72l2.41,0.52c-0.71,2.68-1.71,4.99-3.01,6.92l-2.24-1.42
		C220.18,26.87,221.13,24.87,221.66,22.72z M224.86,15.99c-0.42,0.95-0.86,1.84-1.31,2.68h13.18c0.16-0.77,0.31-1.66,0.44-2.68
		H224.86z M227.4,22.94c0.46,1.66,0.77,3.92,0.93,6.78l-2.68,0.36c-0.07-2.95-0.24-5.24-0.49-6.86L227.4,22.94z M226.58,11.23
		c-0.26,0.86-0.53,1.68-0.82,2.46h9.11c0.16-0.67,0.3-1.49,0.41-2.46H226.58z M231.31,22.28c0.64,1.6,1.21,3.44,1.72,5.5l-2.43,0.63
		c-0.38-1.86-0.88-3.65-1.5-5.39L231.31,22.28z M235.22,21.84c0.8,1.55,1.42,2.95,1.86,4.21l-2.19,0.82
		c-0.4-1.53-0.91-3.04-1.53-4.51L235.22,21.84z"/>
	<path d="M244.3,10.19h3.5v-5.3h2.41v5.3h2.43l-0.25-0.33c1.42-0.67,2.62-1.41,3.58-2.21c0.77-0.6,1.47-1.49,2.11-2.65l2.41,0.3
		c-0.22,0.49-0.46,0.94-0.74,1.34h6.84v1.45c-0.8,0.97-1.61,1.8-2.43,2.49h4.48v6.12h-6.34c-0.35,0.37-0.68,0.68-1.01,0.96
		c0.62,0.89,1.09,1.75,1.42,2.57c1.97-0.78,3.6-1.67,4.89-2.65l1.31,1.86c-0.84,0.57-1.72,1.08-2.65,1.53
		c0.35,0.98,0.76,1.9,1.23,2.73c0.53,0.88,1.26,1.81,2.19,2.82l-1.7,2.21c-1.02-1.31-1.84-2.63-2.46-3.96
		c-0.42-0.86-0.79-1.85-1.12-2.98c-0.36,0.16-0.72,0.31-1.07,0.44c0.18,0.95,0.27,1.88,0.27,2.79c0,1.91-0.25,3.26-0.74,4.05
		c-0.62,0.88-1.99,1.31-4.1,1.31l-0.79-2.52c0.78,0.15,1.6,0.22,2.46,0.22c0.22,0,0.43-0.22,0.63-0.66
		c0.16-0.31,0.25-1.07,0.25-2.27c-0.93,0.69-1.79,1.22-2.57,1.59c-1.42,0.73-3.22,1.43-5.39,2.11l-1.29-2.21
		c2.13-0.53,3.98-1.17,5.55-1.91c1.28-0.6,2.42-1.31,3.45-2.13c-0.05-0.24-0.12-0.46-0.19-0.68c-0.04-0.16-0.08-0.31-0.14-0.44
		c-0.89,0.71-1.7,1.25-2.43,1.61c-1.19,0.62-2.69,1.23-4.51,1.83l-1.18-2c1.79-0.47,3.34-1.03,4.68-1.67c1-0.49,1.89-1.07,2.65-1.72
		c-0.13-0.24-0.26-0.46-0.38-0.68c-1.55,0.88-3.35,1.62-5.39,2.24l-1.23-2c2.08-0.51,3.7-1.04,4.87-1.59
		c0.53-0.25,1.02-0.52,1.48-0.79h-5.09v-5.09c-0.09,0.05-0.2,0.11-0.33,0.16l-0.82-1.07v1.78h-2.84v1.67
		c1.08,1.13,2.13,2.36,3.17,3.69l-1.42,2.13c-0.66-1.11-1.24-2.06-1.75-2.84v13.45h-2.41V17.63c-0.8,2.22-1.76,4.17-2.87,5.85
		l-1.07-2.73c1.6-2.41,2.91-5.16,3.91-8.26h-3.47V10.19z M255.89,10.58h5.14c0.88-0.62,1.77-1.35,2.68-2.19h-5.28
		c-0.18,0.2-0.36,0.37-0.52,0.52C257.33,9.51,256.66,10.07,255.89,10.58z M260.21,14.95v-2.62h-3.72v2.62H260.21z M266.34,14.95
		v-2.62h-3.83v2.62H266.34z"/>
	<path d="M272.19,10.14h11.1V4.89h2.95v5.25h11.21v2.62h-8.42c0.93,2.08,2.03,4.03,3.31,5.85c1.31,1.8,3.16,3.76,5.55,5.85l-2,2.52
		c-2.55-2.39-4.59-4.79-6.12-7.22c-1.33-1.97-2.46-4.3-3.39-7h-0.14V30.7h-2.95V12.96c-0.8,2.35-1.64,4.21-2.52,5.58
		c-1.46,2.68-3.86,5.5-7.19,8.45l-1.61-2.65c2.48-2.08,4.39-4.13,5.74-6.15c1.08-1.46,2.05-3.26,2.93-5.41h-8.45V10.14z"/>
	<path d="M325.78,5.98v2.41h-9.3c-0.22,0.84-0.51,1.64-0.88,2.41h8.04v10.83h-6.73v6.23c0,0.97-0.22,1.64-0.66,2.02
		c-0.42,0.4-1.19,0.6-2.3,0.6h-2.71l-0.57-2.62c1.02,0.13,1.86,0.19,2.52,0.19c0.73,0,1.09-0.21,1.09-0.63v-5.8h-7.27V10.79h5.77
		c0.36-0.78,0.67-1.59,0.9-2.41H305v8.64c0,2.02-0.18,4.17-0.55,6.43c-0.47,2.3-1.24,4.57-2.3,6.81l-2.3-2.05
		c1.02-1.77,1.71-3.63,2.08-5.58c0.29-2.02,0.44-3.89,0.44-5.61V5.98H325.78z M309.19,22.5l2.05,0.98c-1.17,2.3-2.54,4.27-4.13,5.91
		l-2.21-1.59C306.48,26.29,307.91,24.52,309.19,22.5z M309.54,15.01h11.59v-2.02h-11.59V15.01z M321.14,19.44v-2.35h-11.59v2.35
		H321.14z M321.16,22.39c1.97,2.12,3.51,3.93,4.62,5.44l-2.41,1.67c-1.04-1.7-2.46-3.63-4.27-5.8L321.16,22.39z"/>
	<path d="M328.19,10.14h11.1V4.89h2.95v5.25h11.21v2.62h-8.42c0.93,2.08,2.03,4.03,3.31,5.85c1.31,1.8,3.16,3.76,5.55,5.85l-2,2.52
		c-2.55-2.39-4.59-4.79-6.12-7.22c-1.33-1.97-2.46-4.3-3.39-7h-0.14V30.7h-2.95V12.96c-0.8,2.35-1.64,4.21-2.52,5.58
		c-1.46,2.68-3.86,5.5-7.19,8.45l-1.61-2.65c2.48-2.08,4.39-4.13,5.74-6.15c1.08-1.46,2.05-3.26,2.93-5.41h-8.45V10.14z"/>
	<path d="M356.6,15.5h24.42v2.62H356.6V15.5z"/>
	<path d="M393.98,5.52v7.08h0.77v5.09h-1.37v10.25c0,0.86-0.2,1.5-0.6,1.94c-0.33,0.4-0.81,0.6-1.45,0.6h-1.48l-0.52-2.3l1.15,0.11
		c0.47-0.04,0.71-0.37,0.71-1.01v-1.56h-3.72v4.76h-2.19V17.47h-1.26V12.6h0.88V5.52H393.98z M386.32,16.32h6.12v-1.64h-6.12V16.32z
		 M386.98,12.6h1.42V9.15h3.5V7.73h-4.92V12.6z M387.47,20.15h3.72V18.4h-3.72V20.15z M387.47,23.87h3.72v-1.86h-3.72V23.87z
		 M390.26,12.6h1.64v-1.7h-1.64V12.6z M395.02,16.92h14.66v2.19h-14.66V16.92z M396.06,20.26h12.25v5.36h-1.34l-1.07,2.3h3.55v2.08
		h-14.3v-2.08h3.77l-1.07-2.3h-1.8V20.26z M395.51,6.75h3.88V4.89h1.97v1.86h1.86V4.89h1.97v1.86h3.88v8.97h-13.56V6.75z
		 M397.59,10.3h1.8V8.72h-1.8V10.3z M399.39,13.75v-1.8h-1.8v1.8H399.39z M406.01,23.76v-1.64h-7.66v1.64H406.01z M401.33,27.91
		h2.16l1.07-2.3h-4.32L401.33,27.91z M401.36,8.72v1.59h1.86V8.72H401.36z M403.22,13.75v-1.8h-1.86v1.8H403.22z M405.19,8.72v1.59
		h1.8V8.72H405.19z M406.99,13.75v-1.8h-1.8v1.8H406.99z"/>
	<path d="M412.52,7.19h10.88v-2.3h2.73v2.3h11.1v2.41h-11.1v1.86h9.08v11.16h-9.08v1.97h11.32v2.41h-11.32v3.61h-2.73v-3.61h-11.21
		v-2.41h11.21v-1.97h-8.97V11.45h8.97V9.59h-10.88V7.19z M416.95,15.72h6.45v-1.86h-6.45V15.72z M423.4,20.2v-2.3h-6.45v2.3H423.4z
		 M426.14,13.86v1.86h6.56v-1.86H426.14z M432.7,20.2v-2.3h-6.56v2.3H432.7z"/>
	<path d="M442.21,5.98c1.08,1.62,2.11,3.41,3.12,5.36l-2.41,1.18c-0.95-1.97-1.97-3.76-3.06-5.39L442.21,5.98z M446.53,4.89h2.62
		v8.09h5.63v14.63c0,0.89-0.23,1.57-0.68,2.02c-0.38,0.42-0.94,0.63-1.67,0.63h-3.61l-0.55-2.41l3.14,0.11
		c0.56-0.04,0.85-0.39,0.85-1.07v-2.16h-8.86v5.63h-2.52V12.98h5.63V4.89z M443.42,17.74h8.86v-2.57h-8.86V17.74z M443.42,22.66
		h8.86v-2.84h-8.86V22.66z M453.42,5.52l2.3,1.12c-0.78,2.08-1.8,4.08-3.06,6.02l-2.3-1.2C451.64,9.41,452.66,7.43,453.42,5.52z
		 M457.09,6.86h2.52v17.94h-2.52V6.86z M461.96,30.15h-3.75l-0.63-2.84c1.46,0.13,2.66,0.19,3.61,0.19c0.73,0,1.09-0.23,1.09-0.68
		V4.89h2.62v22.42c0,1.06-0.22,1.79-0.66,2.19C463.83,29.94,463.07,30.15,461.96,30.15z"/>
	<path d="M467.97,6.58h25.81V9.1H482.6c-0.31,1.19-0.74,2.32-1.29,3.39h10.66v14.96c0,1-0.25,1.75-0.74,2.24
		c-0.42,0.46-1.03,0.68-1.83,0.68h-2.68l-0.57-2.62l2.16,0.11c0.62-0.04,0.93-0.43,0.93-1.18V15.01h-3.83v14.71h-2.73V15.01h-3.61
		v14.71h-2.73V15.01h-3.5v15.59h-2.73v-18.1h8.18c0.55-1.08,0.98-2.21,1.31-3.39h-11.62V6.58z"/>
	<path d="M520.91,8.77v2.52h-7.77c0.25,4.05,0.77,7.22,1.56,9.52c1.31-1.91,2.51-4.41,3.58-7.49l2.41,1.04
		c-1.55,4.17-3.13,7.27-4.73,9.3c1.22,2.41,2.11,3.61,2.65,3.61c0.29,0,0.63-1.29,1.01-3.88l2.27,1.56
		c-0.64,2.64-1.23,4.24-1.78,4.79c-0.35,0.44-0.74,0.66-1.18,0.66c-1.17,0-2.34-0.67-3.53-2c-0.58-0.69-1.11-1.49-1.59-2.38
		c-1.77,1.62-3.97,3.04-6.62,4.27l-1.61-2.41c2.88-1.31,5.21-2.83,7-4.57c-0.35-0.91-0.67-1.9-0.96-2.95
		c-0.57-2.42-0.96-5.44-1.18-9.05h-9.35v3.39h7.71c-0.05,5.05-0.28,8.26-0.68,9.62c-0.4,1.57-1.32,2.35-2.76,2.35h-3.64L501.22,24
		c1.91,0.13,3.34,0.19,4.29,0.19c0.22,0,0.38-0.37,0.49-1.12c0.09-1.04,0.15-3,0.16-5.88h-5.09c-0.04,1.99-0.22,4.07-0.55,6.23
		c-0.51,2.57-1.34,5.1-2.49,7.6l-2.3-2.05c1.11-2.01,1.87-4.12,2.27-6.34c0.31-2.3,0.46-4.42,0.46-6.37V8.77h11.87
		c-0.04-1.24-0.05-2.53-0.05-3.88h2.62c0,1.39,0.03,2.68,0.08,3.88h3.91c-0.73-0.71-1.62-1.44-2.68-2.19l1.75-1.7
		c1.29,0.82,2.39,1.64,3.28,2.46l-1.42,1.42H520.91z"/>
</g>
<g>
	<g>
		<g id="XMLID_11_">
			<g>
				<linearGradient id="SVGID_1_" gradientUnits="userSpaceOnUse" x1="-8.9433" y1="7.2509" x2="42.7225" y2="27.9173">
					<stop  offset="5.618000e-03" style="stop-color:#FF2727"/>
					<stop  offset="0.3525" style="stop-color:#FFFF00"/>
					<stop  offset="0.3814" style="stop-color:#F8EE10"/>
					<stop  offset="0.4388" style="stop-color:#E6C13A"/>
					<stop  offset="0.5185" style="stop-color:#C9797D"/>
					<stop  offset="0.5955" style="stop-color:#AA2EC3"/>
					<stop  offset="0.7367" style="stop-color:#4F66C6"/>
					<stop  offset="0.8536" style="stop-color:#0097C9"/>
					<stop  offset="1" style="stop-color:#FFFF00"/>
				</linearGradient>
				<polygon class="st2" points="30.93,19 20.43,29.5 9.93,19 20.43,8.5 				"/>
				<linearGradient id="SVGID_2_" gradientUnits="userSpaceOnUse" x1="-7.8742" y1="4.5781" x2="43.7917" y2="25.2444">
					<stop  offset="5.618000e-03" style="stop-color:#FF2727"/>
					<stop  offset="0.2129" style="stop-color:#FFFF00"/>
					<stop  offset="0.2584" style="stop-color:#F8EE10"/>
					<stop  offset="0.3488" style="stop-color:#E6C13A"/>
					<stop  offset="0.4743" style="stop-color:#C9797D"/>
					<stop  offset="0.5955" style="stop-color:#AA2EC3"/>
					<stop  offset="0.78" style="stop-color:#4F66C6"/>
					<stop  offset="0.9327" style="stop-color:#0097C9"/>
					<stop  offset="1" style="stop-color:#FFFF00"/>
				</linearGradient>
				<polygon class="st3" points="28.18,8.5 26.02,10.66 34.36,19 26.02,27.34 28.18,29.5 38.68,19 				"/>
			</g>
		</g>
	</g>
</g>
<g>
	<g>
		<linearGradient id="SVGID_3_" gradientUnits="userSpaceOnUse" x1="13.3622" y1="36.6047" x2="620.1619" y2="36.6047">
			<stop  offset="0" style="stop-color:#00B987"/>
			<stop  offset="1" style="stop-color:#FFFFFF"/>
		</linearGradient>
		<line class="st4" x1="13.36" y1="36.6" x2="620.16" y2="36.6"/>
	</g>
</g>
</svg>
