<?xml version="1.0" encoding="utf-8"?>
<!-- Generator: Adobe Illustrator 25.2.0, SVG Export Plug-In . SVG Version: 6.00 Build 0)  -->
<svg version="1.1" id="Layer_1" xmlns="http://www.w3.org/2000/svg" xmlns:xlink="http://www.w3.org/1999/xlink" x="0px" y="0px"
	 width="688.39px" height="40px" viewBox="0 0 688.39 40" style="enable-background:new 0 0 688.39 40;" xml:space="preserve">
<style type="text/css">
	.st0{enable-background:new    ;}
	.st1{fill:#FFFFFF;}
	.st2{fill:url(#SVGID_1_);}
	.st3{fill:url(#SVGID_2_);}
	.st4{fill:none;stroke:url(#SVGID_3_);stroke-width:2;stroke-miterlimit:10;stroke-dasharray:2,3,2,3,2,3;}
	.st5{fill:url(#SVGID_4_);}
	.st6{fill:url(#SVGID_5_);}
	.st7{fill:none;stroke:url(#SVGID_6_);stroke-width:2;stroke-miterlimit:10;stroke-dasharray:2,3,2,3,2,3;}
	.st8{fill:url(#SVGID_7_);}
	.st9{fill:url(#SVGID_8_);}
	.st10{fill:none;stroke:url(#SVGID_9_);stroke-width:2;stroke-miterlimit:10;stroke-dasharray:2,3,2,3,2,3;}
	.st11{fill:url(#SVGID_10_);}
	.st12{fill:url(#SVGID_11_);}
	.st13{fill:none;stroke:url(#SVGID_12_);stroke-width:2;stroke-miterlimit:10;stroke-dasharray:2,3,2,3,2,3;}
	.st14{fill:url(#SVGID_13_);}
	.st15{fill:url(#SVGID_14_);}
	.st16{fill:none;stroke:url(#SVGID_15_);stroke-width:2;stroke-miterlimit:10;stroke-dasharray:2,3,2,3,2,3;}
	.st17{fill:url(#SVGID_16_);}
	.st18{fill:url(#SVGID_17_);}
	.st19{fill:none;stroke:url(#SVGID_18_);stroke-width:2;stroke-miterlimit:10;stroke-dasharray:2,3,2,3,2,3;}
	.st20{fill:url(#SVGID_19_);}
	.st21{fill:url(#SVGID_20_);}
	.st22{fill:none;stroke:url(#SVGID_21_);stroke-width:2;stroke-miterlimit:10;stroke-dasharray:2,3,2,3,2,3;}
	.st23{fill:url(#SVGID_22_);}
	.st24{fill:url(#SVGID_23_);}
	.st25{fill:none;stroke:url(#SVGID_24_);stroke-width:2;stroke-miterlimit:10;stroke-dasharray:2,3,2,3,2,3;}
	.st26{fill:url(#SVGID_25_);}
	.st27{fill:url(#SVGID_26_);}
	.st28{fill:none;stroke:url(#SVGID_27_);stroke-width:2;stroke-miterlimit:10;stroke-dasharray:2,3,2,3,2,3;}
	.st29{fill:#ABABAB;}
	.st30{fill:url(#SVGID_28_);}
	.st31{fill:url(#SVGID_29_);}
	.st32{fill:none;stroke:url(#SVGID_30_);stroke-width:2;stroke-miterlimit:10;stroke-dasharray:2,3,2,3,2,3;}
	.st33{fill:url(#SVGID_31_);}
	.st34{fill:url(#SVGID_32_);}
	.st35{fill:none;stroke:url(#SVGID_33_);stroke-width:2;stroke-miterlimit:10;stroke-dasharray:2,3,2,3,2,3;}
	.st36{fill:url(#SVGID_34_);}
	.st37{fill:url(#SVGID_35_);}
	.st38{fill:none;stroke:url(#SVGID_36_);stroke-width:2;stroke-miterlimit:10;stroke-dasharray:2,3,2,3,2,3;}
	.st39{fill:url(#SVGID_37_);}
	.st40{fill:url(#SVGID_38_);}
	.st41{fill:none;stroke:url(#SVGID_39_);stroke-width:2;stroke-miterlimit:10;stroke-dasharray:2,3,2,3,2,3;}
</style>
<g class="st0">
	<path d="M49.53,12.33c1.68,0.78,3.2,1.72,4.57,2.82l-1.67,2.54c-1.4-1.35-2.85-2.42-4.35-3.2L49.53,12.33z M52.65,19l2.11,1.56
		c-1.31,3.81-2.81,7.12-4.48,9.93L48.3,28.3C49.68,26.13,51.13,23.03,52.65,19z M50.9,5.52c1.64,0.84,3.14,1.82,4.51,2.95
		l-1.75,2.65c-1.39-1.4-2.81-2.52-4.27-3.34L50.9,5.52z M56.72,8.72h5.63V4.89h2.73v3.83h7.27v2.41h-7.27v4.87h8.48v2.52h-9.73
		c-0.58,2.5-1.54,5.11-2.87,7.85c3.06-0.18,5.63-0.53,7.71-1.04c-0.75-1.53-1.52-2.95-2.32-4.27l2.52-0.85
		c1.8,2.86,3.37,5.9,4.7,9.11l-2.62,1.18c-0.38-0.97-0.77-1.88-1.15-2.73c-3.28,0.73-8.04,1.31-14.27,1.75l-0.88-2.98
		c1.02,0,2-0.01,2.93-0.03c1.37-2.44,2.45-5.1,3.25-7.98h-5.74v-2.52h7.27v-4.87h-5.63V8.72z"/>
	<path d="M100.8,5.52v24.86h-2.41V29.5H79.58v0.88h-2.41V5.52H100.8z M79.58,27.31h18.81V7.73H79.58V27.31z M89.75,21.3v2.13
		c-2.48,0.64-5.39,1.28-8.72,1.91l-0.57-2.41C83.63,22.61,86.73,22.06,89.75,21.3z M80.56,10.85h8.97c-0.02-0.84-0.04-1.7-0.05-2.57
		h2.3c0,0.93,0.02,1.79,0.05,2.57h2.57c-0.25-0.71-0.57-1.38-0.93-2.02l2.02-0.66c0.47,0.69,0.89,1.49,1.26,2.38l-1.18,0.3h2.02
		v2.08h-5.69c0.07,1.79,0.21,3.25,0.41,4.38c0.16,0.95,0.36,1.81,0.57,2.6c0.88-1.4,1.76-3.45,2.65-6.15l1.86,1.23
		c-1.28,3.35-2.42,5.82-3.45,7.38c-0.04,0.05-0.06,0.1-0.08,0.14c0.04,0.11,0.08,0.21,0.14,0.3c0.46,0.88,0.88,1.31,1.26,1.31
		c0.16,0,0.41-1.08,0.74-3.25l2.16,1.67c-0.58,2.06-1.03,3.26-1.34,3.61c-0.31,0.42-0.74,0.63-1.29,0.63
		c-0.78,0-1.58-0.51-2.38-1.53c-0.25-0.33-0.48-0.66-0.68-0.98c-0.91,0.98-1.96,1.9-3.14,2.73L88,25.18
		c1.39-0.98,2.52-2.02,3.42-3.12c-0.36-0.98-0.69-2.06-0.98-3.23c-0.38-1.51-0.65-3.48-0.79-5.91h-9.08V10.85z M81.44,14.35h6.67
		v6.45h-6.67V14.35z M86.14,18.94v-2.73h-2.73v2.73H86.14z"/>
	<path d="M104.3,6.64h11.21V5.22h2.52v1.42h11.43v1.97h-11.43v1.26h9.3v8.53h-1.31c1.18,1.26,2.11,2.35,2.79,3.28l-1.97,1.39
		c-0.29-0.47-0.6-0.97-0.93-1.48c-0.77,0.05-1.53,0.1-2.3,0.14v1.7h5.85v2.08h-5.85v2.35c0,0.93-0.21,1.58-0.63,1.94
		c-0.4,0.38-1.13,0.57-2.19,0.57h-2.71l-0.55-2.52c1.02,0.11,1.86,0.16,2.52,0.16c0.69,0,1.04-0.2,1.04-0.6v-1.91H104.3v-2.08h16.79
		v-1.5c-4.65,0.27-9.75,0.54-15.31,0.79l-0.49-2.19c3.48-0.09,6.89-0.21,10.23-0.36V18.4h-9.19V9.87h9.19V8.61H104.3V6.64z
		 M108.84,13.31h6.67v-1.59h-6.67V13.31z M115.51,16.54v-1.48h-6.67v1.48H115.51z M110.75,25.78c1.99,0.78,3.66,1.57,5.03,2.35
		l-1.91,1.94c-1.13-0.78-2.75-1.65-4.87-2.6L110.75,25.78z M118.03,11.73v1.59h6.78v-1.59H118.03z M124.81,16.54v-1.48h-6.78v1.48
		H124.81z M118.03,18.4v1.67c2.19-0.11,4.35-0.22,6.48-0.33c-0.18-0.24-0.36-0.46-0.52-0.66l1.09-0.68H118.03z"/>
	<path d="M144.25,5.11l0.96,2.54c-1.37,0.46-2.92,0.85-4.65,1.18v3.66h5.09v2.52h-5.09v0.22c1.8,1.73,3.61,3.67,5.41,5.82
		l-1.56,2.32c-1.51-2.21-2.8-3.95-3.86-5.22v12.44h-2.52V18.67c-0.51,1.19-0.98,2.12-1.39,2.82c-0.91,1.55-2.05,3.05-3.42,4.51
		l-1.48-2.52c1.35-1.2,2.52-2.64,3.53-4.32c0.73-1.2,1.38-2.59,1.94-4.16h-4.92v-2.52h5.74V9.26c-1.48,0.22-3.06,0.4-4.76,0.55
		l-0.55-2.54C137.06,6.92,140.89,6.2,144.25,5.11z M147.39,7.08h2.62V24.9h-2.62V7.08z M153.22,30.26h-4.32l-0.63-2.84
		c1.68,0.13,3.06,0.19,4.16,0.19c0.77,0,1.15-0.23,1.15-0.68V5h2.73v22.42c0,1.04-0.23,1.77-0.68,2.19
		C155.19,30.05,154.38,30.26,153.22,30.26z"/>
	<path class="st1" d="M164.13,26.22h-2.79V6.34h2.79V26.22z"/>
	<path class="st1" d="M169.05,6.34h2.53l9.72,15.37l-0.33,0.36V6.34h2.76V26.2h-2.56l-9.69-15.13l0.33-0.36V26.2h-2.76V6.34z"/>
	<path class="st1" d="M188.65,6.34h2.79v19.88h-2.79V6.34z M190.09,15.85h6.36c0.6,0,1.13-0.14,1.59-0.42s0.81-0.68,1.06-1.2
		s0.38-1.12,0.38-1.79c0-0.68-0.12-1.29-0.38-1.8s-0.6-0.92-1.06-1.21s-0.98-0.43-1.59-0.43h-6.36V6.34h6.26
		c1.18,0,2.23,0.25,3.13,0.76s1.6,1.22,2.1,2.14c0.5,0.92,0.75,1.99,0.75,3.2s-0.25,2.28-0.75,3.19s-1.2,1.62-2.1,2.13
		s-1.95,0.75-3.13,0.75h-6.26V15.85z"/>
	<path class="st1" d="M208.6,26.22h-2.79V6.34h2.79V26.22z"/>
	<path d="M240.13,4.89c0.35,0.93,0.67,1.97,0.98,3.12H245v2.3h-10.39v-2.3h3.91c-0.31-0.98-0.67-1.89-1.07-2.71L240.13,4.89z
		 M243.85,20.37v6.51c0.78-1.82,1.3-3.75,1.56-5.8l2.21,0.57c-0.27,2.3-0.82,4.51-1.64,6.64l-2.13-0.71v0.88h-5.91v2.02h-2.52V20.37
		H243.85z M235.59,12.22h8.2v2.19h-8.2V12.22z M235.59,16.26h8.2v2.19h-8.2V16.26z M237.94,26.16h3.39v-3.5h-3.39V26.16z
		 M246.61,9.81l2.21,0.57c-0.27,1.59-0.82,3.11-1.64,4.57l-2.41-0.79C245.71,12.81,246.32,11.36,246.61,9.81z M255.99,17.9
		c-0.89,0-1.65-0.04-2.27-0.11l-0.41-2.3c1.35,0.11,2.13,0.16,2.35,0.16c0.51,0,0.85-0.18,1.01-0.55c0.31-0.27,0.54-2.42,0.68-6.45
		h-4.24c-0.18,2.62-0.76,4.76-1.72,6.4c-0.95,1.64-2.61,3.17-4.98,4.59L245,17.41c1.95-0.98,3.38-2.14,4.29-3.47
		c0.86-1.26,1.36-3.02,1.5-5.28h-5.14v-2.3h14.25c-0.22,5.76-0.47,8.89-0.77,9.38c-0.2,0.73-0.54,1.24-1.01,1.53
		C257.72,17.64,257.01,17.85,255.99,17.9z M254.07,28.08c0.29,0,0.5-0.11,0.63-0.33c0.16-0.22,0.27-1.24,0.33-3.06l2.32,0.77
		c-0.18,2.37-0.49,3.76-0.93,4.18c-0.36,0.42-1.04,0.63-2.02,0.63h-4.02c-0.73,0-1.31-0.21-1.75-0.63c-0.46-0.42-0.68-0.98-0.68-1.7
		v-6.86h2.41v6.15c0,0.56,0.32,0.85,0.96,0.85H254.07z M252.32,17.8c0.93,1.35,1.73,2.79,2.41,4.32l-2.27,1.04
		c-0.69-1.73-1.47-3.27-2.32-4.62L252.32,17.8z M258.56,20.2c0.89,2.04,1.66,4.21,2.3,6.51l-2.27,1.04
		c-0.66-2.55-1.4-4.82-2.24-6.81L258.56,20.2z"/>
	<path d="M268.13,4.89c0.27,0.89,0.54,1.9,0.79,3.01h3.75v2.3h-10.06V7.9h3.75c-0.25-0.93-0.56-1.8-0.9-2.6L268.13,4.89z
		 M263.48,12.11h7.98v1.37c1.28-0.66,2.32-1.28,3.14-1.86c-0.53-0.56-1.15-1.15-1.86-1.75l1.53-1.48c0.77,0.58,1.45,1.15,2.05,1.7
		c0.58-0.62,1.1-1.37,1.56-2.24h-4.68V5.65h7.52c0.33,0.69,0.73,1.38,1.2,2.05c0.27-0.18,0.51-0.38,0.71-0.6
		c0.38-0.36,0.77-0.85,1.15-1.45l1.89,1.18c-0.47,0.8-0.93,1.41-1.37,1.83c-0.27,0.29-0.57,0.57-0.88,0.82
		c0.27,0.29,0.56,0.57,0.85,0.85c0.35-0.24,0.66-0.49,0.93-0.77c0.46-0.44,0.9-1.01,1.34-1.72l1.97,1.23
		c-0.55,0.91-1.08,1.61-1.59,2.11c-0.25,0.26-0.51,0.49-0.77,0.71c0.8,0.62,1.66,1.2,2.57,1.75l-1.42,1.97
		c-1.08-0.66-2.02-1.31-2.84-1.97v1.15h-8.31v-1.42c-0.93,0.75-2.02,1.5-3.28,2.24l-1.42-1.72v0.41h-7.98V12.11z M263.48,16.26h8.09
		v2.19h-8.09V16.26z M271.63,20.58v7.98h-5.58v1.91h-2.52v-9.9H271.63z M266.05,26.27h3.06v-3.39h-3.06V26.27z M277.64,24.03
		c0.53,1.06,1.03,2.31,1.5,3.77h2.13c0.57-1.17,0.97-2.39,1.2-3.66l2.65,0.36c-0.29,1.19-0.72,2.29-1.29,3.31h4.35v2.08h-15.31V27.8
		h3.72c-0.35-0.89-0.78-1.86-1.31-2.9L277.64,24.03z M273.54,16.76h13.23v6.89h-13.23V16.76z M284.34,21.57v-2.73h-8.39v2.73H284.34
		z M277.15,12.49h5.93c-0.15-0.15-0.28-0.28-0.41-0.41c-1.08-1-1.99-2.11-2.73-3.31c-0.6,1.13-1.21,2.03-1.83,2.71
		C277.84,11.83,277.52,12.16,277.15,12.49z"/>
	<path d="M305.43,17.19c0,1.7-0.78,3.14-2.35,4.32l-0.98-1.2c0.93-0.75,1.48-1.6,1.64-2.57h-1.91v-3.58h3.61V17.19z"/>
	<path d="M324.84,5.22l2.08,1.29c-0.93,1.68-1.8,3.02-2.62,4.02c0.51,1.22,0.9,2.51,1.18,3.86c0.33,2.17,0.49,4.48,0.49,6.92
		c-0.04,4.25-0.41,6.78-1.12,7.6c-0.8,0.91-2.38,1.37-4.73,1.37l-0.63-2.57c0.64,0.11,1.26,0.16,1.86,0.16
		c0.57,0,1.07-0.22,1.5-0.66c0.38-0.38,0.62-2.35,0.71-5.91c0-1.09-0.04-2.12-0.11-3.09c-1,2.1-2.18,3.86-3.53,5.28l-1.53-2.27
		c1.99-1.84,3.53-4.06,4.62-6.64c-0.13-0.55-0.26-1.08-0.41-1.59c-0.05-0.18-0.12-0.36-0.19-0.55c-0.78,0.71-1.64,1.4-2.57,2.08
		l-1.34-2.21c1-0.53,1.93-1.24,2.79-2.13c-0.66-1.09-1.48-2.18-2.46-3.25l1.75-1.7c1,1.13,1.81,2.12,2.43,2.98
		C323.63,7.36,324.24,6.37,324.84,5.22z M327.3,5.71h16.3v6.89h-11.16c-0.24,0.49-0.47,0.97-0.71,1.42h12.09
		c0,7.62-0.13,12.13-0.38,13.54c-0.2,1.11-0.57,1.83-1.12,2.16c-0.66,0.44-1.84,0.66-3.55,0.66c-0.49,0-1.03-0.03-1.61-0.08
		l-0.38-2.11c0.66,0.11,1.33,0.16,2.02,0.16c1.35,0,2.1-0.45,2.24-1.34c0.27-1.11,0.44-4.75,0.49-10.91h-11.16
		c-0.44,0.6-0.95,1.22-1.53,1.86h3.45v-1.37h2.41v1.37h4.7v5.69h-4.7v2.16c0.82-0.09,1.59-0.2,2.32-0.33
		c-0.15-0.33-0.3-0.65-0.46-0.96l1.83-0.6c0.62,1.06,1.18,2.27,1.67,3.64l-2.02,0.52c-0.09-0.27-0.18-0.55-0.27-0.82
		c-2.22,0.51-5.68,0.97-10.36,1.37l-0.36-2.3c1.86-0.04,3.61-0.13,5.25-0.27v-2.41h-4.59v-4.54c-0.27,0.26-0.56,0.51-0.85,0.77
		l-0.57-2.62c1.59-1.33,2.83-2.88,3.72-4.65h-2.68V5.71z M332.11,10.52V7.79h-2.52v2.73H332.11z M332.28,21.79v-1.97h-2.38v1.97
		H332.28z M336.71,10.52V7.79h-2.52v2.73H336.71z M337.2,21.79v-1.97h-2.52v1.97H337.2z M341.3,10.52V7.79h-2.52v2.73H341.3z"/>
	<path d="M350.9,11.18h17.45v2.3h-5.82c-0.71,0.6-1.46,1.14-2.24,1.61c0.98,1.2,1.7,2.42,2.13,3.66c2.06-0.91,4-2.25,5.82-4.02
		l2,1.97c-1.15,1.04-2.38,1.94-3.69,2.71c0.62,1.46,1.37,2.8,2.24,4.02c0.88,1.17,2.09,2.42,3.64,3.77l-1.83,2.3
		c-1.75-1.64-3.15-3.3-4.21-4.98c-0.77-1.17-1.44-2.5-2.02-3.99c-0.4,0.2-0.81,0.37-1.23,0.52c0.25,1.19,0.38,2.36,0.38,3.53
		c0,2.13-0.33,3.65-0.98,4.57c-0.64,0.97-2.62,1.45-5.93,1.45l-0.9-2.71c0.09,0.09,0.6,0.14,1.53,0.14c1.51,0,2.45-0.18,2.82-0.55
		c0.49-0.53,0.74-1.49,0.74-2.9c0-0.4-0.03-0.8-0.08-1.2c-1.57,1.24-3,2.17-4.29,2.79c-2.04,1.08-4.61,2.11-7.71,3.12l-1.42-2.43
		c3.06-0.82,5.72-1.79,7.98-2.9c1.88-0.93,3.52-2.02,4.92-3.28c-0.05-0.2-0.11-0.41-0.16-0.63c-0.07-0.25-0.16-0.51-0.25-0.77
		c-1.53,1.09-2.9,1.91-4.1,2.43c-1.8,0.84-4.07,1.65-6.81,2.43l-1.37-2.32c2.7-0.62,5.05-1.37,7.05-2.24
		c1.57-0.67,2.95-1.47,4.16-2.38c-0.2-0.35-0.41-0.67-0.63-0.98c-2.44,1.06-5.27,1.95-8.48,2.68l-1.45-2.35
		c3.48-0.66,6.21-1.34,8.18-2.05c0.88-0.31,1.69-0.65,2.43-1.01h-7.85V11.18z M359.89,4.89c0.35,0.64,0.67,1.33,0.98,2.08h10.83
		v5.69h-2.52V9.37h-19.14v3.28h-2.52V6.97h10.36c-0.31-0.56-0.65-1.1-1.01-1.61L359.89,4.89z"/>
	<path d="M380.35,4.89c0.4,0.93,0.79,1.97,1.18,3.12h3.91v2.3h-10.61v-2.3h4.1c-0.38-0.98-0.8-1.89-1.26-2.71L380.35,4.89z
		 M384.29,20.37v8.09h-6.12v2.02h-2.52V20.37H384.29z M375.81,12.22h8.53v2.19h-8.53V12.22z M375.81,16.26h8.53v2.19h-8.53V16.26z
		 M378.16,26.16h3.61v-3.5h-3.61V26.16z M396.86,5.6v6.43c0,0.69,0.35,1.04,1.04,1.04h2.19v2.54h-2.82c-1.08,0-1.86-0.23-2.35-0.68
		c-0.53-0.46-0.79-1.26-0.79-2.41V7.9h-4.21c-0.05,1.88-0.22,3.24-0.49,4.07c-0.33,1.09-1.19,2.38-2.6,3.86l-2.05-1.78
		c1.17-1.28,1.9-2.29,2.19-3.04c0.22-0.69,0.33-2.5,0.33-5.41H396.86z M385.9,16.21h12.11v1.97c-0.66,2.81-1.78,5.23-3.36,7.27
		c1.57,0.95,3.53,1.77,5.88,2.46l-1.67,2.46c-2.61-0.91-4.68-1.9-6.21-2.95c-1.59,1.22-3.7,2.28-6.34,3.17l-1.53-2.32
		c2.37-0.75,4.27-1.61,5.71-2.6c-1.6-1.53-2.93-3.31-3.96-5.33l2.3-1.34c0.98,1.99,2.23,3.62,3.75,4.89
		c1.26-1.48,2.18-3.27,2.76-5.39h-9.43V16.21z"/>
	<path d="M408.68,4.89c0.55,0.93,1.07,1.97,1.56,3.12h4.62v2.3h-12.03v-2.3h4.81c-0.49-0.98-1.04-1.89-1.64-2.71L408.68,4.89z
		 M403.81,12.33h10.09v2.19h-10.09V12.33z M403.81,16.26h10.09v2.19h-10.09V16.26z M406.38,28.46v2.02h-2.52V20.37h9.73v9.71h-2.52
		v-1.61H406.38z M411.08,26.16v-3.5h-4.7v3.5H411.08z M415.29,12.82h5.3V4.89h2.73v7.93h5.41v2.52h-5.41v15.26h-2.73V15.33h-5.3
		V12.82z"/>
	<path d="M436.59,5l2.54,0.36c-0.31,1.44-0.76,2.76-1.34,3.96h3.96v5.88c0.82-1.37,1.45-2.71,1.89-4.02
		c0.57-1.57,1.02-3.66,1.37-6.29l2.76,0.46c-0.25,1.46-0.5,2.74-0.74,3.86h8.61c0,9.86-0.16,15.71-0.46,17.53
		c-0.24,1.44-0.69,2.37-1.37,2.79c-0.78,0.56-2.22,0.85-4.32,0.85c-0.6,0-1.3-0.04-2.11-0.11l-0.49-2.73
		c0.86,0.11,1.73,0.16,2.62,0.16c1.71,0,2.67-0.57,2.87-1.72c0.35-1.46,0.56-6.21,0.63-14.25h-6.67c-0.05,0.2-0.11,0.38-0.16,0.55
		c-0.6,2.01-1.64,4.14-3.12,6.4l-1.31-1.61v11.46h-2.41v-1.37h-5.14v2.13h-2.41V9.32h3.47C435.88,7.95,436.32,6.51,436.59,5z
		 M434.21,17.14h5.14v-5.52h-5.14V17.14z M434.21,24.85h5.14v-5.52h-5.14V24.85z M447.29,15.5c1.57,2.55,2.79,4.75,3.66,6.59
		l-2.62,1.83c-0.78-2.04-1.88-4.38-3.28-7L447.29,15.5z"/>
	<path d="M462.65,12.93h17.94v2.52h-7.71v4.21h8.15v2.41h-8.15v5c1.44,0.24,3.34,0.36,5.71,0.36c1.93,0,3.91-0.07,5.93-0.22
		l-0.52,2.73c-6.82,0-11.15-0.25-12.99-0.74c-1.46-0.29-2.96-0.99-4.51-2.11c-0.86-0.6-1.6-1.35-2.24-2.24
		c-0.78,1.75-2.04,3.59-3.77,5.52l-1.89-2.32c1.53-1.59,2.66-3.14,3.39-4.68c0.77-1.44,1.38-3.37,1.83-5.8l2.65,0.44
		c-0.36,1.6-0.74,2.99-1.12,4.16c0.86,1.51,1.93,2.64,3.23,3.39c0.47,0.29,0.99,0.54,1.56,0.74V15.44h-7.49V12.93z M472.22,4.89
		c0.36,0.75,0.7,1.57,1.01,2.46h10.53v6.62h-2.62v-4.1h-19.03v4.1h-2.62V7.35h10.8c-0.33-0.71-0.68-1.38-1.07-2L472.22,4.89z"/>
	<path d="M492.51,4.78l2.3,1.07c-0.69,2.17-1.4,4.03-2.13,5.58v18.95h-2.52V15.61c-0.77,1.11-1.6,2.21-2.52,3.28l-0.93-3.06
		c1.18-1.53,2.23-3.1,3.14-4.7C490.77,9.67,491.65,7.55,492.51,4.78z M493.61,26.38h18.81v2.52h-18.81V26.38z M494.34,10.74h17.31
		v2.52h-17.31V10.74z M498.42,14.19c1.38,2.95,2.62,6.33,3.72,10.12l-2.76,0.71c-0.89-3.46-2.05-6.8-3.47-10.01L498.42,14.19z
		 M500.71,5c1.73,1.2,3.19,2.39,4.38,3.55l-1.91,1.91c-0.97-1.17-2.37-2.42-4.21-3.77L500.71,5z M507.28,14.19l2.62,0.71
		c-0.88,3.76-2.01,7.2-3.39,10.34l-2.62-0.96C505.2,21.63,506.33,18.27,507.28,14.19z"/>
	<path d="M516,12.11c1.57,0.69,3,1.52,4.29,2.49l-1.75,2.65c-1.31-1.22-2.66-2.19-4.05-2.9L516,12.11z M519.06,18.67l2.21,1.64
		c-1.22,3.87-2.62,7.22-4.18,10.06l-2.05-2.3C516.34,25.89,517.68,22.75,519.06,18.67z M517.31,5.22c1.6,0.75,3.07,1.65,4.4,2.71
		l-1.75,2.65c-1.35-1.31-2.73-2.35-4.16-3.12L517.31,5.22z M537.74,5.6v7.33h1.91v6.18h-2.08v8.48c0,0.95-0.24,1.66-0.71,2.13
		c-0.4,0.44-0.98,0.66-1.72,0.66h-3.34l-0.57-2.52l2.84,0.11c0.58-0.04,0.88-0.41,0.88-1.12v-1.01h-9.52v4.76h-2.62V19h-2.08v-6.07
		h1.91V5.6H537.74z M523.14,16.7h14.11v-1.48h-14.11V16.7z M525.16,12.93h2.79V9.32h7.27V7.9h-10.06V12.93z M525.43,20.31h9.52
		v-1.42h-9.52V20.31z M525.43,23.76h9.52v-1.48h-9.52V23.76z M530.57,12.93h4.65v-1.75h-4.65V12.93z"/>
	<path d="M543.26,6.91h4.98v-1.8h2.52v1.8h4.65v2.3h-4.65v1.86h4.43V23.1h-4.43v1.8h4.43v1.42c0.93-1.79,1.61-3.64,2.05-5.55
		c0.49-1.95,0.77-4.75,0.82-8.39h-2.43V9.87h2.46V4.89h2.52v4.98h4.81l-0.85,15.48c0,0.67,0.09,1.13,0.27,1.37
		c0.2,0.2,0.41,0.3,0.63,0.3h0.19c0.15,0,0.28-0.08,0.41-0.25c0.11-0.11,0.24-1.57,0.38-4.38l2.41,0.74
		c-0.26,3.34-0.61,5.26-1.07,5.77c-0.46,0.47-1.08,0.71-1.89,0.71h-1.59c-0.53,0-1.01-0.24-1.45-0.71c-0.49-0.57-0.74-1.43-0.74-2.6
		l0.71-13.92h-2.27c-0.07,3.65-0.38,6.72-0.93,9.21c-0.64,2.9-1.84,5.86-3.61,8.89l-2.13-1.89c0.33-0.49,0.62-0.99,0.88-1.5h-4.02
		v3.72h-2.52v-3.72h-5.3V24.9h5.3v-1.8h-4.43V11.07h4.43V9.21h-4.98V6.91z M546.21,16.1h2.02v-2.95h-2.02V16.1z M548.24,21.02v-3.06
		h-2.02v3.06H548.24z M550.75,13.15v2.95h2.02v-2.95H550.75z M552.78,21.02v-3.06h-2.02v3.06H552.78z"/>
	<path d="M571.62,23.48l2.16,0.27c-0.16,2.66-0.47,4.9-0.93,6.73l-2.46-0.77C571.01,27.78,571.42,25.71,571.62,23.48z M575.53,4.89
		l2.41,0.85c-0.93,2.46-1.97,4.66-3.12,6.59c0.89-0.07,1.74-0.16,2.54-0.27c0.6-1.2,1.22-2.5,1.86-3.88l2.32,0.9
		c-2.1,4.43-4.24,8.05-6.43,10.86c1.53-0.11,2.82-0.3,3.86-0.57c-0.24-1-0.51-1.96-0.82-2.87l2.02-0.66
		c0.64,1.75,1.21,3.75,1.72,5.99l-2.27,0.57c-0.07-0.33-0.15-0.66-0.22-0.98c-1.91,0.46-4.54,0.82-7.88,1.09l-0.71-2.41
		c0.58,0,1.13-0.01,1.64-0.03c1.24-1.57,2.49-3.49,3.75-5.77c-1.57,0.22-3.29,0.44-5.17,0.66l-0.55-2.3
		c0.53-0.02,1.07-0.04,1.61-0.08C573.42,10.26,574.56,7.7,575.53,4.89z M576.84,23.48c0.38,1.4,0.64,3.32,0.77,5.74l-2.35,0.27
		c-0.05-2.5-0.17-4.43-0.36-5.8L576.84,23.48z M580.12,22.72c0.67,1.9,1.18,3.63,1.53,5.2l-2.19,0.82c-0.33-1.86-0.73-3.69-1.2-5.5
		L580.12,22.72z M581.76,8.28h6.02V4.89h2.62v3.39h5.91v2.41h-5.91v3.66h5.03v2.3h-12.8v-2.3h5.14v-3.66h-6.02V8.28z M595.32,19.16
		v11.43h-2.41v-1.37h-7.44v1.37h-2.41V19.16H595.32z M585.48,26.93h7.44v-5.47h-7.44V26.93z"/>
	<path d="M598.82,10.19h3.06v-5.3h2.41v5.3h2.52v2.3h-2.52v0.82c0.97,1.2,1.91,2.5,2.84,3.88l-1.5,2.24
		c-0.51-1.11-0.96-2.05-1.34-2.82v13.97h-2.41V17.82c-0.64,1.79-1.39,3.38-2.24,4.79l-1.15-2.95c1.31-2.08,2.39-4.47,3.23-7.16h-2.9
		V10.19z M607.14,6.97h3.5V4.89h2.41v2.08h4.7V4.89h2.41v2.08h3.94v1.97h-3.94v1.26h2.95v1.86h-2.95v1.59h4.16v1.97h-7.71v1.31h6.29
		v6.73h1.53v2.08h-1.53v2.32c0,0.82-0.22,1.44-0.66,1.86c-0.37,0.38-0.9,0.57-1.61,0.57h-3.36l-0.49-2.19l2.9,0.08
		c0.55-0.04,0.82-0.37,0.82-0.98v-1.67h-9.95v4.87h-2.41v-4.87h-2.3v-2.08h2.3v-6.73h5.96v-1.31h-7.16v-1.97h3.72v-1.59h-2.62v-1.86
		h2.62V8.94h-3.5V6.97z M610.53,20.26h3.55v-1.37h-3.55V20.26z M610.53,23.65h3.55v-1.53h-3.55V23.65z M617.75,10.19V8.94h-4.7v1.26
		H617.75z M613.04,13.64h4.7v-1.59h-4.7V13.64z M616.6,18.89v1.37h3.88v-1.37H616.6z M616.6,23.65h3.88v-1.53h-3.88V23.65z"/>
</g>
<g>
	<path d="M170.65,29.56h-9.38v-1.79h2.9V9.02h-2.9V7.24h9.38v1.79h-2.9v18.75h2.9V29.56z"/>
	<path d="M189.6,7.24h7.85v1.79h-2.9v20.92h-2.07l-12.98-17.51l-1.4-2.46h-0.13l0.32,2.49v15.31h2.9v1.79h-7.85v-1.79h2.9V9.02h-2.9
		V7.24h6.38l11.16,15.02l1.66,2.74h0.16l-0.19-2.74V9.02h-2.9V7.24z"/>
	<path d="M199.49,9.02V7.24h3.32c0.96,0,1.99-0.04,3.11-0.13c1.12-0.08,2.2-0.13,3.24-0.13c1.17,0,2.32,0.11,3.44,0.33
		s2.13,0.6,3,1.13c0.87,0.53,1.58,1.24,2.12,2.12c0.54,0.88,0.81,1.98,0.81,3.3c0,1.25-0.28,2.33-0.83,3.24
		c-0.55,0.9-1.28,1.64-2.19,2.22s-1.95,1-3.13,1.28c-1.18,0.28-2.4,0.41-3.65,0.41c-0.13,0-0.32,0-0.57,0c-0.25,0-0.53,0-0.81-0.02
		c-0.29-0.01-0.56-0.03-0.81-0.05c-0.26-0.02-0.45-0.04-0.57-0.06v6.89h3.19v1.79h-9.66v-1.79h2.9V9.02H199.49z M205.96,19.07
		c0.11,0.04,0.27,0.07,0.49,0.08c0.22,0.01,0.46,0.03,0.72,0.05c0.26,0.02,0.5,0.03,0.75,0.03s0.43,0,0.56,0
		c0.83,0,1.61-0.1,2.34-0.3c0.73-0.2,1.38-0.52,1.93-0.94c0.55-0.43,0.99-0.98,1.31-1.66c0.32-0.68,0.48-1.5,0.48-2.46
		c0-1.74-0.55-3.03-1.64-3.86c-1.1-0.83-2.59-1.24-4.48-1.24c-0.57,0-1.05,0.02-1.44,0.05s-0.72,0.08-1.02,0.14V19.07z"/>
	<path d="M230.78,29.56h-9.38v-1.79h2.9V9.02h-2.9V7.24h9.38v1.79h-2.9v18.75h2.9V29.56z"/>
</g>
<g>
	<g>
		<g id="XMLID_2_">
			<g>
				<linearGradient id="SVGID_1_" gradientUnits="userSpaceOnUse" x1="-8.9433" y1="7.2509" x2="42.7225" y2="27.9173">
					<stop  offset="5.618000e-03" style="stop-color:#FF2727"/>
					<stop  offset="0.3525" style="stop-color:#FFFF00"/>
					<stop  offset="0.3814" style="stop-color:#F8EE10"/>
					<stop  offset="0.4388" style="stop-color:#E6C13A"/>
					<stop  offset="0.5185" style="stop-color:#C9797D"/>
					<stop  offset="0.5955" style="stop-color:#AA2EC3"/>
					<stop  offset="0.7367" style="stop-color:#4F66C6"/>
					<stop  offset="0.8536" style="stop-color:#0097C9"/>
					<stop  offset="1" style="stop-color:#FFFF00"/>
				</linearGradient>
				<polygon class="st2" points="30.93,19 20.43,29.5 9.93,19 20.43,8.5 				"/>
				<linearGradient id="SVGID_2_" gradientUnits="userSpaceOnUse" x1="-7.8742" y1="4.5781" x2="43.7917" y2="25.2444">
					<stop  offset="5.618000e-03" style="stop-color:#FF2727"/>
					<stop  offset="0.2129" style="stop-color:#FFFF00"/>
					<stop  offset="0.2584" style="stop-color:#F8EE10"/>
					<stop  offset="0.3488" style="stop-color:#E6C13A"/>
					<stop  offset="0.4743" style="stop-color:#C9797D"/>
					<stop  offset="0.5955" style="stop-color:#AA2EC3"/>
					<stop  offset="0.78" style="stop-color:#4F66C6"/>
					<stop  offset="0.9327" style="stop-color:#0097C9"/>
					<stop  offset="1" style="stop-color:#FFFF00"/>
				</linearGradient>
				<polygon class="st3" points="28.18,8.5 26.02,10.66 34.36,19 26.02,27.34 28.18,29.5 38.68,19 				"/>
			</g>
		</g>
	</g>
</g>
<g>
	<g>
		<linearGradient id="SVGID_3_" gradientUnits="userSpaceOnUse" x1="13.3622" y1="36.6047" x2="620.1619" y2="36.6047">
			<stop  offset="0" style="stop-color:#00B987"/>
			<stop  offset="1" style="stop-color:#FFFFFF"/>
		</linearGradient>
		<line class="st4" x1="13.36" y1="36.6" x2="620.16" y2="36.6"/>
	</g>
</g>
</svg>
