<?xml version="1.0" encoding="utf-8"?>
<!-- Generator: Adobe Illustrator 25.2.0, SVG Export Plug-In . SVG Version: 6.00 Build 0)  -->
<svg version="1.1" id="Layer_1" xmlns="http://www.w3.org/2000/svg" xmlns:xlink="http://www.w3.org/1999/xlink" x="0px" y="0px"
	 width="688.39px" height="40px" viewBox="0 0 688.39 40" style="enable-background:new 0 0 688.39 40;" xml:space="preserve">
<style type="text/css">
	.st0{enable-background:new    ;}
	.st1{fill:#FFFFFF;}
	.st2{fill:url(#SVGID_1_);}
	.st3{fill:url(#SVGID_2_);}
	.st4{fill:none;stroke:url(#SVGID_3_);stroke-width:2;stroke-miterlimit:10;stroke-dasharray:2,3,2,3,2,3;}
	.st5{fill:url(#SVGID_4_);}
	.st6{fill:url(#SVGID_5_);}
	.st7{fill:none;stroke:url(#SVGID_6_);stroke-width:2;stroke-miterlimit:10;stroke-dasharray:2,3,2,3,2,3;}
	.st8{fill:url(#SVGID_7_);}
	.st9{fill:url(#SVGID_8_);}
	.st10{fill:none;stroke:url(#SVGID_9_);stroke-width:2;stroke-miterlimit:10;stroke-dasharray:2,3,2,3,2,3;}
	.st11{fill:url(#SVGID_10_);}
	.st12{fill:url(#SVGID_11_);}
	.st13{fill:none;stroke:url(#SVGID_12_);stroke-width:2;stroke-miterlimit:10;stroke-dasharray:2,3,2,3,2,3;}
	.st14{fill:url(#SVGID_13_);}
	.st15{fill:url(#SVGID_14_);}
	.st16{fill:none;stroke:url(#SVGID_15_);stroke-width:2;stroke-miterlimit:10;stroke-dasharray:2,3,2,3,2,3;}
	.st17{fill:url(#SVGID_16_);}
	.st18{fill:url(#SVGID_17_);}
	.st19{fill:none;stroke:url(#SVGID_18_);stroke-width:2;stroke-miterlimit:10;stroke-dasharray:2,3,2,3,2,3;}
	.st20{fill:url(#SVGID_19_);}
	.st21{fill:url(#SVGID_20_);}
	.st22{fill:none;stroke:url(#SVGID_21_);stroke-width:2;stroke-miterlimit:10;stroke-dasharray:2,3,2,3,2,3;}
	.st23{fill:url(#SVGID_22_);}
	.st24{fill:url(#SVGID_23_);}
	.st25{fill:none;stroke:url(#SVGID_24_);stroke-width:2;stroke-miterlimit:10;stroke-dasharray:2,3,2,3,2,3;}
	.st26{fill:url(#SVGID_25_);}
	.st27{fill:url(#SVGID_26_);}
	.st28{fill:none;stroke:url(#SVGID_27_);stroke-width:2;stroke-miterlimit:10;stroke-dasharray:2,3,2,3,2,3;}
	.st29{fill:#ABABAB;}
	.st30{fill:url(#SVGID_28_);}
	.st31{fill:url(#SVGID_29_);}
	.st32{fill:none;stroke:url(#SVGID_30_);stroke-width:2;stroke-miterlimit:10;stroke-dasharray:2,3,2,3,2,3;}
	.st33{fill:url(#SVGID_31_);}
	.st34{fill:url(#SVGID_32_);}
	.st35{fill:none;stroke:url(#SVGID_33_);stroke-width:2;stroke-miterlimit:10;stroke-dasharray:2,3,2,3,2,3;}
	.st36{fill:url(#SVGID_34_);}
	.st37{fill:url(#SVGID_35_);}
	.st38{fill:none;stroke:url(#SVGID_36_);stroke-width:2;stroke-miterlimit:10;stroke-dasharray:2,3,2,3,2,3;}
	.st39{fill:url(#SVGID_37_);}
	.st40{fill:url(#SVGID_38_);}
	.st41{fill:none;stroke:url(#SVGID_39_);stroke-width:2;stroke-miterlimit:10;stroke-dasharray:2,3,2,3,2,3;}
</style>
<g class="st0">
	<path d="M48.6,5.87h24.55v2.41h-7.41v3.99h5.41v10.06h-5.47v5.03h7.77v2.52H48.41v-2.52h7.55v-5.14h-5.41v-9.95h5.41V8.28H48.6
		V5.87z M58.58,27.37h4.48v-7.33h5.47v-5.47h-5.52V8.28h-4.43v6.29h-5.52v5.36h5.52V27.37z"/>
	<path d="M77.42,12.11c1.55,0.73,2.96,1.6,4.24,2.6l-1.67,2.54c-1.29-1.26-2.63-2.25-4.02-2.98L77.42,12.11z M79.36,19l2.3,1.18
		c-0.97,4.23-2.15,7.77-3.55,10.64l-2.02-1.86C77.26,26.36,78.36,23.04,79.36,19z M78.68,5.44c1.44,0.73,2.76,1.6,3.96,2.6
		l-1.59,2.43c-1.22-1.24-2.48-2.22-3.77-2.95L78.68,5.44z M82.89,11.56l2.05,0.27c-0.25,3.17-0.75,5.85-1.48,8.04l-2.35-0.74
		C82.02,16.78,82.62,14.26,82.89,11.56z M85.54,4.89h2.52v9.84c0,3.54-0.3,6.45-0.9,8.75c-0.58,2.28-1.7,4.61-3.34,7l-2.16-1.89
		c1.46-1.84,2.49-3.83,3.09-5.96c0.53-1.73,0.79-4.37,0.79-7.9V4.89z M90.35,11.67c0.35,1.82,0.58,4.28,0.71,7.38l-2.13,0.27
		c-0.05-3.19-0.18-5.67-0.38-7.44L90.35,11.67z M91.5,5.98h2.65v23.41H91.5V5.98z M96.42,11.78c0.36,2.26,0.69,4.71,0.98,7.36
		l-2.24,0.19c-0.16-2.75-0.36-5.19-0.6-7.3L96.42,11.78z M97.68,5h2.73v25.48h-2.73V5z"/>
	<path d="M104.19,5.71h25.27v2.3h-21.49v19.14h21.49v2.3h-21.49v0.93h-2.52V8.01h-1.26V5.71z M109.33,18.12h8.2v7.33h-8.2V18.12z
		 M115.35,23.26v-2.95h-3.83v2.95H115.35z M111.85,9.81h13.34v6.67h-13.34V9.81z M122.78,14.29V12h-8.53v2.3H122.78z M119.83,18.12
		h8.64v7.33h-8.64V18.12z M126.28,23.26v-2.95h-4.27v2.95H126.28z"/>
	<path d="M133.58,11.78c1.5,0.73,2.85,1.6,4.07,2.6l-1.75,2.65c-1.24-1.26-2.52-2.26-3.83-3.01L133.58,11.78z M135.58,18.45
		l2.41,1.23c-1.02,4.27-2.29,7.83-3.8,10.69l-2.11-1.97C133.34,25.82,134.5,22.5,135.58,18.45z M134.02,5.33
		c1.42,0.64,2.71,1.39,3.86,2.27l-1.72,2.65c-1.18-1.13-2.4-2.02-3.64-2.68L134.02,5.33z M139.98,24.36l2.16,1.04
		c-0.82,1.93-1.8,3.59-2.93,4.98l-2.32-1.67C138.04,27.46,139.07,26.02,139.98,24.36z M138.48,5.71h9.19v18.27h-9.19V5.71z
		 M140.99,10.85h4.16V8.01h-4.16V10.85z M140.99,16.1h4.16v-2.95h-4.16V16.1z M145.15,21.68V18.4h-4.16v3.28H145.15z M145.72,24.25
		c1.22,1.6,2.18,2.98,2.87,4.13l-2.41,1.7c-0.6-1.33-1.44-2.83-2.52-4.51L145.72,24.25z M149.47,6.75h2.62v17.72h-2.62V6.75z
		 M153.65,30.15h-2.95l-0.55-2.62c1.09,0.11,2,0.16,2.71,0.16c0.77,0,1.15-0.2,1.15-0.6V4.89h2.73v22.64c0,0.97-0.23,1.64-0.68,2.02
		C155.62,29.95,154.82,30.15,153.65,30.15z"/>
	<path d="M165.49,4.89c0.27,0.93,0.54,1.97,0.79,3.12h3.86v1.64h7.9c-0.04-1.51-0.06-3.1-0.08-4.76h2.52
		c0.02,1.7,0.05,3.28,0.08,4.76h4.46v2.52h-4.4c0.16,4.76,0.47,8.33,0.93,10.72c0.51,3.06,1.03,4.59,1.56,4.59
		c0.2,0,0.42-1.4,0.66-4.21l2.02,1.97c-0.67,3.35-1.59,5.03-2.73,5.03c-0.88,0-1.63-0.53-2.27-1.59c-0.71-0.98-1.29-2.93-1.75-5.82
		c-0.46-2.37-0.77-5.93-0.93-10.69h-8.18V10.3h-9.95v-2.3h3.75c-0.25-0.98-0.56-1.89-0.9-2.71L165.49,4.89z M163.31,28.46v2.02
		h-2.52V20.37h8.2v9.46h-2.52v-1.37H163.31z M160.96,12.22h8.09v2.19h-8.09V12.22z M160.96,16.26h8.09v2.19h-8.09V16.26z
		 M166.48,26.16v-3.5h-3.17v3.5H166.48z M169.92,15.39h7.66v2.41h-2.79v7.08c1.24-0.36,2.46-0.8,3.66-1.31v2.41
		c-2.35,0.97-5.12,1.92-8.31,2.87l-0.66-2.73c0.95-0.15,1.88-0.33,2.79-0.55v-7.77h-2.35V15.39z M183.27,5.33
		c0.71,0.89,1.34,1.84,1.89,2.84l-2.19,0.98c-0.53-1.18-1.12-2.23-1.78-3.14L183.27,5.33z"/>
	<path d="M190.27,7.84h8.42V4.89h2.62v2.95h6.12v2.41h-6.12v2.95h2.87c2.39-1.77,4.83-4.1,7.33-7l1.94,1.48
		c-1.7,2.06-3.48,3.9-5.36,5.52h5.69v2.41h-8.7c-0.35,0.24-0.67,0.47-0.98,0.71c-0.75,0.49-1.57,0.98-2.46,1.48h9.19v12.8h-2.62
		v-1.31h-12.52v1.31h-2.73v-8.97c-1.18,0.46-2.42,0.89-3.72,1.31l-1.15-2.52c4.94-1.46,9.04-3.06,12.3-4.81H188.3V13.2h10.39v-2.95
		h-8.42V7.84z M195.68,22.28h12.52v-2.3h-11.13c-0.47,0.2-0.94,0.39-1.39,0.57V22.28z M195.68,27.09h12.52v-2.62h-12.52V27.09z"/>
	<path d="M230.85,6.8h10.83V5h2.62v1.8h10.72v2.08H244.3v1.37h8.04v13.29h3.12v2.08h-25.05v-2.08h3.12V10.25h8.15V8.88h-10.83V6.8z
		 M239.21,26l1.59,1.8c-3.08,1.31-6.16,2.28-9.24,2.9l-1.15-2.41C233.78,27.8,236.72,27.04,239.21,26z M236.04,13.64h13.78v-1.42
		h-13.78V13.64z M236.04,16.92h13.78v-1.53h-13.78V16.92z M236.04,20.31h13.78v-1.64h-13.78V20.31z M236.04,23.54h13.78v-1.48
		h-13.78V23.54z M246.54,26c3.37,0.66,6.45,1.45,9.24,2.38l-1.45,2.21c-2.93-1.13-5.95-2.03-9.05-2.71L246.54,26z"/>
	<path d="M260.81,12.87l2.84,0.6c-0.69,5.45-1.67,10.14-2.93,14.05l-2.65-1.7C259.39,21.82,260.3,17.5,260.81,12.87z M274.32,27.64
		c0.38,0,0.66-0.21,0.82-0.63c0.2-0.42,0.34-2.36,0.41-5.82l2.65,0.85c-0.22,4.05-0.58,6.43-1.09,7.14
		c-0.44,0.73-1.24,1.09-2.41,1.09h-6.37c-0.84,0-1.5-0.25-2-0.74c-0.51-0.53-0.77-1.22-0.77-2.08V11.78h2.73v14.85
		c0,0.67,0.36,1.01,1.09,1.01H274.32z M270.14,5.76c2.33,2.48,4.15,4.61,5.44,6.4l-2.73,1.91c-1.22-2-2.9-4.28-5.03-6.84
		L270.14,5.76z M279.74,12.98c1.42,3.83,2.66,7.9,3.72,12.22l-2.73,1.23c-1.08-4.72-2.28-8.91-3.61-12.58L279.74,12.98z"/>
	<path d="M286.19,9.97h3.34V5h2.52v4.98h3.01v2.3h-3.01v5.33c0.93-0.49,1.86-1.04,2.79-1.64v2.79c-0.91,0.58-1.84,1.1-2.79,1.56
		v7.33c0,1-0.21,1.7-0.63,2.11c-0.4,0.42-1.13,0.63-2.19,0.63h-2.11l-0.6-2.73c0.8,0.13,1.46,0.19,1.97,0.19
		c0.69,0,1.04-0.22,1.04-0.66v-5.74c-0.98,0.4-2,0.76-3.04,1.07l-0.41-2.84c1.11-0.18,2.26-0.49,3.45-0.93v-6.45h-3.34V9.97z
		 M298.77,5l2.52,0.52c-0.53,1.59-1.05,3-1.56,4.24h11.43v2.3h-5.11v3.12h4.32v2.19h-4.32v3.28h4.43v2.19h-4.43v3.34h5.52v2.3h-12.3
		v2.13h-2.52V15.5c-0.24,0.4-0.48,0.77-0.74,1.09l-1.83-2.19C296.22,11.58,297.75,8.44,298.77,5z M303.53,15.17v-3.12h-4.27v3.12
		H303.53z M303.53,20.64v-3.28h-4.27v3.28H303.53z M299.26,26.16h4.27v-3.34h-4.27V26.16z M304.78,4.89
		c0.77,1.17,1.42,2.42,1.97,3.75l-2.41,1.07c-0.57-1.51-1.18-2.86-1.86-4.05L304.78,4.89z"/>
	<path d="M328.03,8.83c0.22,0.49,0.43,1.02,0.63,1.59h11.13v2.08h-8.2v1.37h6.67v5.25h-14.98l-0.25,1.2h16.65v1.97h-17.06
		l-0.22,1.09h16.35c-0.04,3.79-0.46,5.96-1.26,6.51c-0.42,0.47-1.86,0.71-4.32,0.71l-0.3-1.42l-0.9,0.22
		c-0.24-1.04-0.55-2.04-0.93-3.01l1.83-0.6c0.36,0.77,0.68,1.62,0.96,2.57c0.25,0.02,0.48,0.03,0.68,0.03c0.55,0,0.96-0.1,1.23-0.3
		c0.25-0.2,0.42-1.11,0.49-2.73h-16.95l1.7-6.23h-2.68c0,1.73-0.14,3.55-0.41,5.47c-0.35,1.95-0.92,3.88-1.72,5.8l-2.19-1.97
		c0.73-1.48,1.23-3.03,1.5-4.65c0.2-1.66,0.3-3.21,0.3-4.65v-8.7H326c-0.2-0.44-0.42-0.83-0.66-1.18L328.03,8.83z M314.08,6.47h6.4
		V4.89h2.52v1.59h7.44V4.89h2.52v1.59h6.84v2.08h-6.84v1.37h-2.52V8.55h-7.44v1.26h-2.52V8.55h-6.4V6.47z M320.42,25.67l1.97,0.96
		c-0.67,1.53-1.47,2.85-2.38,3.96l-2.11-1.5C318.82,28.12,319.66,26.98,320.42,25.67z M322.61,13.86v-1.37h-4.32v1.37H322.61z
		 M318.29,17.14h4.32v-1.31h-4.32V17.14z M325.07,26c0.38,1.11,0.73,2.38,1.04,3.8l-2.24,0.57c-0.22-1.29-0.49-2.53-0.82-3.72
		L325.07,26z M329.17,13.86v-1.37h-4.16v1.37H329.17z M325.02,15.83v1.31h4.16v-1.31H325.02z M329.15,25.89
		c0.42,1.02,0.79,2.19,1.12,3.5l-2.13,0.55c-0.24-1.19-0.55-2.32-0.93-3.42L329.15,25.89z M331.58,15.83v1.31h4.27v-1.31H331.58z"/>
</g>
<g>
	<g>
		<g id="XMLID_15_">
			<g>
				<linearGradient id="SVGID_1_" gradientUnits="userSpaceOnUse" x1="-8.9433" y1="7.2509" x2="42.7225" y2="27.9173">
					<stop  offset="5.618000e-03" style="stop-color:#FF2727"/>
					<stop  offset="0.3525" style="stop-color:#FFFF00"/>
					<stop  offset="0.3814" style="stop-color:#F8EE10"/>
					<stop  offset="0.4388" style="stop-color:#E6C13A"/>
					<stop  offset="0.5185" style="stop-color:#C9797D"/>
					<stop  offset="0.5955" style="stop-color:#AA2EC3"/>
					<stop  offset="0.7367" style="stop-color:#4F66C6"/>
					<stop  offset="0.8536" style="stop-color:#0097C9"/>
					<stop  offset="1" style="stop-color:#FFFF00"/>
				</linearGradient>
				<polygon class="st2" points="30.93,19 20.43,29.5 9.93,19 20.43,8.5 				"/>
				<linearGradient id="SVGID_2_" gradientUnits="userSpaceOnUse" x1="-7.8742" y1="4.5781" x2="43.7917" y2="25.2444">
					<stop  offset="5.618000e-03" style="stop-color:#FF2727"/>
					<stop  offset="0.2129" style="stop-color:#FFFF00"/>
					<stop  offset="0.2584" style="stop-color:#F8EE10"/>
					<stop  offset="0.3488" style="stop-color:#E6C13A"/>
					<stop  offset="0.4743" style="stop-color:#C9797D"/>
					<stop  offset="0.5955" style="stop-color:#AA2EC3"/>
					<stop  offset="0.78" style="stop-color:#4F66C6"/>
					<stop  offset="0.9327" style="stop-color:#0097C9"/>
					<stop  offset="1" style="stop-color:#FFFF00"/>
				</linearGradient>
				<polygon class="st3" points="28.18,8.5 26.02,10.66 34.36,19 26.02,27.34 28.18,29.5 38.68,19 				"/>
			</g>
		</g>
	</g>
</g>
<g>
	<g>
		<linearGradient id="SVGID_3_" gradientUnits="userSpaceOnUse" x1="13.3622" y1="36.6047" x2="620.1619" y2="36.6047">
			<stop  offset="0" style="stop-color:#00B987"/>
			<stop  offset="1" style="stop-color:#FFFFFF"/>
		</linearGradient>
		<line class="st4" x1="13.36" y1="36.6" x2="620.16" y2="36.6"/>
	</g>
</g>
</svg>
